<svg class="animated" id="freepik_stories-contact-us" xmlns="http://www.w3.org/2000/svg" viewBox="0 0 750 500" version="1.1" xmlns:xlink="http://www.w3.org/1999/xlink" xmlns:svgjs="http://svgjs.com/svgjs"><style>svg#freepik_stories-contact-us:not(.animated) .animable {opacity: 0;}svg#freepik_stories-contact-us.animated #freepik--background-complete--inject-33 {animation: 1s 1 forwards cubic-bezier(.36,-0.01,.5,1.38) slideDown;animation-delay: 0s;}svg#freepik_stories-contact-us.animated #freepik--Table--inject-33 {animation: 1s 1 forwards cubic-bezier(.36,-0.01,.5,1.38) slideDown;animation-delay: 0s;}svg#freepik_stories-contact-us.animated #freepik--character-2--inject-33 {animation: 1s 1 forwards cubic-bezier(.36,-0.01,.5,1.38) slideDown;animation-delay: 0s;}svg#freepik_stories-contact-us.animated #freepik--character-1--inject-33 {animation: 1s 1 forwards cubic-bezier(.36,-0.01,.5,1.38) slideDown;animation-delay: 0s;}svg#freepik_stories-contact-us.animated #freepik--speech-bubbles--inject-33 {animation: 1s 1 forwards cubic-bezier(.36,-0.01,.5,1.38) slideDown;animation-delay: 0s;}svg#freepik_stories-contact-us.animated #freepik--Devices--inject-33 {animation: 1s 1 forwards cubic-bezier(.36,-0.01,.5,1.38) slideDown;animation-delay: 0s;}            @keyframes slideDown {                0% {                    opacity: 0;                    transform: translateY(-30px);                }                100% {                    opacity: 1;                    transform: translateY(0);                }            }        </style><g id="freepik--background-complete--inject-33" class="animable animator-active" style="transform-origin: 374.915px 189.797px;"><path d="M692.37,311.22l-13.12.28-6.66.11c-2.23.05-4.47,0-6.7.06h-.44v-.45L665.39,300v-.5h.5l13.24.06c4.42,0,8.83.11,13.24.16h.28V300c0,1.9-.08,3.79-.13,5.66Zm0,0-.14-5.65c-.05-1.86-.11-3.7-.13-5.54l.27.28c-4.41.05-8.82.16-13.24.16l-13.24.06.5-.5,0,11.19-.45-.44c2.18,0,4.36,0,6.55.05L679,311Z" style="fill: rgb(235, 235, 235); transform-origin: 679.02px 305.585px;" id="el0nfq2qtlatd" class="animable"></path><path d="M677.6,325.33l-13.12.28-6.67.11c-2.22,0-4.46,0-6.69.06h-.44v-.45l0-11.19v-.5h.5l13.24.07c4.41,0,8.83.11,13.24.16h.28v.27c0,1.9-.08,3.79-.13,5.66Zm0,0-.14-5.65c-.05-1.86-.11-3.7-.13-5.54l.27.28c-4.41.05-8.83.16-13.24.16l-13.24.06.5-.5,0,11.19-.45-.44c2.18,0,4.36,0,6.55.05l6.57.12Z" style="fill: rgb(235, 235, 235); transform-origin: 664.31px 319.71px;" id="el5wzc9vs5w6" class="animable"></path><path d="M707.14,325.33l-13.12.28-6.66.11c-2.23,0-4.47,0-6.7.06h-.44v-.45l-.06-11.19v-.5h.5l13.24.07c4.42,0,8.83.11,13.24.16h.28v.27c0,1.9-.09,3.79-.13,5.66Zm0,0-.14-5.65c0-1.86-.11-3.7-.13-5.54l.27.28c-4.41.05-8.82.16-13.24.16l-13.24.06.5-.5,0,11.19-.45-.44c2.19,0,4.36,0,6.55.05l6.58.12Z" style="fill: rgb(235, 235, 235); transform-origin: 693.79px 319.71px;" id="el87titp2ypup" class="animable"></path><path d="M314.79,178.07l-13.12.28-6.66.11c-2.23,0-4.47,0-6.7,0h-.44v-.45l-.06-11.19v-.5h.5l13.24.06c4.42,0,8.83.11,13.24.16h.28v.27c0,1.9-.09,3.78-.14,5.65Zm0,0-.14-5.66c0-1.86-.11-3.7-.13-5.53l.27.27c-4.41,0-8.82.16-13.24.16l-13.24.07.5-.5-.05,11.19-.45-.45c2.18,0,4.36,0,6.55.06l6.58.11Z" style="fill: rgb(235, 235, 235); transform-origin: 301.44px 172.39px;" id="elysg94ha197r" class="animable"></path><path d="M300,192.18l-13.12.28-6.67.11c-2.22,0-4.46,0-6.69.05h-.44v-.45L273,181v-.5h.5l13.24.06c4.41,0,8.83.11,13.24.16h.28V181c0,1.9-.08,3.78-.13,5.65Zm0,0-.14-5.66c-.05-1.86-.11-3.7-.13-5.53l.27.27c-4.41.05-8.83.16-13.24.16l-13.24.07.5-.5L274,192.18l-.45-.45c2.18,0,4.36,0,6.55.06l6.57.11Z" style="fill: rgb(235, 235, 235); transform-origin: 286.63px 186.56px;" id="elqubtllvpna" class="animable"></path><path d="M329.56,192.18l-13.12.28-6.66.11c-2.23,0-4.46,0-6.7.05h-.44v-.45L302.58,181v-.5h.5l13.24.06c4.42,0,8.83.11,13.24.16h.28V181c0,1.9-.09,3.78-.13,5.65Zm0,0-.14-5.66c0-1.86-.11-3.7-.13-5.53l.27.27c-4.41.05-8.82.16-13.24.16l-13.24.07.5-.5-.05,11.19-.45-.45c2.19,0,4.36,0,6.55.06l6.58.11Z" style="fill: rgb(235, 235, 235); transform-origin: 316.21px 186.56px;" id="elxyo1yaijnrr" class="animable"></path><path d="M98.88,252.11l-13.12.28-6.67.11c-2.22,0-4.46,0-6.69.05H72v-.45l0-11.19v-.5h.5l13.24.06c4.41,0,8.83.11,13.24.16h.28v.27c0,1.9-.08,3.78-.13,5.65Zm0,0-.14-5.66c0-1.86-.11-3.7-.13-5.53l.27.27c-4.41.05-8.83.16-13.24.16l-13.24.07.5-.5-.05,11.19-.45-.45c2.18,0,4.36,0,6.55.06l6.57.11Z" style="fill: rgb(235, 235, 235); transform-origin: 85.63px 246.48px;" id="elns9a72fumc" class="animable"></path><path d="M537.86,178.06l-13.12.28-6.66.11c-2.23.05-4.47,0-6.7.05h-.44v-.45l-.06-11.19v-.5h.5l13.24.06c4.42,0,8.83.12,13.24.17h.28v.27c0,1.9-.08,3.79-.13,5.65Zm0,0-.14-5.65c-.05-1.87-.11-3.71-.13-5.54l.27.27c-4.41.05-8.82.16-13.24.17l-13.24.06.5-.5-.05,11.19-.45-.45c2.18,0,4.36,0,6.55.06l6.58.11Z" style="fill: rgb(235, 235, 235); transform-origin: 524.51px 172.43px;" id="elrdy13rvs3x" class="animable"></path><path d="M690.84,69.38l-13.12.28-6.67.11c-2.22,0-4.46,0-6.69.06h-.44v-.45l0-11.19v-.5h.5l13.24.06c4.41,0,8.83.12,13.24.17h.28v.27c0,1.9-.08,3.79-.13,5.65Zm0,0-.14-5.65c-.05-1.87-.11-3.71-.13-5.54l.27.27c-4.41,0-8.83.16-13.24.17l-13.24.06.5-.5-.05,11.19-.45-.45c2.18,0,4.36,0,6.55.06l6.57.11Z" style="fill: rgb(235, 235, 235); transform-origin: 677.55px 63.76px;" id="el647qjm6jo9a" class="animable"></path><path d="M705.61,83.49l-13.12.28-6.66.11c-2.23.05-4.47,0-6.7.05h-.44v-.45l-.06-11.19v-.5h.5l13.24.06c4.42,0,8.83.12,13.24.17h.28v.27c0,1.9-.09,3.79-.14,5.65Zm0,0-.14-5.65c0-1.87-.11-3.71-.13-5.54l.27.27c-4.41.05-8.82.16-13.24.17l-13.24.06.5-.5,0,11.19-.45-.45c2.18,0,4.36,0,6.55.06l6.58.11Z" style="fill: rgb(235, 235, 235); transform-origin: 692.26px 77.86px;" id="ellkpxuc27vde" class="animable"></path><path d="M69.34,69.39l-13.13.28-6.66.11c-2.22,0-4.46,0-6.69.06h-.45v-.45l0-11.19v-.5h.51l13.24.07c4.41,0,8.82.11,13.24.16h.27v.27c0,1.9-.09,3.79-.13,5.66Zm0,0-.15-5.65c0-1.87-.11-3.71-.13-5.54l.28.27c-4.42.06-8.83.16-13.24.17l-13.24.06.5-.5L43.3,69.39,42.86,69c2.18,0,4.35,0,6.54,0l6.58.11Z" style="fill: rgb(235, 235, 235); transform-origin: 56.04px 63.77px;" id="elyf59r13bvni" class="animable"></path><g id="freepik--ZZtZDI--inject-33" class="animable" style="transform-origin: 366.35px 172.46px;"><path d="M393.68,208.19a9.2,9.2,0,0,1-4.4,2.31c-1,.26-2.11.41-3.17.6h-3.62c-1.49-.23-3-.41-4.45-.7a41.76,41.76,0,0,1-15.1-6.56,98,98,0,0,1-29.56-30.62,38,38,0,0,1-5.1-13.2c-.22-1.23-.39-2.47-.58-3.71v-3.62c.3-1.39.54-2.8.91-4.17a7.81,7.81,0,0,1,2-3.4c.18.16.34.29.5.45q8.64,8.63,17.29,17.26a1.16,1.16,0,0,1,.34,1.31,8.58,8.58,0,0,0,1.86,8.3,176.58,176.58,0,0,0,15.77,15.78,8.63,8.63,0,0,0,8.37,1.85c.42-.11.72-.18,1.08.18q8.83,8.88,17.7,17.72C393.55,208,393.59,208.09,393.68,208.19Z" style="fill: rgb(235, 235, 235); transform-origin: 360.69px 178.11px;" id="el4m9nhz7u2rw" class="animable"></path><path d="M405,195.26v1.2a24,24,0,0,1-1.69,2.16c-1.78,1.85-3.62,3.64-5.43,5.45l-.56.53-17.78-17.77c2.33-2.3,4.65-4.65,7.05-6.94a2.65,2.65,0,0,1,3.8.2c1.34,1.3,2.64,2.63,4,3.94,3.09,3.1,6.2,6.18,9.26,9.3A15,15,0,0,1,405,195.26Z" style="fill: rgb(235, 235, 235); transform-origin: 392.27px 191.891px;" id="elqy21n65epb" class="animable"></path><path d="M358.39,152.78c-2.2,2.13-4.45,4.21-6.63,6.27l-17.64-17.63c.39-.35.84-.72,1.25-1.12,1.62-1.61,3.21-3.26,4.86-4.84a22.45,22.45,0,0,1,2.11-1.64h1.21a15.65,15.65,0,0,1,1.92,1.39q6.48,6.42,12.91,12.9C360,149.73,360,151.19,358.39,152.78Z" style="fill: rgb(235, 235, 235); transform-origin: 346.858px 146.435px;" id="el8hqa7zjef45" class="animable"></path></g><polygon points="62.76 162.59 178.49 162.59 178.49 89.17 62.76 89.17 62.76 89.17 62.76 162.59 62.76 162.59" style="fill: rgb(235, 235, 235); transform-origin: 120.625px 125.88px;" id="eltap9cp5qu1n" class="animable"></polygon><polygon points="200.14 162.59 178.49 162.59 178.49 140.04 200.14 162.59" style="fill: rgb(235, 235, 235); transform-origin: 189.315px 151.315px;" id="ele9kxto1zn" class="animable"></polygon><rect x="76.15" y="101.86" width="88.94" height="1.4" style="fill: rgb(255, 255, 255); transform-origin: 120.62px 102.56px;" id="el14wlxvjbu4c" class="animable"></rect><rect x="76.15" y="109.4" width="45.97" height="1.4" style="fill: rgb(255, 255, 255); transform-origin: 99.135px 110.1px;" id="el5jl9lsh3x2g" class="animable"></rect><rect x="76.15" y="124.47" width="71.92" height="1.4" style="fill: rgb(255, 255, 255); transform-origin: 112.11px 125.17px;" id="eld5cw0dv72y5" class="animable"></rect><rect x="76.15" y="132" width="88.94" height="1.4" style="fill: rgb(255, 255, 255); transform-origin: 120.62px 132.7px;" id="el2sko3e67zhp" class="animable"></rect><rect x="76.15" y="139.53" width="88.94" height="1.4" style="fill: rgb(255, 255, 255); transform-origin: 120.62px 140.23px;" id="elx4x0905z73o" class="animable"></rect><rect x="76.15" y="147.07" width="31.6" height="1.4" style="fill: rgb(255, 255, 255); transform-origin: 91.95px 147.77px;" id="elnow7k9lil1" class="animable"></rect><rect x="571.51" y="191.91" width="115.73" height="64.75" style="fill: rgb(219, 219, 219); transform-origin: 629.375px 224.285px;" id="elxsvka7hzqj" class="animable"></rect><polygon points="549.86 256.67 571.51 256.67 571.51 234.12 549.86 256.67" style="fill: rgb(219, 219, 219); transform-origin: 560.685px 245.395px;" id="elzu1smsbhiei" class="animable"></polygon><rect x="585.17" y="225.72" width="77.43" height="1.4" style="fill: rgb(255, 255, 255); transform-origin: 623.885px 226.42px;" id="elxzrmexkg6rg" class="animable"></rect><rect x="585.17" y="233.26" width="61.51" height="1.4" style="fill: rgb(255, 255, 255); transform-origin: 615.925px 233.96px;" id="elkbx1l8u9sze" class="animable"></rect><rect x="585.17" y="210.65" width="66.15" height="1.4" style="fill: rgb(255, 255, 255); transform-origin: 618.245px 211.35px;" id="elwkve4ijdy3j" class="animable"></rect><rect x="585.17" y="203.12" width="86.37" height="1.4" style="fill: rgb(255, 255, 255); transform-origin: 628.355px 203.82px;" id="elbnsd8uaidb" class="animable"></rect><rect x="585.17" y="240.79" width="67.89" height="1.4" style="fill: rgb(255, 255, 255); transform-origin: 619.115px 241.49px;" id="elyvjjx8ryjli" class="animable"></rect><rect x="416.26" y="123.09" width="212.51" height="9.32" style="fill: rgb(235, 235, 235); transform-origin: 522.515px 127.75px;" id="elo5d86he0fdi" class="animable"></rect><rect x="428.17" y="132.42" width="9.32" height="30.82" style="fill: rgb(235, 235, 235); transform-origin: 432.83px 147.83px;" id="el55u7c7j9ib5" class="animable"></rect><rect x="428.17" y="132.42" width="9.32" height="9.53" style="fill: rgb(219, 219, 219); transform-origin: 432.83px 137.185px;" id="elqka9o44duqm" class="animable"></rect><rect x="607.54" y="132.42" width="9.32" height="30.82" style="fill: rgb(235, 235, 235); transform-origin: 612.2px 147.83px;" id="el4ymcfvpgqmp" class="animable"></rect><rect x="607.54" y="132.42" width="9.32" height="9.53" style="fill: rgb(219, 219, 219); transform-origin: 612.2px 137.185px;" id="elvohue6opz1s" class="animable"></rect><g id="elibhznqz8smd"><rect x="433.71" y="85.92" width="59.39" height="14.96" style="fill: rgb(199, 199, 199); transform-origin: 463.405px 93.4px; transform: rotate(90deg);" class="animable"></rect></g><g id="elmn1vc5mkgmm"><rect x="460.14" y="56.31" width="6.53" height="14.96" style="fill: rgb(219, 219, 219); transform-origin: 463.405px 63.79px; transform: rotate(90deg);" class="animable"></rect></g><g id="elijkls720lv"><rect x="462.2" y="69.15" width="2.42" height="14.96" style="fill: rgb(219, 219, 219); transform-origin: 463.41px 76.63px; transform: rotate(90deg);" class="animable"></rect></g><g id="el6c1jafkaqn5"><rect x="461.08" y="103.63" width="6.53" height="16.82" style="fill: rgb(219, 219, 219); transform-origin: 464.345px 112.04px; transform: rotate(90deg);" class="animable"></rect></g><g id="eliuwp0ekw9y"><rect x="441.47" y="83.23" width="69.28" height="10.45" style="fill: rgb(219, 219, 219); transform-origin: 476.11px 88.455px; transform: rotate(90deg);" class="animable"></rect></g><g id="el4g55fd79ujk"><rect x="462.74" y="70.51" width="26.65" height="6.27" style="fill: rgb(235, 235, 235); transform-origin: 476.065px 73.645px; transform: rotate(90deg);" class="animable"></rect></g><g id="ellec20s0i8fc"><rect x="492.75" y="89.81" width="69.28" height="10.45" style="fill: rgb(199, 199, 199); transform-origin: 527.39px 95.035px; transform: rotate(44.67deg);" class="animable"></rect></g><g id="el6rha1mbgr8o"><rect x="517.69" y="95.43" width="26.65" height="6.27" style="fill: rgb(219, 219, 219); transform-origin: 531.015px 98.565px; transform: rotate(44.67deg);" class="animable"></rect></g><g id="eldy2fufnxrcu"><rect x="463.89" y="87.92" width="52.63" height="17.75" style="fill: rgb(166, 166, 166); transform-origin: 490.205px 96.795px; transform: rotate(90deg);" class="animable"></rect></g><g id="el5k8ysu1amye"><rect x="487.75" y="106.2" width="4.9" height="17.75" style="fill: rgb(199, 199, 199); transform-origin: 490.2px 115.075px; transform: rotate(90deg);" class="animable"></rect></g><g id="elcq9ao7qd1ow"><rect x="489.26" y="99.58" width="1.9" height="17.75" style="fill: rgb(199, 199, 199); transform-origin: 490.21px 108.455px; transform: rotate(90deg);" class="animable"></rect></g><g id="elclsky9ypozs"><rect x="425.07" y="92.25" width="49.46" height="12.26" style="fill: rgb(166, 166, 166); transform-origin: 449.8px 98.38px; transform: rotate(90deg);" class="animable"></rect></g><g id="elzvh9e0hsgu"><rect x="447.49" y="109.43" width="4.61" height="12.26" style="fill: rgb(199, 199, 199); transform-origin: 449.795px 115.56px; transform: rotate(90deg);" class="animable"></rect></g><g id="elx50hisfty9g"><rect x="447.49" y="80.02" width="4.61" height="12.26" style="fill: rgb(199, 199, 199); transform-origin: 449.795px 86.15px; transform: rotate(90deg);" class="animable"></rect></g><g id="elm91depagprb"><rect x="448.9" y="86.37" width="1.79" height="12.26" style="fill: rgb(199, 199, 199); transform-origin: 449.795px 92.5px; transform: rotate(90deg);" class="animable"></rect></g><polygon points="606.43 100.05 605.1 103.58 604.28 105.73 602.94 109.27 597.72 123.1 569.49 123.1 564.25 109.27 562.91 105.73 562.1 103.58 560.76 100.05 571.18 84.86 565.78 74.85 601.44 74.85 596.01 84.86 606.43 100.05" style="fill: rgb(219, 219, 219); transform-origin: 583.595px 98.975px;" id="elr1d3qhnq6t" class="animable"></polygon><polygon points="606.43 100.05 605.1 103.58 562.1 103.58 560.76 100.05 606.43 100.05" style="fill: rgb(166, 166, 166); transform-origin: 583.595px 101.815px;" id="elahi7865tptl" class="animable"></polygon><polygon points="604.28 105.73 602.94 109.27 564.25 109.27 562.91 105.73 604.28 105.73" style="fill: rgb(166, 166, 166); transform-origin: 583.595px 107.5px;" id="elud4e4bx56fm" class="animable"></polygon></g><g id="freepik--Table--inject-33" class="animable" style="transform-origin: 375px 392.635px;"><polygon points="55.82 392.63 135.62 392.39 215.41 392.3 375 392.14 534.59 392.3 614.38 392.39 694.18 392.63 614.38 392.88 534.59 392.97 375 393.13 215.41 392.97 135.62 392.88 55.82 392.63" style="fill: rgb(38, 50, 56); transform-origin: 375px 392.635px;" id="elap0zda60ou6" class="animable"></polygon></g><g id="freepik--character-2--inject-33" class="animable" style="transform-origin: 481.756px 281.991px;"><polygon points="366.34 392.61 489 392.61 464.55 250.34 372.82 250.34 366.34 392.61" style="fill: rgb(219, 219, 219); transform-origin: 427.67px 321.475px;" id="elh4e3rv6vzaf" class="animable"></polygon><polygon points="366.34 392.61 377.1 392.61 383.13 250.34 372.82 250.34 366.34 392.61" style="fill: rgb(166, 166, 166); transform-origin: 374.735px 321.475px;" id="elwa6rd5wqwed" class="animable"></polygon><path d="M472.92,278.23c13.88,31,47.42,82.45,62.43,69.7C557.8,328.87,573,286.71,579,269.66c3.37-9.55-45.28-25.53-48.26-16.86-4.24,12.32-10.89,38.07-14.74,41.72-2,1.91-17.94-20.46-30-31.07C468.59,248.16,468.49,268.33,472.92,278.23Z" style="fill: rgb(173, 99, 89); transform-origin: 524.82px 300.114px;" id="ela14qg3pe9yh" class="animable"></path><path d="M591.15,255.31c-4.33,9.74-21,26.21-26.54,28.64s-34.8-24-34.19-30.22,18.07-38.8,27.74-43.8S595.64,245.21,591.15,255.31Z" style="fill: rgb(173, 99, 89); transform-origin: 561.024px 246.805px;" id="elbbnf9hwsnm" class="animable"></path><path d="M532.71,246.89s.7-13.86-2.8-25.58c-2.94-9.85-8.41-24.14-3.18-25.92,10.76-3.65,24.4,32,24.4,32s3.5,16.7-6.83,21.26C537.82,251.51,532.71,246.89,532.71,246.89Z" style="fill: rgb(173, 99, 89); transform-origin: 538.128px 222.356px;" id="el2bho1opdj8x" class="animable"></path><path d="M544.84,220.6c.7,5.61,6.91,1.57,6.91,1.57s-7.53,8-4.57,13.47c2.88,5.29,10.2.14,10.73-.22-.4.43-7.12,7.93-3.57,13.15,3.69,5.42,10.15-1,10.57-1.42-.25.51-3.39,7.42.21,10.78,6.18,5.75,14.7-11.69,21.26-13.64,0,0,4.58,10.73,4.77,11,0,0,8.45-16.44,5.33-25.14a5.91,5.91,0,0,0-6.25-3.95s3.31-5,.65-9.2c-1.38-2.15-6-1.87-6-1.87s2.48-4.11-.12-7.69c-2.07-2.87-6.42-2.14-6.42-2.14s.55-5.06-2.51-7.3C569.61,193.48,543.33,208.59,544.84,220.6Z" style="fill: rgb(173, 99, 89); transform-origin: 570.974px 228.134px;" id="el421iquwtfct" class="animable"></path><path d="M577.59,205.33c.09-.05,0-.18-.05-.15-9.86,2.86-19.81,9-26.15,17.17-.21.27.13.72.42.47C560,215.67,567.75,210,577.59,205.33Z" style="fill: rgb(38, 50, 56); transform-origin: 564.477px 214.034px;" id="elq1d0pk588uk" class="animable"></path><path d="M584.94,215c.11-.05,0-.23-.09-.2-10.15,3-21.16,10.26-27.37,20.51-.21.35-.05.88.23.5C562.35,229.33,576.06,219.17,584.94,215Z" style="fill: rgb(38, 50, 56); transform-origin: 571.185px 225.369px;" id="elbhoivp2cpy4" class="animable"></path><path d="M564.72,248c6.33-9.6,15.1-16.21,25.09-21.7.12-.07,0-.24-.11-.21-5.62,1.35-11.62,5.51-16,9.15a30.21,30.21,0,0,0-9.3,12.54C564.31,248,564.59,248.22,564.72,248Z" style="fill: rgb(38, 50, 56); transform-origin: 577.121px 237.089px;" id="elz13pej531jj" class="animable"></path><path d="M551.55,222.16c-.25.32.5.33.26.66-1,1.38-6.35,10.23-3.9,13,2,2.21,6.29,1.09,7.79,0l3.75-2.71L556.87,237a19.13,19.13,0,0,0-2.6,5.57,6.75,6.75,0,0,0,.51,5.52,3.86,3.86,0,0,0,4.55,1.75,11.63,11.63,0,0,0,4.89-3.25l3.8-4-2.28,5a18.12,18.12,0,0,0-1.37,4.34,7.36,7.36,0,0,0,.33,4.22,3.49,3.49,0,0,0,3,2.09,7.71,7.71,0,0,0,4-1.62,61.15,61.15,0,0,0,7.09-6.35c1.15-1.12,2.3-2.25,3.51-3.33a11.48,11.48,0,0,1,4-2.6,12.22,12.22,0,0,0-3.74,2.93c-1.11,1.15-2.17,2.35-3.23,3.56a52.71,52.71,0,0,1-6.9,6.87,9.11,9.11,0,0,1-4.74,2.09,5,5,0,0,1-4.59-2.91,9,9,0,0,1-.55-5.23,19.34,19.34,0,0,1,1.45-4.85l1.52,1a13.49,13.49,0,0,1-5.74,3.9,5.6,5.6,0,0,1-3.8-.14,6.37,6.37,0,0,1-2.84-2.45,8.57,8.57,0,0,1-.64-7,20.35,20.35,0,0,1,2.95-6.07l1.17,1.14c-2,1.3-6.64,3.08-10.13.05C542.63,232.54,550.08,223.68,551.55,222.16Z" style="fill: rgb(38, 50, 56); transform-origin: 565.846px 240.975px;" id="elcct9lfi4l56" class="animable"></path><path d="M551.75,222.17a11.61,11.61,0,0,1-3.38.79,2.62,2.62,0,0,1-2.42-1.11,5.34,5.34,0,0,1-.55-3c.06-1.14.18-2.33.36-3.56a8.87,8.87,0,0,0-1.58,3.39,5.24,5.24,0,0,0,.45,4,3.8,3.8,0,0,0,1.77,1.38,3.88,3.88,0,0,0,2.13.08A6.12,6.12,0,0,0,551.75,222.17Z" style="fill: rgb(38, 50, 56); transform-origin: 547.861px 219.771px;" id="elt9ij926qcu" class="animable"></path><path d="M527.78,253.73,578.42,289s-30.25,62.67-48.94,62.5-45.69-47.11-55-67.4-3.76-37.48,15.08-19,25.59,26.1,26.2,25.85C516.9,290.49,527.78,253.73,527.78,253.73Z" style="fill: rgb(240, 255, 39); transform-origin: 524.238px 302.615px;" id="elziv5g7cmtqn" class="animable"></path><path d="M578.42,289s-21,43.46-38.79,57.9c-3.57,2.9-7,4.63-10.15,4.59-18.69-.16-45.69-47.11-55.05-67.39-5.79-12.56-5.84-23.93-.58-26.38,3.25-1.51,8.5.35,15.67,7.41,19,18.61,25.58,26.09,26.2,25.84,1.18-.48,12.07-37.23,12.07-37.23Z" style="fill: rgb(240, 255, 39); transform-origin: 524.206px 302.615px;" id="eld9h4mo0sgit" class="animable"></path><path d="M547.08,339.5c-.62.72-1.25,1.42-1.88,2.1a47.72,47.72,0,0,1-18.76,6.87,39.43,39.43,0,0,1-5.54.22l-1.15-.72a38.53,38.53,0,0,0,6.62-.17,33.58,33.58,0,0,0,7.71-1.78l1.89-.62,1.83-.77c.61-.26,1.24-.48,1.83-.78l1.77-.9A49.11,49.11,0,0,0,547.08,339.5Zm-38.42-55.21A54.07,54.07,0,0,0,493.09,295a82.13,82.13,0,0,0-8.11,9.29c.12.22.25.45.39.67a81,81,0,0,1,8.23-9.43,54.08,54.08,0,0,1,12.81-9.33l1.77-.9a10,10,0,0,1,1-.44Zm43.74,3.19a80.45,80.45,0,0,0-15-5.57c-.54-.13-1.08-.26-1.63-.37-.35-.08-.71-.16-1.06-.22a43,43,0,0,0-13.3-.68c-.65.09-1.29.19-1.94.31-.07.23-.15.47-.22.69.74-.13,1.49-.24,2.24-.33a42.38,42.38,0,0,1,12.36.51l1.09.2c.77.16,1.54.33,2.31.52A79.82,79.82,0,0,1,552.13,288a200.82,200.82,0,0,1,20.74,11.75c.1-.17.19-.34.27-.5A200,200,0,0,0,552.4,287.48Zm5.25-12.94a49.35,49.35,0,0,0-23,6.78l-.86.5a55.83,55.83,0,0,0-5.11,3.46c-8.57,6.52-15.41,14.9-21.92,23.33-3.26,4.23-6.46,8.49-9.84,12.61-.24.3-.49.59-.74.89l.38.55c.29-.34.58-.68.86-1,3.4-4.13,6.61-8.39,9.88-12.61,6.51-8.4,13.34-16.72,21.82-23.15a55.52,55.52,0,0,1,5.76-3.85c.27-.17.55-.33.83-.48a51.33,51.33,0,0,1,7.26-3.36l1.87-.68c.62-.22,1.27-.37,1.91-.56l1.91-.53,2-.39a33.62,33.62,0,0,1,7.87-.82h.12Zm-62.15-3.49a53,53,0,0,1-10.89,3.49l-1.95.38c-.65.12-1.31.16-2,.25l-2,.23-2,.08a31.34,31.34,0,0,1-5.48-.1l.18.66a50.34,50.34,0,0,0,24.63-4.44C495.88,271.41,495.69,271.23,495.5,271.05Zm-14.42-12.42a115.43,115.43,0,0,1-11,6.61c0,.27,0,.54,0,.82A112,112,0,0,0,481.78,259C481.54,258.87,481.31,258.74,481.08,258.63Z" style="fill: rgb(255, 255, 255); transform-origin: 521.61px 303.669px;" id="el5g86c0qyqox" class="animable"></path><path d="M566.45,294.88c-1.34-1.11-2.69-2.19-4.05-3.27q-4.14-3.27-8.28-6.51c-5.5-4.29-11.12-8.43-16.78-12.5-3.21-2.32-6.37-4.76-9.68-6.93a.15.15,0,0,0-.18.24c2.63,2.32,5.45,4.44,8.18,6.65s5.44,4.43,8.21,6.59q8.26,6.42,16.72,12.59c1.57,1.16,3.12,2.38,4.75,3.47.83.56,1.62,1.18,2.46,1.72s1.74,1,2.56,1.61a.09.09,0,0,0,.11-.14C569.1,297.25,567.82,296,566.45,294.88Z" style="fill: rgb(38, 50, 56); transform-origin: 548.958px 282.096px;" id="elreg72far4h" class="animable"></path><path d="M516.15,289.83a128.12,128.12,0,0,0-4.76,16c-.66,2.68-1.18,5.39-1.69,8.09a61.76,61.76,0,0,0-1.08,8.13c0,.1.15.1.17,0,.84-2.61,1.46-5.33,2.06-8s1.28-5.36,1.88-8c1.21-5.38,2.63-10.71,3.68-16.12A.13.13,0,0,0,516.15,289.83Z" style="fill: rgb(38, 50, 56); transform-origin: 512.52px 305.933px;" id="elocga6xe0ln" class="animable"></path><g id="elrhwgi2n2mz9"><path d="M539.63,346.9c-3.57,2.9-7,4.63-10.15,4.59-18.69-.16-45.69-47.11-55.05-67.39-5.79-12.56-5.84-23.93-.58-26.38Z" style="opacity: 0.1; transform-origin: 504.811px 304.605px;" class="animable"></path></g><path d="M510.64,392.61H389.07c-1.34-2.46,18.58-108.94,59.58-138.93,9.1-6.65,25.24-2.37,29.72,4.1C500.93,290.29,510.64,392.61,510.64,392.61Z" style="fill: rgb(240, 255, 39); transform-origin: 449.823px 321.475px;" id="elsjdho5x8pfr" class="animable"></path><path d="M504.32,345.34a89,89,0,0,1-8.91-3.71c-4.07-1.95-8-4.11-11.91-6.39l-.57-.34c-4-2.37-8-4.88-11.92-7.41l-.56-.36-2.66-1.72c-9-5.77-17.86-11.71-27.47-16.33a60.09,60.09,0,0,0-15-5.16,32.86,32.86,0,0,0-7.92-.44c-.66,0-1.31.14-2,.23-.45.09-.9.15-1.36.24.07-.16.13-.31.21-.47.36-.07.73-.13,1.09-.21.66-.08,1.33-.18,2-.23a33.25,33.25,0,0,1,8,.43,60.23,60.23,0,0,1,15.16,5.17c9.66,4.62,18.58,10.56,27.56,16.31l2.64,1.69.57.36c4,2.57,8,5.12,12.15,7.53l.57.34c3.8,2.21,7.67,4.31,11.65,6.2a89.19,89.19,0,0,0,8.53,3.55ZM493.5,294.57l-.41.39c-7.71,7.51-13.47,16.67-18.9,25.83q-1.72,2.93-3.46,5.85c-.09.17-.18.33-.28.49-1.47,2.48-2.95,4.95-4.49,7.38-1.35,2.14-2.76,4.25-4.26,6.29-.14.19-.27.38-.41.56a65.66,65.66,0,0,1-4.9,5.87,39.41,39.41,0,0,1-6,5.2l-.81.57c-.27.19-.57.34-.85.51l-1.71,1a30.59,30.59,0,0,1-3.64,1.55,49.64,49.64,0,0,1-15.64,2.53A72.65,72.65,0,0,1,412,356.8c-5-1.06-9.85-2.48-14.74-3.9,0,.16-.08.32-.13.47,4.88,1.43,9.78,2.87,14.76,3.94a73.51,73.51,0,0,0,15.93,1.84,50.37,50.37,0,0,0,15.82-2.54,29.6,29.6,0,0,0,3.72-1.57l1.75-1a9.35,9.35,0,0,0,.86-.52l.83-.58a39.66,39.66,0,0,0,6.09-5.26,69.63,69.63,0,0,0,5.22-6.29c.15-.19.28-.37.41-.56,1.42-1.94,2.76-3.93,4-5.95,1.55-2.43,3-4.9,4.5-7.37l.29-.49,3.47-5.86c5.44-9.15,11.2-18.23,18.83-25.65l.13-.12C493.65,295.1,493.57,294.83,493.5,294.57Zm5.77,23.75c-.77,1-1.55,1.94-2.34,2.9a83.76,83.76,0,0,1-11.05,11.46c-.8.63-1.6,1.26-2.43,1.85l-.52.37a30.49,30.49,0,0,1-3.63,2.2l-.87.47c-.29.16-.61.27-.91.41l-1.82.78a29.43,29.43,0,0,1-3.8,1.09,45.11,45.11,0,0,1-9.43,1h-.77c-1.88,0-3.76-.15-5.63-.35a72.37,72.37,0,0,1-15.47-3.71c-5-1.73-9.93-3.86-14.83-6a128.87,128.87,0,0,0-15-5.69c-1.51-.43-3-.81-4.6-1.09l-.15.43c1.56.29,3.11.66,4.62,1.1a128.14,128.14,0,0,1,14.91,5.7c4.9,2.11,9.8,4.25,14.85,6A73.86,73.86,0,0,0,456,341c1.76.2,3.52.33,5.28.36.26,0,.51,0,.77,0a45.78,45.78,0,0,0,10-.94,33,33,0,0,0,3.88-1.11l1.86-.8c.31-.14.62-.25.92-.41l.89-.48a30.17,30.17,0,0,0,3.92-2.39l.52-.37c.76-.55,1.51-1.13,2.25-1.72a83.81,83.81,0,0,0,11.16-11.52q1-1.23,2-2.49C499.39,318.87,499.33,318.59,499.27,318.32Zm-12.56-44.25c-.7.17-1.4.33-2.1.47l-1.95.38c-.65.12-1.31.16-2,.25l-2,.23-2,.08a33.67,33.67,0,0,1-7.9-.42,41.91,41.91,0,0,1-11.76-3.89l-1-.49c-.7-.36-1.39-.74-2.07-1.13a78.94,78.94,0,0,1-12.82-9.38l-.44.44a80.85,80.85,0,0,0,12.93,9.5c.48.28,1,.55,1.46.81l1,.5a43.52,43.52,0,0,0,12.6,4.31,47.39,47.39,0,0,0,18.26-1C486.88,274.51,486.79,274.29,486.71,274.07Zm-7.12-14.45a92.11,92.11,0,0,1-16.91,8.95,56.14,56.14,0,0,1-6.59,2.11l-.94.24a54.07,54.07,0,0,1-7.9,1.23l-2,.13c-.66.05-1.32,0-2,0h-2l-2-.16a33.53,33.53,0,0,1-7.12-1.19c-.14.19-.28.38-.41.58a49.2,49.2,0,0,0,24.32-.09l1-.25a54.55,54.55,0,0,0,5.88-1.92,93,93,0,0,0,17-9ZM509.5,382.15c-1,0-2.08.09-3.12.12h-.08l-.61.05A41.69,41.69,0,0,0,491,386.69a67.53,67.53,0,0,0-9.37,5.92h.63a65.78,65.78,0,0,1,8.92-5.56A41.35,41.35,0,0,1,506,382.72l.37,0h.24c1,0,1.94-.11,2.9-.1C509.53,382.44,509.52,382.3,509.5,382.15Zm.52,4.6q-1.63-2.07-3.37-4.07c-.11-.14-.23-.27-.35-.4l-.41-.48a60.73,60.73,0,0,0-11.95-10.68,32.66,32.66,0,0,0-7.22-3.53c-.63-.21-1.29-.39-1.93-.57s-1.31-.32-2-.41c-1.32-.25-2.67-.27-4-.4A41.43,41.43,0,0,0,463,368.72a72.86,72.86,0,0,0-14.25,7.3c-8,5.15-15.29,11.21-23.08,16.59H426c7.75-5.29,15-11.24,22.92-16.28a71.91,71.91,0,0,1,14.2-7.23,41,41,0,0,1,15.63-2.47c1.31.14,2.65.16,3.95.41.66.09,1.29.28,1.94.41s1.28.35,1.9.56a32,32,0,0,1,7.11,3.5,59.67,59.67,0,0,1,11.83,10.62c.06.07.12.13.17.2l.35.39c1.4,1.63,2.77,3.29,4.09,5C510.1,387.4,510.06,387.09,510,386.75Z" style="fill: rgb(255, 255, 255); transform-origin: 453.611px 326.115px;" id="el83buvry4323" class="animable"></path><path d="M432.51,266.73c-24.75,28.63-58.11,79.2-44.48,90.38,22.41,18.38,87.86,29,102.88,30.78,6.48.78,19.46-41.58,15.13-47.06s-73.53-9.35-74-13.6c-.27-2.41,10.24-23.37,17-49.08C456.81,248.51,439.48,258.66,432.51,266.73Z" style="fill: rgb(173, 99, 89); transform-origin: 445.887px 323.098px;" id="elscgagxpjec" class="animable"></path><path d="M494.7,337.34s19.86-.15,32.85.36c7.25.28,19.63,1.88,24.86,4.53,7.82,3.95,38,25.5,32.94,32.93-4.59,6.72-28.17-15.08-28.17-15.08s25.74,19.9,18.73,27S545.53,366,545.53,366s26,21,17.61,27.2c-6.34,4.65-28.94-19.67-28.94-19.67s22.21,18.23,15.9,23.3c-7,5.6-29.25-15.54-29.25-15.54-18.2,10.18-31,7.58-40,4.65C478.74,385.19,494.7,337.34,494.7,337.34Z" style="fill: rgb(173, 99, 89); transform-origin: 533.288px 367.547px;" id="elzd04lea6p3f" class="animable"></path><path d="M548.72,352.63c3.11,2.23,6.27,4.46,9.17,7s5.71,5.09,8.37,7.85c6.51,6.76,9.53,12,9.3,11.7-5.24-7.19-15.48-16.28-18.38-18.78s-5.67-5.13-8.56-7.62C548.55,352.67,548.65,352.58,548.72,352.63Z" style="fill: rgb(38, 50, 56); transform-origin: 562.084px 365.904px;" id="elwbcaggm6mqt" class="animable"></path><path d="M539.52,362.94c3.84,3,7.77,5.86,11.48,9.05s8.73,7.79,12.2,11.21c.26.26,0,.76-.28.51-3.6-3.28-8.95-7.76-12.59-11s-7.15-6.61-10.89-9.7C539.38,363,539.46,362.89,539.52,362.94Z" style="fill: rgb(38, 50, 56); transform-origin: 551.363px 373.353px;" id="el998jdkbm8j" class="animable"></path><path d="M530,370.36c6.11,4.31,11.42,9.74,16.5,15.19.26.27,0,.31-.32.05-5.39-5.15-9.59-9.23-16.33-15C529.77,370.48,529.9,370.27,530,370.36Z" style="fill: rgb(38, 50, 56); transform-origin: 538.216px 378.057px;" id="eleofedldop0e" class="animable"></path><path d="M491.91,336.71c9.06-.06,35.67-.13,44.71.57,8,.61,14.59,2.33,21.3,6.77,14.4,9.52,23.68,20.7,26,24,1.4,2,3.43,5.23,1.58,7.47-2.27,2.72-10.62.06-19.43-7.91-.32-.29-.12-.47.21-.2,12.37,10,17.29,8.86,18.58,7.15.84-1.11,0-3-.72-4.5a28.52,28.52,0,0,0-4.38-5.83A122.72,122.72,0,0,0,561,347.86a48,48,0,0,0-25-9.39c-9.26-.76-34.88-.52-44.13-1.41C491.68,337,491.71,336.72,491.91,336.71Z" style="fill: rgb(38, 50, 56); transform-origin: 538.992px 356.613px;" id="elq52gp66do7" class="animable"></path><path d="M577.38,383.08c-.51-2.47-2.29-4.73-3.7-6.77a46.09,46.09,0,0,0-5.87-7.13c-.09-.09-.26,0-.17.14a71.77,71.77,0,0,1,5.19,6.86,39.87,39.87,0,0,1,2.3,4.08c.65,1.35,1.42,2.91,1.08,4.45-.64,2.94-4.38,2.87-6.59,2.08a24.92,24.92,0,0,1-4.12-2,40.59,40.59,0,0,1-5.06-3.81c-.13-.12-.49-.07-.35.06,3.3,3.14,9.55,9.67,14.65,7.28A4.62,4.62,0,0,0,577.38,383.08Z" style="fill: rgb(38, 50, 56); transform-origin: 568.775px 378.989px;" id="eljb9nk96kvg" class="animable"></path><path d="M495,334.77l-23.79,54S388.07,370,383.25,354.22s21.23-58,44.74-84.36c23.12-25.9,26.54-8.33,20.79,11.7s-15.18,43.12-14.13,44.85S495,334.77,495,334.77Z" style="fill: rgb(240, 255, 39); transform-origin: 438.834px 322.823px;" id="elxbvg9gcf5j" class="animable"></path><path d="M440,308.4c-.06.15-.11.31-.17.46a59.3,59.3,0,0,0-14.56-4.94,32.86,32.86,0,0,0-7.92-.44c-.66,0-1.31.14-2,.23s-1.3.2-1.94.38c-1.3.28-2.53.78-3.8,1.17a40.83,40.83,0,0,0-13.24,8.22l.63-1.09a40.72,40.72,0,0,1,12.46-7.53c1.28-.4,2.53-.91,3.85-1.19.65-.18,1.32-.26,2-.4s1.33-.18,2-.23a33.25,33.25,0,0,1,8,.43A59.65,59.65,0,0,1,440,308.4Zm44,26.47-.57-.34-2.28-1.35-1.38-.16c1,.63,2.09,1.27,3.14,1.88l.57.34c3,1.75,6,3.43,9.08,5l.24-.55C489.84,338.16,486.91,336.55,484,334.87Zm-16.23-3.31c-.6,1-1.21,2-1.83,2.95-1.35,2.14-2.76,4.25-4.26,6.29-.14.19-.27.38-.41.56a65.66,65.66,0,0,1-4.9,5.87,39.41,39.41,0,0,1-6,5.2l-.81.57c-.27.19-.57.34-.85.51l-1.71,1a30.59,30.59,0,0,1-3.64,1.55,49.64,49.64,0,0,1-15.64,2.53A72.65,72.65,0,0,1,412,356.8c-5.21-1.11-10.32-2.62-15.45-4.11-4.55-1.32-9.13-2.65-13.81-3.52,0,.16,0,.32,0,.47,4.63.87,9.16,2.21,13.69,3.52,5.12,1.5,10.25,3,15.48,4.15a73.51,73.51,0,0,0,15.93,1.84,50.37,50.37,0,0,0,15.82-2.54,29.6,29.6,0,0,0,3.72-1.57l1.75-1a9.35,9.35,0,0,0,.86-.52l.83-.58a39.66,39.66,0,0,0,6.09-5.26,69.63,69.63,0,0,0,5.22-6.29c.15-.19.28-.37.41-.56,1.42-1.94,2.76-3.93,4-5.95.68-1.06,1.34-2.14,2-3.21Zm16.92,2c-.41.32-.83.64-1.26.94l-.52.37a30.49,30.49,0,0,1-3.63,2.2l-.87.47c-.29.16-.61.27-.91.41l-1.82.78a29.43,29.43,0,0,1-3.8,1.09,45.11,45.11,0,0,1-9.43,1h-.77c-1.88,0-3.76-.15-5.63-.35a72.37,72.37,0,0,1-15.47-3.71c-5-1.73-9.93-3.86-14.83-6a128.87,128.87,0,0,0-15-5.69c-5.13-1.47-10.6-2.27-15.91-1.23a18.94,18.94,0,0,0-4.86,1.69c-.1.2-.2.41-.29.61a19.26,19.26,0,0,1,5.23-1.88c5.22-1,10.62-.22,15.7,1.25a128.14,128.14,0,0,1,14.91,5.7c4.9,2.11,9.8,4.25,14.85,6A73.86,73.86,0,0,0,456,341c1.76.2,3.52.33,5.28.36.26,0,.51,0,.77,0a45.78,45.78,0,0,0,10-.94,33,33,0,0,0,3.88-1.11l1.86-.8c.31-.14.62-.25.92-.41l.89-.48a30.17,30.17,0,0,0,3.92-2.39l.52-.37c.52-.38,1-.78,1.56-1.18Zm-43.54-73.44c-.43-.38-.85-.75-1.27-1.14l-.54.35,1.4,1.25a84.38,84.38,0,0,0,10.4,7.95c0-.25,0-.5,0-.74A83.68,83.68,0,0,1,441.17,260.15Zm6.08,12-2,.13c-.66.05-1.32,0-2,0h-2l-2-.16a34.4,34.4,0,0,1-7.8-1.38c-1.11-.33-2.21-.71-3.29-1.15l-.24.27-.23.26a34.4,34.4,0,0,0,3.57,1.27,47.71,47.71,0,0,0,19.43,1.08c0-.25.07-.49.11-.74C449.67,271.92,448.46,272.06,447.25,272.15Zm31.56,94.06A41.43,41.43,0,0,0,463,368.72a72.86,72.86,0,0,0-14.25,7.3c-2.5,1.62-4.94,3.32-7.35,5.07l.39.11h0c2.34-1.69,4.71-3.32,7.14-4.87a71.91,71.91,0,0,1,14.2-7.23,41,41,0,0,1,15.63-2.47c.69.07,1.38.11,2.07.17l.19-.42C480.31,366.32,479.55,366.28,478.81,366.21Z" style="fill: rgb(255, 255, 255); transform-origin: 437.77px 320.09px;" id="elokmo1ooms2p" class="animable"></path><path d="M461.67,379.84c.81-1.54,1.59-3.08,2.37-4.63q2.35-4.71,4.68-9.44c3.08-6.26,6-12.6,8.81-19,1.61-3.62,3.36-7.2,4.81-10.89a.15.15,0,0,0-.28-.13c-1.73,3.05-3.23,6.24-4.83,9.37s-3.23,6.23-4.77,9.39q-4.6,9.39-8.92,18.93c-.81,1.78-1.69,3.54-2.42,5.36-.38.93-.82,1.83-1.19,2.77s-.65,1.9-1,2.83a.08.08,0,0,0,.15.07C459.89,382.92,460.84,381.42,461.67,379.84Z" style="fill: rgb(38, 50, 56); transform-origin: 470.638px 360.089px;" id="elbyd8hxxhp8m" class="animable"></path><path d="M473,385.06l-1.67,3.78-.05.12-.16,0c-7.87-1.46-15.69-3.21-23.46-5.16s-15.48-4.16-23.11-6.62a206.46,206.46,0,0,1-22.49-8.58,83,83,0,0,1-10.62-5.74,37.36,37.36,0,0,1-4.79-3.71,12,12,0,0,1-3.43-4.91,12.71,12.71,0,0,0,3.77,4.53A36.18,36.18,0,0,0,392,362a98.91,98.91,0,0,0,10.74,5.15c7.35,3.05,14.9,5.65,22.49,8.09s15.25,4.71,22.93,6.89,15.39,4.34,23.11,6.41l-.2.1Z" style="fill: rgb(38, 50, 56); transform-origin: 428.11px 371.6px;" id="ell9c475xkd5" class="animable"></path><path d="M494.05,336.87l.83-2.15.09.15c-8.34-.55-16.67-1.22-25-2.09s-16.61-1.82-24.89-3.06c-2.07-.32-4.14-.66-6.21-1.06-1-.21-2.07-.41-3.14-.71-.27-.08-.53-.16-.82-.27a2.7,2.7,0,0,1-.48-.21,2.08,2.08,0,0,1-.33-.22,1.22,1.22,0,0,1-.27-.32,2.56,2.56,0,0,1-.11-.24.41.41,0,0,1,0-.12,3.64,3.64,0,0,1,.06-1.14c.05-.27.1-.56.17-.81,1.06-4.15,2.4-8.07,3.76-12,2.72-7.91,5.68-15.72,8.8-23.48-2.41,8-4.88,16-7.34,24-1.18,4-2.48,8-3.39,12-.06.25-.09.48-.14.72s0,.52-.05.42,0,0,0,0a.47.47,0,0,0-.06-.15c0-.1-.18-.2-.14-.18s-.05,0,0,0l.25.1.66.21c1,.26,2,.45,3,.65,2,.37,4.09.69,6.14,1q6.18.93,12.38,1.75l12.41,1.67c8.27,1.1,16.54,2.28,24.81,3.49l.15,0-.06.13Z" style="fill: rgb(38, 50, 56); transform-origin: 464.445px 313.005px;" id="el6ek7el3xsxv" class="animable"></path><path d="M447.4,294.26a20.7,20.7,0,0,1-2.21,4,15.65,15.65,0,0,1-3,3.41c.76-1.33,1.57-2.59,2.43-3.84A29.77,29.77,0,0,1,447.4,294.26Z" style="fill: rgb(38, 50, 56); transform-origin: 444.795px 297.965px;" id="elxg34bdkhlie" class="animable"></path><path d="M471.63,275.79c-7.06,2-19.78-8.33-25-16.94-.36-.59,1.06-24.91.84-29.76,0-1,30.74,6,30.74,6s-2.53,10.3-2.09,18.75C476.15,254.56,478.44,273.85,471.63,275.79Z" style="fill: rgb(173, 99, 89); transform-origin: 462.391px 252.517px;" id="elcz3wwot13t" class="animable"></path><path d="M447,244.32c14.39,10.16,28.41,6.26,29,6.08a83.65,83.65,0,0,1,2.13-15.3s-30.8-7-30.75-6C447.56,231.37,447.31,237.93,447,244.32Z" style="fill: rgb(38, 50, 56); transform-origin: 462.565px 240.143px;" id="elw5uw52a1oqt" class="animable"></path><path d="M478.06,215.06c.79,7.18,6.54,12.44,12.83,11.74s10.76-7.07,10-14.24-6.53-12.44-12.83-11.74S477.27,207.89,478.06,215.06Z" style="fill: rgb(69, 90, 100); transform-origin: 489.472px 213.81px;" id="elj0jo9r36cy" class="animable"></path><path d="M474.42,215.92c.88,8,7.27,13.83,14.27,13.06s12-7.86,11.09-15.85-7.26-13.83-14.27-13.06S473.54,207.94,474.42,215.92Z" style="fill: rgb(199, 199, 199); transform-origin: 487.103px 214.525px;" id="elzkwr9l39jur" class="animable"></path><path d="M443.21,192.55c-3.36,10.78,2.15,42,9.78,49,11.07,10.15,29.29,11.22,37.93-2.1,8.38-12.92.48-53.47-8.06-59.84C470.29,170.21,448.17,176.64,443.21,192.55Z" style="fill: rgb(173, 99, 89); transform-origin: 468.346px 212.273px;" id="el8nmnz24jtf" class="animable"></path><path d="M469.15,212.15c0-.07-.14.13-.12.22.46,2.08.65,4.55-1.11,5.61-.06,0,0,.14,0,.11C470.21,217.32,469.93,214.05,469.15,212.15Z" style="fill: rgb(38, 50, 56); transform-origin: 468.804px 215.115px;" id="el18wle97wd1t" class="animable"></path><path d="M466.86,210.32c-3.42.39-2.39,7.21.78,6.85S469.73,210,466.86,210.32Z" style="fill: rgb(38, 50, 56); transform-origin: 467.15px 213.746px;" id="el970yk86blop" class="animable"></path><path d="M481.29,210.51c0-.08.18.08.19.17.25,2.12.9,4.5,2.91,4.92.06,0,.08.12,0,.12C482,215.74,481.19,212.56,481.29,210.51Z" style="fill: rgb(38, 50, 56); transform-origin: 482.862px 213.104px;" id="elxnftbq1qsx" class="animable"></path><path d="M482.84,208c3.36-.77,4.65,6,1.54,6.72S480,208.67,482.84,208Z" style="fill: rgb(38, 50, 56); transform-origin: 483.704px 211.356px;" id="elepvywo3ydh" class="animable"></path><path d="M463.7,207.61a25,25,0,0,0,2.5-1.33,4.58,4.58,0,0,0,2.29-1.84,1.46,1.46,0,0,0-.5-1.71,3.6,3.6,0,0,0-3.65.18,5.31,5.31,0,0,0-2.69,2.73A1.55,1.55,0,0,0,463.7,207.61Z" style="fill: rgb(38, 50, 56); transform-origin: 465.071px 205.024px;" id="elianad8bhcy9" class="animable"></path><path d="M485,204.19a26.67,26.67,0,0,1-2.82-.29,4.55,4.55,0,0,1-2.81-.84,1.46,1.46,0,0,1-.19-1.78,3.65,3.65,0,0,1,3.46-1.21,5.3,5.3,0,0,1,3.51,1.53A1.55,1.55,0,0,1,485,204.19Z" style="fill: rgb(38, 50, 56); transform-origin: 482.756px 202.097px;" id="el426vomn8lxj" class="animable"></path><path d="M470.31,231.94c.58.42,1.19,1,2,1a5.63,5.63,0,0,0,2.19-.87.07.07,0,0,1,.11.09,2.85,2.85,0,0,1-2.51,1.55,2.26,2.26,0,0,1-1.94-1.61C470.07,232,470.22,231.88,470.31,231.94Z" style="fill: rgb(38, 50, 56); transform-origin: 472.379px 232.817px;" id="elbg4w6y423po" class="animable"></path><path d="M471.57,225.29a7.28,7.28,0,0,0,5.28,2.47,9.24,9.24,0,0,0,2.61-.27,2.43,2.43,0,0,0,.48-.14,4.59,4.59,0,0,0,.45-.14.53.53,0,0,0,.36-.53v0a.72.72,0,0,0-.05-.21v0l0-.18c-.21-1.63-.74-4.08-.74-4.08.64.21,3.88,1.11,3.7.27-1.48-7-3.13-14.72-6.08-21.33a.2.2,0,0,0-.38.11c1.16,6.75,3.5,13.25,4.78,20a12.62,12.62,0,0,0-3.55-.51c-.22.1,1.11,4.71,1.14,5.45a.17.17,0,0,1,0,.08c-2.68.76-4.86.25-7.79-1.18C471.56,225,471.42,225.14,471.57,225.29Z" style="fill: rgb(38, 50, 56); transform-origin: 477.587px 214.4px;" id="elxvf2emyhaee" class="animable"></path><path d="M478.37,226.81a8.57,8.57,0,0,1-3,3.16,3.94,3.94,0,0,1-2.31.5c-1.75-.19-2-1.73-1.92-3.1a9.43,9.43,0,0,1,.45-2.14A11.18,11.18,0,0,0,478.37,226.81Z" style="fill: rgb(38, 50, 56); transform-origin: 474.749px 227.858px;" id="elg7rzw0eftu" class="animable"></path><path d="M475.36,230a3.94,3.94,0,0,1-2.31.5c-1.75-.19-2-1.73-1.92-3.1C473,227.28,474.94,228.24,475.36,230Z" style="fill: rgb(255, 153, 186); transform-origin: 473.239px 228.953px;" id="el5ehim6k5g73" class="animable"></path><g id="el0ex73ugbj066"><path d="M448.33,203.64c-1.23,3.1-3.76,10.38-5.2,10.89-1.37-10.12-1.42-19.3,1.09-24.94a20.79,20.79,0,0,1,4.3-6.25C448.73,186.05,449.64,200.4,448.33,203.64Z" style="fill: rgb(38, 50, 56); opacity: 0.2; transform-origin: 445.608px 198.935px;" class="animable"></path></g><path d="M475.38,189.17a10,10,0,0,1-8.41,5,10.24,10.24,0,0,1-8.83-4.62.08.08,0,0,0-.14.08,10.12,10.12,0,0,0,9,5.35,10.32,10.32,0,0,0,8.63-5.65A.13.13,0,0,0,475.38,189.17Z" style="fill: rgb(38, 50, 56); transform-origin: 466.822px 192.041px;" id="elplazjxftmc" class="animable"></path><path d="M496.24,173.08a12.8,12.8,0,0,0-6.59-5.82c-3.9-1.54-7.81-.51-11.68.6a.08.08,0,0,0,0,.16c3.29-.93,6.69-1.68,10.05-.66a12.61,12.61,0,0,1,6.82,5,12.29,12.29,0,0,1-2.31,15.91,12.48,12.48,0,0,1-9.51,2.73c-.13,0-.19.18-.05.2a12.53,12.53,0,0,0,13.22-18.12Z" style="fill: rgb(38, 50, 56); transform-origin: 487.743px 178.928px;" id="elmukv05vpc6f" class="animable"></path><path d="M442.3,198.78s-7.23-9.29-3.73-16c2-3.81,10.61-4.86,10.61-4.86s2-4.41,8.81-7.27,16-1.18,16-1.18,6.11-5.08,13.11-2.56c9.76,3.52,11,17.23,2.84,23.13-5.74,4.15-15.22.09-15.22.09-.8.25-8.3,6.77-15.94.4,0,0-4.35,5.48-9.54,3.08A7.58,7.58,0,0,1,442.3,198.78Z" style="fill: rgb(38, 50, 56); transform-origin: 466.47px 182.494px;" id="el75ww88xord" class="animable"></path><path d="M449.72,218s-7.19-10-11.73-7.41,1,17.12,6.36,19a5.46,5.46,0,0,0,7.28-3Z" style="fill: rgb(173, 99, 89); transform-origin: 443.971px 220.107px;" id="el1s4a8vk550ni" class="animable"></path><path d="M439.67,214.73c-.09,0-.1.11,0,.14,3.79,1.48,5.82,4.94,7.26,8.54-1.14-1.38-2.67-2.12-4.52-.76-.1.07,0,.22.1.2A3.37,3.37,0,0,1,446.2,224a16,16,0,0,1,1.81,3c.18.33.78.14.65-.24l0-.09C448.66,221.81,444.83,215.14,439.67,214.73Z" style="fill: rgb(38, 50, 56); transform-origin: 444.139px 220.95px;" id="elhzqfnv5t9l" class="animable"></path><path d="M443.73,211s-3.89-15.5-.86-25c3.37-10.56,16.08-20.9,31.1-16.51,0,0-16.67,2.15-24.77,16.08-3.72,6.4-.15,24.88-.15,24.88Z" style="fill: rgb(199, 199, 199); transform-origin: 457.843px 189.727px;" id="eljitlj2zgfsl" class="animable"></path><path d="M459.87,216.22c1.52,8-2.91,15.54-9.91,16.88s-13.92-4-15.45-12,2.91-15.54,9.91-16.88S458.34,208.24,459.87,216.22Z" style="fill: rgb(199, 199, 199); transform-origin: 447.188px 218.66px;" id="elextzafixgg" class="animable"></path><path d="M456.09,216.48c1.37,7.17-2.62,14-8.91,15.17S434.67,228,433.3,220.84s2.61-14,8.9-15.17S454.71,209.3,456.09,216.48Z" style="fill: rgb(69, 90, 100); transform-origin: 444.695px 218.66px;" id="eldoxy90bxes6" class="animable"></path></g><g id="freepik--character-1--inject-33" class="animable" style="transform-origin: 190.202px 288.545px;"><polygon points="59.3 392.61 181.96 392.61 157.5 250.34 65.78 250.34 59.3 392.61" style="fill: rgb(219, 219, 219); transform-origin: 120.63px 321.475px;" id="elhz4j0h8flxa" class="animable"></polygon><polygon points="59.3 392.61 70.05 392.61 76.09 250.34 65.78 250.34 59.3 392.61" style="fill: rgb(166, 166, 166); transform-origin: 67.695px 321.475px;" id="elykraa5e75rg" class="animable"></polygon><path d="M132,188.29c-11.39,11.33-14.66,30-14.66,30s-10.92,18.79-7.87,29a18.58,18.58,0,0,0,11.82,12.57l-1.08-5.64s3.66,7.25,15.89,10.17,28.41-.84,36.83-5.1a32.31,32.31,0,0,0,12.36-10.88l-3.15,8.2s11.87-.42,18.92-13.05-13.2-30.78-14.92-34.69-3.9-32.4-33.87-27.49C152.31,181.31,139.88,180.49,132,188.29Z" style="fill: rgb(38, 50, 56); transform-origin: 155.739px 223.119px;" id="elcrqfdb1jkcd" class="animable"></path><path d="M117,259.05c-3.12-2.33-6.2-5-7.92-8.3a17.32,17.32,0,0,1-1.89-11.22c.83-4.61,3.26-8.68,5.62-12.65s5.2-8,7.57-12.17c.13-.23-.22-.42-.38-.24a109,109,0,0,0-7.44,9.81,50,50,0,0,0-5.88,10.07,18.73,18.73,0,0,0-1.38,10.49,18.21,18.21,0,0,0,3.74,7.88c2.21,2.75,5,4.51,7.8,6.58C117,259.43,117.17,259.18,117,259.05Z" style="fill: rgb(38, 50, 56); transform-origin: 112.741px 236.867px;" id="eleg7grcicsjs" class="animable"></path><path d="M203.63,230.5c-3.6-10.49-13-17.15-18.77-26.3-3.1-4.95-5.51-10.43-9.55-14.73-.11-.12-.31.07-.21.19,3.32,3.87,5.24,8.53,7.64,13A76.76,76.76,0,0,0,191.66,215c5.94,7.12,13.05,15.55,11.69,25.52-.63,4.6-3.35,9.7-8.07,11.13-.18.06-.07.36.11.28a14.77,14.77,0,0,0,8.23-8.27A18.78,18.78,0,0,0,203.63,230.5Z" style="fill: rgb(38, 50, 56); transform-origin: 189.944px 220.688px;" id="elxomx3zgfwh9" class="animable"></path><path d="M204.06,233.32a19.27,19.27,0,0,0-2.62-11.38c-2.07-3.38-5.32-5.82-8.57-8-3.75-2.49-7.7-4.86-10.08-8.81-.1-.17-.34,0-.25.17,3.78,6.52,11,9.56,15.83,15.05,5.55,6.27,5.56,15.4,1.74,22.57a31.72,31.72,0,0,1-10,10.9c-.07,0,0,.15.08.1C197.26,249.28,203.49,242.14,204.06,233.32Z" style="fill: rgb(38, 50, 56); transform-origin: 193.322px 229.495px;" id="elj81jkw1q42l" class="animable"></path><path d="M158.74,281.11c30.35,16.66,66.68,37.57,88.94,32.65,9.87-2.18,54.19-60.28,56.07-67,1.61-5.77-38.52-29-43-24.45-7.56,7.63-28,50.59-31,51.31s-28.48-4.45-55-9.24C149.23,259.8,137.67,269.55,158.74,281.11Z" style="fill: rgb(235, 148, 129); transform-origin: 225.799px 268.107px;" id="el3c14xw7kmd9" class="animable"></path><path d="M299.44,254c3.46-4.36,17.58-25.74,20.17-32.57s8.65-27,3.63-29.54S316,195.1,316,195.1s1.21-8.93-4.08-11-8.49,7-8.49,7,.57-9.26-4.86-11-7.11,8-7.11,8,.92-8.44-4.14-8c-6.08.59-6,16.35-9.44,23.67-.78,1.66-18.21,32.58-18.21,32.58Z" style="fill: rgb(235, 148, 129); transform-origin: 292.42px 216.946px;" id="eleilq3jcpsma" class="animable"></path><path d="M291.58,187.31c0,11.59-2,16.67-8,26.33-.12.18.13.4.28.22,6.8-8.92,10.22-14.92,8.32-26.58C292.05,186.71,291.58,186.76,291.58,187.31Z" style="fill: rgb(38, 50, 56); transform-origin: 288.124px 200.401px;" id="eld4x3ik56u3k" class="animable"></path><path d="M303.37,190.19c-1,12-3.14,17.56-8.75,28.15-.08.15.17.3.26.15,6.37-9.92,9.65-16,9.09-28.15C304,189.79,303.42,189.64,303.37,190.19Z" style="fill: rgb(38, 50, 56); transform-origin: 299.318px 204.199px;" id="elk3k1zgqpxup" class="animable"></path><path d="M315.66,195.63c-1.83,11.58-3.89,17.74-10.65,27.32a.21.21,0,0,0,.33.27c7.85-9.1,10.48-16.76,10.67-27.5C316,195,315.78,194.9,315.66,195.63Z" style="fill: rgb(38, 50, 56); transform-origin: 310.486px 209.213px;" id="elqds1llyryuh" class="animable"></path><path d="M251.08,239.85s-.85-14.49.19-20.94S265,189.84,270,192.3c6.51,3.19,1.75,17.69-1.51,24.49,0,0,15.06,7.34,13.9,18.49S251.08,239.85,251.08,239.85Z" style="fill: rgb(235, 148, 129); transform-origin: 266.603px 216.946px;" id="elxfqtbf93q4l" class="animable"></path><path d="M271.54,193.76c3.84,7.19-1,15.84-3.68,22.67a.67.67,0,0,0,.57.94c6.11,3.5,13.71,10.22,14.36,17.62a.17.17,0,0,0,.34,0c.38-8-6.55-15.24-13.48-18.65,2.84-7,7.33-15.85,2-22.62C271.58,193.69,271.52,193.72,271.54,193.76Z" style="fill: rgb(38, 50, 56); transform-origin: 275.474px 214.434px;" id="elcdgr5fb24m" class="animable"></path><path d="M222.53,271.25,186,301.87s-22.3-11.6-38.77-24.93,1.77-19.81,30.05-15.06S222.53,271.25,222.53,271.25Z" style="fill: rgb(240, 255, 39); transform-origin: 181.759px 281.099px;" id="elwaew09xmjs" class="animable"></path><path d="M179.26,277.4a22.24,22.24,0,0,0-3.57-3.83,24.78,24.78,0,0,0,6.27,8.3A21.71,21.71,0,0,0,179.26,277.4Zm-32-.44.44.34c.29-.31.58-.64.85-1C148.09,276.51,147.66,276.73,147.24,277Zm61.15.2a22.73,22.73,0,0,0-5.22-.16,22.75,22.75,0,0,0,5.06,1.27,22.18,22.18,0,0,0,5.22.17A22.64,22.64,0,0,0,208.39,277.16Zm-12.23-11.84a14.56,14.56,0,0,0,.07,2,15.92,15.92,0,0,0,.62-1.84Z" style="fill: rgb(255, 255, 255); transform-origin: 180.355px 273.595px;" id="eluwbllfysi5k" class="animable"></path><path d="M177.82,295.33c7.43-7.14,15.37-13.77,23.42-20.23,2.28-1.82,4.6-3.6,7-5.31.07-.05.16,0,.09.09-3.78,3.49-7.71,6.82-11.62,10.17s-7.87,6.7-11.88,9.95c-2.27,1.84-4.53,3.68-6.83,5.47C177.86,295.54,177.73,295.42,177.82,295.33Z" style="fill: rgb(38, 50, 56); transform-origin: 193.073px 282.631px;" id="el2wtauc8xyb2" class="animable"></path><path d="M201.52,288.86l-15.53,13s-22.3-11.59-38.77-24.92c-5.85-4.73-7.32-8.59-5.53-11.4Z" style="fill: rgb(38, 50, 56); transform-origin: 171.247px 283.7px;" id="elqfn0xhb4rab" class="animable"></path><path d="M194,392.49H77.59s25.29-97.67,48.7-125.17c.52-.63,1.06-1.23,1.6-1.79.11-.13.21-.22.32-.33a24.89,24.89,0,0,1,6.25-4.84c.41-.22.82-.43,1.25-.61,9-4.15,18.54-.71,25.41,5.17,2.18,1.86,26.86,34,29,46.21,1.89,10.81-5.41,22.42-5.41,22.42Z" style="fill: rgb(240, 255, 39); transform-origin: 135.795px 325.207px;" id="el9tr9vpnql0m" class="animable"></path><path d="M167.27,329.37a100.21,100.21,0,0,0-14.7,2.55c-2.4.64-4.74,1.38-7.09,2.17-1.17.4-2.34.76-3.52,1.11a15.9,15.9,0,0,1-3.79.74.09.09,0,0,0,0,.18,26.33,26.33,0,0,0,3.66-.1,25.63,25.63,0,0,0,3.47-.68c2.44-.63,4.84-1.36,7.27-2,4.9-1.3,9.79-2.6,14.77-3.55A.21.21,0,0,0,167.27,329.37Z" style="fill: rgb(38, 50, 56); transform-origin: 152.8px 332.755px;" id="el05c77bh3p6zj" class="animable"></path><path d="M179.57,333.66a110,110,0,0,0-12.31-.49c-2,.05-4.09.21-6.14.42-1,.11-2,.23-2.92.36s-2.12.43-3.19.56c-.11,0-.11.19,0,.18,1-.09,2.05,0,3.07-.05l3.07-.11c2-.06,4.09-.11,6.14-.2,4.1-.17,8.19-.3,12.29-.34C179.8,334,179.78,333.68,179.57,333.66Z" style="fill: rgb(38, 50, 56); transform-origin: 167.332px 333.923px;" id="elv5b7km7ib1i" class="animable"></path><path d="M115.23,290.28c-.55-.7-1.11-1.39-1.72-2l-.43.9c.4.62.83,1.23,1.27,1.82a22.11,22.11,0,0,0,3.57,3.8A24.22,24.22,0,0,0,115.23,290.28Zm13.51-25.62a21.76,21.76,0,0,0-.1,4.71,21.65,21.65,0,0,0,1.25-5.09c0-.26.07-.53.1-.79C129.57,263.86,129.15,264.25,128.74,264.66Zm35.33,32.54a22.53,22.53,0,0,0-1.28,5.08,23.41,23.41,0,0,0-.17,5.23,21.23,21.23,0,0,0,1.26-5.08A21.66,21.66,0,0,0,164.07,297.2Zm-22.25,56.32a22.32,22.32,0,0,0-1.26,5.06,22.83,22.83,0,0,0-.16,5.23,25,25,0,0,0,1.42-10.29ZM104,311a23.25,23.25,0,0,0-1.26,5.09,22.64,22.64,0,0,0-.16,5.22,22.59,22.59,0,0,0,1.25-5.08A22.26,22.26,0,0,0,104,311Zm31.3-7.14a22.73,22.73,0,0,0-5.22-.16,22.75,22.75,0,0,0,5.06,1.27,22.18,22.18,0,0,0,5.22.17A22.64,22.64,0,0,0,135.31,303.82Zm41.88,48a22.81,22.81,0,0,0-5.23-.16,25,25,0,0,0,10.29,1.42A22.86,22.86,0,0,0,177.19,351.84ZM99,347.25a23.62,23.62,0,0,0-5.13-.18h-.1l.09,0a23,23,0,0,0,5,1.23,22.73,22.73,0,0,0,5.22.16A22.59,22.59,0,0,0,99,347.25Zm43.92,41.29a22.74,22.74,0,0,0-5.22-.16,24.86,24.86,0,0,0,10.3,1.41A23.13,23.13,0,0,0,142.88,388.54Zm-47.24-5.06a22.81,22.81,0,0,0-5.23-.16,22.83,22.83,0,0,0,5.06,1.25,21.24,21.24,0,0,0,5.23.16A22.83,22.83,0,0,0,95.64,383.48ZM144.06,279a23.15,23.15,0,0,0-3.83,3.59,23.51,23.51,0,0,0,4.5-2.69,21.91,21.91,0,0,0,3.8-3.6A23.73,23.73,0,0,0,144.06,279Zm12.46,53.53a21.73,21.73,0,0,0-3.8,3.57,22.25,22.25,0,0,0,4.47-2.7,21.36,21.36,0,0,0,3.8-3.57A22.72,22.72,0,0,0,156.52,332.55Zm-43.69,32.72a21.12,21.12,0,0,0-3.81,3.58,23.73,23.73,0,0,0,4.47-2.7,23.48,23.48,0,0,0,3.83-3.57A20.72,20.72,0,0,0,112.83,365.27Zm72.56-47.07a22.24,22.24,0,0,0-3.57-3.83,24.78,24.78,0,0,0,6.27,8.3A21.71,21.71,0,0,0,185.39,318.2ZM170.5,378.75a23.45,23.45,0,0,0-3.57-3.83,20.49,20.49,0,0,0,2.69,4.49,21.81,21.81,0,0,0,3.57,3.81A23.68,23.68,0,0,0,170.5,378.75Zm-43.84-47.64a22.64,22.64,0,0,0-3.57-3.83,21,21,0,0,0,2.7,4.49,21.42,21.42,0,0,0,3.57,3.81A23.11,23.11,0,0,0,126.66,331.11Z" style="fill: rgb(255, 255, 255); transform-origin: 139.27px 326.675px;" id="el94a0z5h7m74" class="animable"></path><path d="M123.91,268.08c-22.39,18.05-79.73,89.58-66.8,106.11s98.87,9,123.82,1.18c7.42-2.32-12.82-49.41-20.84-51.58-6.68-1.81-43.72,9.14-44.44,7-.81-2.42,9.15-15.81,21.81-44.82C152.06,252.51,133.8,260.11,123.91,268.08Z" style="fill: rgb(235, 148, 129); transform-origin: 118.885px 322.649px;" id="el6ao1v61yj2" class="animable"></path><path d="M200.54,319.86c17.11,2,21.2,5.11,36.53-.89,10.06-3.93,16.89.8,9.53,9.29-12,13.89-34.64,16-42.69,14.44Z" style="fill: rgb(235, 148, 129); transform-origin: 225.115px 330.354px;" id="eljvmi0wxcbpl" class="animable"></path><path d="M152.55,324.39s21.23-5.49,39.67-5.19c12.76.21,40.46,3.76,59.26,36.87,4.46,7.85,5.25,22.21-6.7,12-8.48-7.23-11.67-14.38-17.37-17.69,0,0-1.17,18.37-9.21,22.54a167,167,0,0,1-21.79,9.37,33.85,33.85,0,0,1-2.12-3.92s-7.88,3.18-20-1.23Z" style="fill: rgb(235, 148, 129); transform-origin: 203.52px 350.739px;" id="eldbqgubcxhr" class="animable"></path><path d="M204.37,321.35c5,4.48,15.32,14.14,21,25,6.36,12.06,15.36,37,6.41,41.61-6.56,3.38-10.84-5.85-10.84-5.85s1.55,11.1-5,12.85c-6,1.6-8.89-5.74-8.89-5.74s-.22,6.89-6.3,7.32c-7.32.5-5.66-14-13.52-19.91C185.46,375.3,204.37,321.35,204.37,321.35Z" style="fill: rgb(235, 148, 129); transform-origin: 211.329px 358.951px;" id="elyttlz580mi" class="animable"></path><path d="M211.55,351c4,5,10.11,18.6,9.59,30.93,0,.28-.23.42-.27.16a133.79,133.79,0,0,0-9.43-31A.06.06,0,0,1,211.55,351Z" style="fill: rgb(38, 50, 56); transform-origin: 216.298px 366.601px;" id="el4b81u6il2of" class="animable"></path><path d="M199.56,357.72c3,4.65,8.69,19,7.73,31.45,0,.28-.25.4-.28.14a143.31,143.31,0,0,0-7.57-31.54A.07.07,0,0,1,199.56,357.72Z" style="fill: rgb(38, 50, 56); transform-origin: 203.419px 373.576px;" id="elq5hvh46ivtj" class="animable"></path><path d="M227.44,350.3c5,3,7.79,6.53,11.51,10.86a77.08,77.08,0,0,0,5.8,6.19c1.88,1.75,4.65,4.38,7.47,3.13,1.57-.7,2-2.58,2.13-4.14a12.25,12.25,0,0,0-.75-5.16c0-.08.12-.14.15-.05a16.62,16.62,0,0,1,1.2,4.55,7.4,7.4,0,0,1-.61,4.33c-1.56,2.76-5.16,2.24-7.42.79a24.82,24.82,0,0,1-3.71-3.15c-1.11-1.09-2.17-2.23-3.2-3.39-2.11-2.4-4.08-4.91-6.16-7.32a71.43,71.43,0,0,0-6.54-6.48C227.22,350.38,227.34,350.24,227.44,350.3Z" style="fill: rgb(38, 50, 56); transform-origin: 241.161px 361.135px;" id="el5os0ubkyckf" class="animable"></path><path d="M233.8,372.16c-.59-3.43-4.83-18.17-6.51-21.76a.08.08,0,0,1,.14-.08c3.17,5.07,7.17,17.38,7.87,21.17s1.37,8.48.4,12.21c-1.46,5.62-5.46,5.72-6.91,5.64a7.55,7.55,0,0,1-4.59-2,15.35,15.35,0,0,1-3.28-5.2c0-.09.09-.17.14-.08,1.38,2.72,4.05,5.75,7.21,6.14a5.31,5.31,0,0,0,4-1,6.8,6.8,0,0,0,2.07-4.3A31.54,31.54,0,0,0,233.8,372.16Z" style="fill: rgb(38, 50, 56); transform-origin: 228.553px 369.816px;" id="elessjsjroxn8" class="animable"></path><path d="M207.29,389.17c.61.87,1.62,3.62,4.05,4.78a6,6,0,0,0,5.58.19,7.57,7.57,0,0,0,3.35-4.59,48.6,48.6,0,0,0,.65-7.38c0-.12.15-.13.16,0a26.89,26.89,0,0,1-.28,8.05,8,8,0,0,1-3.61,5.05,5.94,5.94,0,0,1-6.2-.31c-.91-.63-3.55-3.48-4-5.72C207,389.17,207.26,389.13,207.29,389.17Z" style="fill: rgb(38, 50, 56); transform-origin: 214.125px 389.036px;" id="eldvo50dwg2l5" class="animable"></path><path d="M188,375.75a13.94,13.94,0,0,1,1.87,2.63c.59,1,1.15,1.95,1.68,2.95a33,33,0,0,1,2.51,6.34c.64,2.2,1.14,4.6,2.65,6.41a5.43,5.43,0,0,0,6.11,1.74,5.28,5.28,0,0,0,2.67-2.35,10.49,10.49,0,0,0,1.35-3.75.08.08,0,1,1,.15,0,17.71,17.71,0,0,1-.62,3.55,6.33,6.33,0,0,1-1.87,2.68,6.08,6.08,0,0,1-6.3.66c-2.24-1-3.5-3.26-4.28-5.5-.87-2.49-1.45-5.06-2.44-7.52-.51-1.3-1-2.6-1.62-3.85s-1.48-2.55-2-3.89C187.8,375.77,187.92,375.66,188,375.75Z" style="fill: rgb(38, 50, 56); transform-origin: 197.419px 386.457px;" id="elr6bkecakh2m" class="animable"></path><path d="M180.19,378.85a50.73,50.73,0,0,0,9.55.47c.1,0,.16.29.06.31A22.27,22.27,0,0,1,185,380a16.28,16.28,0,0,1-4.78-.93C180.09,379,180.09,378.83,180.19,378.85Z" style="fill: rgb(38, 50, 56); transform-origin: 184.985px 379.43px;" id="eloe8fcnd9dja" class="animable"></path><path d="M82,341.5a123.85,123.85,0,0,1,16.53-6.56,119.74,119.74,0,0,1,17.12-4c3.31-.55,6.63-.94,10-1.35.1,0,.12.14,0,.15a154.7,154.7,0,0,0-17.27,3.82q-8.48,2.31-16.86,4.93c-3.16,1-6.28,2.12-9.41,3.21C82,341.78,81.9,341.57,82,341.5Z" style="fill: rgb(38, 50, 56); transform-origin: 103.846px 335.654px;" id="el65lkz2ipnv5" class="animable"></path><path d="M77.13,311.51l47.39,5.15s12.09-22,18.38-42.27-11.57-16.33-32.44,3.32S77.13,311.51,77.13,311.51Z" style="fill: rgb(240, 255, 39); transform-origin: 110.655px 288.809px;" id="el65wm3nsvt34" class="animable"></path><path d="M77.13,311.51l47.39,5.15s12.09-22,18.38-42.27-11.57-16.33-32.44,3.32S77.13,311.51,77.13,311.51Z" style="fill: rgb(240, 255, 39); transform-origin: 110.655px 288.809px;" id="eluwa1tkvioid" class="animable"></path><path d="M128.82,264a.77.77,0,0,1,0,.15,22.81,22.81,0,0,0-.16,5.23,21.65,21.65,0,0,0,1.25-5.09c0-.3.08-.59.11-.89ZM104,311a19.51,19.51,0,0,0-1,3.37l1,.1A18.3,18.3,0,0,0,104,311ZM87.56,300.33h0l-.46.48c.52,0,1,0,1.57-.09C88.29,300.57,87.93,300.44,87.56,300.33Zm42.53,3.33c.28.11.57.22.86.31a3.26,3.26,0,0,1,.18-.38C130.79,303.6,130.44,303.62,130.09,303.66Zm-14.86-13.38a23.45,23.45,0,0,0-3.57-3.83,20.79,20.79,0,0,0,2.69,4.5,22.11,22.11,0,0,0,3.57,3.8A24.22,24.22,0,0,0,115.23,290.28Z" style="fill: rgb(255, 255, 255); transform-origin: 109.115px 288.935px;" id="ele7yg9b8jr2g" class="animable"></path><path d="M122.6,316.22c.26,0,2,0,2,0,.21-.61,4.29-10,5.29-12,2.06-4.11,4.36-8.11,6.6-12.12.07-.13.27,0,.2.09-1.58,3.5-3.1,7-4.71,10.52.4-.47.8-.94,1.19-1.42.79-1,1.51-2,2.26-3.06.07-.09.21,0,.16.11a18.23,18.23,0,0,1-2.69,4,14.77,14.77,0,0,1-1.47,1.49c-.13.29-.26.59-.4.87-1,2-5.93,12.08-6.11,12.07l-2.28-.28C122.47,316.53,122.47,316.21,122.6,316.22Z" style="fill: rgb(38, 50, 56); transform-origin: 129.606px 304.408px;" id="el8uatkhqmf6k" class="animable"></path><path d="M86.06,303.46c10.28.69,20.53,2.1,30.72,3.7q4.34.69,8.62,1.57c.08,0,.08.14,0,.13-5.12-.45-10.23-1.11-15.34-1.74S99.8,305.81,94.69,305c-2.88-.44-5.77-.88-8.64-1.37C85.93,303.64,85.93,303.45,86.06,303.46Z" style="fill: rgb(38, 50, 56); transform-origin: 105.711px 306.16px;" id="elrbc439xdljc" class="animable"></path><path d="M140.53,261.1c.18,2.08,7.92,16.54,17.19,17.43,3,.28,5.31-16.13,5.31-16.13l.44-1.17,6.23-16.42-18.1-15.65-2.63-2.1s-1.41,4.6-3.1,10.35c-.08.27-.17.54-.25.82s-.2.63-.29.93c-.26.86-.53,1.73-.77,2.61-.19.67-.38,1.32-.56,2s-.36,1.4-.56,2.1A113.66,113.66,0,0,0,140.53,261.1Z" style="fill: rgb(235, 148, 129); transform-origin: 155.115px 252.797px;" id="elq3q3odicxze" class="animable"></path><path d="M145.87,237.41a35.26,35.26,0,0,0,17.6,23.82l6.23-16.42-18.1-15.65-2.63-2.1S147.56,231.66,145.87,237.41Z" style="fill: rgb(38, 50, 56); transform-origin: 157.785px 244.145px;" id="elbnyswqv7yp" class="animable"></path><path d="M175.18,219.59c1.59,7,7.89,11.61,14.07,10.22s9.89-8.24,8.3-15.28-7.89-11.62-14.07-10.22S173.59,212.54,175.18,219.59Z" style="fill: rgb(69, 90, 100); transform-origin: 186.365px 217.058px;" id="elfc51zfryheu" class="animable"></path><path d="M171.65,220.85c1.78,7.83,8.78,12.92,15.66,11.37s11-9.16,9.23-17-8.78-12.92-15.65-11.37S169.88,213,171.65,220.85Z" style="fill: rgb(199, 199, 199); transform-origin: 184.096px 218.035px;" id="elvt8jed61rv" class="animable"></path><path d="M191.87,210.83c8.4,29.65-8.41,38-14.81,39.84-5.81,1.64-25.79,6.48-37.21-22.15s-.29-41.91,12.79-46.36S183.47,181.17,191.87,210.83Z" style="fill: rgb(235, 148, 129); transform-origin: 164.637px 216.296px;" id="el2ohudeohhxg" class="animable"></path><path d="M181.55,207.1a18.79,18.79,0,0,1-2.12.09,3.42,3.42,0,0,1-2.19-.31,1.1,1.1,0,0,1-.34-1.3,2.71,2.71,0,0,1,2.44-1.28,4,4,0,0,1,2.78.73A1.18,1.18,0,0,1,181.55,207.1Z" style="fill: rgb(38, 50, 56); transform-origin: 179.678px 205.763px;" id="elmmekpapibz" class="animable"></path><path d="M162,214a19.77,19.77,0,0,0,2-.74,3.49,3.49,0,0,0,1.9-1.14,1.11,1.11,0,0,0-.2-1.33,2.73,2.73,0,0,0-2.75-.23,4,4,0,0,0-2.27,1.76A1.17,1.17,0,0,0,162,214Z" style="fill: rgb(38, 50, 56); transform-origin: 163.291px 212.164px;" id="elcf01dm5vulq" class="animable"></path><path d="M168,219.23c0-.08-.13.14-.1.22.64,2,1,4.4-.6,5.59-.05,0,0,.13.05.11C169.47,224.2,168.91,221,168,219.23Z" style="fill: rgb(38, 50, 56); transform-origin: 168.045px 222.182px;" id="elins6v0cw5nq" class="animable"></path><path d="M165.58,217.63c-3.32.68-1.72,7.26,1.36,6.63S168.36,217.06,165.58,217.63Z" style="fill: rgb(38, 50, 56); transform-origin: 166.166px 220.949px;" id="elm24gudnhws" class="animable"></path><path d="M164.37,218.29c-.48.52-.89,1.31-1.56,1.55s-1.56-.27-2.24-.81c-.07-.05-.12,0-.1.11.29,1.26,1.09,2.44,2.49,2.3s1.89-1.46,1.89-2.81C164.86,218.38,164.57,218.09,164.37,218.29Z" style="fill: rgb(38, 50, 56); transform-origin: 162.658px 219.837px;" id="el5ww2ttglx5v" class="animable"></path><path d="M179.69,215.62c0-.08.19.06.2.14.42,2.06,1.24,4.35,3.25,4.59.06,0,.08.11,0,.12C180.82,220.68,179.76,217.63,179.69,215.62Z" style="fill: rgb(38, 50, 56); transform-origin: 181.441px 218.038px;" id="el1teqyfvj07i" class="animable"></path><path d="M181,213.06c3.22-1,5,5.5,2,6.45S178.31,213.91,181,213.06Z" style="fill: rgb(38, 50, 56); transform-origin: 182.095px 216.28px;" id="ele0a4ryr34ja" class="animable"></path><path d="M182.5,213.11c.61.2,1.29.69,1.92.56s1.06-1,1.33-1.81c0-.08.1,0,.12,0,.38,1.24.33,2.65-.81,3.22s-2.13-.33-2.77-1.49C182.17,213.43,182.25,213,182.5,213.11Z" style="fill: rgb(38, 50, 56); transform-origin: 184.159px 213.54px;" id="elptohb4kn17j" class="animable"></path><path d="M172.62,235.67c.58.39,1.2,1,2,.87a5.63,5.63,0,0,0,2.12-.95.07.07,0,0,1,.11.09,2.84,2.84,0,0,1-2.4,1.63,2.23,2.23,0,0,1-2-1.51C172.38,235.69,172.53,235.62,172.62,235.67Z" style="fill: rgb(38, 50, 56); transform-origin: 174.649px 236.437px;" id="eli3iv0m5dwqi" class="animable"></path><path d="M179.33,225.51s1.19,2.93,1.56,4.36c0,.14-4.92,2.54-8.1-.4a.15.15,0,0,1,.17-.25,10.58,10.58,0,0,0,6.67.19c0-.42-2.22-4.95-2-5a12.89,12.89,0,0,1,3.44-.1c-2.32-6.17-5.6-11.92-7.81-18.11a.2.2,0,0,1,.35-.19c3.87,5.79,6.69,12.84,9.24,19.15C183.19,225.93,180,225.61,179.33,225.51Z" style="fill: rgb(38, 50, 56); transform-origin: 177.8px 218.423px;" id="elfedymv84zkc" class="animable"></path><path d="M179.62,230.1a8.42,8.42,0,0,1-2.5,3.4,3.81,3.81,0,0,1-2.15.76c-1.71,0-2.16-1.41-2.22-2.74a9.18,9.18,0,0,1,.17-2.1A10.76,10.76,0,0,0,179.62,230.1Z" style="fill: rgb(38, 50, 56); transform-origin: 176.182px 231.84px;" id="el7r4ekkl62jp" class="animable"></path><path d="M177.12,233.5a3.81,3.81,0,0,1-2.15.76c-1.71,0-2.16-1.41-2.22-2.74C174.5,231.21,176.5,231.89,177.12,233.5Z" style="fill: rgb(255, 153, 186); transform-origin: 174.935px 232.853px;" id="elezq4rqe1bua" class="animable"></path><path d="M141.28,227.53c5.74.37,6.4-12.76,6.4-12.76s24-5.59,24.86-25.47c0,0,4.93,12.34,18,17.26,0,0-2.17-21.6-19.59-24.76,0,0-21.78-6.46-32.73,11.18S137.43,227.28,141.28,227.53Z" style="fill: rgb(38, 50, 56); transform-origin: 161.915px 204.092px;" id="elm20jk7vktqg" class="animable"></path><path d="M172.54,187.83a21.51,21.51,0,0,1-.53,9.09,22.28,22.28,0,0,1-4.1,8.25,18.13,18.13,0,0,1-1.53,1.74l-.8.85c-.28.26-.58.5-.88.75-.6.48-1.18,1-1.8,1.45s-1.3.82-2,1.22c-.33.19-.65.4-1,.58l-1,.48-2.09.95c-1.44.5-2.9.92-4.35,1.32,1.35-.69,2.75-1.24,4.08-1.93l1.95-1.1,1-.55c.31-.2.6-.43.9-.65.6-.44,1.2-.87,1.81-1.29s1.1-1,1.65-1.45l.83-.73.74-.82a18.69,18.69,0,0,0,1.43-1.66,26,26,0,0,0,4.17-7.72,27.39,27.39,0,0,0,1.1-4.3A26.67,26.67,0,0,0,172.54,187.83Z" style="fill: rgb(38, 50, 56); transform-origin: 162.629px 201.17px;" id="eljwr05d3gv2p" class="animable"></path><path d="M145.56,227.22s-8.42-8.19-12.25-5,3.76,15.93,9.15,16.83a5.21,5.21,0,0,0,6.33-4.06Z" style="fill: rgb(235, 148, 129); transform-origin: 140.53px 230.338px;" id="el53zerx4ajw" class="animable"></path><path d="M135.58,225.81a.07.07,0,0,0,0,.14c3.81.75,6.29,3.67,8.25,6.81-1.3-1.1-2.87-1.54-4.38,0-.08.09,0,.21.13.17a3.22,3.22,0,0,1,3.68.44,15.31,15.31,0,0,1,2.2,2.48c.22.29.76,0,.57-.33l-.05-.08C145.2,231,140.49,225.34,135.58,225.81Z" style="fill: rgb(38, 50, 56); transform-origin: 140.79px 230.876px;" id="el5u2pdfvn1sm" class="animable"></path><path d="M139.8,223.05s-5.46-14.55-3.57-24.05c2.1-10.58,15.21-22.65,30.2-18.13,0,0-17.83,2.67-24.13,17-2.9,6.6,2.58,24.07,2.58,24.07Z" style="fill: rgb(199, 199, 199); transform-origin: 151.131px 201.472px;" id="elqbe0yv8updl" class="animable"></path><g id="el9a37wvprqyc"><ellipse cx="143.98" cy="230.11" rx="12.55" ry="14.31" style="fill: rgb(199, 199, 199); transform-origin: 143.98px 230.11px; transform: rotate(-17.3deg);" class="animable"></ellipse></g><path d="M152.34,227c2.11,6.78-1,13.78-7,15.63s-12.48-2.14-14.6-8.92,1-13.78,7-15.64S150.23,220.26,152.34,227Z" style="fill: rgb(69, 90, 100); transform-origin: 141.538px 230.35px;" id="eljiw8j2mbc5" class="animable"></path><path d="M163.4,261.33l-5.5,13.88-17.3-17.45-4.85,5.64s17,27.78,17.06,26.52l5.66-12,8.28,8.27L166,265.37Z" style="fill: rgb(235, 235, 235); transform-origin: 151.25px 273.861px;" id="elgfnple36n2" class="animable"></path><path d="M167,275.89c-.25-3.43-.39-6.91-.79-10.33,0-.12-.21-.17-.24,0-.67,3.32.32,16.47.32,19.62l0,0c-.34-.36-7.67-7.28-7.74-7.17-1.23,1.9-5.38,10.62-5.66,11.41-2.69-4.41-14.07-21.8-17.24-26a.12.12,0,0,0-.2.12c2.37,4.66,17.07,27.61,17.28,27.55a137.18,137.18,0,0,0,5.92-12.65c1.24,1.51,8.64,9.32,8.66,8.81A109.82,109.82,0,0,0,167,275.89Z" style="fill: rgb(38, 50, 56); transform-origin: 151.394px 277.237px;" id="elwqgum8ya3we" class="animable"></path></g><g id="freepik--speech-bubbles--inject-33" class="animable" style="transform-origin: 384.421px 165.566px;"><path d="M263.48,168.85a31.21,31.21,0,0,1-52.15,19.75l-15.62,2.29,7.82-13.5a31.21,31.21,0,1,1,60-8.54Z" style="fill: rgb(255, 255, 255); transform-origin: 229.699px 165.667px;" id="elc5yycpaa3xj" class="animable"></path><path d="M263.48,168.85a31.47,31.47,0,0,1-6.3,15.83,28.58,28.58,0,0,1-6.12,6,30.71,30.71,0,0,1-7.53,4.19,31.11,31.11,0,0,1-8.41,2,29.81,29.81,0,0,1-4.33.08,27.16,27.16,0,0,1-4.32-.45A31.49,31.49,0,0,1,211,188.93l.37.11-15.6,2.4-1.13.17.57-1L203,177.08l0,.54a31.55,31.55,0,0,1,1.93-27.82,31.9,31.9,0,0,1,9.77-10.41,31.77,31.77,0,0,1,27.44-3.7,31.9,31.9,0,0,1,12,7.39A31.4,31.4,0,0,1,263.48,168.85Zm0,0a30.88,30.88,0,0,0-35.4-33.78,30.71,30.71,0,0,0-12.89,5.1,32.13,32.13,0,0,0-9.34,10.18,30.78,30.78,0,0,0-1.76,26.81l.11.28-.15.25-7.86,13.48-.56-.83,15.63-2.19.22,0,.15.15a30.86,30.86,0,0,0,15,7.7,27.3,27.3,0,0,0,4.23.51,30.42,30.42,0,0,0,4.27,0,31,31,0,0,0,8.34-1.83,28.86,28.86,0,0,0,7.53-4.06,27.79,27.79,0,0,0,6.14-6A31.33,31.33,0,0,0,263.48,168.85Z" style="fill: rgb(38, 50, 56); transform-origin: 229.146px 165.551px;" id="ellbpe0c37tsd" class="animable"></path><circle cx="246.06" cy="166.55" r="3.78" style="fill: rgb(38, 50, 56); transform-origin: 246.06px 166.55px;" id="elj8cqho7gom" class="animable"></circle><circle cx="232.51" cy="166.55" r="3.78" style="fill: rgb(38, 50, 56); transform-origin: 232.51px 166.55px;" id="el3u50xbwdjl4" class="animable"></circle><circle cx="218.97" cy="166.55" r="3.78" style="fill: rgb(38, 50, 56); transform-origin: 218.97px 166.55px;" id="ell7mjf1wjvr" class="animable"></circle><path d="M574,168.85a31.21,31.21,0,0,1-52.15,19.75l-15.62,2.29,7.81-13.5a31.22,31.22,0,1,1,60-8.54Z" style="fill: rgb(255, 255, 255); transform-origin: 540.216px 165.641px;" id="elf6kqq4st9hj" class="animable"></path><path d="M574,168.85a31.56,31.56,0,0,1-6.3,15.83,36.39,36.39,0,0,1-2.83,3.25,35,35,0,0,1-3.3,2.79,30.35,30.35,0,0,1-7.53,4.19,31,31,0,0,1-8.4,2,29.93,29.93,0,0,1-4.34.08,27.28,27.28,0,0,1-4.32-.45,31.5,31.5,0,0,1-15.44-7.62l.37.11-15.6,2.4-1.13.17.57-1,7.77-13.53,0,.54a31.58,31.58,0,0,1,1.92-27.82,31.93,31.93,0,0,1,9.78-10.41,31.77,31.77,0,0,1,27.44-3.7,31.86,31.86,0,0,1,12,7.39A31.37,31.37,0,0,1,574,168.85Zm0,0a30.88,30.88,0,0,0-35.4-33.78,30.71,30.71,0,0,0-12.89,5.1,32.13,32.13,0,0,0-9.34,10.18,30.75,30.75,0,0,0-4,13.21,31.16,31.16,0,0,0,2.19,13.6l.12.28-.15.25-7.86,13.48-.56-.83,15.63-2.19.22,0,.15.15a30.86,30.86,0,0,0,14.95,7.7,27.3,27.3,0,0,0,4.23.51,30.43,30.43,0,0,0,4.27,0,31,31,0,0,0,8.34-1.83,29,29,0,0,0,7.53-4.06,28,28,0,0,0,6.13-6A31.25,31.25,0,0,0,574,168.85Z" style="fill: rgb(38, 50, 56); transform-origin: 539.676px 165.566px;" id="elpgisyo7gb1" class="animable"></path><circle cx="556.53" cy="166.55" r="3.78" style="fill: rgb(38, 50, 56); transform-origin: 556.53px 166.55px;" id="elj7fmcti5wb" class="animable"></circle><circle cx="542.99" cy="166.55" r="3.78" style="fill: rgb(38, 50, 56); transform-origin: 542.99px 166.55px;" id="el3lqkgx71rqz" class="animable"></circle><path d="M533.23,166.55a3.78,3.78,0,1,1-3.78-3.77A3.78,3.78,0,0,1,533.23,166.55Z" style="fill: rgb(38, 50, 56); transform-origin: 529.45px 166.56px;" id="elw2z8r93skpl" class="animable"></path></g><g id="freepik--Devices--inject-33" class="animable" style="transform-origin: 412.855px 340.715px;"><rect x="205.11" y="390.17" width="6.69" height="4.37" style="fill: rgb(69, 90, 100); transform-origin: 208.455px 392.355px;" id="el7a96b1a8tm8" class="animable"></rect><rect x="213.79" y="389.88" width="6.69" height="4.37" style="fill: rgb(69, 90, 100); transform-origin: 217.135px 392.065px;" id="el8c9domt7o03" class="animable"></rect><rect x="222.47" y="389.59" width="6.69" height="4.37" style="fill: rgb(69, 90, 100); transform-origin: 225.815px 391.775px;" id="elq8y6eci0m5s" class="animable"></rect><rect x="231.14" y="389.3" width="6.69" height="4.37" style="fill: rgb(69, 90, 100); transform-origin: 234.485px 391.485px;" id="el295m53z4q27" class="animable"></rect><rect x="239.82" y="389.01" width="6.69" height="4.37" style="fill: rgb(69, 90, 100); transform-origin: 243.165px 391.195px;" id="eljpu8mfy844" class="animable"></rect><rect x="248.5" y="388.73" width="6.69" height="4.37" style="fill: rgb(69, 90, 100); transform-origin: 251.845px 390.915px;" id="elf69xi0pogx5" class="animable"></rect><rect x="257.17" y="388.44" width="6.69" height="4.37" style="fill: rgb(69, 90, 100); transform-origin: 260.515px 390.625px;" id="ellr6zbbxu37s" class="animable"></rect><rect x="265.85" y="388.15" width="6.69" height="4.37" style="fill: rgb(69, 90, 100); transform-origin: 269.195px 390.335px;" id="el0co0i86lhi1t" class="animable"></rect><rect x="274.52" y="387.86" width="6.69" height="4.37" style="fill: rgb(69, 90, 100); transform-origin: 277.865px 390.045px;" id="el8gdx2455gqk" class="animable"></rect><polygon points="282.85 397.05 203.47 397.05 203.47 391.73 282.85 389.52 282.85 397.05" style="fill: rgb(55, 71, 79); transform-origin: 243.16px 393.285px;" id="eltj2zix4oyyj" class="animable"></polygon><polygon points="360.33 376.09 229.29 376.09 250.13 278.53 381.17 278.53 360.33 376.09" style="fill: rgb(69, 90, 100); transform-origin: 305.23px 327.31px;" id="elieci9bdit0o" class="animable"></polygon><polygon points="365.18 376.09 234.13 376.09 254.97 278.53 386.02 278.53 365.18 376.09" style="fill: rgb(55, 71, 79); transform-origin: 310.075px 327.31px;" id="elm8liezllvxn" class="animable"></polygon><path d="M321.4,321.66a9.86,9.86,0,0,1-9.39,8.1,6.74,6.74,0,0,1-6.81-8.1,9.85,9.85,0,0,1,9.38-8.11A6.74,6.74,0,0,1,321.4,321.66Z" style="fill: rgb(38, 50, 56); transform-origin: 313.301px 321.655px;" id="elpqcv7rnwgm" class="animable"></path><polygon points="328.12 401.57 263.67 401.57 263.67 396.56 328.12 394.48 328.12 401.57" style="fill: rgb(69, 90, 100); transform-origin: 295.895px 398.025px;" id="elf5f3phdvpfc" class="animable"></polygon><polygon points="345.64 401.56 311.03 401.56 290.19 346.89 324.8 346.89 345.64 401.56" style="fill: rgb(69, 90, 100); transform-origin: 317.915px 374.225px;" id="elpv4ijadq1z9" class="animable"></polygon><polygon points="351.33 401.56 316.73 401.56 295.89 346.89 330.49 346.89 351.33 401.56" style="fill: rgb(38, 50, 56); transform-origin: 323.61px 374.225px;" id="el2cyly7lj9jv" class="animable"></polygon><path d="M201,402.9H134.58c-5.67,0,2.53-16.15,23.23-22.34S207.55,396.84,201,402.9Z" style="fill: rgb(55, 71, 79); transform-origin: 167.386px 391.196px;" id="elownnopucy7" class="animable"></path><path d="M175,402.9a19.65,19.65,0,0,1,.9-5.42,22.66,22.66,0,0,1,2.23-5.07,18.2,18.2,0,0,1,3.53-4.29,15.69,15.69,0,0,1,4.68-2.89c-.71.58-1.52,1-2.17,1.63l-1,.87-.94,1a23.29,23.29,0,0,0-3.21,4.24,31.9,31.9,0,0,0-2.36,4.8A40.37,40.37,0,0,0,175,402.9Z" style="fill: rgb(38, 50, 56); transform-origin: 180.67px 394.065px;" id="elwmhw90rcif" class="animable"></path><path d="M182.82,387.53A40.91,40.91,0,0,1,193.91,393a23.93,23.93,0,0,1,4.63,4.19A9.77,9.77,0,0,1,201,402.9a11.58,11.58,0,0,0-3.06-5.15,32.08,32.08,0,0,0-4.63-3.9c-1.65-1.19-3.38-2.26-5.14-3.31S184.64,388.5,182.82,387.53Z" style="fill: rgb(38, 50, 56); transform-origin: 191.91px 395.215px;" id="elo5dhsd0iwa" class="animable"></path><rect x="511.97" y="390.17" width="6.69" height="4.37" style="fill: rgb(69, 90, 100); transform-origin: 515.315px 392.355px;" id="eliitrhct0s39" class="animable"></rect><rect x="520.65" y="389.88" width="6.69" height="4.37" style="fill: rgb(69, 90, 100); transform-origin: 523.995px 392.065px;" id="ellhdb707vktd" class="animable"></rect><rect x="529.33" y="389.59" width="6.69" height="4.37" style="fill: rgb(69, 90, 100); transform-origin: 532.675px 391.775px;" id="el23gcidblrfq" class="animable"></rect><rect x="538" y="389.3" width="6.69" height="4.37" style="fill: rgb(69, 90, 100); transform-origin: 541.345px 391.485px;" id="el1fod24u9nbf" class="animable"></rect><rect x="546.68" y="389.01" width="6.69" height="4.37" style="fill: rgb(69, 90, 100); transform-origin: 550.025px 391.195px;" id="el9q7m5ys33x" class="animable"></rect><rect x="555.36" y="388.73" width="6.69" height="4.37" style="fill: rgb(69, 90, 100); transform-origin: 558.705px 390.915px;" id="elod92hb651t" class="animable"></rect><rect x="564.03" y="388.44" width="6.69" height="4.37" style="fill: rgb(69, 90, 100); transform-origin: 567.375px 390.625px;" id="el1j84pa19xmn" class="animable"></rect><rect x="572.71" y="388.15" width="6.69" height="4.37" style="fill: rgb(69, 90, 100); transform-origin: 576.055px 390.335px;" id="elxdyv7k424k" class="animable"></rect><rect x="581.39" y="387.86" width="6.69" height="4.37" style="fill: rgb(69, 90, 100); transform-origin: 584.735px 390.045px;" id="el2mguvmj4sdg" class="animable"></rect><polygon points="589.72 397.05 510.34 397.05 510.34 391.73 589.72 389.52 589.72 397.05" style="fill: rgb(55, 71, 79); transform-origin: 550.03px 393.285px;" id="ele9d6blwhzz8" class="animable"></polygon><polygon points="667.19 376.09 536.15 376.09 556.99 278.53 688.03 278.53 667.19 376.09" style="fill: rgb(69, 90, 100); transform-origin: 612.09px 327.31px;" id="elrrgz3fq838" class="animable"></polygon><polygon points="672.04 376.09 541 376.09 561.84 278.53 692.88 278.53 672.04 376.09" style="fill: rgb(55, 71, 79); transform-origin: 616.94px 327.31px;" id="el6zuduafgtrf" class="animable"></polygon><path d="M628.26,321.66a9.86,9.86,0,0,1-9.38,8.1,6.74,6.74,0,0,1-6.82-8.1,9.86,9.86,0,0,1,9.38-8.11A6.74,6.74,0,0,1,628.26,321.66Z" style="fill: rgb(38, 50, 56); transform-origin: 620.161px 321.655px;" id="ellf8q8cf36vk" class="animable"></path><polygon points="634.98 401.57 570.53 401.57 570.53 396.56 634.98 394.48 634.98 401.57" style="fill: rgb(69, 90, 100); transform-origin: 602.755px 398.025px;" id="elu9ifvbllkj" class="animable"></polygon><polygon points="652.5 401.56 617.89 401.56 597.05 346.89 631.66 346.89 652.5 401.56" style="fill: rgb(69, 90, 100); transform-origin: 624.775px 374.225px;" id="elb2svxwzrw28" class="animable"></polygon><polygon points="658.2 401.56 623.59 401.56 602.75 346.89 637.36 346.89 658.2 401.56" style="fill: rgb(38, 50, 56); transform-origin: 630.475px 374.225px;" id="elno4r82xqdk" class="animable"></polygon><path d="M507.89,402.9H441.44c-5.67,0,2.53-16.15,23.23-22.34S514.41,396.84,507.89,402.9Z" style="fill: rgb(55, 71, 79); transform-origin: 474.257px 391.196px;" id="el24upx6071ld" class="animable"></path><path d="M481.81,402.9a20,20,0,0,1,.9-5.42,23.13,23.13,0,0,1,2.23-5.07,18.71,18.71,0,0,1,3.53-4.29,15.69,15.69,0,0,1,4.68-2.89c-.71.58-1.52,1-2.17,1.63l-1,.87-.94,1a22.9,22.9,0,0,0-3.22,4.24,31.9,31.9,0,0,0-2.36,4.8A40.37,40.37,0,0,0,481.81,402.9Z" style="fill: rgb(38, 50, 56); transform-origin: 487.48px 394.065px;" id="elpwbvfqx7qss" class="animable"></path><path d="M489.68,387.53A40.91,40.91,0,0,1,500.77,393a24.28,24.28,0,0,1,4.64,4.19,9.83,9.83,0,0,1,2.48,5.67,11.6,11.6,0,0,0-3.07-5.15,32.08,32.08,0,0,0-4.63-3.9c-1.64-1.19-3.38-2.26-5.14-3.31S491.51,388.5,489.68,387.53Z" style="fill: rgb(38, 50, 56); transform-origin: 498.785px 395.195px;" id="eli227uughlh" class="animable"></path></g><defs>     <filter id="active" height="200%">         <feMorphology in="SourceAlpha" result="DILATED" operator="dilate" radius="2"></feMorphology>                <feFlood flood-color="#32DFEC" flood-opacity="1" result="PINK"></feFlood>        <feComposite in="PINK" in2="DILATED" operator="in" result="OUTLINE"></feComposite>        <feMerge>            <feMergeNode in="OUTLINE"></feMergeNode>            <feMergeNode in="SourceGraphic"></feMergeNode>        </feMerge>    </filter>    <filter id="hover" height="200%">        <feMorphology in="SourceAlpha" result="DILATED" operator="dilate" radius="2"></feMorphology>                <feFlood flood-color="#ff0000" flood-opacity="0.5" result="PINK"></feFlood>        <feComposite in="PINK" in2="DILATED" operator="in" result="OUTLINE"></feComposite>        <feMerge>            <feMergeNode in="OUTLINE"></feMergeNode>            <feMergeNode in="SourceGraphic"></feMergeNode>        </feMerge>            <feColorMatrix type="matrix" values="0   0   0   0   0                0   1   0   0   0                0   0   0   0   0                0   0   0   1   0 "></feColorMatrix>    </filter></defs></svg>