<svg xmlns="http://www.w3.org/2000/svg" viewBox="0 0 500 500"><g id="freepik--background-complete--inject-2"><rect x="50.72" y="146.53" width="120.12" height="7.13" style="fill:#ebebeb"></rect><rect x="59.84" y="153.67" width="7.14" height="23.59" style="fill:#ebebeb"></rect><rect x="59.84" y="153.67" width="7.14" height="7.29" style="fill:#dbdbdb"></rect><rect x="154.59" y="153.67" width="7.14" height="23.59" style="fill:#ebebeb"></rect><rect x="154.59" y="153.67" width="7.14" height="7.29" style="fill:#dbdbdb"></rect><rect x="64.08" y="118.08" width="45.46" height="11.45" transform="translate(210.61 37) rotate(90)" style="fill:#c7c7c7"></rect><rect x="84.31" y="95.42" width="4.99" height="11.45" transform="translate(187.95 14.34) rotate(90)" style="fill:#dbdbdb"></rect><rect x="85.88" y="105.24" width="1.85" height="11.45" transform="translate(197.77 24.16) rotate(90)" style="fill:#dbdbdb"></rect><rect x="85.02" y="131.64" width="5" height="12.87" transform="translate(225.59 50.56) rotate(90)" style="fill:#dbdbdb"></rect><rect x="70.01" y="116.02" width="53.03" height="8" transform="translate(216.55 23.49) rotate(90)" style="fill:#dbdbdb"></rect><rect x="86.3" y="106.29" width="20.39" height="4.8" transform="translate(205.18 12.2) rotate(90)" style="fill:#ebebeb"></rect><rect x="109.26" y="121.06" width="53.03" height="8" transform="translate(127.12 -59.33) rotate(44.67)" style="fill:#c7c7c7"></rect><rect x="128.35" y="125.36" width="20.39" height="4.8" transform="translate(129.82 -60.5) rotate(44.67)" style="fill:#dbdbdb"></rect><rect x="87.18" y="119.61" width="40.28" height="13.59" transform="translate(233.72 19.09) rotate(90)" style="fill:#a6a6a6"></rect><rect x="105.44" y="133.6" width="3.75" height="13.59" transform="translate(247.71 33.08) rotate(90)" style="fill:#c7c7c7"></rect><rect x="106.59" y="128.53" width="1.46" height="13.59" transform="translate(242.64 28.01) rotate(90)" style="fill:#c7c7c7"></rect><rect x="57.46" y="122.92" width="37.85" height="9.38" transform="translate(204 51.23) rotate(90)" style="fill:#a6a6a6"></rect><rect x="74.62" y="136.07" width="3.53" height="9.38" transform="translate(217.15 64.38) rotate(90)" style="fill:#c7c7c7"></rect><rect x="74.62" y="113.56" width="3.53" height="9.38" transform="translate(194.64 41.87) rotate(90)" style="fill:#c7c7c7"></rect><rect x="75.7" y="118.43" width="1.37" height="9.38" transform="translate(199.51 46.73) rotate(90)" style="fill:#c7c7c7"></rect><rect x="66.11" y="363.88" width="26.48" height="11.19" style="fill:#ebebeb"></rect><rect x="51.34" y="377.99" width="26.48" height="11.19" style="fill:#ebebeb"></rect><rect x="359.87" y="196.61" width="26.48" height="11.19" style="fill:#ebebeb"></rect><rect x="345.1" y="210.72" width="26.48" height="11.19" style="fill:#ebebeb"></rect><rect x="330.38" y="196.61" width="26.48" height="11.19" style="fill:#ebebeb"></rect><rect x="422.18" y="377.99" width="26.48" height="11.19" style="fill:#ebebeb"></rect><rect x="176.46" y="281.01" width="26.48" height="11.19" style="fill:#ebebeb"></rect><rect x="407.41" y="52.3" width="26.48" height="11.19" style="fill:#ebebeb"></rect><rect x="422.18" y="66.41" width="26.48" height="11.19" style="fill:#ebebeb"></rect><rect x="66.11" y="52.3" width="26.48" height="11.19" style="fill:#ebebeb"></rect><rect x="351.8" y="49.12" width="99.69" height="111.22" style="fill:#dbdbdb"></rect><rect x="358.36" y="55.69" width="86.55" height="98.14" style="fill:#ebebeb"></rect><rect x="366.19" y="73.04" width="30.51" height="36.15" style="fill:#fff"></rect><path d="M382.54,75.5a1.1,1.1,0,1,1-1.1-1.1A1.1,1.1,0,0,1,382.54,75.5Z" style="fill:#455a64"></path><path d="M372,80.28c3.09-.23,6.17-.25,9.26-.28s6.17,0,9.25.28c-3.08.24-6.17.26-9.25.29S375.08,80.52,372,80.28Z" style="fill:#ebebeb"></path><path d="M372,83.14a42.58,42.58,0,0,1,5-.29,40.51,40.51,0,0,1,5,.29,38.67,38.67,0,0,1-5,.29A40.56,40.56,0,0,1,372,83.14Z" style="fill:#ebebeb"></path><path d="M372,86a71.43,71.43,0,0,1,12.86,0c-2.14.22-4.28.27-6.43.28S374.14,86.22,372,86Z" style="fill:#ebebeb"></path><path d="M372,88.85c2.69-.22,5.37-.27,8.05-.28s5.36.06,8,.28c-2.68.23-5.36.28-8,.29S374.68,89.08,372,88.85Z" style="fill:#ebebeb"></path><path d="M372,91.71c2.33-.22,4.66-.27,7-.29s4.66.07,7,.29c-2.33.23-4.66.28-7,.29S374.32,91.94,372,91.71Z" style="fill:#ebebeb"></path><path d="M372,94.57c3-.24,6-.25,8.95-.29s6,0,8.94.29c-3,.24-6,.25-8.94.29S375,94.81,372,94.57Z" style="fill:#ebebeb"></path><path d="M372,97.43a57.75,57.75,0,0,1,11.56,0,59.8,59.8,0,0,1-11.56,0Z" style="fill:#ebebeb"></path><path d="M372,100.28c3.09-.23,6.17-.25,9.26-.28s6.17,0,9.25.28c-3.08.24-6.17.26-9.25.29S375.08,100.52,372,100.28Z" style="fill:#ebebeb"></path><path d="M372,103.14c3.09-.24,6.17-.25,9.26-.29s6.17.05,9.25.29c-3.08.24-6.17.25-9.25.29S375.08,103.38,372,103.14Z" style="fill:#ebebeb"></path><rect x="401.34" y="95.58" width="36.1" height="42.78" style="fill:#fff"></rect><path d="M420.49,101.35a1.1,1.1,0,1,1-1.1-1.09A1.1,1.1,0,0,1,420.49,101.35Z" style="fill:#455a64"></path><path d="M406.39,106.26a27.8,27.8,0,0,1,8,0,28.78,28.78,0,0,1-8,0Z" style="fill:#ebebeb"></path><path d="M406.39,109.48a46.5,46.5,0,0,1,10.37,0,41,41,0,0,1-5.18.29A43,43,0,0,1,406.39,109.48Z" style="fill:#ebebeb"></path><path d="M406.39,112.71a40,40,0,0,1,9.61,0,41.37,41.37,0,0,1-9.61,0Z" style="fill:#ebebeb"></path><path d="M406.39,115.93a38.65,38.65,0,0,1,4.8-.29,36.86,36.86,0,0,1,4.81.29,35.19,35.19,0,0,1-4.81.29A36.81,36.81,0,0,1,406.39,115.93Z" style="fill:#ebebeb"></path><path d="M406.39,119.16a30.2,30.2,0,0,1,8.35,0,31.27,31.27,0,0,1-8.35,0Z" style="fill:#ebebeb"></path><path d="M406.39,122.38a47.77,47.77,0,0,1,5.34-.29,45.5,45.5,0,0,1,5.34.29,43.44,43.44,0,0,1-5.34.29A45.5,45.5,0,0,1,406.39,122.38Z" style="fill:#ebebeb"></path><path d="M406.39,125.61a33.68,33.68,0,0,1,8.82,0,34.87,34.87,0,0,1-8.82,0Z" style="fill:#ebebeb"></path><path d="M406.39,128.83a54.65,54.65,0,0,1,11.05,0,52.78,52.78,0,0,1-11.05,0Z" style="fill:#ebebeb"></path><path d="M406.39,132.06a52.78,52.78,0,0,1,11.05,0,54.65,54.65,0,0,1-11.05,0Z" style="fill:#ebebeb"></path><path d="M422.17,106.26a47.58,47.58,0,0,1,10.49,0,49.27,49.27,0,0,1-10.49,0Z" style="fill:#ebebeb"></path><path d="M422.17,109.48a20.67,20.67,0,0,1,6.9,0,18.27,18.27,0,0,1-3.45.29A19.13,19.13,0,0,1,422.17,109.48Z" style="fill:#ebebeb"></path><path d="M422.17,112.71a42.14,42.14,0,0,1,9.87,0,43.63,43.63,0,0,1-9.87,0Z" style="fill:#ebebeb"></path><path d="M422.17,115.93a38.65,38.65,0,0,1,4.8-.29,36.81,36.81,0,0,1,4.8.29,35.14,35.14,0,0,1-4.8.29A36.81,36.81,0,0,1,422.17,115.93Z" style="fill:#ebebeb"></path><path d="M422.17,119.16a47.58,47.58,0,0,1,10.49,0,49.27,49.27,0,0,1-10.49,0Z" style="fill:#ebebeb"></path><path d="M422.17,122.38a29.23,29.23,0,0,1,4.17-.29,27.84,27.84,0,0,1,4.17.29,26.58,26.58,0,0,1-4.17.29A27.84,27.84,0,0,1,422.17,122.38Z" style="fill:#ebebeb"></path><path d="M422.17,125.61a42.14,42.14,0,0,1,9.87,0,43.63,43.63,0,0,1-9.87,0Z" style="fill:#ebebeb"></path><path d="M422.17,128.83a26.13,26.13,0,0,1,7.63,0,25.24,25.24,0,0,1-7.63,0Z" style="fill:#ebebeb"></path><path d="M422.17,132.06a23.24,23.24,0,0,1,7.32,0,24.06,24.06,0,0,1-7.32,0Z" style="fill:#ebebeb"></path><rect x="393.89" y="63.1" width="18.36" height="18.36" style="fill:#F9D538"></rect><path d="M404.17,65a1.1,1.1,0,1,1-1.1-1.1A1.1,1.1,0,0,1,404.17,65Z" style="fill:#455a64"></path><rect x="442.36" y="55.69" width="2.48" height="98.25" style="fill:#c7c7c7"></rect><polygon points="377.69 371.29 414.73 371.29 435.94 265.58 402.01 250 377.69 371.29" style="fill:#c7c7c7"></polygon><polygon points="271.65 371.29 377.69 371.29 402.01 250 295.98 250 271.65 371.29" style="fill:#ebebeb"></polygon><rect x="396.71" y="314.58" width="56.78" height="116.5" transform="translate(850.19 745.66) rotate(180)" style="fill:#c7c7c7"></rect><polygon points="244.4 431.08 259.91 431.08 283.02 314.58 244.4 314.58 244.4 431.08" style="fill:#c7c7c7"></polygon><rect x="365.51" y="314.58" width="31.2" height="116.5" transform="translate(762.21 745.66) rotate(180)" style="fill:#ebebeb"></rect><rect x="213.2" y="314.58" width="31.2" height="116.5" transform="translate(457.6 745.66) rotate(180)" style="fill:#ebebeb"></rect><rect x="244.4" y="371.29" width="121.11" height="59.78" transform="translate(609.91 802.37) rotate(180)" style="fill:#ebebeb"></rect><rect x="244.4" y="345.45" width="121.11" height="26.09" transform="translate(609.91 716.99) rotate(180)" style="fill:#ebebeb"></rect><path d="M389.06,314.58l-11.77-.16-11.78-.11h-.27v.27l-.1,13.63,0,13.64c0,9.08-.05,18.17,0,27.26s0,18.18.12,27.27.15,18.18.3,27.27q.21-13.63.3-27.27c.08-9.09.09-18.18.12-27.27s0-18.18,0-27.26l0-13.64-.1-13.63-.27.27,11.78-.11Z" style="fill:#c7c7c7"></path><path d="M244.4,314.58c-.19,9.12-.27,18.24-.34,27.37L244,369.32l.11,27.36.12,13.69.22,13.68.22-13.68.12-13.69.1-27.36-.1-27.37C244.67,332.82,244.58,323.7,244.4,314.58Z" style="fill:#c7c7c7"></path><path d="M244.4,371.29c10.09.19,20.18.27,30.28.35l30.27.1,30.28-.1,15.14-.13,15.14-.22-15.14-.21L335.23,371l-30.28-.1-30.27.1C264.58,371,254.49,371.11,244.4,371.29Z" style="fill:#c7c7c7"></path><path d="M244.4,345.45c10.09.18,20.18.27,30.28.34l30.27.1,30.28-.1,15.14-.12,15.14-.22-15.14-.22-15.14-.12L305,345l-30.27.11C264.58,345.18,254.49,345.27,244.4,345.45Z" style="fill:#c7c7c7"></path><polygon points="431.91 431.08 432.68 440.51 434.47 462.32 442.69 462.32 444.48 440.51 445.25 431.08 431.91 431.08" style="fill:#c7c7c7"></polygon><polygon points="445.25 431.08 431.91 431.08 432.68 440.51 444.48 440.51 445.25 431.08" style="fill:#a6a6a6"></polygon><polygon points="374.44 431.08 375.2 440.51 377 462.32 385.22 462.32 387.01 440.51 387.78 431.08 374.44 431.08" style="fill:#c7c7c7"></polygon><polygon points="387.78 431.08 374.44 431.08 375.2 440.51 387.01 440.51 387.78 431.08" style="fill:#a6a6a6"></polygon><polygon points="279.11 431.08 279.88 440.51 281.67 462.32 289.89 462.32 291.69 440.51 292.45 431.08 279.11 431.08" style="fill:#c7c7c7"></polygon><polygon points="292.45 431.08 279.11 431.08 279.88 440.51 291.69 440.51 292.45 431.08" style="fill:#a6a6a6"></polygon><polygon points="221.63 431.08 222.4 440.51 224.19 462.32 232.41 462.32 234.2 440.51 234.97 431.08 221.63 431.08" style="fill:#c7c7c7"></polygon><polygon points="221.63 431.08 222.4 440.51 234.2 440.51 234.97 431.08 221.63 431.08" style="fill:#a6a6a6"></polygon></g><g id="freepik--Plant--inject-2"><path d="M413.38,371.8A73.13,73.13,0,0,0,411,385.06c.12.22.1,1,0,.82,0,.73-1.14.59-1.14-.12,0-.47,0-.94.05-1.4-2.59-3.21-6.35-5.25-9.4-8.05a17.62,17.62,0,0,1-5.14-8.19c-2.53-8.69-.16-17.9-3.2-26.57-2.61-7.48-7.3-14-11.27-20.75-4.19-7.16-7.28-14.69-7.59-23.08-.25-6.42.52-15,5.41-19.79,5.19-5.11,11.62-1.28,15.59,3.27,11.51,13.21,16.84,29.91,19,47,1.19,9.45,2.42,18.95,2.14,28.49A77,77,0,0,1,413.38,371.8Z" style="fill:#F9D538"></path><path d="M411.08,388.53a162.76,162.76,0,0,0-.31-26.77s0-.06,0-.1c.15-7.24.72-14.44.44-21.69a128.52,128.52,0,0,0-3.19-23.26c0-.09-.16-.07-.14,0a151.12,151.12,0,0,1,2.52,22.75q.22,6.13-.1,12.27c-.07,1.32-.19,2.66-.28,4h0a143.3,143.3,0,0,0-21.53-57c-.15-.24-.57,0-.42.25a148.77,148.77,0,0,1,17.52,42.25c-5.53-10.26-13.9-18.69-20.1-28.55a.06.06,0,0,0-.1.06c5.58,11,14.79,19.62,20.66,30.44,1,4.4,1.85,8.85,2.47,13.32a149.22,149.22,0,0,1,1.33,18.52c-3.37-6.3-6.87-12.33-9.63-19-.07-.18-.33-.05-.27.12,2.35,6.93,5.51,14.39,9.92,20.29,0,4.39-.1,8.77-.36,13.15-.69,11.69-2.69,23.22-3.61,34.87a.27.27,0,0,0,.53.06A266.17,266.17,0,0,0,411.08,388.53Z" style="fill:#263238"></path><path d="M398.67,298.39c0-.08-.16,0-.13.06,2.14,5.9,3.34,11.89,4.89,17.94a.22.22,0,0,0,.44-.07C403.24,310.18,401.05,304.05,398.67,298.39Z" style="fill:#263238"></path><path d="M452.88,323.13A87.8,87.8,0,0,1,448,333.22c-3.84,7-7.85,13.38-8.58,21.51-.32,3.63-.44,7.27-1.54,10.77a32.27,32.27,0,0,1-4.3,8.43c-4.16,6.07-9.37,11.3-13.23,17.6a73.91,73.91,0,0,0-8.79,21.2c-.1.41-.74.3-.65-.11a.24.24,0,0,0,0-.09.1.1,0,0,1,0-.08c-.61-17.43.78-35,6.09-51.7a180.24,180.24,0,0,1,8.45-21.5c2.85-6.05,6.4-11.87,11.4-16.4,3.24-2.92,10.28-8.46,14.89-5.53C453.92,318.73,453.76,321,452.88,323.13Z" style="fill:#F9D538"></path><path d="M435.37,362.65a144.45,144.45,0,0,1-10.13,14.56c-1.69,2.2-3.4,4.38-5.09,6.59-.79,1-1.68,2.08-2.42,3.2.47-1.83.91-3.67,1.38-5.5,2.25-8.81,4.41-17.69,7.76-26.16A177.6,177.6,0,0,1,439,331.62c.12-.2-.2-.35-.32-.15-3.69,6-7.42,12.1-10.52,18.49a95.46,95.46,0,0,0-4.46,11,168.35,168.35,0,0,1,5.94-23.44c0-.07-.08-.12-.11-.05a80.15,80.15,0,0,0-6.16,24.38s0,0,0,0c-.76,2.26-1.45,4.55-2.1,6.85-2.75,9.75-5.16,19.61-7.39,29.49a106,106,0,0,1,1.68-19.38c0-.14-.19-.18-.23,0a61.47,61.47,0,0,0-1.68,20.44q-1.28,5.64-2.47,11.29c-1.71,8-3.82,16.21-4.82,24.37a.16.16,0,0,0,.32.05c1.2-4.4,1.92-9,2.9-13.41s2-8.92,3-13.38c1.51-6.48,3.1-12.95,4.71-19.41,1.08-2.37,3.17-4.47,4.73-6.46,1.72-2.18,3.43-4.36,5.1-6.57a99.12,99.12,0,0,0,8.39-13A.08.08,0,1,0,435.37,362.65Z" style="fill:#263238"></path><path d="M436.11,355.19a91.06,91.06,0,0,0-9.91,15.75c0,.07.07.15.12.08,3.33-5.23,6.61-10.5,9.94-15.73C436.32,355.2,436.17,355.11,436.11,355.19Z" style="fill:#263238"></path><path d="M361.91,339.66c2.26,3.89,4.84,8.56,3.87,13.23-.61,3-2.78,5.36-3.17,8.37-.87,6.66,5.76,11.06,10.56,14.21,12,7.85,28.38,14.85,30.56,30.89.08.56,1.06.42,1-.13a.43.43,0,0,0,0-.11s.06-.05.06-.09a61.43,61.43,0,0,0-.23-24.5c-1.78-8.26-5.39-15.69-9.65-22.95-7.2-12.29-14.83-24.87-25.72-34.28-3-2.6-9.19-7.29-11.59-1.41C355.24,328.6,359.15,334.92,361.91,339.66Z" style="fill:#F9D538"></path><path d="M372.87,365.71c7.93,8.59,20.55,13.41,27.38,23-4.05-14.75-10.75-28-21.05-39.53-.26-.29.15-.72.44-.44a78.07,78.07,0,0,1,17.2,24.91,111.33,111.33,0,0,0-7.41-18.94c-.11-.23.22-.43.35-.2a72.23,72.23,0,0,1,8,21.28c9,21.79,9.83,47.34,7.94,70.31,0,.32-.52.33-.51,0,.51-18.1.22-36.51-4.12-54.19-.09-.37-.19-.73-.28-1.1-7.43-10.36-20-15.16-28.07-25C372.65,365.75,372.78,365.62,372.87,365.71Z" style="fill:#263238"></path><path d="M371,358.33c4.16,3.82,8.26,7.73,12.44,11.55,0,0,0,.11-.06.08a60.53,60.53,0,0,1-12.63-11.38A.18.18,0,0,1,371,358.33Z" style="fill:#263238"></path><path d="M370.37,341.78a130.8,130.8,0,0,0,12.46,17.14c.06.07,0,.17-.1.1a60.31,60.31,0,0,1-12.58-17.11A.13.13,0,0,1,370.37,341.78Z" style="fill:#263238"></path><polygon points="389.12 462.32 425.61 462.32 420.69 413.23 394.74 413.23 389.12 462.32" style="fill:#455a64"></polygon><polygon points="393.83 421.21 421.5 421.21 420.69 413.23 394.74 413.23 393.83 421.21" style="fill:#263238"></polygon><rect x="390.27" y="407.8" width="34.2" height="7.84" transform="translate(814.73 823.43) rotate(180)" style="fill:#455a64"></rect></g><g id="freepik--Floor--inject-2"><polygon points="46.52 462.32 97.39 462.08 148.26 461.99 250 461.82 351.74 461.99 402.61 462.08 453.48 462.32 402.61 462.57 351.74 462.65 250 462.82 148.26 462.65 97.39 462.57 46.52 462.32" style="fill:#263238"></polygon></g><g id="freepik--Calendar--inject-2"><rect x="151.12" y="91.08" width="197.76" height="142.28" style="fill:#fff"></rect><path d="M349.38,233.86H150.62V90.58H349.38Zm-197.76-1H348.38V91.58H151.62Z" style="fill:#c7c7c7"></path><rect x="216.29" y="144.01" width="115.79" height="14.37" style="fill:#F9D538;opacity:0.30000000000000004"></rect><rect x="167.91" y="163.91" width="91.33" height="14.37" style="fill:#F9D538;opacity:0.30000000000000004"></rect><rect x="151.12" y="59.94" width="197.76" height="31.14" style="fill:#F9D538"></rect><rect x="216.29" y="144.01" width="18.49" height="14.37" style="fill:#F9D538"></rect><rect x="240.76" y="163.91" width="18.49" height="14.37" style="fill:#F9D538"></rect><path d="M174.72,112.88a.62.62,0,0,1,.87-.09,3.91,3.91,0,0,0,2.28.92,2.58,2.58,0,0,0,1.49-.44,1.06,1.06,0,0,0,.51-.86.7.7,0,0,0-.1-.38,1.11,1.11,0,0,0-.36-.36,4.71,4.71,0,0,0-1.63-.56h0a6.94,6.94,0,0,1-1.54-.46,2.72,2.72,0,0,1-1.11-.93,1.92,1.92,0,0,1-.27-1,2.21,2.21,0,0,1,.95-1.74,3.51,3.51,0,0,1,2.07-.64,4.65,4.65,0,0,1,2.6,1,.6.6,0,0,1,.16.84.59.59,0,0,1-.84.18,3.52,3.52,0,0,0-1.92-.76,2.27,2.27,0,0,0-1.34.41.94.94,0,0,0-.45.75.56.56,0,0,0,.08.33,1.19,1.19,0,0,0,.32.31,4,4,0,0,0,1.49.53h0a6.72,6.72,0,0,1,1.64.5,2.86,2.86,0,0,1,1.2,1,1.89,1.89,0,0,1,.28,1,2.33,2.33,0,0,1-1,1.85,3.74,3.74,0,0,1-2.21.68,5.16,5.16,0,0,1-3.05-1.19A.64.64,0,0,1,174.72,112.88Z" style="fill:#F9D538"></path><path d="M205,107.26v7a.67.67,0,0,1-.67.65.66.66,0,0,1-.66-.65v-5L202,111.66a.64.64,0,0,1-.54.27h0a.66.66,0,0,1-.55-.27l-1.71-2.39v5a.66.66,0,0,1-1.32,0v-7a.66.66,0,0,1,.65-.66h0a.66.66,0,0,1,.53.28l2.37,3.29,2.37-3.29a.65.65,0,0,1,.54-.28h0A.68.68,0,0,1,205,107.26Z" style="fill:#F9D538"></path><path d="M228.73,107.93h-1.9v6.37a.64.64,0,0,1-.65.65.65.65,0,0,1-.66-.65v-6.37h-1.88a.67.67,0,0,1-.66-.67.65.65,0,0,1,.66-.66h5.09a.65.65,0,0,1,.65.66A.67.67,0,0,1,228.73,107.93Z" style="fill:#F9D538"></path><path d="M255.24,107.59l-2.93,7a.31.31,0,0,1-.05.1l0,0-.06.07s0,0,0,0l-.08.06h0s-.06.06-.11.07h0s0,0,0,0l-.1,0h-.29l-.08,0,0,0a.18.18,0,0,1-.11-.07h0l-.09-.06,0,0s0,0,0-.07a0,0,0,0,1,0,0s0-.07,0-.1l-1.56-3.7-1.56,3.7a.93.93,0,0,0-.05.1s0,0,0,0l-.08.07s0,0,0,0l-.07.06h0a.46.46,0,0,1-.1.07h0s0,0,0,0l-.1,0h-.3l-.08,0,0,0a.21.21,0,0,1-.11-.07h0s0,0-.09-.06l0,0-.06-.07v0a.88.88,0,0,1-.06-.1l-2.93-7a.65.65,0,0,1,1.2-.5l2.34,5.52,1.54-3.66a.65.65,0,0,1,.62-.4.68.68,0,0,1,.62.4l1.54,3.66,2.32-5.52a.66.66,0,0,1,.87-.34A.64.64,0,0,1,255.24,107.59Z" style="fill:#F9D538"></path><path d="M276.83,107.93h-1.9v6.37a.66.66,0,0,1-1.31,0v-6.37h-1.89a.66.66,0,0,1-.65-.67.64.64,0,0,1,.65-.66h5.1a.66.66,0,0,1,.65.66A.67.67,0,0,1,276.83,107.93Z" style="fill:#F9D538"></path><path d="M296.16,114.3v-7a.65.65,0,0,1,.65-.66h3.9a.67.67,0,0,1,0,1.33h-3.23v2.18h2.78a.66.66,0,1,1,0,1.32h-2.78v2.87a.67.67,0,0,1-.67.65A.65.65,0,0,1,296.16,114.3Z" style="fill:#F9D538"></path><path d="M319.68,112.88a.62.62,0,0,1,.87-.09,3.94,3.94,0,0,0,2.28.92,2.56,2.56,0,0,0,1.49-.44,1.07,1.07,0,0,0,.52-.86.7.7,0,0,0-.11-.38,1.11,1.11,0,0,0-.36-.36,4.64,4.64,0,0,0-1.63-.56h0a6.94,6.94,0,0,1-1.54-.46,2.63,2.63,0,0,1-1.1-.93,1.84,1.84,0,0,1-.28-1,2.19,2.19,0,0,1,1-1.74,3.48,3.48,0,0,1,2.06-.64,4.65,4.65,0,0,1,2.6,1,.61.61,0,0,1,.17.84.6.6,0,0,1-.85.18,3.49,3.49,0,0,0-1.92-.76,2.27,2.27,0,0,0-1.34.41.94.94,0,0,0-.45.75.56.56,0,0,0,.08.33,1.11,1.11,0,0,0,.33.31,4,4,0,0,0,1.49.53h0a7,7,0,0,1,1.65.5,2.83,2.83,0,0,1,1.19,1,1.9,1.9,0,0,1,.29,1,2.31,2.31,0,0,1-1,1.85,3.74,3.74,0,0,1-2.21.68,5.16,5.16,0,0,1-3.05-1.19A.64.64,0,0,1,319.68,112.88Z" style="fill:#F9D538"></path><path d="M175.65,153.62a.19.19,0,0,1,0-.26.19.19,0,0,1,.28,0,1.42,1.42,0,0,0,1,.41,1.43,1.43,0,0,0,1.41-1.42,1.41,1.41,0,0,0-.41-1,1.37,1.37,0,0,0-1-.41,1.38,1.38,0,0,0-1,.41.18.18,0,0,1-.27,0,.07.07,0,0,1,0-.06h0a0,0,0,0,1,0,0s0,0,0-.06a.1.1,0,0,0,0,0l.26-2.14a.16.16,0,0,1,.07-.13.18.18,0,0,1,.12-.05h2.47a.19.19,0,0,1,0,.38h-2.31L176,150.8a1.81,1.81,0,0,1,.9-.24,1.8,1.8,0,0,1,1.27,3.06,1.8,1.8,0,0,1-2.55,0Z" style="fill:#263238"></path><path d="M200.11,150a2.13,2.13,0,0,1,1.85-1.15.18.18,0,0,1,.19.17.2.2,0,0,1-.18.2,1.79,1.79,0,0,0-1.54,1,3.35,3.35,0,0,0-.38,1.06,1.74,1.74,0,1,1-.44,1.21c0-.11,0-.23,0-.35A4.32,4.32,0,0,1,200.11,150Zm-.13,2.42a.3.3,0,0,0,0,.1.07.07,0,0,1,0,.05,1.39,1.39,0,1,0,0-.18Z" style="fill:#263238"></path><path d="M224.81,153.89l2-4.65h-2.56a.18.18,0,1,1,0-.36H227a.14.14,0,0,1,.11,0,.18.18,0,0,1,.1.11.14.14,0,0,1,0,.06.17.17,0,0,1,0,.1L225.16,154a.19.19,0,0,1-.17.12.12.12,0,0,1-.08,0A.2.2,0,0,1,224.81,153.89Z" style="fill:#263238"></path><path d="M249.54,148.85a1.1,1.1,0,0,1,.65,2,1.72,1.72,0,1,1-1.31,0,1.12,1.12,0,0,1-.44-.89A1.1,1.1,0,0,1,249.54,148.85Zm0,4.93a1.35,1.35,0,0,0,1.36-1.35,1.36,1.36,0,1,0-2.71,0A1.34,1.34,0,0,0,249.54,153.78Zm0-3.08a.75.75,0,0,0,.74-.75.74.74,0,0,0-.74-.74.73.73,0,0,0-.73.74A.74.74,0,0,0,249.54,150.7Z" style="fill:#263238"></path><path d="M274.14,148.85a1.74,1.74,0,0,1,1.74,1.54l0,0c0,.15,0,.3,0,.46a4.46,4.46,0,0,1-.5,2.11,2.22,2.22,0,0,1-1.86,1.15h0a.19.19,0,0,1,0-.37,1.79,1.79,0,0,0,1.54-1,3.53,3.53,0,0,0,.38-1.06,1.75,1.75,0,1,1-1.32-2.91Zm1.39,1.74a1.38,1.38,0,1,0-1.39,1.38A1.38,1.38,0,0,0,275.53,150.59Z" style="fill:#263238"></path><path d="M296.64,149.39l-.75.44-.09,0a.2.2,0,0,1-.16-.09.18.18,0,0,1,.07-.25l1-.62a.19.19,0,0,1,.25.06.24.24,0,0,1,0,.14V154a.19.19,0,0,1-.19.18.19.19,0,0,1-.18-.18Z" style="fill:#263238"></path><path d="M298.39,151.5a3.32,3.32,0,0,1,.51-1.85,1.65,1.65,0,0,1,1.32-.8,1.67,1.67,0,0,1,1.33.8,3.49,3.49,0,0,1,.51,1.85,3.43,3.43,0,0,1-.51,1.84,1.49,1.49,0,0,1-2.65,0A3.27,3.27,0,0,1,298.39,151.5Zm.37,0a3,3,0,0,0,.45,1.64,1.27,1.27,0,0,0,1,.64,1.3,1.3,0,0,0,1-.64,3.21,3.21,0,0,0,0-3.28,1.25,1.25,0,0,0-1-.64,1.22,1.22,0,0,0-1,.64A3,3,0,0,0,298.76,151.5Z" style="fill:#263238"></path><path d="M321.77,149.39l-.74.44-.1,0a.19.19,0,0,1-.15-.09.17.17,0,0,1,.06-.25l1-.62a.18.18,0,0,1,.24.06.24.24,0,0,1,0,.14V154a.19.19,0,0,1-.18.18.2.2,0,0,1-.19-.18Z" style="fill:#263238"></path><path d="M324.31,149.39l-.75.44-.09,0a.19.19,0,0,1-.16-.09.18.18,0,0,1,.07-.25l1-.62a.19.19,0,0,1,.25.06.23.23,0,0,1,0,.14V154a.18.18,0,0,1-.18.18.19.19,0,0,1-.18-.18Z" style="fill:#263238"></path><path d="M249.87,129.14l-.75.44a.14.14,0,0,1-.09,0,.19.19,0,0,1-.16-.09.18.18,0,0,1,.07-.25l1-.62a.18.18,0,0,1,.25.07.2.2,0,0,1,0,.13v4.87a.17.17,0,0,1-.18.18.18.18,0,0,1-.18-.18Z" style="fill:#263238"></path><path d="M272.54,133.58l2.47-2.24a1.35,1.35,0,0,0,.46-1A1.36,1.36,0,0,0,274.1,129a1.4,1.4,0,0,0-.92.34l-.26.24a.17.17,0,0,1-.25,0,.18.18,0,0,1,0-.26l.26-.24a1.81,1.81,0,0,1,1.17-.45,1.75,1.75,0,0,1,1.73,1.73,1.75,1.75,0,0,1-.57,1.29l-2.12,1.91h2.51a.18.18,0,0,1,.18.19.18.18,0,0,1-.18.18h-3a.16.16,0,0,1-.14-.05A.19.19,0,0,1,272.54,133.58Z" style="fill:#263238"></path><path d="M300.34,128.94l-1.37,1.4a1.81,1.81,0,0,1,.91.49,1.79,1.79,0,0,1,.52,1.27,1.75,1.75,0,0,1-.53,1.27,1.8,1.8,0,0,1-1.27.53,1.73,1.73,0,0,1-1.26-.53.18.18,0,0,1,.26-.26,1.44,1.44,0,0,0,1,.41,1.47,1.47,0,0,0,1-.41,1.42,1.42,0,0,0,.41-1,1.38,1.38,0,0,0-.41-1,1.4,1.4,0,0,0-1-.41.18.18,0,0,1-.15-.08h0a.18.18,0,0,1,0-.27l1.31-1.36h-2a.18.18,0,0,1-.19-.19.19.19,0,0,1,.19-.19h2.47a.19.19,0,0,1,.19.19.29.29,0,0,1,0,.09Z" style="fill:#263238"></path><path d="M323.79,132.81H320.9a.15.15,0,0,1-.11,0,.17.17,0,0,1,0-.25l3.07-3.82h0a.16.16,0,0,1,.25,0,.24.24,0,0,1,.06.09,0,0,0,0,0,0,0v3.66h.36a.18.18,0,1,1,0,.36h-.36v.91a.18.18,0,0,1-.19.18.18.18,0,0,1-.18-.18Zm0-.36v-3.1l-2.5,3.1Z" style="fill:#263238"></path><path d="M174.8,189l-.75.44-.09,0a.19.19,0,0,1-.16-.09.18.18,0,0,1,.07-.25l1-.62a.19.19,0,0,1,.25.06.23.23,0,0,1,0,.14v4.86a.18.18,0,0,1-.18.19.19.19,0,0,1-.18-.19Z" style="fill:#263238"></path><path d="M178.3,188.46A1.74,1.74,0,0,1,180,190l0,0c0,.14,0,.3,0,.46a4.46,4.46,0,0,1-.5,2.11,2.22,2.22,0,0,1-1.86,1.15h0a.18.18,0,0,1-.18-.18.18.18,0,0,1,.18-.19,1.78,1.78,0,0,0,1.54-1,3.38,3.38,0,0,0,.38-1,1.75,1.75,0,1,1-1.32-2.91Zm1.39,1.74a1.38,1.38,0,1,0-1.39,1.38A1.38,1.38,0,0,0,179.69,190.2Z" style="fill:#263238"></path><path d="M197.19,193.43l2.47-2.23a1.37,1.37,0,0,0,.46-1,1.38,1.38,0,0,0-1.36-1.35,1.37,1.37,0,0,0-.93.35l-.26.23a.17.17,0,0,1-.25,0,.17.17,0,0,1,0-.26l.25-.24a1.78,1.78,0,0,1,1.18-.45,1.74,1.74,0,0,1,1.72,1.72,1.75,1.75,0,0,1-.57,1.29l-2.12,1.92h2.51a.18.18,0,0,1,.18.18.19.19,0,0,1-.18.19h-3a.17.17,0,0,1-.14-.06A.19.19,0,0,1,197.19,193.43Z" style="fill:#263238"></path><path d="M201.74,191.11a3.38,3.38,0,0,1,.51-1.86,1.5,1.5,0,0,1,2.64,0,3.47,3.47,0,0,1,.52,1.86,3.35,3.35,0,0,1-.52,1.84,1.48,1.48,0,0,1-2.64,0A3.27,3.27,0,0,1,201.74,191.11Zm.37,0a2.94,2.94,0,0,0,.45,1.64,1.27,1.27,0,0,0,1,.64,1.28,1.28,0,0,0,1-.64,3.15,3.15,0,0,0,0-3.28,1.24,1.24,0,0,0-1-.64,1.22,1.22,0,0,0-1,.64A2.94,2.94,0,0,0,202.11,191.11Z" style="fill:#263238"></path><path d="M222.81,193.43l2.47-2.23a1.37,1.37,0,0,0,.46-1,1.38,1.38,0,0,0-1.36-1.35,1.37,1.37,0,0,0-.93.35l-.25.23a.18.18,0,0,1-.26,0,.17.17,0,0,1,0-.26l.25-.24a1.78,1.78,0,0,1,1.18-.45,1.74,1.74,0,0,1,1.72,1.72,1.75,1.75,0,0,1-.57,1.29l-2.11,1.92h2.5a.18.18,0,0,1,.18.18.19.19,0,0,1-.18.19h-3a.18.18,0,0,1-.14-.06A.21.21,0,0,1,222.81,193.43Z" style="fill:#263238"></path><path d="M228.15,189l-.75.44-.09,0a.19.19,0,0,1-.16-.09.18.18,0,0,1,.07-.25l1-.62a.19.19,0,0,1,.25.06.23.23,0,0,1,0,.14v4.86a.18.18,0,0,1-.18.19.19.19,0,0,1-.18-.19Z" style="fill:#263238"></path><path d="M245.69,193.43l2.47-2.23a1.37,1.37,0,0,0,.46-1,1.38,1.38,0,0,0-1.36-1.35,1.37,1.37,0,0,0-.93.35l-.25.23a.18.18,0,0,1-.26,0,.17.17,0,0,1,0-.26l.25-.24a1.78,1.78,0,0,1,1.18-.45,1.74,1.74,0,0,1,1.72,1.72,1.75,1.75,0,0,1-.57,1.29l-2.11,1.92h2.5a.18.18,0,0,1,.18.18.19.19,0,0,1-.18.19h-3a.18.18,0,0,1-.14-.06A.19.19,0,0,1,245.69,193.43Z" style="fill:#263238"></path><path d="M250.16,193.43l2.47-2.23a1.37,1.37,0,0,0,.46-1,1.37,1.37,0,0,0-2.29-1l-.26.23a.17.17,0,0,1-.25,0,.18.18,0,0,1,0-.26l.26-.24a1.75,1.75,0,0,1,1.17-.45A1.67,1.67,0,0,1,253,189a1.69,1.69,0,0,1,.46,1.15,1.75,1.75,0,0,1-.57,1.29l-2.12,1.92h2.51a.18.18,0,0,1,.18.18.19.19,0,0,1-.18.19h-3a.17.17,0,0,1-.14-.06A.19.19,0,0,1,250.16,193.43Z" style="fill:#263238"></path><path d="M270.32,193.43l2.47-2.23a1.4,1.4,0,0,0,.45-1,1.37,1.37,0,0,0-2.28-1l-.26.23a.18.18,0,0,1-.26,0,.19.19,0,0,1,0-.26l.26-.24a1.75,1.75,0,0,1,1.17-.45,1.67,1.67,0,0,1,1.27.57,1.69,1.69,0,0,1,.46,1.15,1.75,1.75,0,0,1-.57,1.29l-2.12,1.92h2.51a.19.19,0,0,1,.18.18.2.2,0,0,1-.18.19h-3a.16.16,0,0,1-.13-.06A.19.19,0,0,1,270.32,193.43Z" style="fill:#263238"></path><path d="M278,188.79l-1.37,1.41a1.87,1.87,0,0,1,.91.48,1.79,1.79,0,0,1,.52,1.28,1.75,1.75,0,0,1-.53,1.27,1.84,1.84,0,0,1-1.27.53,1.77,1.77,0,0,1-1.26-.53.18.18,0,0,1,0-.27.19.19,0,0,1,.26,0,1.44,1.44,0,0,0,1,.41,1.47,1.47,0,0,0,1-.41,1.4,1.4,0,0,0,.41-1,1.37,1.37,0,0,0-.41-1,1.41,1.41,0,0,0-1-.42.2.2,0,0,1-.15-.07h0a.19.19,0,0,1,0-.28l1.32-1.35h-2a.19.19,0,0,1,0-.38h2.47a.18.18,0,0,1,.19.19.19.19,0,0,1,0,.08A.09.09,0,0,1,278,188.79Z" style="fill:#263238"></path><path d="M294.77,193.43l2.47-2.23a1.37,1.37,0,0,0,.46-1,1.38,1.38,0,0,0-1.36-1.35,1.37,1.37,0,0,0-.93.35l-.25.23a.18.18,0,0,1-.26,0,.17.17,0,0,1,0-.26l.25-.24a1.78,1.78,0,0,1,1.18-.45,1.74,1.74,0,0,1,1.72,1.72,1.75,1.75,0,0,1-.57,1.29l-2.11,1.92h2.5a.18.18,0,0,1,.18.18.19.19,0,0,1-.18.19h-3a.18.18,0,0,1-.14-.06A.19.19,0,0,1,294.77,193.43Z" style="fill:#263238"></path><path d="M302.05,192.67h-2.89a.15.15,0,0,1-.11,0,.17.17,0,0,1,0-.26l3.06-3.81h0a.17.17,0,0,1,.25,0,.31.31,0,0,1,.07.09v3.68h.36a.19.19,0,1,1,0,.37h-.36v.9a.19.19,0,1,1-.37,0Zm0-.37v-3.1l-2.5,3.1Z" style="fill:#263238"></path><path d="M318.92,193.43l2.47-2.23a1.4,1.4,0,0,0,.45-1,1.37,1.37,0,0,0-2.28-1l-.26.23a.18.18,0,0,1-.26,0,.19.19,0,0,1,0-.26l.26-.24a1.75,1.75,0,0,1,1.17-.45,1.67,1.67,0,0,1,1.27.57,1.69,1.69,0,0,1,.46,1.15,1.75,1.75,0,0,1-.57,1.29l-2.12,1.92H322a.19.19,0,0,1,.18.18.2.2,0,0,1-.18.19h-3a.16.16,0,0,1-.13-.06A.19.19,0,0,1,318.92,193.43Z" style="fill:#263238"></path><path d="M323.5,193.23a.19.19,0,0,1,0-.26.19.19,0,0,1,.28,0,1.42,1.42,0,0,0,1,.41,1.43,1.43,0,0,0,1.42-1.42,1.41,1.41,0,0,0-.41-1,1.37,1.37,0,0,0-1-.41,1.38,1.38,0,0,0-1,.41.18.18,0,0,1-.27,0,.07.07,0,0,1,0-.06h0a0,0,0,0,1,0,0s0,0,0-.06v0l.26-2.14a.16.16,0,0,1,.07-.13.18.18,0,0,1,.12,0h2.47a.19.19,0,0,1,0,.38h-2.31l-.19,1.57a1.76,1.76,0,0,1,.9-.24,1.8,1.8,0,0,1,1.27,3.06,1.86,1.86,0,0,1-1.28.53A1.8,1.8,0,0,1,323.5,193.23Z" style="fill:#263238"></path><path d="M173.16,213.1l2.47-2.23a1.36,1.36,0,0,0-.91-2.37,1.34,1.34,0,0,0-.92.35l-.26.23a.17.17,0,0,1-.25,0,.18.18,0,0,1,0-.26l.26-.24a1.79,1.79,0,0,1,1.17-.44,1.74,1.74,0,0,1,1.73,1.72,1.75,1.75,0,0,1-.57,1.29l-2.12,1.91h2.51a.19.19,0,0,1,.18.19.19.19,0,0,1-.18.18h-3a.16.16,0,0,1-.14,0A.19.19,0,0,1,173.16,213.1Z" style="fill:#263238"></path><path d="M178.21,209.28a2.17,2.17,0,0,1,1.86-1.15.19.19,0,1,1,0,.37,1.78,1.78,0,0,0-1.54,1,3.65,3.65,0,0,0-.38,1.05,1.74,1.74,0,1,1-.44,1.21c0-.11,0-.22,0-.34A4.44,4.44,0,0,1,178.21,209.28Zm-.13,2.42a.3.3,0,0,0,0,.1.11.11,0,0,1,0,.06,1.39,1.39,0,1,0,0-.19Z" style="fill:#263238"></path><path d="M197.65,213.1l2.47-2.23a1.39,1.39,0,0,0,.46-1,1.36,1.36,0,0,0-1.36-1.35,1.37,1.37,0,0,0-.93.35l-.26.23a.17.17,0,0,1-.25,0,.18.18,0,0,1,0-.26l.26-.24a1.82,1.82,0,0,1,1.18-.44,1.72,1.72,0,0,1,1.72,1.72,1.75,1.75,0,0,1-.57,1.29l-2.12,1.91h2.51a.18.18,0,0,1,.18.19.18.18,0,0,1-.18.18h-3a.16.16,0,0,1-.14,0A.19.19,0,0,1,197.65,213.1Z" style="fill:#263238"></path><path d="M202.86,213.16l2-4.64h-2.56a.18.18,0,0,1,0-.36h2.91a.19.19,0,0,1,.1.12.14.14,0,0,1,0,.06.17.17,0,0,1,0,.1l-2,4.87a.2.2,0,0,1-.17.11H203A.21.21,0,0,1,202.86,213.16Z" style="fill:#263238"></path><path d="M221.71,213.1l2.47-2.23a1.35,1.35,0,0,0,.1-1.93,1.38,1.38,0,0,0-1.93-.09l-.26.23a.17.17,0,0,1-.25,0,.18.18,0,0,1,0-.26l.26-.24a1.79,1.79,0,0,1,1.17-.44,1.74,1.74,0,0,1,1.73,1.72,1.75,1.75,0,0,1-.57,1.29l-2.12,1.91h2.51a.18.18,0,0,1,.18.19.18.18,0,0,1-.18.18h-3a.16.16,0,0,1-.14,0A.19.19,0,0,1,221.71,213.1Z" style="fill:#263238"></path><path d="M227.9,208.13a1.1,1.1,0,0,1,1.1,1.09,1.14,1.14,0,0,1-.45.9,1.72,1.72,0,1,1-1.31,0,1.16,1.16,0,0,1-.44-.9A1.09,1.09,0,0,1,227.9,208.13Zm0,4.93a1.36,1.36,0,1,0-1.35-1.36A1.35,1.35,0,0,0,227.9,213.06Zm0-3.09a.75.75,0,0,0,.74-.75.73.73,0,0,0-.74-.73.72.72,0,0,0-.73.73A.74.74,0,0,0,227.9,210Z" style="fill:#263238"></path><path d="M245.53,213.1l2.48-2.23a1.41,1.41,0,0,0,.45-1,1.36,1.36,0,0,0-1.36-1.35,1.37,1.37,0,0,0-.93.35l-.25.23a.18.18,0,0,1-.26,0,.17.17,0,0,1,0-.26l.26-.24a1.77,1.77,0,0,1,1.17-.44,1.72,1.72,0,0,1,1.72,1.72,1.77,1.77,0,0,1-.56,1.29l-2.12,1.91h2.5a.18.18,0,0,1,.18.19.18.18,0,0,1-.18.18h-3a.17.17,0,0,1-.14,0A.21.21,0,0,1,245.53,213.1Z" style="fill:#263238"></path><path d="M251.84,208.13a1.74,1.74,0,0,1,1.74,1.54.08.08,0,0,0,0,0c0,.14,0,.29,0,.45a4.33,4.33,0,0,1-.51,2.11,2.17,2.17,0,0,1-1.85,1.15h0a.17.17,0,0,1-.19-.17.2.2,0,0,1,.18-.2,1.81,1.81,0,0,0,1.55-1,3.18,3.18,0,0,0,.37-1.06,1.71,1.71,0,0,1-1.31.58,1.74,1.74,0,1,1,0-3.48Zm1.38,1.74a1.38,1.38,0,1,0-1.38,1.37A1.37,1.37,0,0,0,253.22,209.87Z" style="fill:#263238"></path><path d="M273.23,208.46l-1.37,1.41a1.72,1.72,0,0,1,.91.48,1.79,1.79,0,0,1,.52,1.27,1.75,1.75,0,0,1-.53,1.27,1.8,1.8,0,0,1-1.27.53,1.73,1.73,0,0,1-1.26-.53.18.18,0,0,1,.26-.26,1.44,1.44,0,0,0,1,.41,1.47,1.47,0,0,0,1-.41,1.42,1.42,0,0,0-1-2.42.18.18,0,0,1-.15-.08h0a.18.18,0,0,1,0-.27l1.31-1.36h-2a.18.18,0,0,1-.19-.18.18.18,0,0,1,.19-.19h2.47a.18.18,0,0,1,.19.19.19.19,0,0,1,0,.08Z" style="fill:#263238"></path><path d="M274.72,210.77a3.32,3.32,0,0,1,.51-1.85,1.64,1.64,0,0,1,1.32-.79,1.65,1.65,0,0,1,1.33.79,3.41,3.41,0,0,1,.51,1.85,3.36,3.36,0,0,1-.51,1.85,1.64,1.64,0,0,1-1.33.8,1.62,1.62,0,0,1-1.32-.8A3.28,3.28,0,0,1,274.72,210.77Zm.37,0a3,3,0,0,0,.45,1.65,1.26,1.26,0,0,0,1,.63,1.29,1.29,0,0,0,1-.63,3.23,3.23,0,0,0,0-3.29,1.26,1.26,0,0,0-1-.63,1.23,1.23,0,0,0-1,.63A3,3,0,0,0,275.09,210.77Z" style="fill:#263238"></path><path d="M175.28,169.12l-.75.44a.14.14,0,0,1-.09,0,.16.16,0,0,1-.15-.09.17.17,0,0,1,.06-.25l1-.62a.2.2,0,0,1,.25.07.24.24,0,0,1,0,.14v4.86a.18.18,0,0,1-.18.18.19.19,0,0,1-.19-.18Z" style="fill:#263238"></path><path d="M177,173.56l2.47-2.23a1.39,1.39,0,0,0,.46-1,1.36,1.36,0,0,0-1.36-1.35,1.37,1.37,0,0,0-.93.35l-.25.23a.17.17,0,0,1-.26,0,.16.16,0,0,1,0-.25l.25-.25a1.82,1.82,0,0,1,1.18-.44,1.72,1.72,0,0,1,1.72,1.72,1.75,1.75,0,0,1-.57,1.29l-2.11,1.91h2.5a.19.19,0,0,1,.18.19.18.18,0,0,1-.18.18h-3a.17.17,0,0,1-.14,0A.19.19,0,0,1,177,173.56Z" style="fill:#263238"></path><path d="M199.48,169.12l-.75.44a.14.14,0,0,1-.09,0,.19.19,0,0,1-.16-.09.18.18,0,0,1,.07-.25l1-.62a.2.2,0,0,1,.25.07.24.24,0,0,1,0,.14v4.86a.18.18,0,0,1-.18.18.19.19,0,0,1-.19-.18Z" style="fill:#263238"></path><path d="M204.36,168.92,203,170.33a1.72,1.72,0,0,1,.91.48,1.83,1.83,0,0,1,.52,1.27,1.81,1.81,0,0,1-1.8,1.8,1.75,1.75,0,0,1-1.27-.53.19.19,0,0,1,0-.26.18.18,0,0,1,.27,0,1.42,1.42,0,0,0,1,.41,1.44,1.44,0,0,0,1-.41,1.41,1.41,0,0,0,0-2,1.36,1.36,0,0,0-1-.41.19.19,0,0,1-.16-.08h0a.18.18,0,0,1,0-.27l1.31-1.35h-2a.19.19,0,0,1-.18-.19.18.18,0,0,1,.18-.19h2.48a.18.18,0,0,1,.19.19.19.19,0,0,1,0,.08Z" style="fill:#263238"></path><path d="M223.33,169.12l-.75.44a.14.14,0,0,1-.09,0,.16.16,0,0,1-.15-.09.17.17,0,0,1,.06-.25l1-.62a.19.19,0,0,1,.24.07.24.24,0,0,1,0,.14v4.86a.18.18,0,0,1-.18.18.19.19,0,0,1-.19-.18Z" style="fill:#263238"></path><path d="M228,172.79h-2.89a.14.14,0,0,1-.11,0,.17.17,0,0,1,0-.26l3.06-3.81h0a.17.17,0,0,1,.25,0,.61.61,0,0,1,.07.1v3.68h.36a.18.18,0,1,1,0,.36h-.36v.91a.18.18,0,0,1-.19.18.19.19,0,0,1-.18-.18Zm0-.36v-3.1l-2.5,3.1Z" style="fill:#263238"></path><path d="M247.63,169.12l-.75.44a.14.14,0,0,1-.09,0,.17.17,0,0,1-.16-.09.18.18,0,0,1,.07-.25l1-.62a.2.2,0,0,1,.25.07.23.23,0,0,1,0,.14v4.86a.18.18,0,0,1-.36,0Z" style="fill:#263238"></path><path d="M249.41,173.36a.19.19,0,0,1,0-.26.19.19,0,0,1,.28,0,1.41,1.41,0,0,0,1,.4,1.38,1.38,0,0,0,1-.41,1.41,1.41,0,0,0,.42-1,1.45,1.45,0,0,0-.41-1,1.4,1.4,0,0,0-1-.4,1.38,1.38,0,0,0-1,.41.18.18,0,0,1-.27,0,.08.08,0,0,1,0-.06h0s0,0,0,0,0,0,0-.06,0,0,0,0l.26-2.13a.19.19,0,0,1,.19-.18h2.47a.19.19,0,0,1,0,.38H250l-.19,1.57a1.81,1.81,0,0,1,.9-.24,1.74,1.74,0,0,1,1.27.52,1.77,1.77,0,0,1,.52,1.27,1.8,1.8,0,0,1-.52,1.27,1.85,1.85,0,0,1-1.27.52A1.79,1.79,0,0,1,249.41,173.36Z" style="fill:#263238"></path><path d="M272,169.12l-.75.44a.16.16,0,0,1-.09,0,.17.17,0,0,1-.16-.09.17.17,0,0,1,.07-.25l1-.62a.2.2,0,0,1,.25.07.23.23,0,0,1,0,.14v4.86a.18.18,0,1,1-.36,0Z" style="fill:#263238"></path><path d="M274.29,169.74a2.17,2.17,0,0,1,1.86-1.15.19.19,0,0,1,.19.18.21.21,0,0,1-.19.2,1.77,1.77,0,0,0-1.54,1,3.61,3.61,0,0,0-.38,1.06,1.73,1.73,0,0,1,1.31-.6,1.75,1.75,0,1,1-1.75,1.81c0-.12,0-.23,0-.35A4.44,4.44,0,0,1,274.29,169.74Zm-.13,2.43a.29.29,0,0,0,0,.09.11.11,0,0,1,0,.06,1.39,1.39,0,1,0,0-.18Z" style="fill:#263238"></path><path d="M296.88,169.12l-.75.44a.14.14,0,0,1-.09,0,.17.17,0,0,1-.16-.09.18.18,0,0,1,.07-.25l1-.62a.2.2,0,0,1,.25.07.23.23,0,0,1,0,.14v4.86a.17.17,0,0,1-.18.18.18.18,0,0,1-.18-.18Z" style="fill:#263238"></path><path d="M299.4,173.63l2-4.65H298.8a.18.18,0,1,1,0-.36h2.91a.19.19,0,0,1,.1.12.14.14,0,0,1,0,.06.17.17,0,0,1,0,.1l-2.05,4.87a.18.18,0,0,1-.17.11h-.08A.2.2,0,0,1,299.4,173.63Z" style="fill:#263238"></path><path d="M320.67,169.12l-.75.44a.14.14,0,0,1-.09,0,.17.17,0,0,1-.16-.09.18.18,0,0,1,.07-.25l1-.62a.2.2,0,0,1,.25.07.23.23,0,0,1,0,.14v4.86a.17.17,0,0,1-.18.18.18.18,0,0,1-.18-.18Z" style="fill:#263238"></path><path d="M324.06,168.59a1.1,1.1,0,0,1,1.11,1.09,1.12,1.12,0,0,1-.46.9,1.72,1.72,0,1,1-1.31,0,1.15,1.15,0,0,1-.43-.9A1.09,1.09,0,0,1,324.06,168.59Zm0,4.93a1.36,1.36,0,1,0-1.35-1.35A1.35,1.35,0,0,0,324.06,173.52Zm0-3.09a.75.75,0,0,0,.74-.75.74.74,0,0,0-.74-.73.73.73,0,0,0-.73.73A.74.74,0,0,0,324.06,170.43Z" style="fill:#263238"></path><polygon points="171 78.13 171 72.99 167.91 75.56 171 78.13" style="fill:#fff"></polygon><polygon points="329 72.99 329 78.13 332.09 75.56 329 72.99" style="fill:#fff"></polygon><path d="M240.12,76.2a1.61,1.61,0,0,0,3.13-.49V71.08a.65.65,0,0,1,1.3,0v4.63a2.9,2.9,0,0,1-5.66.88.62.62,0,0,1,.41-.8A.64.64,0,0,1,240.12,76.2Z" style="fill:#fff"></path><path d="M248.61,78.6a2.45,2.45,0,0,1-2.43-2.43V73.39a.63.63,0,0,1,.62-.62.62.62,0,0,1,.62.62v2.78a1.17,1.17,0,0,0,1.19,1.19,1.21,1.21,0,0,0,1.22-1.19V73.39a.61.61,0,0,1,.61-.62.64.64,0,0,1,.62.62v2.78A2.46,2.46,0,0,1,248.61,78.6Z" style="fill:#fff"></path><path d="M253.81,70.44a.65.65,0,0,1,.65.64V78a.65.65,0,0,1-1.29,0V71.08A.64.64,0,0,1,253.81,70.44Z" style="fill:#fff"></path><path d="M261.14,73.39v4.4a2.76,2.76,0,0,1-2.78,2.79,2.87,2.87,0,0,1-1.21-.29.62.62,0,0,1-.3-.83.65.65,0,0,1,.83-.26,1.49,1.49,0,0,0,.68.17,1.54,1.54,0,0,0,1.45-1.06,2.31,2.31,0,0,1-1.11.28,2.45,2.45,0,0,1-2.43-2.45V73.39a.62.62,0,0,1,.6-.62.6.6,0,0,1,.62.62v2.75a1.21,1.21,0,0,0,2.42,0V73.39a.59.59,0,0,1,.6-.62A.63.63,0,0,1,261.14,73.39Z" style="fill:#fff"></path></g><g id="freepik--Character--inject-2"><path d="M135,139.2c-16.85,18.7-31,40.27-28.94,47.7,2.73,10,19.19,28.12,28.61,36.74,2.76,2.53,22-19.4,19.08-22.11-3.57-3.27-22.31-19.92-22.55-20.35-.53-.9,8.38-28.46,10.66-35C145.7,135.28,142.5,130.9,135,139.2Z" style="fill:#ad6359"></path><path d="M149.48,235.85c-5.74-2.44-15.52-12-17-15.25s14.28-20.39,17.9-20.09,22.3,10,25.31,15.63S155.42,238.38,149.48,235.85Z" style="fill:#ad6359"></path><path d="M169.34,208.45c-3.27.47-.85,4.06-.85,4.06s-4.73-4.33-7.92-2.55,0,6,.23,6.27c-.26-.23-4.71-4.09-7.73-2s.69,5.93.94,6.17c-.31-.14-4.38-1.91-6.31.22-3.3,3.67,7,8.49,8.18,12.31,0,0-6.24,2.77-6.4,2.89,0,0,9.68,4.79,14.74,2.88a3.44,3.44,0,0,0,2.25-3.69s3,1.89,5.39.3c1.24-.83,1-3.55,1-3.55a4.34,4.34,0,0,0,4.5-.14c1.66-1.24,1.19-3.78,1.19-3.78s3,.28,4.25-1.53C185.42,222.69,176.34,207.46,169.34,208.45Z" style="fill:#ad6359"></path><path d="M178.57,227.46s.11,0,.09,0a30.77,30.77,0,0,0-10.28-15.13c-.16-.12-.42.08-.27.25A63,63,0,0,1,178.57,227.46Z" style="fill:#263238"></path><path d="M173,231.85c0,.06.13,0,.11-.06A28.8,28.8,0,0,0,160.84,216c-.21-.12-.52,0-.29.14C164.4,218.77,170.47,226.69,173,231.85Z" style="fill:#263238"></path><path d="M153.5,220.33c5.67,3.61,9.61,8.68,12.91,14.46.05.08.15,0,.13-.06-.84-3.27-3.33-6.74-5.5-9.28a17.75,17.75,0,0,0-7.42-5.32C153.51,220.09,153.38,220.25,153.5,220.33Z" style="fill:#263238"></path><path d="M168.49,212.51a19.36,19.36,0,0,0-3.14-2,6.78,6.78,0,0,0-3.43-.84,2.2,2.2,0,0,0-1.44.68,3.2,3.2,0,0,0-.77,1.45,3.91,3.91,0,0,0,.84,3.1l1.62,2.17-2.28-1.47a10.87,10.87,0,0,0-3.28-1.47,4,4,0,0,0-3.22.35,2.27,2.27,0,0,0-1,2.68,6.86,6.86,0,0,0,1.94,2.82l2.36,2.19-2.93-1.29a10.57,10.57,0,0,0-2.55-.76,4.3,4.3,0,0,0-2.46.23,2,2,0,0,0-1.19,1.79,4.52,4.52,0,0,0,1,2.33,35.28,35.28,0,0,0,3.78,4.08c.66.66,1.33,1.33,2,2a6.74,6.74,0,0,1,1.57,2.35,7.15,7.15,0,0,0-1.75-2.16c-.68-.64-1.4-1.25-2.11-1.86a30,30,0,0,1-4.08-4,5.24,5.24,0,0,1-1.27-2.75,2.9,2.9,0,0,1,1.66-2.71,5.24,5.24,0,0,1,3-.37,11.86,11.86,0,0,1,2.85.8l-.57.9a8,8,0,0,1-2.34-3.32,3.32,3.32,0,0,1,.05-2.22,3.65,3.65,0,0,1,1.41-1.68,5,5,0,0,1,4.08-.45,12.21,12.21,0,0,1,3.58,1.67l-.65.7a4.69,4.69,0,0,1-.84-3.9,4,4,0,0,1,1.05-1.73,2.88,2.88,0,0,1,1.88-.8,7,7,0,0,1,3.63,1.15A17.26,17.26,0,0,1,168.49,212.51Z" style="fill:#263238"></path><path d="M153.86,201.61s26.46-.06,21.41,10.3c-1.49,3.07-11.33,13.92-13.54,12-2.86-2.49.39-7.78,3-10.78,0,0-9,1.28-11.76-4.71A6.54,6.54,0,0,1,153.86,201.61Z" style="fill:#ad6359"></path><path d="M175.64,211a13.68,13.68,0,0,1-1.87,3.57,28.52,28.52,0,0,1-2.51,3.18,46.57,46.57,0,0,1-5.87,5.61,7.78,7.78,0,0,1-1.85,1.09,3,3,0,0,1-1.21.2,2,2,0,0,1-.67-.15,1.86,1.86,0,0,1-.56-.36,3.41,3.41,0,0,1-1.1-2.09,6.2,6.2,0,0,1,.14-2.2,12.21,12.21,0,0,1,1.72-3.81,28.43,28.43,0,0,1,2.48-3.25l.43.76a16.08,16.08,0,0,1-3.1,0,14.69,14.69,0,0,1-3-.54,10.45,10.45,0,0,1-2.79-1.3,7.79,7.79,0,0,1-2.17-2.11,9,9,0,0,0,2.34,1.83,10.58,10.58,0,0,0,2.77,1,14.3,14.3,0,0,0,2.92.35,15.59,15.59,0,0,0,2.91-.19l1.19-.2-.76,1a28.34,28.34,0,0,0-2.28,3.21,11.69,11.69,0,0,0-1.54,3.5c-.27,1.17-.2,2.52.59,3.19s1.93-.06,3-.79a37.71,37.71,0,0,0,3.06-2.51c1-.88,2-1.78,2.92-2.72A25.66,25.66,0,0,0,175.64,211Z" style="fill:#263238"></path><path d="M133.16,174.19l-21.33-8.55S127.16,142,137.15,135s8.36,2.79,6.35,10S133.16,174.19,133.16,174.19Z" style="fill:#455a64"></path><path d="M143.51,145c-2,7.2-10.35,29.23-10.35,29.23l-15.79-6.33,21.85-34.2C146.88,129.43,145.36,138.29,143.51,145Z" style="fill:#37474f"></path><path d="M134.16,169.14c-2.87-1.45-5.95-2.57-8.93-3.76S119,163.15,116,162c-.08,0-.15.12-.06.15,3,1.27,5.89,2.65,8.91,3.81a91.94,91.94,0,0,0,9.32,3.27S134.2,169.16,134.16,169.14Z" style="fill:#263238"></path><path d="M150.42,396.13s-3,41.37-3,41.39c0,8.11.07,15.21.46,18.88a.13.13,0,0,0,0,.06,5.54,5.54,0,0,0,.59,2.5l0,.05c2.41,1.65,67.14,3.87,69.42,3.18s.52-7.24-1.92-9.33-26.86-14-26.86-14l2.58-41.34Z" style="fill:#ad6359"></path><path d="M147.44,428.83v8.69c0,8.11.07,15.21.46,18.88a.13.13,0,0,0,0,.06,10.7,10.7,0,0,0,.59,2.5l0,.05c2.41,1.65,67.14,3.87,69.42,3.18s.52-7.24-1.92-9.33-26.86-14-26.86-14l.12-8.82Z" style="fill:#fff"></path><path d="M218,462.19c-2.28.69-67-1.53-69.42-3.18-.92-.61-1.15-10.06-1.1-21.48v-.36l41.77,1,0,.71s24.4,11.93,26.86,14S220.25,461.52,218,462.19Z" style="fill:#F9D538"></path><path d="M217.32,459.66c-10.9-.64-54.94-2.2-65.76-2-.09,0-.09.06,0,.06,10.79.88,54.83,2.08,65.75,2.12C217.54,459.84,217.55,459.67,217.32,459.66Z" style="fill:#263238"></path><path d="M192.69,439.08c-4.27-.94-9.54-.46-12.93,2.48-.13.12,0,.3.17.26a60.28,60.28,0,0,1,12.72-2.19A.28.28,0,0,0,192.69,439.08Z" style="fill:#263238"></path><path d="M195.72,441.06c-4.27-.95-9.54-.47-12.92,2.48-.14.11,0,.29.17.26a60.18,60.18,0,0,1,12.72-2.2A.27.27,0,0,0,195.72,441.06Z" style="fill:#263238"></path><path d="M198.76,443c-4.27-.95-9.54-.47-12.93,2.48-.13.11,0,.3.17.26a60.94,60.94,0,0,1,12.72-2.2A.27.27,0,0,0,198.76,443Z" style="fill:#263238"></path><path d="M145,439.31l45.31-.91s5.52-81.53,4.49-108.71C193.63,300.16,181,212.3,181,212.3H142.68s9.79,88.2,10,117.74C152.87,357.43,145,439.31,145,439.31Z" style="fill:#263238"></path><path d="M173.43,212.31l-23,79.52c-2.73-37.63-7.77-79.52-7.77-79.52Z" style="fill:#37474f"></path><path d="M150,216.63l2.43,26.23,2.25,26.24c1.44,17.5,2.81,35,3.85,52.54.25,4.39.41,8.79.35,13.2s-.27,8.78-.5,13.17q-.68,13.15-1.69,26.29t-2.12,26.26l-2.45,26.22,2-26.26q1-13.14,1.85-26.27c.55-8.76,1.14-17.52,1.55-26.28.2-4.38.37-8.77.44-13.15s-.12-8.74-.39-13.12c-.95-17.52-2.34-35-3.61-52.54Z" style="fill:#37474f"></path><path d="M188.36,430.85c-7.07-.06-5-.15-12.11-.13-3.47,0-26.22.09-29.44.66-.08,0-.07.13,0,.15,3.24.49,26,0,29.44-.06,7.08-.15,5-.18,12.12-.42A.1.1,0,1,0,188.36,430.85Z" style="fill:#37474f"></path><path d="M76.77,373.94,54.9,409.49c-3.55,7.28-6.54,13.73-7.77,17.21a.14.14,0,0,0,0,.06,5.73,5.73,0,0,0-.56,2.51.64.64,0,0,0,0,.07c1.45,2.52,58.82,32.59,61.18,33s3.6-6.3,2.31-9.24-18.12-24.29-18.12-24.29l21.49-35.68Z" style="fill:#ad6359"></path><path d="M46.56,429.27a.15.15,0,0,0,0,.07c1.45,2.52,58.82,32.59,61.18,33s3.6-6.31,2.31-9.25-18.12-24.29-18.12-24.29l3.83-6.37c-9.37-5-26.42-13.77-37-19.21-2.3,3.74-3.87,6.3-3.87,6.31-3.55,7.28-6.54,13.72-7.77,17.2a.14.14,0,0,0,0,.06A5.37,5.37,0,0,0,46.56,429.27Z" style="fill:#fff"></path><path d="M107.75,462.3c-2.36-.37-59.72-30.43-61.18-33-.57-.95,3.33-9.56,8.33-19.84l.16-.32,37.22,19-.34.62s16.81,21.33,18.12,24.28S110.1,462.69,107.75,462.3Z" style="fill:#F9D538"></path><path d="M108.26,459.74c-9.54-5.31-48.54-25.8-58.38-30.32-.08,0-.11,0,0,.06,9.34,5.46,48.51,25.64,58.33,30.42C108.39,460,108.47,459.85,108.26,459.74Z" style="fill:#263238"></path><path d="M95,430.52c-3.43-2.71-8.39-4.56-12.72-3.37-.17,0-.1.28,0,.31A60.2,60.2,0,0,1,94.72,431,.27.27,0,0,0,95,430.52Z" style="fill:#263238"></path><path d="M96.87,433.61c-3.43-2.7-8.39-4.56-12.72-3.37-.17.05-.1.28,0,.31a59.61,59.61,0,0,1,12.41,3.54A.28.28,0,0,0,96.87,433.61Z" style="fill:#263238"></path><path d="M98.75,436.71c-3.43-2.71-8.39-4.56-12.72-3.37-.17,0-.1.28,0,.3a60.85,60.85,0,0,1,12.41,3.54A.27.27,0,0,0,98.75,436.71Z" style="fill:#263238"></path><path d="M177,212.27v0c-.17.78-2.85,13.2-5.62,23.86-2,7.79-4.09,14.64-5.28,15.35-1.35.8-7.92,3.71-10.13,4.62,0,0-14.78,73.78-22.58,96.65-7.2,21.11-37,77.54-37,77.54L53.21,408.49S87,351.23,90.51,341c5.5-15.93,26.12-93.7,26.12-93.7s-.16-24.35,8-35Z" style="fill:#263238"></path><path d="M95.8,421.9c-6.18-3.45-4.36-2.54-10.57-5.93-3-1.65-23-12.5-26.15-13.55-.06,0-.12.08-.06.13,2.6,2,22.78,12.49,25.85,14.09,6.28,3.26,4.51,2.26,10.83,5.45C95.82,422.15,95.91,422,95.8,421.9Z" style="fill:#37474f"></path><path d="M127.72,240.48c1.18-.31,2.45-.4,3.66-.6,1-.15,1.94-.32,2.91-.53a12.78,12.78,0,0,0,5.13-2.17c1.67-1.3,2.52-3.27,3.33-5.17.48-1.13,1-2.25,1.48-3.36.24-.55.49-1.09.74-1.62a18.14,18.14,0,0,0,.91-1.95c0-.09.19,0,.15,0a12,12,0,0,0-.41,1.4c-.17.54-.32,1.08-.49,1.63-.3,1-.59,1.93-.91,2.9a22.92,22.92,0,0,1-2.06,5.09c-1.78,2.84-5,4-8.16,4.38-.92.12-1.84.18-2.76.24a20.34,20.34,0,0,1-3.49,0A.16.16,0,0,1,127.72,240.48Z" style="fill:#37474f"></path><path d="M169.62,249.78a85,85,0,0,0-13.54,6.31.15.15,0,0,0,.12.27c4.57-2,9.22-3.83,13.67-6A.3.3,0,0,0,169.62,249.78Z" style="fill:#37474f"></path><path d="M171,218.52c0-.16-.29-.19-.29,0a150.38,150.38,0,0,1-.77,15.25c-.21,2.35-2.1,15.34-6.17,14.39-.69-.16-1-.83-1.14-1.86a16,16,0,0,1,.54-4c.45-2.72.81-5.45,1.05-8.2a74.49,74.49,0,0,0-.17-15.37.13.13,0,0,0-.26,0A140.53,140.53,0,0,1,162.55,240c-.51,3.38-2.21,8.47,1.32,9s5.93-8,6.37-10.32A78.29,78.29,0,0,0,171,218.52Z" style="fill:#37474f"></path><path d="M163.87,248.49a23,23,0,0,0-.91,2.69,5.85,5.85,0,0,0-.38,2.21c0,.15.2.16.28.06a7.7,7.7,0,0,0,.95-2.15c.3-.83.63-1.66.92-2.5A.46.46,0,0,0,163.87,248.49Z" style="fill:#37474f"></path><path d="M64.88,401.32C71,389.74,77.37,378.26,83.74,366.8c3.14-5.66,6.41-11.24,9.41-17a102.62,102.62,0,0,0,6.83-17.7q5.72-18.56,10.82-37.29t9.58-37.62c.76-3.15,1.58-6.3,2.18-9.48a29,29,0,0,0,0-9.7,31.05,31.05,0,0,1-.07-9,60.66,60.66,0,0,1,2.11-8.83c.48-1.52,1-3,1.52-4.54a.14.14,0,0,1,.27.08c-1.87,6.1-3.77,12.27-3.37,18.72.19,3.11,1,6.15,1,9.28a44.57,44.57,0,0,1-1.57,9.16q-4.41,19-9.47,37.85t-10.7,37.51c-1.83,6.05-3.55,12.2-6.15,18s-5.91,11.25-9,16.78c-6.42,11.42-12.89,22.81-19.51,34.12L65,401.41C65,401.5,64.83,401.41,64.88,401.32Z" style="fill:#37474f"></path><path d="M119.07,222.91c.18.16,63.21-7,63.76-7.75.77-1.09-14.78-66.33-27.59-80-3.2-3.42-16-3.81-19,1C118.74,164.56,118.44,222.33,119.07,222.91Z" style="fill:#455a64"></path><path d="M155.3,135.21l-19.84,2.3c.26-.48.53-.94.81-1.39a1,1,0,0,0,.09-.13l17.26-2a5.6,5.6,0,0,1,1.63,1.14Zm2.1,2.67-23.64,2.73c-.24.49-.49,1-.73,1.49l25.23-2.91C158,138.74,157.68,138.29,157.4,137.88Zm2.44,4.05-28.21,3.25c-.21.48-.41,1-.62,1.47l29.53-3.4C160.31,142.8,160.08,142.36,159.84,141.93Zm2.08,4.08-32.1,3.7c-.18.48-.36,1-.53,1.46l33.24-3.84Zm1.83,4.1-35.48,4.1c-.16.47-.32.95-.47,1.45l36.52-4.21C164.14,151,163.94,150.55,163.75,150.11Zm1.7,4.13-38.55,4.44c-.14.49-.27,1-.41,1.45L166,155.57C165.8,155.12,165.63,154.68,165.45,154.24Zm1.59,4.14-41.34,4.76-.36,1.44,42.19-4.86C167.36,159.27,167.21,158.82,167,158.38Zm1.5,4.14-43.9,5-.32,1.46L169,163.88C168.86,163.42,168.7,163,168.54,162.52Zm1.43,4.16L123.7,172c-.1.47-.18,1-.28,1.43l47-5.41C170.26,167.57,170.12,167.12,170,166.68Zm1.36,4.15-48.47,5.59c-.08.49-.16,1-.24,1.43l49.15-5.66Zm1.32,4.18-50.52,5.82c-.08.48-.15.95-.22,1.43l51.15-5.9Zm1.27,4.17-52.44,6c-.08.47-.14,1-.19,1.43l53-6.12Zm1.22,4.18-54.24,6.25c-.06.48-.12.95-.17,1.42l54.8-6.31C175.4,184.27,175.28,183.81,175.14,183.36Zm1.19,4.18L120.39,194c0,.47-.09.94-.13,1.42l56.45-6.51Zm1.16,4.19L120,198.35l-.12,1.43,58-6.69C177.73,192.64,177.6,192.19,177.49,191.73Zm1.1,4.19-59,6.8c0,.48-.08,1-.11,1.42L179,197.29Zm1.07,4.2-60.35,6.95c0,.49,0,1-.07,1.41l60.76-7C179.89,201,179.78,200.59,179.66,200.12Zm1,4.2-61.6,7.09c0,.49,0,1,0,1.42l62-7.15C180.91,205.24,180.81,204.78,180.69,204.32Zm1,4.2-62.72,7.23c0,.5,0,1,0,1.41l63-7.27C181.87,209.46,181.77,209,181.66,208.52Zm.88,4.23-63.63,7.33c0,.54,0,1,0,1.39l63.84-7.36C182.72,213.75,182.64,213.28,182.54,212.75Z" style="fill:#37474f"></path><path d="M152,144.9c-2.89.42-9.48-4.42-12.3-8.76-.19-.3,0-3.61.14-7.65.05-2.45,0-5.18-.14-7.67l15.89,2.65a39.64,39.64,0,0,0-.8,9.66,5.28,5.28,0,0,0,.18,1s0,.1,0,.16C155.51,136.23,156.58,144.24,152,144.9Z" style="fill:#ad6359"></path><path d="M139.89,127.79c3.5,4.48,8.68,8.72,15.35,7.49-.07-.4-.13-.73-.19-1a.9.9,0,0,1,0-.16,4.61,4.61,0,0,1-.19-1,40.13,40.13,0,0,1,.8-9.66l-15.89-2.64C139.92,123.07,139.93,125.53,139.89,127.79Z" style="fill:#263238"></path><path d="M134.86,103.59c-1.45,5.62,2.17,21.51,6.27,24.91,5.94,4.93,15.33,5,19.43-2,4-6.85-1.12-27.47-5.67-30.53C148.2,91.42,137,95.29,134.86,103.59Z" style="fill:#ad6359"></path><path d="M136.73,116.33c2.41-.32,2.18-7.67,2.18-7.67s6.18,1.22,5.63-6.89c0,0,7.29,1.78,11.5-1,3.59-2.33,5.08-8.88,2-12.45-1.73-2-6.25-3.63-12.28,3.2,0,0-9-5.16-11.3,5.33,0,0-4.35.88-4.53,5.2C129.66,108.9,134.06,116.68,136.73,116.33Z" style="fill:#263238"></path><path d="M144.49,101.2a.06.06,0,0,0-.12,0c.54,2,1.09,4.06-.34,5.78a4.74,4.74,0,0,1-5.59,1.44c-.12,0-.21.13-.09.18a5.18,5.18,0,0,0,5.64-1.07C145.79,105.81,145.46,103.29,144.49,101.2Z" style="fill:#263238"></path><path d="M136.31,114.55a11.19,11.19,0,0,1-6.5-8.84,8.75,8.75,0,0,1,1.07-5.75c1-1.51,2.54-2.12,3.91-3.08,0,0,0-.1,0-.08-8.62,2.84-6.24,15.59,1.4,18.2C136.39,115.09,136.54,114.67,136.31,114.55Z" style="fill:#263238"></path><path d="M159.18,88.35C155.05,83.4,148,87.53,145.56,92a0,0,0,1,0,0,0c2.29-3.39,7.36-7,11.46-4.74,5,2.66,3.7,11.37-1.67,12.63a.15.15,0,0,0,.06.29C160.41,99.4,162.24,92,159.18,88.35Z" style="fill:#263238"></path><path d="M160.55,126.45c-4.1,7.06-13.48,7-19.42,2-2-1.64-3.85-6.21-5.09-11.12l1.94-4s3.51,4.4,5.13,5.49c2,1.4,6.29,2.1,11.58-2.07l1.94-.18s3.73,2.42,5.13-1.49c0,.2,0,.4.05.6.06.69.11,1.38.14,2.09,0,.17,0,.33,0,.5C162.06,121.61,161.66,124.56,160.55,126.45Z" style="opacity:0.30000000000000004"></path><path d="M138.85,116.49s-3.95-4.94-6.22-3.5.94,8.77,3.76,9.62a2.81,2.81,0,0,0,3.66-1.75Z" style="fill:#ad6359"></path><path d="M133.6,115.07a0,0,0,0,0,0,.07c2,.66,3.12,2.39,3.95,4.2a1.54,1.54,0,0,0-2.34-.27s0,.11.06.1a1.72,1.72,0,0,1,1.93.48,8.33,8.33,0,0,1,1,1.47c.1.17.41.06.33-.14l0,0C138.4,118.47,136.27,115.15,133.6,115.07Z" style="fill:#263238"></path><path d="M150.6,111.69s-.07.07-.06.12c.27,1.06.41,2.33-.48,2.9,0,0,0,.07,0,.06C151.23,114.33,151,112.66,150.6,111.69Z" style="fill:#263238"></path><path d="M149.39,110.79c-1.75.27-1.1,3.75.52,3.51S150.86,110.58,149.39,110.79Z" style="fill:#263238"></path><path d="M156.94,110.28s.09,0,.1.08c.17,1.09.54,2.3,1.58,2.48,0,0,0,.06,0,.06C157.4,113,156.92,111.34,156.94,110.28Z" style="fill:#263238"></path><path d="M157.69,109c1.71-.46,2.5,3,.91,3.42S156.26,109.36,157.69,109Z" style="fill:#263238"></path><path d="M147.72,109.46c.45-.21.83-.48,1.26-.73a2.3,2.3,0,0,0,1.14-1,.76.76,0,0,0-.28-.87A1.87,1.87,0,0,0,148,107a2.77,2.77,0,0,0-1.33,1.45A.8.8,0,0,0,147.72,109.46Z" style="fill:#263238"></path><path d="M158.65,107.39a13.93,13.93,0,0,1-1.45-.1,2.31,2.31,0,0,1-1.46-.38.76.76,0,0,1-.13-.91,1.87,1.87,0,0,1,1.76-.68,2.7,2.7,0,0,1,1.83.72A.8.8,0,0,1,158.65,107.39Z" style="fill:#263238"></path><path d="M151.47,121.9c.3.2.63.5,1,.46a2.84,2.84,0,0,0,1.11-.49s.08,0,.06,0a1.45,1.45,0,0,1-1.26.84,1.18,1.18,0,0,1-1-.79A.06.06,0,0,1,151.47,121.9Z" style="fill:#263238"></path><path d="M152,118.46a3.72,3.72,0,0,0,2.76,1.17,4.64,4.64,0,0,0,1.33-.18l.25-.08.23-.08a.28.28,0,0,0,.17-.28h0l0-.11h0l0-.09c-.14-.84-.45-2.08-.45-2.08.33.09,2,.5,1.9.07a55.91,55.91,0,0,0-3.5-10.86.1.1,0,0,0-.19.07c.71,3.45,2,6.75,2.81,10.2a6.39,6.39,0,0,0-1.84-.2c-.11.05.66,2.4.69,2.78v0a5.21,5.21,0,0,1-4-.47C152,118.29,151.92,118.38,152,118.46Z" style="fill:#263238"></path><path d="M155.52,119.12A4.45,4.45,0,0,1,154,120.8a2,2,0,0,1-1.18.29c-.9-.06-1.07-.85-1-1.56a4.49,4.49,0,0,1,.19-1.1A5.77,5.77,0,0,0,155.52,119.12Z" style="fill:#263238"></path><path d="M154,120.8a2,2,0,0,1-1.18.29c-.9-.06-1.07-.85-1-1.56A2.07,2.07,0,0,1,154,120.8Z" style="fill:#ff99ba"></path><path d="M156.08,136.47s-.06,0-.05,0c.77,3,2.33,10-2.53,10.51a10.36,10.36,0,0,1-5.63-1.58,27.75,27.75,0,0,1-4.83-3.35,39.64,39.64,0,0,1-4.77-4.57c-.06-.07-.17,0-.11.1,1.49,1.65,2.8,3.41,4.44,4.92a24.12,24.12,0,0,0,5.24,3.73c1.8.91,3.89,1.76,5.95,1.46a3.91,3.91,0,0,0,3.37-3.64A17.23,17.23,0,0,0,156.08,136.47Z" style="fill:#263238"></path><path d="M146.89,152.19c6,6.3,28.83,29.17,33.68,31.17,4.33,1.77,22.41-2.93,27.33-4.18,4-1,11.45,28.57,7.57,29.11-6.12.85-34.88,7.79-44.16,4-7.41-3-27-37.53-34.38-53.2C130.57,145.66,135.19,140,146.89,152.19Z" style="fill:#ad6359"></path><path d="M149,184.49l20.18-11s-18-21.71-28.74-27.49-8,3.75-5.14,10.67S149,184.49,149,184.49Z" style="fill:#455a64"></path><path d="M147.45,179.6c2.68-1.78,5.6-3.25,8.42-4.78s5.89-2.94,8.82-4.46c.08,0,.16.1.08.15-2.81,1.6-5.54,3.32-8.4,4.82a89.94,89.94,0,0,1-8.88,4.34A0,0,0,0,1,147.45,179.6Z" style="fill:#263238"></path><path d="M139.32,167.65c.79,1.16,1.58,2.31,2.39,3.45-1.23-2.59-2.45-5.2-3.56-7.84,0-.07.09-.12.12-.06,1.95,3.49,3.79,7.07,5.6,10.64s3.59,6.87,5.08,10.42c.27-.1.55-.19.81-.3a.12.12,0,0,1,.1.21l-.9.56a.22.22,0,0,1-.31-.06c-2.09-3.4-3.81-7.1-5.56-10.68-.29-.59-.56-1.18-.84-1.77a47.25,47.25,0,0,1-3.11-4.45A.11.11,0,0,1,139.32,167.65Z" style="fill:#263238"></path><path d="M168.47,173.91l.71-.47,0,.11c-1.3-1.27-2.54-2.58-3.8-3.89s-2.45-2.65-3.65-4-2.39-2.71-3.54-4.11-2.3-2.8-3.38-4.25c1.32,1.24,2.58,2.54,3.82,3.85s2.47,2.65,3.68,4,2.39,2.72,3.56,4.1,2.31,2.79,3.41,4.23l.06.07-.08,0Z" style="fill:#263238"></path><path d="M157.41,158.21a12.52,12.52,0,0,1,1.45,2.18,12.23,12.23,0,0,1,1,2.43,11.48,11.48,0,0,1-1.45-2.18A11.24,11.24,0,0,1,157.41,158.21Z" style="fill:#263238"></path><path d="M254.22,172.93c.24,3.57-8.63,3.42-8.63,3.42a6.57,6.57,0,0,1,2.91,3.43c.83,2.6-2.88,5-2.88,5a8.15,8.15,0,0,1,2.49,4.11c.55,2.57-2.84,5.56-2.84,5.56a7.16,7.16,0,0,1-.09,5c-1.84,4.21-8.89,4.73-13.19,5.91-4.6,1.27-12.41,2.18-16.52,2.91l-7.57-29.11s18.2-12.39,23.49-12.47C235.86,166.65,253.85,167.46,254.22,172.93Z" style="fill:#ad6359"></path><path d="M245.51,176.25c-4.76-1.07-9.77-1-14.6-.88-.1,0-.1.18,0,.17,4.8-.18,9.77.93,14.57.94A.12.12,0,0,0,245.51,176.25Z" style="fill:#263238"></path><path d="M245.47,184.46a12.81,12.81,0,0,0-3.33,0c-1.17.09-2.34.2-3.52.32q-3.51.39-7,.94c-.1,0-.1.18,0,.17,2.34-.25,4.69-.46,7-.61,1.18-.08,2.35-.15,3.53-.2a15.29,15.29,0,0,0,3.31-.32A.17.17,0,0,0,245.47,184.46Z" style="fill:#263238"></path><path d="M245.17,194.49a8.63,8.63,0,0,0-3,.18l-3.21.39c-2.13.25-4.27.51-6.41.68a.09.09,0,0,0,0,.17c2.18-.17,4.36-.31,6.53-.5l3.21-.29a8.3,8.3,0,0,0,2.88-.53A.06.06,0,0,0,245.17,194.49Z" style="fill:#263238"></path></g></svg>