<svg xmlns="http://www.w3.org/2000/svg" viewBox="0 0 750 500"><g id="freepik--background-complete--inject-10"><rect x="106.94" y="86.95" width="141.76" height="254.66" style="fill:#ebebeb"></rect><rect x="112.61" y="94.33" width="128.97" height="239.69" style="fill:#fafafa"></rect><polygon points="254.7 343.9 248.7 341.61 248.7 82.63 254.7 82.63 254.7 343.9" style="fill:#e0e0e0"></polygon><rect x="112.61" y="163.28" width="131.77" height="2.55" style="fill:#e0e0e0"></rect><rect x="112.61" y="220.36" width="131.77" height="2.55" style="fill:#e0e0e0"></rect><rect x="112.61" y="277.44" width="131.77" height="2.55" style="fill:#e0e0e0"></rect><rect x="88.96" y="249.43" width="176.26" height="6.52" transform="translate(-75.6 429.78) rotate(-90)" style="fill:#e0e0e0"></rect><rect x="137.44" y="94.33" width="2.95" height="70.23" style="fill:#e0e0e0"></rect><rect x="162.9" y="94.33" width="2.95" height="70.23" style="fill:#e0e0e0"></rect><rect x="188.36" y="94.33" width="2.95" height="70.23" style="fill:#e0e0e0"></rect><rect x="213.82" y="94.33" width="2.95" height="70.23" style="fill:#e0e0e0"></rect><rect x="100.95" y="82.63" width="6" height="260.55" style="fill:#e0e0e0"></rect><rect x="100.95" y="80" width="153.75" height="6.95" style="fill:#e0e0e0"></rect><rect x="96.69" y="344.76" width="162.06" height="6.47" style="fill:#e0e0e0"></rect><polygon points="248.7 341.61 258.75 344.76 96.69 344.76 106.94 341.61 248.7 341.61" style="fill:#e0e0e0"></polygon><rect x="513.99" y="86.95" width="141.76" height="254.66" style="fill:#ebebeb"></rect><rect x="519.65" y="94.33" width="128.97" height="239.69" style="fill:#fafafa"></rect><polygon points="661.74 343.9 655.74 341.61 655.74 82.63 661.74 82.63 661.74 343.9" style="fill:#e0e0e0"></polygon><rect x="519.65" y="163.28" width="131.77" height="2.55" style="fill:#e0e0e0"></rect><rect x="519.65" y="220.36" width="131.77" height="2.55" style="fill:#e0e0e0"></rect><rect x="519.65" y="277.44" width="131.77" height="2.55" style="fill:#e0e0e0"></rect><rect x="496.01" y="249.43" width="176.26" height="6.52" transform="translate(331.45 836.82) rotate(-90)" style="fill:#e0e0e0"></rect><rect x="544.48" y="94.33" width="2.95" height="70.23" style="fill:#e0e0e0"></rect><rect x="569.94" y="94.33" width="2.95" height="70.23" style="fill:#e0e0e0"></rect><rect x="595.4" y="94.33" width="2.95" height="70.23" style="fill:#e0e0e0"></rect><rect x="620.86" y="94.33" width="2.95" height="70.23" style="fill:#e0e0e0"></rect><rect x="507.99" y="82.63" width="6" height="260.55" style="fill:#e0e0e0"></rect><rect x="507.99" y="80" width="153.75" height="6.95" style="fill:#e0e0e0"></rect><rect x="503.74" y="344.76" width="162.06" height="6.47" style="fill:#e0e0e0"></rect><polygon points="655.74 341.61 665.8 344.76 503.74 344.76 513.99 341.61 655.74 341.61" style="fill:#e0e0e0"></polygon><rect x="311.59" y="64.52" width="56.88" height="15.05" style="fill:#e0e0e0"></rect><path d="M385.32,64.52a1.67,1.67,0,0,1,0-.27l0-.78c0-.7,0-1.69,0-3,0-2.6-.06-6.33-.1-11l.18.18-56.88.11c.13-.13-.29.29.28-.29h0v15l-.29-.28,40.54.12,12,.09,3.23,0,.85,0,.3,0a1.21,1.21,0,0,1-.26,0l-.82,0-3.17,0-11.9.08-40.74.13h-.28V57.12c0-1.26,0-2.52,0-3.8V49.48h0c.58-.58.17-.16.3-.29l56.88.11h.18v.17c-.05,4.75-.08,8.53-.1,11.15,0,1.25,0,2.22,0,2.92,0,.3,0,.55,0,.74S385.32,64.53,385.32,64.52Z" style="fill:#e0e0e0"></path><rect x="197.83" y="413.74" width="51.1" height="13.52" style="fill:#e0e0e0"></rect><rect x="234.57" y="385.98" width="51.1" height="13.52" style="fill:#fafafa"></rect><path d="M264.06,413.74a1.22,1.22,0,0,1,0-.24c0-.19,0-.41,0-.7,0-.63,0-1.52,0-2.66,0-2.33-.05-5.69-.09-9.92l.16.16-51.1.1.26-.26h0v6.86c0,2.26,0,4.48,0,6.65l-.25-.25,36.41.11,10.75.07,2.91,0h.76l.27,0-.24,0h-.73l-2.85,0-10.69.07L213,414h-.26V400.23h0L213,400l51.1.1h.16v.16c0,4.27-.06,7.66-.08,10,0,1.12,0,2,0,2.62,0,.27,0,.49,0,.67A1.48,1.48,0,0,1,264.06,413.74Z" style="fill:#e0e0e0"></path><path d="M84,227.17a1.1,1.1,0,0,1,0-.24c0-.18,0-.41,0-.7,0-.63,0-1.52,0-2.66,0-2.33,0-5.68-.09-9.91l.16.15-51.1.11.26-.26h0v13.49l-.26-.25,36.42.11,10.74.08,2.91,0,.76,0H84s-.07,0-.24,0l-.73,0-2.85,0-10.69.07-36.59.12H32.6v-.26c0-2.17,0-4.39,0-6.65v-6.84h0c.52-.53.15-.15.26-.26l51.1.1h.16v.16c0,4.27-.07,7.65-.09,10,0,1.12,0,2,0,2.62,0,.28,0,.49,0,.67A1.92,1.92,0,0,1,84,227.17Z" style="fill:#e0e0e0"></path><path d="M90.88,213.66a.87.87,0,0,1,0-.26c0-.2,0-.43,0-.72,0-.66,0-1.57,0-2.71,0-2.37-.06-5.72-.1-9.83l.19.18-30.7.08c-.24.23.31-.32.26-.26h0v3.5c0,1.16,0,2.31,0,3.44q0,3.39,0,6.56l-.24-.25,22,.12,6.4.06,1.72,0,.62,0a3.67,3.67,0,0,1-.56,0l-1.67,0-6.34.07-22.13.11h-.25v-.24c0-2.11,0-4.3,0-6.56v-6.94h0c-.06.05.49-.5.26-.26l30.7.07h.19v.19c0,4.16-.07,7.55-.1,10,0,1.12,0,2,0,2.66S90.89,213.67,90.88,213.66Z" style="fill:#e0e0e0"></path><path d="M610.66,418s0-.09,0-.24,0-.41,0-.7c0-.63,0-1.52,0-2.66,0-2.33-.05-5.69-.09-9.92l.16.16-51.09.1c.11-.11-.27.26.25-.26h0V418l-.26-.25,36.42.11,10.75.07,2.9,0h.76l.27,0s-.07,0-.24,0h-.72l-2.86,0-10.69.07-36.59.12h-.25V418q0-3.25,0-6.65v-6.86h0c.52-.52.15-.14.27-.26l51.09.1h.16v.15c0,4.27-.07,7.66-.09,10,0,1.12,0,2,0,2.62v.67C610.67,417.9,610.67,418,610.66,418Z" style="fill:#e0e0e0"></path><path d="M617.59,404.45a1.27,1.27,0,0,1,0-.25c0-.2,0-.43,0-.72,0-.67,0-1.57,0-2.71,0-2.37-.06-5.72-.1-9.83l.19.18-30.7.08.26-.26h0v3.5c0,1.16,0,2.31,0,3.44v6.55l-.25-.24,22,.11,6.4.07,1.72,0,.62,0a3.67,3.67,0,0,1-.56,0l-1.67,0-6.34.07-22.13.12h-.25v-.25c0-2.1,0-4.29,0-6.55V391h0c-.06.05.49-.5.26-.27l30.7.08h.19v.19c0,4.16-.08,7.55-.1,9.94,0,1.13,0,2,0,2.67S617.6,404.47,617.59,404.45Z" style="fill:#e0e0e0"></path><path d="M110.48,449C126,438.16,129.56,418,129,399.87c-.11-3,.23-6.22-1.21-8.87s-4.8-4.47-7.51-3.2c-2.25,1.06-3.23,3.67-4.48,5.84a17.78,17.78,0,0,1-7.1,6.77c-1.93,1-4.31,1.62-6.22.57-2.61-1.44-2.91-5.05-2.89-8.06q0-8.42.1-16.83a27.92,27.92,0,0,0-.91-8.94c-.93-2.85-3-5.51-5.87-6.31s-6.4.85-7,3.8a25.86,25.86,0,0,0-.09,3.74c-.08,1.25-.67,2.63-1.85,3s-2.41-.5-3.31-1.38c-3.1-3-5.21-7-7.18-10.85s-3.88-7.87-6.7-11.19S60,342,55.7,341.76s-8.9,2.41-10,6.64,1.38,8.55,4.07,12a67.49,67.49,0,0,0,14,13.33,5.47,5.47,0,0,1,2.34,2.52c.66,2-1.25,4-3.23,4.66-2.24.74-4.67.51-7,.79S51,383,50.08,385.22c-1.23,3.07,1.34,6.3,3.87,8.41a57.47,57.47,0,0,0,17,9.83c2.21.81,4.54,1.52,6.33,3.08s2.86,4.26,1.78,6.38-3.85,2.8-6.17,2.37-4.39-1.69-6.6-2.53c-4.14-1.56-9.48-1.27-12.13,2.3a9.54,9.54,0,0,0-1,8.43,21.82,21.82,0,0,0,4.56,7.43,57.92,57.92,0,0,0,24.71,17.37c9.6,3.33,18.49,4.23,28,.74" style="fill:#f5f5f5"></path><path d="M110.72,462.47a132.29,132.29,0,0,0-4.92-24.81,270.6,270.6,0,0,0-10.7-29l-3.2-7.47c-1.06-2.45-2.1-4.87-3.27-7.19a134.4,134.4,0,0,0-7.49-12.89c-2.57-4-5.17-7.68-7.62-11.11s-4.8-6.58-7.07-9.36A106,106,0,0,0,54.8,348.29c-1.49-1.35-2.67-2.35-3.49-3l-.93-.75a2.18,2.18,0,0,0-.32-.24,2.44,2.44,0,0,0,.29.28l.89.8c.79.7,1.95,1.72,3.41,3.09a112.16,112.16,0,0,1,11.5,12.41c2.24,2.79,4.57,5.94,7,9.38s5,7.13,7.57,11.12a136.1,136.1,0,0,1,7.42,12.86c1.16,2.3,2.2,4.71,3.26,7.17s2.11,4.94,3.19,7.46a276,276,0,0,1,10.72,29,133.74,133.74,0,0,1,5,24.7" style="fill:#e0e0e0"></path><path d="M88.47,394a5.65,5.65,0,0,0,.29-1.28c.16-.83.35-2,.56-3.54.43-3,.87-7.16,1.35-11.74s1-8.73,1.45-11.71c.23-1.5.43-2.7.58-3.53a5.74,5.74,0,0,0,.16-1.31,6.26,6.26,0,0,0-.37,1.26c-.22.82-.48,2-.76,3.51-.57,3-1.14,7.12-1.61,11.72s-.87,8.62-1.19,11.75c-.15,1.41-.28,2.6-.38,3.56A5.62,5.62,0,0,0,88.47,394Z" style="fill:#e0e0e0"></path><path d="M49.77,386.72a8.71,8.71,0,0,0,1.55.19c1,.08,2.43.2,4.2.41,3.54.38,8.42,1.08,13.77,2.09s10.14,2.14,13.59,3.06c1.73.45,3.12.84,4.08,1.11a7.33,7.33,0,0,0,1.51.37,9.09,9.09,0,0,0-1.45-.58c-.94-.33-2.32-.79-4-1.28-3.44-1-8.24-2.21-13.6-3.23a135.75,135.75,0,0,0-13.83-1.93c-1.79-.16-3.23-.22-4.23-.24A8,8,0,0,0,49.77,386.72Z" style="fill:#e0e0e0"></path><path d="M105.33,437a2.53,2.53,0,0,0,.26-.47l.66-1.4c.57-1.22,1.35-3,2.28-5.22,1.87-4.43,4.25-10.64,6.8-17.52s4.86-13.1,6.63-17.57l2.12-5.28c.23-.58.41-1.05.57-1.44a1.93,1.93,0,0,0,.16-.52,2,2,0,0,0-.27.47c-.18.38-.39.84-.66,1.4-.57,1.22-1.35,3-2.28,5.22-1.86,4.44-4.25,10.64-6.79,17.53s-4.87,13.1-6.64,17.56L106.06,435l-.57,1.44A2.18,2.18,0,0,0,105.33,437Z" style="fill:#e0e0e0"></path><path d="M53.91,420.38a1.9,1.9,0,0,0,.51.21l1.49.5,5.51,1.79c4.64,1.5,11,3.66,18.11,6.05S93,433.42,97.7,434.84c2.34.7,4.24,1.26,5.56,1.61l1.52.4a1.72,1.72,0,0,0,.55.1,2.4,2.4,0,0,0-.51-.21l-1.5-.5-5.5-1.78c-4.65-1.51-11-3.67-18.12-6.06s-13.49-4.49-18.17-5.9c-2.34-.71-4.24-1.26-5.56-1.62l-1.52-.4A2.2,2.2,0,0,0,53.91,420.38Z" style="fill:#e0e0e0"></path></g><g id="freepik--Floor--inject-10"><path d="M695.28,462.51c0,.14-143.41.26-320.26.26s-320.3-.12-320.3-.26,143.38-.26,320.3-.26S695.28,462.36,695.28,462.51Z" style="fill:#263238"></path></g><g id="freepik--Plant--inject-10"><path d="M133,424.75c-1.77,2.53-5.21,1.7-6.81.15s-2.27-3.78-2.88-5.91c-1.41-4.88-2.82-10-1.78-15a8.31,8.31,0,0,1,1.91-4.07,4.37,4.37,0,0,1,4.12-1.37c1.73.46,2.81,2.16,3.59,3.78a35.68,35.68,0,0,1,3.52,15.3,12.34,12.34,0,0,1-1.67,7.08" style="fill:#EFFF3F"></path><g style="opacity:0.2"><path d="M133,424.75c-1.77,2.53-5.21,1.7-6.81.15s-2.27-3.78-2.88-5.91c-1.41-4.88-2.82-10-1.78-15a8.31,8.31,0,0,1,1.91-4.07,4.37,4.37,0,0,1,4.12-1.37c1.73.46,2.81,2.16,3.59,3.78a35.68,35.68,0,0,1,3.52,15.3,12.34,12.34,0,0,1-1.67,7.08"></path></g><path d="M126.4,437.57a15.3,15.3,0,0,0-9.52-1.16,7.83,7.83,0,0,0-4.7,2.1c-1.18,1.3-1.4,3.58-.05,4.69a4.47,4.47,0,0,0,3,.76c2.52,0,5.31-.48,7.33,1,1.14.86,1.91,2.3,3.28,2.73a3.26,3.26,0,0,0,3.57-1.59,5.56,5.56,0,0,0,.4-4.09A6.24,6.24,0,0,0,126.4,437.57Z" style="fill:#EFFF3F"></path><path d="M137.9,428.38a9.23,9.23,0,0,1-1.43-8.47,16.29,16.29,0,0,1,5-7.27,26.94,26.94,0,0,1,9-5.3,9.55,9.55,0,0,1,4-.69,4.24,4.24,0,0,1,3.39,2.05c.95,1.8,0,4-.94,5.77a66.92,66.92,0,0,1-5.9,9c-1.77,2.28-3.79,4.53-6.49,5.56s-5.49.91-6.92-1" style="fill:#EFFF3F"></path><path d="M133.16,462.91a5.23,5.23,0,0,1-.16-1.14c-.08-.84-.18-1.89-.31-3.14a42.61,42.61,0,0,0-.7-4.6,36.23,36.23,0,0,0-1.67-5.43,19.85,19.85,0,0,0-2.78-4.92,10.36,10.36,0,0,0-3.5-2.91,9.73,9.73,0,0,0-3-.92,5.91,5.91,0,0,1-1.14-.17,5.48,5.48,0,0,1,1.16,0,8.78,8.78,0,0,1,3.08.81,10.34,10.34,0,0,1,3.7,2.94,19.57,19.57,0,0,1,2.88,5,33.85,33.85,0,0,1,1.66,5.52,39.69,39.69,0,0,1,.61,4.66c.1,1.33.14,2.41.15,3.15A5.48,5.48,0,0,1,133.16,462.91Z" style="fill:#263238"></path><path d="M132.94,460.5a3.6,3.6,0,0,1,0-.53c0-.4,0-.91,0-1.53,0-1.32,0-3.24-.07-5.6-.12-4.73-.53-11.26-1.31-18.44s-1.84-13.64-2.8-18.27c-.23-1.17-.46-2.21-.67-3.13s-.38-1.7-.55-2.34-.26-1.1-.36-1.49a3.37,3.37,0,0,1-.09-.52,1.78,1.78,0,0,1,.19.5c.11.38.26.86.44,1.46s.4,1.42.63,2.33.49,2,.74,3.12A172.62,172.62,0,0,1,132,434.35c.79,7.19,1.14,13.74,1.17,18.48,0,2.37,0,4.29-.08,5.62,0,.62-.07,1.12-.09,1.52A2,2,0,0,1,132.94,460.5Z" style="fill:#263238"></path><path d="M132.91,447.87a12.1,12.1,0,0,1,0-1.59c.06-1,.2-2.51.49-4.32a55.79,55.79,0,0,1,1.41-6.29,53.87,53.87,0,0,1,2.63-7.44,39.53,39.53,0,0,1,7.72-12,19.41,19.41,0,0,1,1.82-1.69c.27-.23.52-.47.77-.66l.71-.48a10,10,0,0,1,1.34-.86,47,47,0,0,0-4.4,3.92,41.75,41.75,0,0,0-7.53,12,59,59,0,0,0-2.64,7.37c-.69,2.31-1.15,4.44-1.5,6.23s-.52,3.26-.63,4.27A11.1,11.1,0,0,1,132.91,447.87Z" style="fill:#263238"></path></g><g id="freepik--Door--inject-10"><polygon points="409.12 447.56 340.89 447.56 340.89 462.26 450.14 462.26 450.14 455.15 409.12 447.56" style="fill:#e0e0e0"></polygon><polyline points="409.12 136.15 409.12 447.56 461.92 462.26 462.09 136.15 409.12 136.15" style="fill:#455a64"></polyline><path d="M415.63,287.12c.1,2.44-.87,4.46-2.17,4.51s-2.44-1.88-2.54-4.32.87-4.46,2.17-4.51S415.52,284.68,415.63,287.12Z" style="fill:#fff"></path><path d="M413.19,285.3l10.4,1.35a1.14,1.14,0,0,1,1,1.05h0a1.15,1.15,0,0,1-1.35,1.15l-10-1.63Z" style="fill:#fff"></path><polygon points="323.82 122.01 323.82 132.77 323.82 136.15 323.82 462.26 341.15 462.26 341.15 136.15 442.85 136.15 442.85 462.26 461.92 462.26 461.92 136.15 461.92 132.77 461.92 122.01 323.82 122.01" style="fill:#455a64"></polygon><rect x="332.48" y="136.15" width="8.66" height="326.1" style="fill:#263238"></rect><rect x="453.43" y="122.01" width="8.66" height="340.25" style="fill:#263238"></rect><rect x="376.28" y="102.16" width="28.46" height="6.13" style="fill:#263238"></rect><path d="M442.85,462.86s0-.31,0-.93,0-1.54,0-2.74c0-2.41,0-6-.05-10.52,0-9.15-.05-22.37-.08-38.71,0-32.69-.05-77.84-.08-127.7,0-59.93.08-113,.11-145.5l.15.15L417,136.4l-6.87-.16-1.76-.05-.6,0h2.37l6.86.08,25.9.38H443v.15c0,32.48.07,85.57.11,145.5,0,49.86-.06,95-.08,127.7,0,16.34-.06,29.56-.08,38.71,0,4.56,0,8.11-.05,10.52,0,1.2,0,2.11,0,2.74S442.85,462.86,442.85,462.86Z" style="fill:#263238"></path></g><g id="freepik--Character--inject-10"><path d="M268.12,233.26c1.56-1.64,8.7,4.55,9.34,5s1.36-.43.76-.84c-.87-.57-9.83-6.86-8.31-8.48.84-.9,2.32.76,2.32.76s7.95,6.5,8.64,5.71-3.83-4.78-5.46-6-1.68-2.47-.55-2.74c.77-.18,5.84,3.48,7.42,4.73s5.84,4.78,5.15,1.33.08-6.36.83-7a1.1,1.1,0,0,1,1.68,1.24,12.74,12.74,0,0,0,0,3.54,8.2,8.2,0,0,0,.78,2.74c.48,1,.93,1.83,1.33,2.53,4.77,2.88,18.51,10.51,32.5,12.13,2.53.29,12.31-15,12.31-15l15.25,12.4s.11,1-10.86,14.52c-14.92,18.42-58.37-13-58.37-13l0-.05a107.18,107.18,0,0,1-10.17-5c-4.46-2.75-4.21-3.15-3.81-3.62,1.1-1.24,8,4.54,7.26,2.43S266.92,234.51,268.12,233.26Z" style="fill:#b78876"></path><path d="M356.88,291.66s-16,68.9-21.62,89.93c-.86,3.2,48.36,65.07,48.33,64.93L396,438.4l-35.61-57Z" style="fill:#aa6550"></path><path d="M386.15,280.2c.47-.12,9.56,13.24,9.86,24.72a29.82,29.82,0,0,1-.13,3.38A42,42,0,0,1,393,320c-7.69,19.4-15.61,42.43-15.74,47.67-.41,16.15-7.39,88.69-7.39,88.69l-15.33.4L350,368.12l7.59-88.65Z" style="fill:#b78876"></path><path d="M394.74,345c-1.92-12.59,2.45-24.2,3-36.11a57.36,57.36,0,0,0-10-36.24c-.9-5.25-2.46-17-1.08-22.56l16.78-1-1.95-13.91c-1.87-12-13.53-19.94-25.31-19.14l-17.44,1.19s-13.07-3.33-22.54,13l-9.79,15.32L344.9,256l1.23-1.25,1.3,2.45,1,20.59c-1.43,21.13-10.16,35.35-14.71,56.92-2.34,11.11-4.33,25.58-3,36.86.41,3.53,4.45,10,7.91,10.8,3,.7,5.91-1.56,8.07-3.81s4.51-4.82,7.62-5c6.31-.36,10.09,9.22,16.35,8.35,3.79-.53,6.25-4.83,10.05-5.25,4.75-.52,5.53,2.78,10,4.48,3.54,1.35,12.51-3,14-7,1-2.6-.32-5.52-1.19-8.15C401.29,359.22,395.8,352,394.74,345Z" style="fill:#EFFF3F"></path><path d="M354.22,457.34l0-2,15.81-.31,0,6.18-1,.06c-4.35.25-22.14.94-25.05.06C340.83,460.37,354.22,457.34,354.22,457.34Z" style="fill:#EFFF3F"></path><g style="opacity:0.6000000000000001"><path d="M364.39,461.31a5.5,5.5,0,0,1,2-3.36,5.28,5.28,0,0,1,3.69-1.15v4.4Z" style="fill:#fff"></path></g><g style="opacity:0.6000000000000001"><path d="M347.7,459s-4.69,1.36-4.11,2.14,18.59.74,26.53,0l0-.35-21,.2S348.62,459.08,347.7,459Z" style="fill:#fff"></path></g><path d="M370.21,460.74l-.28,0-.77.05-2.87.13c-2.42.09-5.76.17-9.46.18s-7-.06-9.46-.14l-2.87-.12-.77,0-.27,0h1.05l2.86.05c2.42,0,5.77.09,9.46.09s7-.07,9.46-.13l2.86-.06.78,0Z" style="fill:#263238"></path><path d="M349.1,461.38a6.71,6.71,0,0,0-.54-1.37,6.33,6.33,0,0,0-1-1.1,2.16,2.16,0,0,1,1.14,1A2.08,2.08,0,0,1,349.1,461.38Z" style="fill:#263238"></path><path d="M354.05,458.64c-.05,0-.27-.24-.5-.6a1.75,1.75,0,0,1-.34-.71c.05,0,.27.24.5.61S354.09,458.61,354.05,458.64Z" style="fill:#263238"></path><path d="M355.32,458s-.28-.13-.55-.37-.47-.48-.43-.52.28.13.55.37S355.36,457.93,355.32,458Z" style="fill:#263238"></path><path d="M356.13,456.48a1.86,1.86,0,0,1-.82.1,1.89,1.89,0,0,1-.83-.08c0-.06.37-.1.82-.11S356.13,456.42,356.13,456.48Z" style="fill:#263238"></path><path d="M356.4,455.43a1.63,1.63,0,0,1-.91.27,1.59,1.59,0,0,1-.95-.13,5.77,5.77,0,0,1,.93-.06A4.28,4.28,0,0,1,356.4,455.43Z" style="fill:#263238"></path><path d="M353.51,457.27a2.88,2.88,0,0,1-1,0,5.85,5.85,0,0,1-1.08-.23,3.17,3.17,0,0,1-.62-.26.53.53,0,0,1-.25-.31.42.42,0,0,1,.15-.41,1.86,1.86,0,0,1,2.3.54,1.8,1.8,0,0,1,.33.68.62.62,0,0,1,0,.27,3.09,3.09,0,0,0-.46-.86,1.83,1.83,0,0,0-.87-.56,1.59,1.59,0,0,0-1.21.08c-.16.12-.09.31.08.42a4,4,0,0,0,.57.24,7.09,7.09,0,0,0,1,.27C353.12,457.24,353.51,457.24,353.51,457.27Z" style="fill:#263238"></path><path d="M353.25,457.32a.94.94,0,0,1-.12-.7,1.7,1.7,0,0,1,.28-.74,1,1,0,0,1,.84-.52.4.4,0,0,1,.31.46,1.26,1.26,0,0,1-.17.46,2.88,2.88,0,0,1-.48.61,1.4,1.4,0,0,1-.58.41s.21-.18.48-.5a4,4,0,0,0,.43-.61c.14-.21.23-.6,0-.64s-.52.22-.67.43a1.65,1.65,0,0,0-.29.66A3.65,3.65,0,0,0,353.25,457.32Z" style="fill:#263238"></path><path d="M370.31,456.73s-.45,0-1.17,0a5.14,5.14,0,0,0-2.54,1.05,5.07,5.07,0,0,0-1.58,2.25c-.24.67-.26,1.13-.3,1.12a.83.83,0,0,1,0-.31,4.84,4.84,0,0,1,.17-.85,4.92,4.92,0,0,1,1.6-2.36,4.76,4.76,0,0,1,2.64-1,3.88,3.88,0,0,1,.87,0A1.07,1.07,0,0,1,370.31,456.73Z" style="fill:#263238"></path><path d="M362.71,459.25a9.05,9.05,0,0,1-2.3.24,8.89,8.89,0,0,1-2.3-.19c0-.05,1,0,2.3,0S362.71,459.2,362.71,459.25Z" style="fill:#263238"></path><path d="M365.8,459.25s-.08.21-.19.45-.16.45-.21.44-.08-.25,0-.52S365.77,459.21,365.8,459.25Z" style="fill:#263238"></path><path d="M367,457.8s-.06.2-.22.36-.33.27-.37.24.07-.21.23-.37S366.93,457.76,367,457.8Z" style="fill:#263238"></path><path d="M368.63,457.13c0,.05-.22.05-.45.14s-.4.2-.44.16.09-.25.38-.35S368.65,457.08,368.63,457.13Z" style="fill:#263238"></path><path d="M369.82,456.82c0,.05-.08.13-.21.18s-.25.05-.27,0,.07-.13.2-.18S369.8,456.77,369.82,456.82Z" style="fill:#263238"></path><path d="M348.53,240.71a11.75,11.75,0,0,1-.63,2.47c-.52,1.67-1.14,3.65-1.83,5.84a9.18,9.18,0,0,0-.39,3.24,8.86,8.86,0,0,0,.71,2.58,23,23,0,0,1,1,2.32,8.75,8.75,0,0,1-1.37-2.16,8.27,8.27,0,0,1-.85-2.69,8.57,8.57,0,0,1,.36-3.43c.71-2.31,1.46-4.33,2-5.82A12.33,12.33,0,0,1,348.53,240.71Z" style="fill:#263238"></path><path d="M403.49,249.14a.85.85,0,0,1-.21,0l-.63,0-2.29.09c-1.93.07-4.61.2-7.55.41s-5.62.45-7.54.65l-2.28.23-.63.06h-.21a.53.53,0,0,1,.21,0l.62-.1,2.27-.3c1.93-.23,4.59-.5,7.54-.71s5.63-.31,7.57-.35l2.29,0h.63Z" style="fill:#263238"></path><path d="M393.78,221.77c0,.14-11.44.26-25.55.26s-25.56-.12-25.56-.26,11.44-.26,25.56-.26S393.78,221.62,393.78,221.77Z" style="fill:#fafafa"></path><path d="M400.2,230.42c0,.15-14.19.26-31.7.26s-31.69-.11-31.69-.26,14.19-.26,31.69-.26S400.2,230.28,400.2,230.42Z" style="fill:#fafafa"></path><path d="M402.31,240.71c0,.14-16.05.26-35.85.26s-35.86-.12-35.86-.26,16-.26,35.86-.26S402.31,240.56,402.31,240.71Z" style="fill:#fafafa"></path><path d="M396,292.7c0,.14-11.13.26-24.85.26s-24.86-.12-24.86-.26,11.13-.26,24.86-.26S396,292.56,396,292.7Z" style="fill:#fafafa"></path><path d="M397.84,304.32c0,.15-12.37.26-27.62.26s-27.63-.11-27.63-.26,12.37-.26,27.63-.26S397.84,304.18,397.84,304.32Z" style="fill:#fafafa"></path><path d="M396.67,318.5c0,.14-13.2.26-29.48.26s-29.48-.12-29.48-.26,13.2-.26,29.48-.26S396.67,318.36,396.67,318.5Z" style="fill:#fafafa"></path><path d="M394.57,332.45c0,.14-13.45.26-30,.26s-30-.12-30-.26,13.44-.26,30-.26S394.57,332.3,394.57,332.45Z" style="fill:#fafafa"></path><path d="M400.15,359.87c0,.15-15.53.26-34.69.26s-34.68-.11-34.68-.26,15.52-.26,34.68-.26S400.15,359.73,400.15,359.87Z" style="fill:#fafafa"></path><path d="M405,371.73c0,.14-16.47.26-36.79.26s-36.8-.12-36.8-.26,16.47-.26,36.8-.26S405,371.59,405,371.73Z" style="fill:#fafafa"></path><path d="M394.74,346.16c0,.14-14.06.26-31.39.26S332,346.3,332,346.16s14.05-.26,31.39-.26S394.74,346,394.74,346.16Z" style="fill:#fafafa"></path><path d="M383.14,253.19c0,.14-8.28.26-18.49.26s-18.5-.12-18.5-.26,8.28-.26,18.5-.26S383.14,253,383.14,253.19Z" style="fill:#fafafa"></path><path d="M382.15,264.58a7.21,7.21,0,0,1-1.33.1l-3.63.08c-3.07.05-7.3.08-12,.08s-8.91,0-12-.08l-3.62-.08a7.08,7.08,0,0,1-1.33-.1,5.67,5.67,0,0,1,1.33-.11l3.62-.08c3.07-.05,7.3-.08,12-.08s8.9,0,12,.08l3.63.08A5.76,5.76,0,0,1,382.15,264.58Z" style="fill:#fafafa"></path><path d="M393.05,190.45a7,7,0,0,1-.85,11.68c-1.07.58-2.42,1-2.75,2.2a4.88,4.88,0,0,0,.28,2.34,5.9,5.9,0,0,1-11.08,3.84,11.33,11.33,0,0,1-1.81,6.07,6.09,6.09,0,0,1-5.49,2.69c-1.94-.25-3.54-1.63-5.38-2.3-3.91-1.42-8.3.49-12.38-.29a9.79,9.79,0,0,1-7.67-8.45,4.4,4.4,0,0,1-4.92-7.29,4.94,4.94,0,0,1-.7-9.8,5.31,5.31,0,0,1,3-8.17c1.59-.41,3.58-.2,4.55-1.53s.22-3.07.4-4.64a5.05,5.05,0,0,1,3.36-3.91,9.36,9.36,0,0,1,5.35-.08,6,6,0,0,1,6.66-5.4c2,.32,3.8,1.68,5.82,1.58,1.09-.05,2.11-.52,3.19-.67a5.69,5.69,0,0,1,6.17,4.43s5-.91,7.13,1.24,1.58,6.87,1.58,6.87S397.33,182,393.05,190.45Z" style="fill:#263238"></path><path d="M378.05,180.29l-.05,2.53-.51,37.75a8.09,8.09,0,0,1-8.57,7.72h0c-4.73-.1-8.58-3.77-8.6-8.2,0-4.64-.11-9.54-.11-9.54s-6-1-7.23-8.8c-.62-3.89-.42-10.26-.09-15.46a8.24,8.24,0,0,1,9.1-7.69Z" style="fill:#b78876"></path><path d="M354.64,191.07a1,1,0,0,0,1,1,1,1,0,0,0,1-.9,1,1,0,0,0-1-1A1,1,0,0,0,354.64,191.07Z" style="fill:#263238"></path><path d="M354.27,189.6c.12.13.88-.43,2-.43s1.87.54,2,.41-.06-.29-.41-.54a2.7,2.7,0,0,0-1.59-.49,2.65,2.65,0,0,0-1.56.5C354.32,189.3,354.21,189.54,354.27,189.6Z" style="fill:#263238"></path><path d="M364.85,191.07a1,1,0,0,0,1,1,1,1,0,0,0,1-.9,1,1,0,0,0-1-1A1,1,0,0,0,364.85,191.07Z" style="fill:#263238"></path><path d="M364.87,189.8c.12.13.88-.43,2-.43s1.86.54,2,.41-.07-.29-.41-.54a2.7,2.7,0,0,0-1.59-.49,2.62,2.62,0,0,0-1.56.5C364.92,189.51,364.8,189.74,364.87,189.8Z" style="fill:#263238"></path><path d="M361,197.8a6.47,6.47,0,0,0-1.75-.32c-.27,0-.53-.08-.58-.27a1.39,1.39,0,0,1,.18-.82l.82-2.09a36.23,36.23,0,0,0,1.83-5.49,36.06,36.06,0,0,0-2.27,5.33l-.78,2.1a1.65,1.65,0,0,0-.14,1.09.69.69,0,0,0,.45.4,2.16,2.16,0,0,0,.47.06A7.25,7.25,0,0,0,361,197.8Z" style="fill:#263238"></path><path d="M360.21,210.55a19.86,19.86,0,0,0,10.46-2.79s-2.54,5.37-10.36,4.64Z" style="fill:#aa6550"></path><path d="M361.41,200.39a2,2,0,0,1,1.74-.72,1.76,1.76,0,0,1,1.22.66,1.1,1.1,0,0,1,.09,1.28,1.29,1.29,0,0,1-1.41.36,4,4,0,0,1-1.38-.82,1,1,0,0,1-.31-.32.36.36,0,0,1,0-.4" style="fill:#aa6550"></path><path d="M364.13,198.54c-.18,0-.18,1.16-1.18,2s-2.25.7-2.26.87.28.22.8.24a2.92,2.92,0,0,0,1.89-.66,2.54,2.54,0,0,0,.91-1.67C364.34,198.82,364.21,198.53,364.13,198.54Z" style="fill:#263238"></path><path d="M364.59,185.58c.1.29,1.18.15,2.44.3s2.29.5,2.46.24-.1-.4-.52-.69a4.16,4.16,0,0,0-1.82-.64,4.09,4.09,0,0,0-1.91.23C364.78,185.21,364.54,185.44,364.59,185.58Z" style="fill:#263238"></path><path d="M354.66,186.48c.19.24.94,0,1.83,0s1.65.16,1.82-.09,0-.37-.37-.61a2.6,2.6,0,0,0-1.48-.4,2.53,2.53,0,0,0-1.46.5C354.68,186.11,354.58,186.36,354.66,186.48Z" style="fill:#263238"></path><path d="M361.3,173.94a13.15,13.15,0,0,0,9.26,10.2,12.94,12.94,0,0,0,1.37,4.86,4.4,4.4,0,0,0,4.19,2.32c-1.14,2-2.83,5-2.29,7.22s1.54,3.1,3.62,4.88a8.1,8.1,0,0,0-3.22,3.27c-.94,1.73-.37,5.14.92,6.62a4.77,4.77,0,0,0,5.48.88,9.7,9.7,0,0,0,4.13-4.16c3.32-5.67,3.78-12.59,3.16-19.13-.29-3.06-.84-6.21-2.6-8.72-1.87-2.66-4.87-4.29-7.91-5.46A40.2,40.2,0,0,0,362.5,174" style="fill:#263238"></path><path d="M349,183.28a4.34,4.34,0,0,0,7.53-1.84,12.74,12.74,0,0,0,4,.16,4.31,4.31,0,0,0,3.2-2.15,3.65,3.65,0,0,0-1.12-4.32,4.74,4.74,0,0,0-4.58-.56,6.86,6.86,0,0,0-3.46,3.22,3.53,3.53,0,0,0-4.7,5.24" style="fill:#263238"></path><path d="M387,180.64s0-.43-.12-1.17a7.42,7.42,0,0,0-1.06-2.94,5.4,5.4,0,0,0-3.71-2.44,4.54,4.54,0,0,0-2.6.35,18.62,18.62,0,0,1-2.72,1.39,2.52,2.52,0,0,1-1.67-.06,4,4,0,0,1-1.29-.91,8.49,8.49,0,0,0-2-1.81,4.85,4.85,0,0,0-4.39-.17,5.2,5.2,0,0,0-2.26,2.08c-.37.65-.46,1.07-.51,1a1,1,0,0,1,0-.3,4,4,0,0,1,.29-.84,5.1,5.1,0,0,1,2.27-2.32,5.2,5.2,0,0,1,4.78.07,8.86,8.86,0,0,1,2.18,1.87,3.35,3.35,0,0,0,1.12.8,2,2,0,0,0,1.34,0,22,22,0,0,0,2.64-1.35,5,5,0,0,1,2.9-.36,5.65,5.65,0,0,1,3.94,2.72,6.88,6.88,0,0,1,1,3.11A3,3,0,0,1,387,180.64Z" style="fill:#455a64"></path><path d="M387.16,197.78a2.55,2.55,0,0,0,.52-.16,1.59,1.59,0,0,0,.88-1.17,1.74,1.74,0,0,0-1.18-1.82,2.33,2.33,0,0,0-2.67,1.08,3.46,3.46,0,0,0,0,3.62,2,2,0,0,0,1.76.83,3.86,3.86,0,0,0,2.09-.75,5.67,5.67,0,0,0,2.34-4.15,5.1,5.1,0,0,0-2.12-4.55,5.52,5.52,0,0,0-4.05-1.07l-.48.08.21-.44a4.71,4.71,0,0,0,.56-2.18,2.12,2.12,0,0,0-.9-1.77,3,3,0,0,0-2-.33c-.69.07-1.36.29-2.05.42a4.91,4.91,0,0,1-2.09,0,2.69,2.69,0,0,1-1.6-1.17c-.68-1.08-.89-2.21-1.5-3a4,4,0,0,0-4.12-1.56,6.21,6.21,0,0,0-1.59.64s.1-.12.35-.29a4.18,4.18,0,0,1,3.3-.54,4.34,4.34,0,0,1,2.33,1.55c.67.84.92,2,1.56,3a2.3,2.3,0,0,0,1.38,1A4.5,4.5,0,0,0,380,185c.65-.14,1.34-.36,2.09-.45a3.5,3.5,0,0,1,2.3.38,2.63,2.63,0,0,1,1.14,2.17,5.19,5.19,0,0,1-.6,2.42l-.27-.36a6,6,0,0,1,4.44,1.16,5.76,5.76,0,0,1,1.84,2.23,5.48,5.48,0,0,1,.47,2.78,6.12,6.12,0,0,1-2.56,4.5,4.34,4.34,0,0,1-2.36.8,2.46,2.46,0,0,1-2.13-1,3.5,3.5,0,0,1-.55-2.14,3.84,3.84,0,0,1,.59-1.93,2.64,2.64,0,0,1,3.09-1.15,2,2,0,0,1,1.27,2.13,1.73,1.73,0,0,1-1,1.23A.91.91,0,0,1,387.16,197.78Z" style="fill:#455a64"></path><path d="M344.57,180.5a1.1,1.1,0,0,0,.75-.59,1,1,0,0,0-.09-1,1.65,1.65,0,0,0-1.24-.73,2.24,2.24,0,0,0-1.68.53,2.13,2.13,0,0,0-.78,1.82,2.7,2.7,0,0,0,1.05,2,3,3,0,0,0,2.36.46,3.33,3.33,0,0,0,2-1.36,4.09,4.09,0,0,0,.76-2.21c0-.77,0-1.54,0-2.28a3.29,3.29,0,0,1,.74-1.92,3.56,3.56,0,0,1,2.57-1.34,2.5,2.5,0,0,1,.8.07c.17,0,.26.08.26.1s-.38-.06-1,0a3.53,3.53,0,0,0-2.3,1.36,3.05,3.05,0,0,0-.6,1.73c-.05.69.05,1.44,0,2.27a4.53,4.53,0,0,1-.82,2.48,3.82,3.82,0,0,1-2.34,1.58,3.46,3.46,0,0,1-2.77-.57,3.16,3.16,0,0,1-1.23-2.34,2.55,2.55,0,0,1,1-2.17,2.63,2.63,0,0,1,2-.57,2,2,0,0,1,1.44.94,1.26,1.26,0,0,1,0,1.3,1.06,1.06,0,0,1-.64.51C344.67,180.55,344.57,180.52,344.57,180.5Z" style="fill:#263238"></path><g style="opacity:0.30000000000000004"><path d="M346.64,289.89a35.26,35.26,0,0,0,45-6,4.66,4.66,0,0,0,1.22-1.93,1.77,1.77,0,0,0-.75-2,2.66,2.66,0,0,0-1.76,0l-43.2,10.17"></path></g><path d="M329.38,272.77l2.86,4L353,288.22a3,3,0,0,0,4.18-1.43h0a3,3,0,0,0-1.43-3.88L334.5,272.56Z" style="fill:#263238"></path><polygon points="329.96 273.57 330.38 272.73 333.99 272.58 332.02 276.46 329.96 273.57" style="fill:#e0e0e0"></polygon><rect x="357.02" y="286.22" width="1.22" height="2.95" transform="translate(-80.98 422.95) rotate(-55.95)" style="fill:#263238"></rect><path d="M343,290.47s55.48,3.44,58.21-20.11a179.47,179.47,0,0,0,1.38-21.17c-7.7.31-15.31.64-19.41,1.36,0,0-.17,17.47-2.46,18.57-12.72,6.05-28.41,6.89-34,7-.71-.37-1.53-.84-2.48-1.43a8.71,8.71,0,0,1-2.11-1.91,12.87,12.87,0,0,1-1.9-3,1.11,1.11,0,0,0-2.08-.16c-.29.95.6,3.82,3,6.38,0,0-4.35,2.06-3.91,4.79C337.67,283.06,343,290.47,343,290.47Z" style="fill:#b78876"></path><path d="M384.83,448.08l-1.24-1.56,12-10.27,3.95,4.75-.72.67c-3.2,2.95-16.5,14.78-19.3,15.95C376.41,458.92,384.83,448.08,384.83,448.08Z" style="fill:#EFFF3F"></path><g style="opacity:0.6000000000000001"><path d="M395.21,444.68a5.47,5.47,0,0,1-.59-3.88,5.27,5.27,0,0,1,2.12-3.22l2.8,3.4Z" style="fill:#fff"></path></g><g style="opacity:0.6000000000000001"><path d="M380.88,453.53s-2.77,4-1.82,4.25,14.83-11.22,20.51-16.81l-.24-.25-16.09,13.49S381.61,453,380.88,453.53Z" style="fill:#fff"></path></g><path d="M399.34,440.55l-.19.19-.58.54-2.13,1.91c-1.81,1.61-4.34,3.8-7.19,6.15s-5.48,4.43-7.4,5.9L379.57,457l-.63.46a1,1,0,0,1-.23.15l.2-.18c.19-.14.39-.3.61-.49l2.25-1.77c1.9-1.51,4.51-3.6,7.36-5.95s5.39-4.52,7.22-6.1l2.18-1.87.59-.5C399.26,440.6,399.33,440.54,399.34,440.55Z" style="fill:#263238"></path><path d="M383.44,454.44a7.1,7.1,0,0,0-1.29-.71,5.84,5.84,0,0,0-1.45-.22,2.05,2.05,0,0,1,1.51,0A2.19,2.19,0,0,1,383.44,454.44Z" style="fill:#263238"></path><path d="M385.52,449.19a1.73,1.73,0,0,1-.77-.15,1.76,1.76,0,0,1-.71-.33,1.57,1.57,0,0,1,.77.15C385.22,449,385.54,449.14,385.52,449.19Z" style="fill:#263238"></path><path d="M386.08,447.86c0,.05-.3.08-.67.06s-.66-.07-.65-.12.3-.08.66-.07S386.08,447.8,386.08,447.86Z" style="fill:#263238"></path><path d="M385.75,446.2s-.22.31-.56.6-.66.5-.7.46.22-.31.57-.61S385.72,446.15,385.75,446.2Z" style="fill:#263238"></path><path d="M385.3,445.21a1.64,1.64,0,0,1-.54.79c-.38.37-.79.55-.81.5s.31-.28.68-.64S385.25,445.18,385.3,445.21Z" style="fill:#263238"></path><path d="M384.23,448.47a2.84,2.84,0,0,1-.78.64,5.94,5.94,0,0,1-1,.5,3.44,3.44,0,0,1-.64.2.55.55,0,0,1-.4-.09.4.4,0,0,1-.14-.41,1.89,1.89,0,0,1,2.81-.73c.14.11.2.19.19.2a2.65,2.65,0,0,0-.9-.38,1.9,1.9,0,0,0-1,.12,1.62,1.62,0,0,0-.88.83c-.05.2.12.3.33.27a3.28,3.28,0,0,0,.59-.17,8.33,8.33,0,0,0,1-.46C383.92,448.69,384.21,448.44,384.23,448.47Z" style="fill:#263238"></path><path d="M384.06,448.67s-.28-.08-.53-.46a1.63,1.63,0,0,1-.26-.75,1,1,0,0,1,.32-.94.41.41,0,0,1,.54.17,1,1,0,0,1,.15.45,3,3,0,0,1,0,.78,1.57,1.57,0,0,1-.19.69s0-.27.05-.7a3.38,3.38,0,0,0-.06-.74c0-.25-.2-.61-.42-.48s-.25.5-.25.76a1.75,1.75,0,0,0,.2.69A3.16,3.16,0,0,0,384.06,448.67Z" style="fill:#263238"></path><path d="M396.87,437.38s-.38.26-.88.78a4.94,4.94,0,0,0-1.09,5.16c.25.68.52,1,.49,1.06s-.09-.08-.21-.24a4.76,4.76,0,0,1-.4-.77,4.87,4.87,0,0,1-.27-2.83,4.94,4.94,0,0,1,1.39-2.48,4.27,4.27,0,0,1,.68-.53A1,1,0,0,1,396.87,437.38Z" style="fill:#263238"></path><path d="M392.6,444.16a12.93,12.93,0,0,1-3.52,3s.8-.65,1.77-1.47S392.56,444.12,392.6,444.16Z" style="fill:#263238"></path><path d="M395,442.19c.06,0,.08.22.15.47s.15.45.11.48-.22-.14-.3-.43S394.93,442.18,395,442.19Z" style="fill:#263238"></path><path d="M395,440.33c.05,0,.08.2.06.43s-.08.41-.13.41-.08-.2-.06-.43S394.91,440.33,395,440.33Z" style="fill:#263238"></path><path d="M395.82,438.76c0,.05-.13.18-.26.39s-.18.41-.23.41-.09-.25.07-.51S395.81,438.71,395.82,438.76Z" style="fill:#263238"></path><path d="M396.54,437.76s0,.15,0,.27-.16.2-.21.18,0-.15,0-.27S396.5,437.74,396.54,437.76Z" style="fill:#263238"></path></g><g id="freepik--drone-2--inject-10"><rect x="577.24" y="142.58" width="31.57" height="31.57" style="fill:#455a64"></rect><path d="M608.81,157.59c0,.14-7.06.26-15.77.26s-15.77-.12-15.77-.26,7.06-.26,15.77-.26S608.81,157.45,608.81,157.59Z" style="fill:#263238"></path><rect x="590.4" y="142.58" width="5.29" height="6.46" style="fill:#263238"></rect><rect x="590.4" y="167.62" width="5.29" height="6.46" style="fill:#263238"></rect><rect x="579.97" y="164.18" width="6.89" height="6.89" transform="translate(-18.58 89.73) rotate(-8.66)" style="fill:#fafafa"></rect><path d="M585.76,169.9l-3.91.59a2.77,2.77,0,0,1,1.68-.69l-.33-2.21a1.41,1.41,0,0,1-1.66-1.74l.16-.6,2.57-.39.41.51a1.42,1.42,0,0,1,.07,1.37,1.45,1.45,0,0,1-1.13.79l.33,2.21a2.69,2.69,0,0,1,1.81.16" style="fill:#e0e0e0"></path><rect x="612.07" y="161.78" width="42.04" height="25.23" transform="translate(308.75 -396.58) rotate(45)" style="fill:#455a64"></rect><path d="M647.81,189.12c-.1.11-6.77-6.4-14.9-14.53s-14.64-14.81-14.54-14.91,6.77,6.41,14.9,14.54S647.91,189,647.81,189.12Z" style="fill:#e0e0e0"></path><path d="M641.85,165.32c.1.1-3.83,4.19-8.78,9.14s-9.05,8.89-9.15,8.78,3.83-4.19,8.78-9.14S641.75,165.22,641.85,165.32Z" style="fill:#e0e0e0"></path><rect x="612.18" y="167.65" width="6.69" height="3.31" transform="translate(300.01 -385.65) rotate(45)" style="fill:#e0e0e0"></rect><rect x="573.76" y="184.71" width="56.54" height="34.81" transform="translate(105.48 -193.78) rotate(20.01)" style="fill:#455a64"></rect><path d="M628.59,211.79c-.05.13-12-4.09-26.64-9.43s-26.51-9.77-26.47-9.91,12,4.08,26.65,9.42S628.63,211.65,628.59,211.79Z" style="fill:#263238"></path><polygon points="594.04 217.73 596.51 209.8 603.11 211.6 600.56 220.1 594.04 217.73" style="fill:#263238"></polygon><polygon points="612.09 187.26 609.63 195.19 603.03 193.38 605.58 184.88 612.09 187.26" style="fill:#263238"></polygon><rect x="575.97" y="201.43" width="6.89" height="6.89" transform="translate(105.06 -185.87) rotate(20.01)" style="fill:#fafafa"></rect><path d="M580.38,208a3.55,3.55,0,0,0-1.55-.87l-.15,0,.05-.15.71-2.12.07-.2.2.08a1.22,1.22,0,0,0,1.11-.11,1.2,1.2,0,0,0,.54-1.07v0c0-.2-.09-.42-.13-.64l.16.19-2.44-.88.27-.06-.45.46a1.17,1.17,0,0,0,.53,1.89l.25.08-.09.24c-.27.73-.54,1.43-.78,2.09l-.1.25-.22-.12a2.51,2.51,0,0,0-1.66-.21l0-.39a25.47,25.47,0,0,1,3.65,1.55,27,27,0,0,1-3.78-1.17l-.63-.21.65-.17a2.8,2.8,0,0,1,2,.19l-.32.13.75-2.11.16.33a1.71,1.71,0,0,1-1.11-1.11,1.68,1.68,0,0,1,.34-1.6l.47-.49.12-.12.15.06,2.44.9.13.05,0,.14.11.64v0h0a1.71,1.71,0,0,1-.79,1.49,1.66,1.66,0,0,1-1.51.1l.27-.12c-.3.76-.57,1.46-.82,2.08l-.1-.19a2.59,2.59,0,0,1,1.21.73C580.33,207.82,580.4,208,580.38,208Z" style="fill:#263238"></path><path d="M547.09,101.12a4.83,4.83,0,1,1-6.81-.57A4.83,4.83,0,0,1,547.09,101.12Z" style="fill:#EFFF3F"></path><polygon points="544.12 108.26 561.55 124.34 564.56 120.93 547.05 104.95 544.12 108.26" style="fill:#EFFF3F"></polygon><path d="M568.61,120.73a4.49,4.49,0,1,1-6.33-.53A4.49,4.49,0,0,1,568.61,120.73Z" style="fill:#EFFF3F"></path><rect x="568.05" y="124.51" width="2.14" height="8.46" transform="translate(17.76 319.74) rotate(-31.85)" style="fill:#EFFF3F"></rect><rect x="570.38" y="130.21" width="8.08" height="2.87" transform="translate(17.03 322.98) rotate(-31.85)" style="fill:#EFFF3F"></rect><g style="opacity:0.30000000000000004"><path d="M568.61,120.73a4.49,4.49,0,1,1-6.33-.53A4.49,4.49,0,0,1,568.61,120.73Z"></path><rect x="568.05" y="124.51" width="2.14" height="8.46" transform="translate(17.76 319.74) rotate(-31.85)"></rect><rect x="570.38" y="130.21" width="8.08" height="2.87" transform="translate(17.03 322.98) rotate(-31.85)"></rect></g><path d="M543.73,106.47h0a2.16,2.16,0,0,0,1.82-2.45l-3.76-25.51a2.16,2.16,0,0,0-2.45-1.82h0a2.16,2.16,0,0,0-1.82,2.45l3.76,25.51A2.16,2.16,0,0,0,543.73,106.47Z" style="fill:#EFFF3F"></path><path d="M543.73,106.47h0a2.16,2.16,0,0,0,1.82-2.45l-3.76-25.51a2.16,2.16,0,0,0-2.45-1.82h0a2.16,2.16,0,0,0-1.82,2.45l3.76,25.51A2.16,2.16,0,0,0,543.73,106.47Z" style="opacity:0.30000000000000004"></path><path d="M594,95.81a4.83,4.83,0,1,0,5.62-3.87A4.83,4.83,0,0,0,594,95.81Z" style="fill:#EFFF3F"></path><polygon points="600.15 100.54 593 123.15 588.71 121.69 595.96 99.12 600.15 100.54" style="fill:#EFFF3F"></polygon><path d="M585.08,123.52a4.5,4.5,0,1,0,5.24-3.6A4.5,4.5,0,0,0,585.08,123.52Z" style="fill:#EFFF3F"></path><rect x="587.56" y="126.5" width="2.14" height="8.46" transform="matrix(-1, -0.04, 0.04, -1, 1172.18, 282.54)" style="fill:#EFFF3F"></rect><rect x="581.43" y="134.46" width="8.08" height="2.87" transform="translate(1165.67 292.76) rotate(-177.94)" style="fill:#EFFF3F"></rect><g style="opacity:0.30000000000000004"><path d="M585.08,123.52a4.5,4.5,0,1,0,5.24-3.6A4.5,4.5,0,0,0,585.08,123.52Z"></path><rect x="587.56" y="126.5" width="2.14" height="8.46" transform="matrix(-1, -0.04, 0.04, -1, 1172.18, 282.54)"></rect><rect x="581.43" y="134.46" width="8.08" height="2.87" transform="translate(1165.67 292.76) rotate(-177.94)"></rect></g><path d="M599.83,99.27h0a2.16,2.16,0,0,1-2.71-1.4l-7.86-24.56a2.16,2.16,0,0,1,1.4-2.71h0a2.16,2.16,0,0,1,2.71,1.4l7.86,24.56A2.16,2.16,0,0,1,599.83,99.27Z" style="fill:#EFFF3F"></path><path d="M599.83,99.27h0a2.16,2.16,0,0,1-2.71-1.4l-7.86-24.56a2.16,2.16,0,0,1,1.4-2.71h0a2.16,2.16,0,0,1,2.71,1.4l7.86,24.56A2.16,2.16,0,0,1,599.83,99.27Z" style="opacity:0.30000000000000004"></path><path d="M628.87,46.42s-3.53-1.11-11.06,0-19.19,1.2-17.08,2.54,22,4.77,28.18-2.24" style="fill:#263238"></path><rect x="631.46" y="44.79" width="2.24" height="5.25" transform="translate(-1.29 72.24) rotate(-6.53)" style="fill:#455a64"></rect><rect x="628.56" y="44.16" width="7.73" height="3.7" transform="translate(-1.13 72.19) rotate(-6.53)" style="fill:#455a64"></rect><path d="M636.26,45.58s3.19-1.89,10.78-2.46,19-3.16,17.21-1.38-20.35,9.61-28,4.18" style="fill:#263238"></path><rect x="627.66" y="49.73" width="12.81" height="16.34" rx="3.5" transform="translate(-2.47 72.47) rotate(-6.53)" style="fill:#EFFF3F"></rect><rect x="627.66" y="49.73" width="12.81" height="16.34" rx="3.5" transform="translate(-2.47 72.47) rotate(-6.53)" style="opacity:0.30000000000000004"></rect><rect x="520.85" y="71.43" width="88.27" height="4.83" transform="translate(-4.73 64.71) rotate(-6.53)" style="fill:#EFFF3F"></rect><rect x="520.85" y="71.43" width="88.27" height="4.83" transform="translate(-4.73 64.71) rotate(-6.53)" style="opacity:0.30000000000000004"></rect><rect x="605.36" y="63.33" width="8.31" height="5.67" transform="translate(-3.57 69.72) rotate(-6.53)" style="fill:#EFFF3F"></rect><path d="M610.36,73.54h0a2,2,0,0,1-2.24-1.78l-.35-3,4-.46.35,3A2,2,0,0,1,610.36,73.54Z" style="fill:#EFFF3F"></path><rect x="562.55" y="43.17" width="1.44" height="3.77" transform="translate(-1.47 64.32) rotate(-6.53)" style="fill:#EFFF3F"></rect><path d="M566.19,43.54l-6.11.7a1.16,1.16,0,0,1-1.29-1h0a1.17,1.17,0,0,1,1-1.29l6.1-.7a1.17,1.17,0,0,1,1.29,1h0A1.14,1.14,0,0,1,566.19,43.54Z" style="fill:#EFFF3F"></path><path d="M541.46,69l-1.69-6.63a12,12,0,0,1,10.3-14.93l24.74-2.83a12,12,0,0,1,13.37,12.93l-.5,6.17Z" style="fill:#EFFF3F"></path><path d="M541.46,69l-1.69-6.63a12,12,0,0,1,10.3-14.93l24.74-2.83a12,12,0,0,1,13.37,12.93l-.5,6.17Z" style="opacity:0.2"></path><rect x="556.36" y="51.6" width="0.66" height="5.62" transform="translate(-2.58 63.67) rotate(-6.53)" style="fill:#263238"></rect><rect x="558.88" y="51.31" width="0.66" height="5.62" transform="translate(-2.53 63.87) rotate(-6.52)" style="fill:#263238"></rect><rect x="561.39" y="51.02" width="0.66" height="5.62" transform="translate(-2.48 64.16) rotate(-6.52)" style="fill:#263238"></rect><rect x="563.91" y="50.74" width="0.66" height="5.62" transform="translate(-2.43 64.44) rotate(-6.52)" style="fill:#263238"></rect><rect x="566.42" y="50.45" width="0.66" height="5.62" transform="translate(-2.38 64.81) rotate(-6.53)" style="fill:#263238"></rect><rect x="568.94" y="50.16" width="0.66" height="5.62" transform="translate(-2.33 65.1) rotate(-6.53)" style="fill:#263238"></rect><path d="M567.79,93h0A23.27,23.27,0,0,1,542,72.51l-.38-3.28,46.23-5.29.38,3.28A23.28,23.28,0,0,1,567.79,93Z" style="fill:#EFFF3F"></path><path d="M573.78,83.18A7.07,7.07,0,1,1,566,77,7.07,7.07,0,0,1,573.78,83.18Z" style="opacity:0.30000000000000004"></path><path d="M490.31,61.31s-3.54-1.12-11.06,0-19.19,1.21-17.08,2.55,22,4.76,28.18-2.24" style="fill:#263238"></path><rect x="492.9" y="59.68" width="2.24" height="5.25" transform="translate(-3.88 56.56) rotate(-6.53)" style="fill:#455a64"></rect><rect x="490" y="59.05" width="7.73" height="3.7" transform="translate(-3.72 56.54) rotate(-6.53)" style="fill:#455a64"></rect><path d="M497.7,60.46s3.19-1.88,10.78-2.45,19-3.16,17.21-1.38-20.35,9.61-28,4.18" style="fill:#263238"></path><rect x="489.1" y="64.62" width="12.81" height="16.34" rx="3.5" transform="translate(-5.06 56.81) rotate(-6.53)" style="fill:#EFFF3F"></rect><rect x="489.1" y="64.62" width="12.81" height="16.34" rx="3.5" transform="translate(-5.06 56.81) rotate(-6.53)" style="opacity:0.30000000000000004"></rect><polygon points="487.35 74.07 487.74 77.5 642.99 59.74 642.55 55.88 626.52 57.72 621.88 54.03 505.29 67.37 501.72 71.87 487.35 74.07" style="fill:#EFFF3F"></polygon><polygon points="487.35 74.07 487.74 77.5 642.99 59.74 642.55 55.88 626.52 57.72 621.88 54.03 505.29 67.37 501.72 71.87 487.35 74.07" style="fill:#EFFF3F"></polygon><rect x="514.89" y="73.84" width="8.31" height="5.67" transform="translate(-5.35 59.51) rotate(-6.53)" style="fill:#EFFF3F"></rect><path d="M519.9,84.11h0a2,2,0,0,1-2.24-1.78l-.34-3,4-.46.34,3A2,2,0,0,1,519.9,84.11Z" style="fill:#EFFF3F"></path><path d="M572.05,83.38a5.33,5.33,0,1,1-5.9-4.69A5.33,5.33,0,0,1,572.05,83.38Z" style="fill:#455a64"></path><path d="M571.08,83.49a4.35,4.35,0,1,1-4.82-3.83A4.35,4.35,0,0,1,571.08,83.49Z" style="fill:#263238"></path><path d="M578.07,76.48a1.68,1.68,0,0,1-3.34.38,1.68,1.68,0,1,1,3.34-.38Z" style="fill:#fff;opacity:0.4"></path><path d="M588.15,66.27c0,.14-10.32,1.44-23.08,2.9S542,71.7,541.94,71.56s10.31-1.44,23.07-2.9S588.13,66.13,588.15,66.27Z" style="fill:#263238"></path><path d="M523.4,73.73a20.52,20.52,0,0,1-4.51.78,21,21,0,0,1-4.57.26,40,40,0,0,1,9.08-1Z" style="fill:#263238"></path><path d="M614.18,63.36a42.05,42.05,0,0,1-9.21,1,21.1,21.1,0,0,1,4.57-.78A19.86,19.86,0,0,1,614.18,63.36Z" style="fill:#263238"></path><path d="M535.88,63.87s-.1.2-.36.52l-1.13,1.41,0,0h-.06c-2.91.41-8.42,1.09-14.74,1.82l-10,1.09.15-.09-2,2.83,0-.11c.1,1.12.18,2.05.25,2.79a4.61,4.61,0,0,1,0,1,4.54,4.54,0,0,1-.2-1c-.1-.74-.23-1.66-.39-2.78v0l0,0,1.88-2.89.05-.08h.1l10-1.19c6.31-.72,11.83-1.3,14.76-1.56l-.08,0,1.23-1.32A2.1,2.1,0,0,1,535.88,63.87Z" style="fill:#263238"></path><path d="M588.18,57.53A1.83,1.83,0,0,1,588,58l-.71,1.2-2.73,4.43,0,.07h-.09c-4.84.6-11.93,1.45-19.82,2.35-8.54,1-16.15,1.81-21,2.3h-.1l0-.07-2.55-3.56-.65-1a1.75,1.75,0,0,1-.21-.35s.11.09.28.29l.72.91q1,1.29,2.67,3.47l-.15-.07c4.82-.61,12.42-1.52,21-2.5,7.89-.9,15-1.68,19.84-2.18l-.13.08,2.87-4.34.79-1.15C588.06,57.65,588.16,57.52,588.18,57.53Z" style="fill:#263238"></path><path d="M505.9,72.4c.06,0,.09.13.18.18s.09,0,.1,0l0,0,0-.06s0-.06-.06-.09-.18,0-.24-.09,0-.23.26-.27a.47.47,0,0,1,.44.18.54.54,0,0,1,0,.62.55.55,0,0,1-.58.23.47.47,0,0,1-.33-.33C505.68,72.48,505.85,72.36,505.9,72.4Z" style="fill:#263238"></path><path d="M506.1,74.16c.06,0,.09.13.18.18s.09,0,.1,0l0,0,0-.06s0-.06-.06-.08-.18,0-.24-.09,0-.24.26-.28a.5.5,0,0,1,.44.18.54.54,0,0,1,0,.62.53.53,0,0,1-.58.23.47.47,0,0,1-.33-.33C505.88,74.23,506.05,74.11,506.1,74.16Z" style="fill:#263238"></path><path d="M502.16,76a4.24,4.24,0,0,1-.49-2,4.1,4.1,0,0,1,0-2c.14,0,.36.86.49,2A4.26,4.26,0,0,1,502.16,76Z" style="fill:#263238"></path><path d="M489.62,77.16c-.14,0-.34-.7-.44-1.6s-.07-1.65.07-1.66.34.7.44,1.6S489.77,77.14,489.62,77.16Z" style="fill:#263238"></path><path d="M592.59,57.34a2.4,2.4,0,0,1,.55.31l1.49,1-.09,0c2.92-.41,8.43-1.09,14.74-1.81l10-1.09h.1l.07.06,2.49,2.39,0,0v.06q.15,1.68.24,2.79a4.33,4.33,0,0,1,0,1,4.54,4.54,0,0,1-.2-1c-.1-.74-.24-1.66-.39-2.78l.05.1-2.56-2.31.17.06-10,1.19c-6.31.72-11.84,1.3-14.77,1.56h-.06l0,0-1.43-1.11C592.73,57.5,592.57,57.36,592.59,57.34Z" style="fill:#263238"></path><path d="M623.72,58.87s.24,0,.23.3a.5.5,0,0,1-.25.4.54.54,0,0,1-.62-.09.56.56,0,0,1-.13-.61.49.49,0,0,1,.39-.27c.27,0,.36.16.31.21s-.14.06-.21.14-.05.08,0,.1l0,.05,0,0s.07,0,.1,0S623.67,58.92,623.72,58.87Z" style="fill:#263238"></path><path d="M623.92,60.63c0-.06.24,0,.23.3a.49.49,0,0,1-.25.4.53.53,0,0,1-.61-.1.54.54,0,0,1-.14-.61.49.49,0,0,1,.39-.27c.27,0,.37.17.31.21s-.14.07-.21.14,0,.09,0,.1l0,.05.06,0s.06,0,.09,0S623.87,60.68,623.92,60.63Z" style="fill:#263238"></path><path d="M628.17,61.48c-.15,0-.36-.87-.49-2a4.12,4.12,0,0,1,0-2,4.24,4.24,0,0,1,.49,2A4.25,4.25,0,0,1,628.17,61.48Z" style="fill:#263238"></path><path d="M640.65,59.83c-.14,0-.34-.7-.44-1.6s-.07-1.65.07-1.66.34.7.44,1.6S640.79,59.81,640.65,59.83Z" style="fill:#263238"></path><path d="M546.11,72.07c0,.06-.1.24-.05.54a.48.48,0,1,0,.76-.43c-.23-.2-.47-.16-.49-.24s.24-.28.68-.07a.88.88,0,0,1,.51.66.9.9,0,0,1-.48.92.93.93,0,0,1-1-.06.94.94,0,0,1-.3-.78C545.75,72.12,546.09,72,546.11,72.07Z" style="fill:#263238"></path><path d="M565,69.91s-.1.24,0,.54a.49.49,0,1,0,.77-.43c-.24-.2-.47-.17-.5-.24s.24-.28.69-.08a.92.92,0,1,1-1,1.53.92.92,0,0,1-.31-.78C564.64,70,565,69.84,565,69.91Z" style="fill:#263238"></path><path d="M582.42,67.91c.05.06-.11.24,0,.55a.48.48,0,1,0,.76-.43c-.23-.21-.47-.17-.49-.24s.23-.28.68-.08a1,1,0,0,1,.51.66.92.92,0,0,1-.49.93.9.9,0,0,1-1-.07.89.89,0,0,1-.3-.77C582.05,68,582.4,67.85,582.42,67.91Z" style="fill:#263238"></path><path d="M587.87,70.7c0,.14-10.06,1.41-22.5,2.83S542.82,76,542.81,75.85s10.05-1.41,22.5-2.83S587.85,70.55,587.87,70.7Z" style="fill:#263238"></path><path d="M566.55,93.12a3.6,3.6,0,0,1-1.08.19,12.06,12.06,0,0,1-3-.15,13.2,13.2,0,0,1-4.23-1.39,13.05,13.05,0,0,1-4-3.72,26.23,26.23,0,0,1-3.91-9c-.31-1.22-.52-2.21-.65-2.9a4.49,4.49,0,0,1-.16-1.08,4.2,4.2,0,0,1,.36,1l.81,2.85a28.43,28.43,0,0,0,4,8.79,12.88,12.88,0,0,0,3.8,3.6,13.44,13.44,0,0,0,4,1.45A21.84,21.84,0,0,0,566.55,93.12Z" style="fill:#263238"></path><path d="M580.62,71.53a2.34,2.34,0,0,1,.16.76,16.45,16.45,0,0,1,.16,2.12,33.7,33.7,0,0,1-.67,7A24.72,24.72,0,0,1,578.08,88c-.21.4-.44.74-.63,1l-.57.72c-.38.35-.59.53-.61.5s.14-.25.45-.62l.49-.76c.15-.31.36-.65.54-1a30.4,30.4,0,0,0,2-6.59,42.45,42.45,0,0,0,.81-6.87C580.63,72.63,580.53,71.54,580.62,71.53Z" style="fill:#263238"></path><path d="M567.93,87.26s-.37.38-1.18.48a3.36,3.36,0,0,1-3.72-4c.15-.79.51-1.17.56-1.14s-.15.47-.2,1.19a3.48,3.48,0,0,0,.86,2.54,3.41,3.41,0,0,0,2.48,1C567.45,87.38,567.89,87.18,567.93,87.26Z" style="fill:#fafafa"></path><path d="M564.58,81.15c.08.11,0,.32-.15.48s-.35.24-.47.15-.09-.32.1-.52S564.49,81,564.58,81.15Z" style="fill:#fafafa"></path><path d="M463.18,70.29a6.41,6.41,0,0,1-1.28.12c-.82,0-2,.07-3.48.06A89.08,89.08,0,0,1,447,69.63a5.24,5.24,0,0,1-3.19-1.11,1.62,1.62,0,0,1-.33-1.7,2.45,2.45,0,0,1,1.08-1.22,12.73,12.73,0,0,1,2.67-.87l2.33-.59,3.37-.83a5.68,5.68,0,0,1,1.26-.23,7,7,0,0,1-1.21.43l-3.33,1-2.3.66a11.92,11.92,0,0,0-2.54.87,1.89,1.89,0,0,0-.86,1,1.14,1.14,0,0,0,.23,1.19,2.69,2.69,0,0,0,1.29.66,12.4,12.4,0,0,0,1.6.27,113.94,113.94,0,0,0,11.38,1l3.47.11A6.07,6.07,0,0,1,463.18,70.29Z" style="fill:#263238"></path><path d="M466.18,71.15a14.74,14.74,0,0,1-3.07.5,54.25,54.25,0,0,1-7.5.24,53.77,53.77,0,0,1-7.46-.77,14.26,14.26,0,0,1-3-.72,23.72,23.72,0,0,1,3.08.35c1.9.25,4.52.52,7.43.62s5.55,0,7.46-.09A25.07,25.07,0,0,1,466.18,71.15Z" style="fill:#263238"></path><path d="M530.17,58.13a4.17,4.17,0,0,1,.73-.47,4,4,0,0,0,1.63-1.56,1.7,1.7,0,0,0,0-1.43,3.07,3.07,0,0,0-1.21-1.25,13.87,13.87,0,0,0-4-1.37,36.75,36.75,0,0,0-7.78-.56,24.2,24.2,0,0,1-3.27,0,17,17,0,0,1,3.25-.35,30.28,30.28,0,0,1,7.9.41A13.35,13.35,0,0,1,531.59,53a3.4,3.4,0,0,1,1.34,1.48,2.07,2.07,0,0,1-.07,1.76A4,4,0,0,1,531,57.84,2.3,2.3,0,0,1,530.17,58.13Z" style="fill:#263238"></path><path d="M534.66,52.27c-.11.11-1.27-1-3-1.78s-3.29-1.05-3.28-1.21a7.65,7.65,0,0,1,6.29,3Z" style="fill:#263238"></path><path d="M658.59,48a8.87,8.87,0,0,1,1.33-.4c.86-.24,2.11-.55,3.64-1a40.13,40.13,0,0,0,5.24-1.86,13.75,13.75,0,0,0,2.82-1.57,2.94,2.94,0,0,0,1-1.28,1.83,1.83,0,0,0-.08-1.52,2.59,2.59,0,0,0-1.25-1,8,8,0,0,0-1.62-.49c-1.11-.25-2.19-.46-3.23-.64-2.07-.35-3.95-.58-5.53-.73s-2.87-.22-3.76-.27a8.1,8.1,0,0,1-1.38-.11,5.66,5.66,0,0,1,1.39-.09c.89,0,2.18,0,3.78.1s3.49.3,5.58.63c1,.16,2.14.37,3.26.61a8.67,8.67,0,0,1,1.72.52,3,3,0,0,1,1.49,1.23,2.33,2.33,0,0,1,.12,2,3.58,3.58,0,0,1-1.11,1.5,14.62,14.62,0,0,1-3,1.61A36.33,36.33,0,0,1,663.66,47c-1.55.4-2.82.66-3.69.83A6.55,6.55,0,0,1,658.59,48Z" style="fill:#263238"></path><path d="M677.53,43c-.08,0,0-.42-.07-1a5,5,0,0,0-.79-2.27,5,5,0,0,0-1.75-1.65c-.55-.3-.94-.4-.93-.49s.44-.09,1.08.16A4.46,4.46,0,0,1,677.83,42C677.79,42.66,677.59,43,677.53,43Z" style="fill:#263238"></path><path d="M600.63,53.14a3.29,3.29,0,0,1-2-.67,5.13,5.13,0,0,1,0-8.74,3.26,3.26,0,0,1,2-.65,12.27,12.27,0,0,0-1.78,1,5,5,0,0,0,0,8.14A12.61,12.61,0,0,0,600.63,53.14Z" style="fill:#263238"></path><path d="M577.51,126a4.79,4.79,0,0,0-1-2.27,21,21,0,0,0-5.8-5l0,0v0a14.59,14.59,0,0,1-.15-4.94,11.92,11.92,0,0,1,2.14-5.53,9.19,9.19,0,0,1,2.45-2.31,7.38,7.38,0,0,1,3.42-1.09,8.7,8.7,0,0,1,3.78.57,7.12,7.12,0,0,1,3.24,2.42,6.07,6.07,0,0,1,1,4.13,19.07,19.07,0,0,1-1.16,4.32c-.51,1.43-1,2.89-1.54,4.38a18.68,18.68,0,0,0-1.25,4.62,13,13,0,0,0,.44,4.91,9.23,9.23,0,0,0,2.7,4.26c2.59,2.39,6.13,3.62,9.77,4.49,7.29,1.92,15.08,3.73,23.06,6.33a100.14,100.14,0,0,1,12,4.73,58.88,58.88,0,0,1,11.42,7,51.21,51.21,0,0,1,9.64,10,39.65,39.65,0,0,1,6.19,12.87,30.49,30.49,0,0,1,.2,14.62,41.65,41.65,0,0,1-6.24,13.64,57.28,57.28,0,0,1-12.77,13.69,35.46,35.46,0,0,1-8,4.51,37.58,37.58,0,0,1-8.77,2.25,73.54,73.54,0,0,1-17.56-.2,102.38,102.38,0,0,1-16.6-2.86,32.54,32.54,0,0,1-14-7.58,30.29,30.29,0,0,1-7.68-12.93,43.09,43.09,0,0,1-1.82-14,65.67,65.67,0,0,1,1.81-12.89c1.92-8.08,4.55-15.11,6.53-21.38a107.6,107.6,0,0,0,4-16.36,66.64,66.64,0,0,0,.82-10.6c0-1.22,0-2.15-.08-2.77l0-1s0,.32.09.94.1,1.55.13,2.77a64.91,64.91,0,0,1-.73,10.64,104.94,104.94,0,0,1-3.93,16.42c-2,6.28-4.55,13.32-6.44,21.38A65.84,65.84,0,0,0,564.86,191a43,43,0,0,0,1.83,13.84,29.86,29.86,0,0,0,7.59,12.73A32.08,32.08,0,0,0,588.13,225a102.69,102.69,0,0,0,16.51,2.83,73.62,73.62,0,0,0,17.44.19,38.07,38.07,0,0,0,8.65-2.22,34.86,34.86,0,0,0,7.9-4.46,56.81,56.81,0,0,0,12.65-13.56,40.94,40.94,0,0,0,6.16-13.46,29.88,29.88,0,0,0-.19-14.38,39.19,39.19,0,0,0-6.1-12.7,50.51,50.51,0,0,0-9.54-9.87,58.84,58.84,0,0,0-11.32-6.94,99.6,99.6,0,0,0-11.89-4.72c-7.94-2.6-15.73-4.42-23-6.36-3.64-.89-7.26-2.14-9.93-4.61a9.7,9.7,0,0,1-2.8-4.44,13.43,13.43,0,0,1-.44-5.06,19.51,19.51,0,0,1,1.28-4.7l1.56-4.37a19.29,19.29,0,0,0,1.16-4.24,5.78,5.78,0,0,0-.92-3.92,6.85,6.85,0,0,0-3.09-2.33,8.47,8.47,0,0,0-3.66-.57,7.29,7.29,0,0,0-3.31,1,8.92,8.92,0,0,0-2.38,2.23,11.78,11.78,0,0,0-2.14,5.42,14.84,14.84,0,0,0,.11,4.88l0-.06a20.61,20.61,0,0,1,5.79,5.08,5.86,5.86,0,0,1,.85,1.7C577.49,125.79,577.51,126,577.51,126Z" style="fill:#263238"></path><path d="M586.11,108.64a2.34,2.34,0,0,1,0,.83,9.47,9.47,0,0,1-.39,2.23,10.77,10.77,0,0,1-11.56,7.7,9.37,9.37,0,0,1-2.21-.5,2.35,2.35,0,0,1-.75-.36c0-.1,1.13.37,3,.49a10.92,10.92,0,0,0,11.18-7.45A28,28,0,0,0,586.11,108.64Z" style="fill:#263238"></path><path d="M598.38,226.46h-1.24a13.53,13.53,0,0,1-1.51-.11,15.41,15.41,0,0,1-2-.33,22,22,0,0,1-5.29-1.95,25.14,25.14,0,0,1-6-4.42,28,28,0,0,1-5.37-7.28,34.91,34.91,0,0,1-3.24-9.87,51.21,51.21,0,0,1-.67-11.46,89.39,89.39,0,0,1,1.54-12.21c1.58-8.29,3.62-16.06,4.54-23.28a96.53,96.53,0,0,0,.61-19.3A99.79,99.79,0,0,0,578,123.35c-.31-1.51-.56-2.68-.75-3.47l-.2-.9a1.52,1.52,0,0,1,0-.31,1.08,1.08,0,0,1,.1.29c.06.23.15.53.25.89.22.79.5,2,.85,3.46a93,93,0,0,1,1.9,12.93,94.49,94.49,0,0,1-.5,19.39c-.9,7.27-2.94,15.06-4.51,23.31a92.18,92.18,0,0,0-1.54,12.15,51.42,51.42,0,0,0,.63,11.35,35,35,0,0,0,3.15,9.75,28,28,0,0,0,5.25,7.22,25.16,25.16,0,0,0,5.89,4.43,22.33,22.33,0,0,0,5.2,2,15.64,15.64,0,0,0,2,.38,12.23,12.23,0,0,0,1.49.15l.92,0A1.64,1.64,0,0,1,598.38,226.46Z" style="fill:#263238"></path><path d="M620.1,228.7a25.71,25.71,0,0,1-5-.26,28,28,0,0,1-12.74-5,28.34,28.34,0,0,1-6.57-6.88,46,46,0,0,1-5.15-9.63c-2.9-7.16-4.31-15.6-5.08-24.42-.39-4.41-.66-8.73-1-12.88s-.7-8.17-1.09-12c-.77-7.63-1.61-14.49-2.4-20.23s-1.49-10.39-2-13.6c-.25-1.57-.44-2.81-.58-3.69-.05-.4-.1-.72-.13-1a1.38,1.38,0,0,1,0-.33,2.29,2.29,0,0,1,.08.32c.05.24.11.56.19,1,.16.88.38,2.11.67,3.68.56,3.2,1.32,7.83,2.15,13.58s1.71,12.6,2.51,20.23c.4,3.82.77,7.83,1.12,12s.62,8.48,1,12.89c.77,8.79,2.16,17.18,5,24.29a45.71,45.71,0,0,0,5.05,9.56,26.91,26.91,0,0,0,19,11.9c1.6.24,2.85.33,3.7.38l1,0Z" style="fill:#263238"></path><path d="M630.55,226.64a9.2,9.2,0,0,1-1.23-.21,16.47,16.47,0,0,1-3.41-1.15,22.3,22.3,0,0,1-4.83-3,32.28,32.28,0,0,1-5.2-5.46c-6.54-9.07-14-22.67-20.21-38.54a274.62,274.62,0,0,1-12.37-41.78c-1.15-5.46-2-9.89-2.51-13-.24-1.51-.44-2.7-.58-3.54-.05-.38-.1-.69-.13-.92a1.29,1.29,0,0,1,0-.32,1.87,1.87,0,0,1,.08.31l.19.91c.16.84.39,2,.67,3.53.59,3.06,1.47,7.48,2.67,12.92a289.18,289.18,0,0,0,12.49,41.67c6.18,15.82,13.6,29.44,20,38.5a32,32,0,0,0,5.1,5.46A23.14,23.14,0,0,0,626,225.1a18.75,18.75,0,0,0,3.35,1.23C630.13,226.54,630.56,226.61,630.55,226.64Z" style="fill:#263238"></path><path d="M585.47,135.12a1.23,1.23,0,0,1,.07.26c0,.2.08.46.15.77s.14.77.23,1.25l.39,1.69a32.77,32.77,0,0,0,4.43,10.06c2.52,3.94,6.31,8,10.29,12.8s8.69,9.65,13.58,14.86a168.22,168.22,0,0,1,13.09,15.35,70.55,70.55,0,0,1,8.38,14.17,48.3,48.3,0,0,1,2.06,6,43.45,43.45,0,0,1,.94,4.69c.07.64.14,1.22.2,1.73s.06.92.08,1.28,0,.57,0,.78a.92.92,0,0,1,0,.27.84.84,0,0,1,0-.27l-.08-.78-.13-1.26c-.07-.51-.16-1.08-.25-1.72-.21-1.29-.54-2.86-1-4.65a50.33,50.33,0,0,0-2.12-5.92,71.62,71.62,0,0,0-8.43-14,171.69,171.69,0,0,0-13.08-15.27c-4.89-5.21-9.6-10.14-13.57-14.91s-7.72-8.91-10.23-12.91a31.8,31.8,0,0,1-4.31-10.21c-.14-.64-.25-1.21-.35-1.71s-.14-.92-.19-1.26-.07-.58-.1-.78A.79.79,0,0,1,585.47,135.12Z" style="fill:#263238"></path><path d="M653.47,205a.84.84,0,0,1,0-.26c0-.19.1-.43.17-.72a24.54,24.54,0,0,0-.73-13.16,34.13,34.13,0,0,0-8-13.14,69.3,69.3,0,0,0-15.12-11.51c-5.83-3.46-11.58-6.44-16.56-9.6a122.15,122.15,0,0,1-12.78-9,96.66,96.66,0,0,1-7.79-7.1c-.88-.89-1.54-1.59-2-2.08l-.5-.55a1.55,1.55,0,0,1-.16-.2s.08.05.2.16l.54.52,2,2c1.79,1.72,4.42,4.18,7.89,6.95a125.61,125.61,0,0,0,12.79,8.91c5,3.13,10.73,6.09,16.58,9.56a68.39,68.39,0,0,1,15.2,11.64,34,34,0,0,1,8,13.35,25.35,25.35,0,0,1,1,10.47A17.14,17.14,0,0,1,653.47,205Z" style="fill:#263238"></path><path d="M599.65,138.64a4.12,4.12,0,0,1-.4,1.13,18.2,18.2,0,0,1-1.57,2.86,21.54,21.54,0,0,1-18.33,9.73,18.33,18.33,0,0,1-3.25-.31,4.27,4.27,0,0,1-1.16-.3c0-.1,1.68.29,4.4.24a22.33,22.33,0,0,0,18-9.56C599,140.2,599.56,138.6,599.65,138.64Z" style="fill:#263238"></path><path d="M610.89,143.06s0,.15-.17.42-.32.68-.61,1.17a28.19,28.19,0,0,1-2.72,4A31.84,31.84,0,0,1,579,160.4a28.21,28.21,0,0,1-4.75-.9c-.55-.14-1-.3-1.25-.39a2.37,2.37,0,0,1-.43-.17,12.32,12.32,0,0,1,1.73.37,36,36,0,0,0,4.74.73,32.64,32.64,0,0,0,28-11.63,34.7,34.7,0,0,0,2.83-3.87A15.92,15.92,0,0,1,610.89,143.06Z" style="fill:#263238"></path><path d="M623.65,146.11a3.12,3.12,0,0,1-.19.63c-.16.41-.34,1-.68,1.78a37.9,37.9,0,0,1-3.31,6.15,39.68,39.68,0,0,1-29.72,17.92,40.62,40.62,0,0,1-10.37-.35,37.25,37.25,0,0,1-6.77-1.75c-.78-.25-1.36-.54-1.77-.7a4,4,0,0,1-.59-.28,2.61,2.61,0,0,1,.63.18c.42.13,1,.38,1.8.61a40.12,40.12,0,0,0,6.76,1.57,41.16,41.16,0,0,0,10.26.24A40.46,40.46,0,0,0,601.84,169a41.69,41.69,0,0,0,20.75-20.53c.37-.73.58-1.34.77-1.73A4.56,4.56,0,0,1,623.65,146.11Z" style="fill:#263238"></path><path d="M635.06,152.43a4.64,4.64,0,0,1,0,.86,16,16,0,0,1-.37,2.44A24,24,0,0,1,631,164a31.94,31.94,0,0,1-4,4.83,41.57,41.57,0,0,1-5.61,4.55,92.41,92.41,0,0,1-14.6,7.66,79.78,79.78,0,0,1-15.6,5.35,39.5,39.5,0,0,1-13.44.65,28.62,28.62,0,0,1-8.71-2.55,19.31,19.31,0,0,1-2.16-1.2,4.74,4.74,0,0,1-.71-.49,5.67,5.67,0,0,1,.76.4c.49.28,1.22.66,2.2,1.1a29.35,29.35,0,0,0,8.66,2.37,40,40,0,0,0,13.3-.75,80.3,80.3,0,0,0,15.49-5.36A94.55,94.55,0,0,0,621.12,173a41.47,41.47,0,0,0,5.58-4.46,31.92,31.92,0,0,0,4-4.73,25.07,25.07,0,0,0,3.75-8.14,23.05,23.05,0,0,0,.46-2.41A5.33,5.33,0,0,1,635.06,152.43Z" style="fill:#263238"></path><path d="M646.62,159.14a.86.86,0,0,1-.06.25l-.23.73c-.22.62-.47,1.58-.94,2.76a59,59,0,0,1-4.69,9.66,64.57,64.57,0,0,1-4.18,6.14,66.16,66.16,0,0,1-5.66,6.38,60.73,60.73,0,0,1-34.45,17.14,66.36,66.36,0,0,1-8.5.67,65.39,65.39,0,0,1-7.42-.37A58,58,0,0,1,570,200.41c-1.22-.32-2.14-.7-2.77-.91l-.72-.26c-.16-.06-.24-.09-.23-.1l.25.05.73.21c.64.18,1.57.52,2.8.82a63.71,63.71,0,0,0,10.51,1.92,68.3,68.3,0,0,0,7.38.3,69.61,69.61,0,0,0,8.44-.71,61.18,61.18,0,0,0,34.18-17,68.24,68.24,0,0,0,5.66-6.3,66.39,66.39,0,0,0,4.2-6.07,63.33,63.33,0,0,0,4.82-9.55c.5-1.16.78-2.1,1-2.72.12-.29.2-.52.28-.71S646.61,159.13,646.62,159.14Z" style="fill:#263238"></path><path d="M655.75,174.4a1.15,1.15,0,0,1-.07.26l-.26.75c-.22.66-.59,1.61-1.08,2.83a77.25,77.25,0,0,1-5,10,68.17,68.17,0,0,1-10.06,13.13,58.65,58.65,0,0,1-16.45,11.78,54.11,54.11,0,0,1-19.59,5,75.81,75.81,0,0,1-8.86.12c-2.77-.1-5.35-.32-7.69-.57-4.68-.51-8.45-1.11-11.05-1.53l-3-.51-.77-.15-.26-.06a.79.79,0,0,1,.27,0l.78.1,3,.41c2.61.36,6.38.9,11.06,1.36,2.34.23,4.91.42,7.67.51a77.41,77.41,0,0,0,8.8-.17,54,54,0,0,0,19.4-5A58.88,58.88,0,0,0,639,201a69.64,69.64,0,0,0,10.09-13,84.9,84.9,0,0,0,5.09-9.89c.52-1.2.92-2.15,1.18-2.79l.3-.73A1,1,0,0,1,655.75,174.4Z" style="fill:#263238"></path><path d="M590,136.93a4.49,4.49,0,0,1-1.27,1.85,11.19,11.19,0,0,1-4.7,2.7,21.39,21.39,0,0,1-5.34.82,8.46,8.46,0,0,1-2.23,0,9.46,9.46,0,0,1,2.2-.32,29.85,29.85,0,0,0,5.22-.95,12.52,12.52,0,0,0,4.59-2.48C589.52,137.62,590,136.88,590,136.93Z" style="fill:#263238"></path><path d="M583.44,133.2a5.23,5.23,0,0,1-2.84,1.28,5.45,5.45,0,0,1-3.12-.15c0-.17,1.4-.06,3-.36S583.37,133.05,583.44,133.2Z" style="fill:#263238"></path><path d="M582.76,129.77a5.56,5.56,0,0,1-5,1,21.93,21.93,0,0,1,2.51-.42A19.9,19.9,0,0,1,582.76,129.77Z" style="fill:#263238"></path><path d="M582.56,124.11a5.61,5.61,0,0,1-5.32,2c0-.16,1.29-.2,2.74-.75S582.45,124,582.56,124.11Z" style="fill:#263238"></path><path d="M585,117.07a4,4,0,0,1-1,1.58,9.14,9.14,0,0,1-8.43,2.78,4.06,4.06,0,0,1-1.78-.64c0-.08.71.15,1.84.27a10.19,10.19,0,0,0,4.35-.43,10.45,10.45,0,0,0,3.76-2.24C584.54,117.61,585,117,585,117.07Z" style="fill:#263238"></path></g><g id="freepik--drone-1--inject-10"><rect x="136.51" y="177.26" width="73.3" height="45.13" transform="translate(-11.49 10.57) rotate(-3.38)" style="fill:#455a64"></rect><path d="M209.73,197.66c0,.14-16.36,1.23-36.55,2.42s-36.57,2-36.58,1.9,16.35-1.22,36.55-2.42S209.72,197.52,209.73,197.66Z" style="fill:#263238"></path><polygon points="171.69 222.51 170.54 211.8 179.32 210.56 180.66 221.98 171.69 222.51" style="fill:#263238"></polygon><polygon points="177.48 176.97 178.63 187.67 169.85 188.92 168.51 177.5 177.48 176.97" style="fill:#263238"></polygon><rect x="143.2" y="210.28" width="8.93" height="8.93" transform="translate(-12.42 9.09) rotate(-3.38)" style="fill:#fafafa"></rect><path d="M150.42,218a5,5,0,0,1-.59-.19,3.6,3.6,0,0,0-1.7-.09l-.16,0v-.16c-.07-.84-.14-1.81-.23-2.89l0-.21h.22a1.68,1.68,0,0,0,1.32-.73,1.63,1.63,0,0,0,.1-1.63l0,0-.48-.69.22.1-3.36.21.23-.16c-.1.25-.2.52-.3.79a1.58,1.58,0,0,0,1.68,2.06l.26,0,0,.27c.05,1,.1,2,.15,2.89v.26l-.26,0a3.41,3.41,0,0,0-2.12.62l-.13-.36c1.58-.07,2.86-.11,3.75-.13a6.22,6.22,0,0,1,1.38,0,6,6,0,0,1-1.37.19c-.89.09-2.16.2-3.74.31l-.66,0,.53-.41a3.78,3.78,0,0,1,2.39-.76l-.24.25c-.06-.91-.13-1.88-.2-2.89l.28.23a2.09,2.09,0,0,1-1.82-.72,2.12,2.12,0,0,1-.41-2c.11-.28.21-.56.31-.82l.06-.16h.17l3.36-.19h.14l.08.12.47.7h0v0a2.05,2.05,0,0,1-1.84,3l.2-.21c0,1.08.08,2.05.11,2.89l-.17-.13a3.43,3.43,0,0,1,1.8.22C150.26,217.79,150.44,217.94,150.42,218Z" style="fill:#263238"></path><path d="M128.92,175.54a5.76,5.76,0,1,1-6.81-4.46A5.76,5.76,0,0,1,128.92,175.54Z" style="fill:#EFFF3F"></path><polygon points="121.75 181.34 130.88 208.12 135.97 206.25 126.7 179.54 121.75 181.34" style="fill:#EFFF3F"></polygon><path d="M140.34,208.34a5.36,5.36,0,1,1-6.34-4.15A5.36,5.36,0,0,1,140.34,208.34Z" style="fill:#EFFF3F"></path><rect x="135.04" y="211.99" width="2.55" height="10.1" transform="translate(-12.57 8.42) rotate(-3.38)" style="fill:#EFFF3F"></rect><rect x="135.4" y="221.38" width="9.64" height="3.42" transform="translate(-12.92 8.66) rotate(-3.38)" style="fill:#EFFF3F"></rect><g style="opacity:0.30000000000000004"><path d="M140.34,208.34a5.36,5.36,0,1,1-6.34-4.15A5.36,5.36,0,0,1,140.34,208.34Z"></path><rect x="135.04" y="211.99" width="2.55" height="10.1" transform="translate(-12.57 8.42) rotate(-3.38)"></rect><rect x="135.4" y="221.38" width="9.64" height="3.42" transform="translate(-12.92 8.66) rotate(-3.38)"></rect></g><path d="M122.36,179.24h0a2.58,2.58,0,0,0,3.3-1.53l10.56-28.88a2.57,2.57,0,0,0-1.53-3.3h0a2.57,2.57,0,0,0-3.3,1.53l-10.56,28.88A2.56,2.56,0,0,0,122.36,179.24Z" style="fill:#EFFF3F"></path><path d="M122.36,179.24h0a2.58,2.58,0,0,0,3.3-1.53l10.56-28.88a2.57,2.57,0,0,0-1.53-3.3h0a2.57,2.57,0,0,0-3.3,1.53l-10.56,28.88A2.56,2.56,0,0,0,122.36,179.24Z" style="opacity:0.30000000000000004"></path><path d="M247.78,116.49s-4.13-1.56-13.17-.67-22.93.18-20.5,1.91,25.88,7.11,33.7-.83" style="fill:#263238"></path><rect x="250.8" y="114.79" width="2.67" height="6.26" transform="translate(-6.52 15.08) rotate(-3.38)" style="fill:#455a64"></rect><rect x="247.43" y="114.03" width="9.22" height="4.42" transform="translate(-6.42 15.07) rotate(-3.38)" style="fill:#455a64"></rect><path d="M256.64,116s3.92-2,13-2.22,22.79-2.51,20.59-.51-24.87,10.11-33.57,3.15" style="fill:#263238"></path><rect x="245.58" y="120.75" width="15.28" height="19.49" rx="3.5" transform="translate(-7.26 15.17) rotate(-3.38)" style="fill:#EFFF3F"></rect><rect x="245.58" y="120.75" width="15.28" height="19.49" rx="3.5" transform="translate(-7.26 15.17) rotate(-3.38)" style="opacity:0.30000000000000004"></rect><rect x="117.27" y="142.09" width="105.27" height="5.77" transform="translate(-8.26 10.28) rotate(-3.38)" style="fill:#EFFF3F"></rect><rect x="117.27" y="142.09" width="105.27" height="5.77" transform="translate(-8.26 10.28) rotate(-3.38)" style="opacity:0.30000000000000004"></rect><rect x="218.48" y="135.36" width="9.92" height="6.76" transform="translate(-7.8 13.42) rotate(-3.38)" style="fill:#EFFF3F"></rect><path d="M224,147.57h0a2.41,2.41,0,0,1-2.55-2.26l-.21-3.63,4.82-.28.21,3.62A2.42,2.42,0,0,1,224,147.57Z" style="fill:#EFFF3F"></path><rect x="168.89" y="108.31" width="1.71" height="4.49" transform="translate(-6.23 10.21) rotate(-3.38)" style="fill:#EFFF3F"></rect><path d="M173.32,109l-7.32.43a1.38,1.38,0,0,1-1.46-1.3h0a1.39,1.39,0,0,1,1.3-1.47l7.32-.43a1.39,1.39,0,0,1,1.47,1.3h0A1.4,1.4,0,0,1,173.32,109Z" style="fill:#EFFF3F"></path><path d="M142.2,137.64l-1.57-8a14.37,14.37,0,0,1,13.25-17.11l29.64-1.75a14.37,14.37,0,0,1,15.08,16.27l-1,7.32Z" style="fill:#EFFF3F"></path><path d="M142.2,137.64l-1.57-8a14.37,14.37,0,0,1,13.25-17.11l29.64-1.75a14.37,14.37,0,0,1,15.08,16.27l-1,7.32Z" style="opacity:0.2"></path><rect x="160.91" y="117.93" width="0.79" height="6.7" transform="translate(-6.88 9.74) rotate(-3.39)" style="fill:#263238"></rect><rect x="163.92" y="117.75" width="0.79" height="6.7" transform="translate(-6.87 9.92) rotate(-3.39)" style="fill:#263238"></rect><rect x="166.94" y="117.57" width="0.79" height="6.7" transform="translate(-6.84 10.07) rotate(-3.38)" style="fill:#263238"></rect><rect x="169.95" y="117.39" width="0.79" height="6.7" transform="translate(-6.83 10.27) rotate(-3.39)" style="fill:#263238"></rect><rect x="172.97" y="117.21" width="0.79" height="6.7" transform="translate(-6.8 10.43) rotate(-3.38)" style="fill:#263238"></rect><rect x="175.98" y="117.04" width="0.79" height="6.7" transform="translate(-6.8 10.63) rotate(-3.39)" style="fill:#263238"></rect><path d="M172,167.93h0a27.74,27.74,0,0,1-29.33-26.06l-.23-3.92,55.39-3.28.23,3.92A27.74,27.74,0,0,1,172,167.93Z" style="fill:#EFFF3F"></path><path d="M179.78,156.66a8.43,8.43,0,1,1-8.92-7.93A8.43,8.43,0,0,1,179.78,156.66Z" style="opacity:0.30000000000000004"></path><path d="M81.79,125.15s-4.13-1.56-13.17-.67-22.93.18-20.5,1.91,25.88,7.11,33.7-.83" style="fill:#263238"></path><rect x="84.82" y="123.44" width="2.67" height="6.26" transform="translate(-7.32 5.31) rotate(-3.38)" style="fill:#455a64"></rect><rect x="81.44" y="122.69" width="9.22" height="4.42" transform="translate(-7.22 5.3) rotate(-3.38)" style="fill:#455a64"></rect><path d="M90.65,124.62s3.92-2,13-2.22,22.78-2.51,20.58-.51S99.37,132,90.68,125" style="fill:#263238"></path><rect x="79.59" y="129.41" width="15.28" height="19.49" rx="3.5" transform="translate(-8.06 5.39) rotate(-3.38)" style="fill:#EFFF3F"></rect><rect x="79.59" y="129.41" width="15.28" height="19.49" rx="3.5" transform="translate(-8.06 5.39) rotate(-3.38)" style="opacity:0.30000000000000004"></rect><polygon points="77.44 140.16 77.68 144.27 263.73 133.27 263.45 128.65 244.24 129.78 238.96 125.09 99.24 133.35 94.69 138.47 77.44 140.16" style="fill:#EFFF3F"></polygon><polygon points="77.44 140.16 77.68 144.27 263.73 133.27 263.45 128.65 244.24 129.78 238.96 125.09 99.24 133.35 94.69 138.47 77.44 140.16" style="fill:#EFFF3F"></polygon><rect x="110.06" y="141.95" width="9.92" height="6.76" transform="translate(-8.38 7.04) rotate(-3.38)" style="fill:#EFFF3F"></rect><path d="M115.55,154.24h0A2.41,2.41,0,0,1,113,152l-.22-3.62,4.82-.29.21,3.63A2.41,2.41,0,0,1,115.55,154.24Z" style="fill:#EFFF3F"></path><path d="M177.7,156.78a6.36,6.36,0,1,1-6.72-6A6.35,6.35,0,0,1,177.7,156.78Z" style="fill:#455a64"></path><path d="M176.54,156.85a5.19,5.19,0,1,1-5.49-4.88A5.19,5.19,0,0,1,176.54,156.85Z" style="fill:#263238"></path><path d="M185.32,149a2,2,0,1,1-2.12-1.89A2,2,0,0,1,185.32,149Z" style="fill:#fff;opacity:0.4"></path><path d="M198,137.46c0,.15-12.39,1-27.68,1.9s-27.69,1.52-27.7,1.37,12.38-1,27.67-1.89S198,137.32,198,137.46Z" style="fill:#263238"></path><path d="M120.39,142.11a29.38,29.38,0,0,1-5.42.58,29.84,29.84,0,0,1-5.46.06,27.63,27.63,0,0,1,5.43-.58A27.76,27.76,0,0,1,120.39,142.11Z" style="fill:#263238"></path><path d="M229.18,135.69a28.75,28.75,0,0,1-5.5.59,30.25,30.25,0,0,1-5.54.07,28.79,28.79,0,0,1,5.51-.59A30.15,30.15,0,0,1,229.18,135.69Z" style="fill:#263238"></path><path d="M135.9,131.18s-.14.22-.47.59L134,133.36l0,0h-.05c-3.5.28-10.11.73-17.67,1.17l-12,.66.16-.08-2.52,3.24,0-.1c0,1.36.09,2.48.12,3.34a5.9,5.9,0,0,1,0,1.2,6.53,6.53,0,0,1-.15-1.19c-.07-.86-.16-2-.28-3.33v-.06l0-.05,2.44-3.31.06-.08h.1l11.94-.76c7.56-.44,14.18-.78,17.68-.91l-.08,0,1.54-1.51A4,4,0,0,1,135.9,131.18Z" style="fill:#263238"></path><path d="M198.6,127.05a3,3,0,0,1-.3.5l-.93,1.38L193.81,134l0,.07h-.09c-5.8.4-14.3.93-23.76,1.49-10.23.61-19.34,1.11-25.14,1.39h-.09l-.05-.07c-1.18-1.85-2.12-3.33-2.81-4.4l-.73-1.18a1.91,1.91,0,0,1-.22-.42,2.39,2.39,0,0,1,.3.37l.8,1.14,2.93,4.31-.15-.07c5.79-.41,14.9-1,25.13-1.59,9.46-.56,18-1,23.77-1.32l-.13.07,3.68-5c.41-.55.75-1,1-1.33S198.58,127,198.6,127.05Z" style="fill:#263238"></path><path d="M99.64,139.38c.06,0,.07.15.16.24s.17.09.25,0,.06-.16-.07-.24-.22,0-.28-.09,0-.26.33-.28a.56.56,0,0,1,.47.23.61.61,0,0,1-.68.91.57.57,0,0,1-.36-.39C99.4,139.46,99.59,139.33,99.64,139.38Z" style="fill:#263238"></path><path d="M99.76,141.48c.06,0,.07.16.17.24s.17.09.25,0,0-.15-.07-.24-.23,0-.28-.09,0-.25.32-.28a.59.59,0,1,1-.2,1.15.54.54,0,0,1-.36-.39C99.52,141.57,99.71,141.43,99.76,141.48Z" style="fill:#263238"></path><path d="M95,143.36a5.88,5.88,0,0,1-.4-2.38,5.54,5.54,0,0,1,.12-2.41,11.18,11.18,0,0,1,.28,4.79Z" style="fill:#263238"></path><path d="M79.94,144c-.14,0-.31-.86-.37-1.94s0-2,.14-2,.31.86.38,1.94S80.08,144,79.94,144Z" style="fill:#263238"></path><path d="M203.86,127.11a3.28,3.28,0,0,1,.62.42l1.71,1.31-.09,0c3.5-.28,10.11-.73,17.67-1.17l11.95-.66h.1l.07.07,2.81,3,0,.05v0c.05,1.37.09,2.48.12,3.35a5.76,5.76,0,0,1,0,1.19,6.72,6.72,0,0,1-.16-1.18l-.27-3.34.05.11-2.89-2.93.17.06-11.95.76c-7.56.44-14.17.78-17.68.91h-.06l0,0-1.63-1.4C204,127.31,203.84,127.13,203.86,127.11Z" style="fill:#263238"></path><path d="M240.84,131c0-.06.24.05.21.36a.55.55,0,0,1-.31.43.57.57,0,0,1-.66-.15.6.6,0,0,1-.12-.68.57.57,0,0,1,.45-.28c.3,0,.4.2.35.23s-.17.05-.27.13-.12.15,0,.24.14.09.25,0S240.78,131,240.84,131Z" style="fill:#263238"></path><path d="M241,133.08c0-.05.25.06.22.36a.57.57,0,0,1-.31.43.59.59,0,0,1-.67-.15.58.58,0,0,1-.11-.67.53.53,0,0,1,.44-.29c.31,0,.41.2.35.24s-.16,0-.26.12-.12.15,0,.24.14.09.24,0S240.91,133.13,241,133.08Z" style="fill:#263238"></path><path d="M246,134.38a6,6,0,0,1-.4-2.39,5.59,5.59,0,0,1,.12-2.41,5.88,5.88,0,0,1,.4,2.38A5.81,5.81,0,0,1,246,134.38Z" style="fill:#263238"></path><path d="M260.94,133.22c-.15,0-.31-.86-.38-1.94s0-2,.15-2a4,4,0,0,1,.37,1.94C261.14,132.33,261.08,133.22,260.94,133.22Z" style="fill:#263238"></path><path d="M147.55,141.61c0,.06-.17.26-.14.65a.62.62,0,1,0,1-.49c-.29-.26-.58-.21-.6-.29s.31-.29.81,0a1.08,1.08,0,0,1,.53.79,1.1,1.1,0,0,1-1.8.89,1,1,0,0,1-.3-.9C147.13,141.68,147.54,141.55,147.55,141.61Z" style="fill:#263238"></path><path d="M170.19,140.28c.05.06-.17.25-.13.64a.62.62,0,1,0,1-.49c-.29-.26-.58-.21-.59-.29s.3-.29.8,0a1.1,1.1,0,0,1,.53.8,1,1,0,0,1-.61,1,1,1,0,0,1-1.19-.14,1,1,0,0,1-.3-.9C169.78,140.34,170.18,140.21,170.19,140.28Z" style="fill:#263238"></path><path d="M191.06,139c.05.06-.17.26-.14.64a.62.62,0,1,0,1-.49c-.29-.25-.58-.21-.6-.28s.31-.29.81,0a1.08,1.08,0,0,1,.53.79,1.1,1.1,0,0,1-1.8.89,1,1,0,0,1-.3-.9C190.64,139.1,191.05,139,191.06,139Z" style="fill:#263238"></path><path d="M197.36,142.71c0,.15-12.07,1-27,1.86s-27,1.48-27,1.33,12.07-1,27-1.85S197.35,142.57,197.36,142.71Z" style="fill:#263238"></path><path d="M170.51,168s-.11,0-.33.07a6.79,6.79,0,0,1-1,.07,16.52,16.52,0,0,1-8.46-2.32,15.5,15.5,0,0,1-4.49-4.68,31.56,31.56,0,0,1-4.07-10.95c-.29-1.47-.48-2.66-.61-3.49a6.5,6.5,0,0,1-.13-1.29,5.82,5.82,0,0,1,.33,1.25c.21.92.46,2.07.77,3.45a33.66,33.66,0,0,0,4.15,10.74,15.36,15.36,0,0,0,4.3,4.56,16.33,16.33,0,0,0,4.75,2A23,23,0,0,0,170.51,168Z" style="fill:#263238"></path><path d="M188.68,143.23a3.18,3.18,0,0,1,.12.92,19.81,19.81,0,0,1,0,2.53,40.61,40.61,0,0,1-1.26,8.24,30,30,0,0,1-3,7.78c-.27.47-.57.86-.8,1.21l-.73.83c-.46.39-.72.59-.75.56a3.44,3.44,0,0,1,.6-.7l.64-.86c.21-.36.48-.75.72-1.22a35.63,35.63,0,0,0,2.85-7.73,50.06,50.06,0,0,0,1.39-8.13C188.64,144.55,188.59,143.23,188.68,143.23Z" style="fill:#263238"></path><path d="M172.53,161.14a2.1,2.1,0,0,1-1.43.45,4,4,0,0,1-4.13-5c.22-.93.66-1.36.7-1.32s-.23.53-.34,1.39a3.89,3.89,0,0,0,3.77,4.52C172,161.27,172.5,161.05,172.53,161.14Z" style="fill:#fafafa"></path><path d="M169,153.64c.08.12,0,.33-.24.52s-.43.28-.54.19,0-.36.19-.58S168.87,153.52,169,153.64Z" style="fill:#fafafa"></path><path d="M48.89,134.07a9,9,0,0,1-1.52,0c-1,0-2.39-.06-4.14-.17a107.23,107.23,0,0,1-13.57-1.77c-1.27-.26-2.73-.42-3.7-1.51a1.88,1.88,0,0,1-.27-2A2.85,2.85,0,0,1,27,127.31a14.32,14.32,0,0,1,3.22-.86l2.8-.56,4.08-.78a7.4,7.4,0,0,1,1.5-.22,8.75,8.75,0,0,1-1.47.41l-4,1-2.79.62a14.57,14.57,0,0,0-3.09.87,2.32,2.32,0,0,0-1.11,1.12,1.41,1.41,0,0,0,.2,1.48,3.31,3.31,0,0,0,1.51.89,15.36,15.36,0,0,0,1.89.43,134.2,134.2,0,0,0,13.51,1.91l4.12.34A7.89,7.89,0,0,1,48.89,134.07Z" style="fill:#263238"></path><path d="M52.42,135.29a3.57,3.57,0,0,1-1,.16c-.64.08-1.56.15-2.71.2a66,66,0,0,1-8.94-.22A69,69,0,0,1,31,134c-1.12-.26-2-.49-2.63-.68a3.51,3.51,0,0,1-.93-.34c0-.08,1.39.24,3.63.66s5.35.92,8.82,1.23,6.6.38,8.88.37S52.42,135.21,52.42,135.29Z" style="fill:#263238"></path><path d="M129.47,124a5.24,5.24,0,0,1,.92-.5,4.83,4.83,0,0,0,2.06-1.76,2.07,2.07,0,0,0,.11-1.73,3.59,3.59,0,0,0-1.37-1.58,9.71,9.71,0,0,0-2.16-1.09,21.23,21.23,0,0,0-2.52-.82,42.67,42.67,0,0,0-9.24-1.16,35.18,35.18,0,0,1-3.89-.2,4.44,4.44,0,0,1,1.05-.1c.67,0,1.64-.07,2.85-.07a36.64,36.64,0,0,1,9.37,1,24.93,24.93,0,0,1,2.57.84,10.45,10.45,0,0,1,2.25,1.18,3.9,3.9,0,0,1,1.49,1.82,2.43,2.43,0,0,1-.19,2.06,4.62,4.62,0,0,1-2.3,1.76A3.17,3.17,0,0,1,129.47,124Z" style="fill:#263238"></path><path d="M135.2,117.28c-.11.11-1.41-1.27-3.44-2.35s-3.87-1.46-3.84-1.61a9.57,9.57,0,0,1,7.28,4Z" style="fill:#263238"></path><path d="M283.07,120.36a13,13,0,0,1,1.61-.38c1.05-.21,2.56-.5,4.41-.92a47,47,0,0,0,6.37-1.86,16.92,16.92,0,0,0,3.48-1.69,3.52,3.52,0,0,0,1.22-1.48,2.16,2.16,0,0,0,0-1.86,3.09,3.09,0,0,0-1.43-1.31,10.18,10.18,0,0,0-1.91-.7c-1.31-.37-2.59-.69-3.81-1-2.44-.55-4.67-1-6.54-1.22s-3.41-.44-4.46-.55a10.5,10.5,0,0,1-1.64-.21s.14,0,.42,0,.7,0,1.23,0c1.06,0,2.6.16,4.49.39s4.14.58,6.6,1.11c1.24.27,2.52.58,3.85,1a9.81,9.81,0,0,1,2,.72,3.67,3.67,0,0,1,1.67,1.55,2.72,2.72,0,0,1,0,2.3,4.22,4.22,0,0,1-1.4,1.69,17.15,17.15,0,0,1-3.61,1.72,44.22,44.22,0,0,1-6.47,1.77c-1.87.38-3.39.61-4.44.76A9.35,9.35,0,0,1,283.07,120.36Z" style="fill:#263238"></path><path d="M306,115.63a8.05,8.05,0,0,1,0-1.25,6,6,0,0,0-2.79-4.87c-.65-.39-1.12-.52-1.1-.61a2.11,2.11,0,0,1,1.27.29,5.36,5.36,0,0,1,3,5.2C306.26,115.2,306,115.65,306,115.63Z" style="fill:#263238"></path><path d="M213.71,122.64s-.25,0-.67-.11a5.49,5.49,0,0,1-1.63-.84,6.54,6.54,0,0,1-1.8-2.07,6.25,6.25,0,0,1-.77-3.28,6.14,6.14,0,0,1,1.15-3.16,6.37,6.37,0,0,1,2-1.84,5,5,0,0,1,1.72-.64c.43-.07.67-.06.67,0a12.05,12.05,0,0,0-2.2,1,5.92,5.92,0,0,0-.57,9.75A12.17,12.17,0,0,0,213.71,122.64Z" style="fill:#263238"></path><path d="M222.16,170.1a5.76,5.76,0,1,1-8.12-.65A5.75,5.75,0,0,1,222.16,170.1Z" style="fill:#EFFF3F"></path><polygon points="218.65 178.63 239.51 197.74 243.07 193.66 222.13 174.67 218.65 178.63" style="fill:#EFFF3F"></polygon><path d="M247.91,193.4a5.36,5.36,0,1,1-7.56-.6A5.37,5.37,0,0,1,247.91,193.4Z" style="fill:#EFFF3F"></path><rect x="247.28" y="197.92" width="2.55" height="10.1" transform="translate(-69.81 162.76) rotate(-32.04)" style="fill:#EFFF3F"></rect><g style="opacity:0.30000000000000004"><path d="M247.91,193.4a5.36,5.36,0,1,1-7.56-.6A5.37,5.37,0,0,1,247.91,193.4Z"></path><rect x="247.28" y="197.92" width="2.55" height="10.1" transform="translate(-69.81 162.76) rotate(-32.04)"></rect></g><path d="M218.22,177.13h0a2.57,2.57,0,0,0,2-3.06L213.67,144a2.57,2.57,0,0,0-3.06-2h0a2.57,2.57,0,0,0-2,3l6.51,30.06A2.57,2.57,0,0,0,218.22,177.13Z" style="fill:#EFFF3F"></path><path d="M218.22,177.13h0a2.57,2.57,0,0,0,2-3.06L213.67,144a2.57,2.57,0,0,0-3.06-2h0a2.57,2.57,0,0,0-2,3l6.51,30.06A2.57,2.57,0,0,0,218.22,177.13Z" style="opacity:0.30000000000000004"></path><polygon points="238.01 213.52 263.48 200.28 284.44 231.56 259.2 246.59 238.01 213.52" style="fill:#455a64"></polygon><path d="M241.74,214.28l20.95-11.73s16.05,26.82,23.34,25.69L261.46,242.4S248.87,230.47,241.74,214.28Z" style="fill:#f5f5f5"></path><path d="M252.83,213.62a27.66,27.66,0,0,1-2.93,1.7,28.37,28.37,0,0,1-3,1.52,27.61,27.61,0,0,1,2.92-1.7A26.93,26.93,0,0,1,252.83,213.62Z" style="fill:#263238"></path><polygon points="246.97 207.39 249.77 211.17 257.44 206.79 255.12 202.58 246.97 207.39" style="fill:#e0e0e0"></polygon><path d="M264.35,212.38a3.91,3.91,0,0,1-.56.36l-1.59.91-5.27,2.94-5.3,2.88-1.62.86a3.2,3.2,0,0,1-.61.28,5,5,0,0,1,.57-.35l1.59-.92,5.27-2.93,5.3-2.89,1.62-.85A4.76,4.76,0,0,1,264.35,212.38Z" style="fill:#263238"></path><path d="M265.1,213.35a4.59,4.59,0,0,1-.57.36l-1.58.91-5.27,2.94-5.3,2.88-1.62.85a3.28,3.28,0,0,1-.61.29,4.59,4.59,0,0,1,.57-.36l1.58-.91,5.28-2.94,5.3-2.88,1.61-.85A4.42,4.42,0,0,1,265.1,213.35Z" style="fill:#263238"></path><path d="M265.91,214.6a3.75,3.75,0,0,1-.57.36l-1.58.91-5.27,2.94-5.3,2.88-1.62.86a6.73,6.73,0,0,1-.61.29,3.47,3.47,0,0,1,.57-.36l1.58-.91,5.28-2.94,5.3-2.89,1.62-.85A4.76,4.76,0,0,1,265.91,214.6Z" style="fill:#263238"></path><path d="M266.65,215.88a5.88,5.88,0,0,1-.57.36l-1.59.91-5.27,2.94-5.3,2.88-1.62.86a3.76,3.76,0,0,1-.6.28,3.5,3.5,0,0,1,.56-.35l1.59-.92,5.27-2.93,5.3-2.89,1.62-.85A4.42,4.42,0,0,1,266.65,215.88Z" style="fill:#263238"></path><path d="M267.63,217.26a4.17,4.17,0,0,1-.57.36l-1.59.91-5.27,2.94-5.3,2.89-1.62.85a3.85,3.85,0,0,1-.61.29,4.17,4.17,0,0,1,.57-.36l1.59-.91,5.27-2.94,5.3-2.89,1.62-.85A3.85,3.85,0,0,1,267.63,217.26Z" style="fill:#263238"></path><path d="M268.67,218.52a3.47,3.47,0,0,1-.57.36l-1.59.91-5.27,2.94c-2,1.08-3.77,2.06-5.3,2.88l-1.61.86a5.2,5.2,0,0,1-.61.29,3.06,3.06,0,0,1,.56-.36l1.59-.91,5.27-2.94,5.3-2.89,1.62-.85A4.42,4.42,0,0,1,268.67,218.52Z" style="fill:#263238"></path><path d="M261.72,227.18a11.94,11.94,0,0,1-2.15,1.39,11.08,11.08,0,0,1-2.32,1.05c0-.05,1-.56,2.22-1.24A24,24,0,0,1,261.72,227.18Z" style="fill:#263238"></path><path d="M266.38,228.75l-.31.25-.89.68-3.32,2.48-2.31,1.7a.72.72,0,0,1-.82.1.4.4,0,0,1-.18-.44.9.9,0,0,1,.23-.38c.4-.4.81-.78,1.24-1.16a30.42,30.42,0,0,1,2.84-2.28,1.51,1.51,0,0,1,1-.3,1,1,0,0,1,.78.65,2.51,2.51,0,0,1,.18,1,1.69,1.69,0,0,1-.31,1,1.11,1.11,0,0,1-1.38.21,2.68,2.68,0,0,1-1-1,4.66,4.66,0,0,1-.71-2.51v-.3l.18.24a7.35,7.35,0,0,1,1.29,2.84A3.65,3.65,0,0,1,263,233a.84.84,0,0,1-.47.58.78.78,0,0,1-.72-.12,5.5,5.5,0,0,1-1.83-4.1v-.15l.1.1a3.56,3.56,0,0,1,1,2.4,2.63,2.63,0,0,1-.13.93,5,5,0,0,0,.07-.93,3.55,3.55,0,0,0-1-2.31l.1,0a5.41,5.41,0,0,0,1.8,4,.64.64,0,0,0,.56.1.69.69,0,0,0,.37-.46,3.33,3.33,0,0,0-.1-1.39,7,7,0,0,0-1.26-2.76l.18-.06a4.62,4.62,0,0,0,.68,2.4,2.53,2.53,0,0,0,.89.92.89.89,0,0,0,1.12-.17,2,2,0,0,0,.1-1.78.79.79,0,0,0-.62-.53,1.27,1.27,0,0,0-.82.26,31.25,31.25,0,0,0-2.82,2.25c-.43.38-.85.76-1.24,1.14-.19.18-.28.44-.08.56a.58.58,0,0,0,.63-.1l2.31-1.68,3.36-2.42.92-.65C266.26,228.82,266.38,228.75,266.38,228.75Z" style="fill:#263238"></path><path d="M271.52,221.3a17.8,17.8,0,0,1-3.25,2.1,8.9,8.9,0,0,1,1.57-1.14A8.66,8.66,0,0,1,271.52,221.3Z" style="fill:#263238"></path></g></svg>