<svg class="animated" id="freepik_stories-movie-night" xmlns="http://www.w3.org/2000/svg" viewBox="0 0 500 500" version="1.1" xmlns:xlink="http://www.w3.org/1999/xlink" xmlns:svgjs="http://svgjs.com/svgjs"><style>svg#freepik_stories-movie-night:not(.animated) .animable {opacity: 0;}svg#freepik_stories-movie-night.animated #freepik--Popcorn--inject-142 {animation: 1s 1 forwards cubic-bezier(.36,-0.01,.5,1.38) fadeIn;animation-delay: 0s;}svg#freepik_stories-movie-night.animated #freepik--Film--inject-142 {animation: 1s 1 forwards cubic-bezier(.36,-0.01,.5,1.38) fadeIn;animation-delay: 0s;}            @keyframes fadeIn {                0% {                    opacity: 0;                }                100% {                    opacity: 1;                }            }        </style><g id="freepik--Floor--inject-142" class="animable" style="transform-origin: 239.665px 350.692px;"><path id="freepik--floor--inject-142" d="M378.74,427.73c-76.81,42.55-201.34,42.55-278.15,0s-76.81-111.53,0-154.08,201.34-42.54,278.15,0S455.55,385.18,378.74,427.73Z" style="fill: rgb(245, 245, 245); transform-origin: 239.665px 350.692px;" class="animable"></path></g><g id="freepik--Shadows--inject-142" class="animable" style="transform-origin: 236.863px 355.336px;"><path id="freepik--Shadow--inject-142" d="M202.47,370.68l64.72,37.1a4.78,4.78,0,0,0,4.34,0L405.3,330.54a1.32,1.32,0,0,0,0-2.5l-68.95-39.62a4.64,4.64,0,0,0-4.3.06L202.43,368.13A1.36,1.36,0,0,0,202.47,370.68Z" style="fill: rgb(224, 224, 224); transform-origin: 303.879px 348.111px;" class="animable"></path><path id="freepik--shadow--inject-142" d="M137.21,389,68.42,349.3a1.33,1.33,0,0,1,0-2.51L137,306.94a4.79,4.79,0,0,1,4.33,0l69,39.86a1.32,1.32,0,0,1,0,2.5L141.54,389A4.79,4.79,0,0,1,137.21,389Z" style="fill: rgb(224, 224, 224); transform-origin: 139.378px 347.97px;" class="animable"></path><ellipse id="freepik--shadow--inject-142" cx="319.68" cy="401.74" rx="35.29" ry="21.01" style="fill: rgb(224, 224, 224); transform-origin: 319.68px 401.74px;" class="animable"></ellipse><ellipse id="freepik--shadow--inject-142" cx="369.66" cy="377.79" rx="34.95" ry="20.81" style="fill: rgb(224, 224, 224); transform-origin: 369.66px 377.79px;" class="animable"></ellipse></g><g id="freepik--Plants--inject-142" class="animable" style="transform-origin: 233.075px 304.583px;"><g id="freepik--plants--inject-142" class="animable" style="transform-origin: 233.075px 304.583px;"><g id="freepik--plants--inject-142" class="animable" style="transform-origin: 54.4214px 313.879px;"><path d="M73.2,321.91c-.1-6-4.67-18.43-11.06-26.14S45.82,282.51,38.88,285c-6.46,2.34-5.61,10.85,2.38,16.37s20,12.41,23.61,22.12l7.49,11.86Z" style="fill: rgb(255, 228, 0); transform-origin: 53.8918px 309.874px;" id="elf73y0ahmi6u" class="animable"></path><g id="elzpibfqglpz"><path d="M73.2,321.91c-.1-6-4.67-18.43-11.06-26.14S45.82,282.51,38.88,285c-6.46,2.34-5.61,10.85,2.38,16.37s20,12.41,23.61,22.12l7.49,11.86Z" style="opacity: 0.1; transform-origin: 53.8918px 309.874px;" class="animable"></path></g><path d="M73.79,330.14a.44.44,0,0,1-.4-.34C69,309.3,52.07,292.88,42.05,289.36a.44.44,0,0,1-.27-.56.43.43,0,0,1,.56-.27c10.21,3.58,27.45,20.28,31.91,41.08a.44.44,0,0,1-.34.52Z" style="fill: rgb(255, 255, 255); transform-origin: 58.0073px 309.321px;" id="els6ql545mzo8" class="animable"></path><path d="M71,343.36c-1-3.37-5.26-8.89-12-13.39-7.49-5-16.9-7.16-19.13-11.09-2.67-4.73,1.27-9.31,8.89-8.5s21.16,10.94,23.57,26.52Z" style="fill: rgb(255, 228, 0); transform-origin: 55.6826px 326.823px;" id="elncvefwyq85h" class="animable"></path><path d="M72.36,339.78a.44.44,0,0,1-.38-.29C65.37,322,51.82,316,45.58,315.34a.44.44,0,0,1-.39-.49.43.43,0,0,1,.49-.38c6.9.77,20.37,6.84,27.12,24.71a.43.43,0,0,1-.25.57A.58.58,0,0,1,72.36,339.78Z" style="fill: rgb(255, 255, 255); transform-origin: 59.0101px 327.123px;" id="eloai9fzvj8bo" class="animable"></path></g><g id="freepik--plants--inject-142" class="animable" style="transform-origin: 413.912px 296.36px;"><path d="M399,302s-.7-10.36,2.9-19.17,9.65-15,16-16.69,12.7,3.3,6.52,8.66-17.72,11.79-20.58,28.13Z" style="fill: rgb(255, 228, 0); transform-origin: 412.943px 284.368px;" id="eljx2j9mwb7i" class="animable"></path><g id="elmu1owu5f7z"><path d="M399,302s-.7-10.36,2.9-19.17,9.65-15,16-16.69,12.7,3.3,6.52,8.66-17.72,11.79-20.58,28.13Z" style="opacity: 0.15; transform-origin: 412.943px 284.368px;" class="animable"></path></g><path d="M400.45,299h-.07a.36.36,0,0,1-.28-.41c3.75-18.08,15.47-27.49,21.15-29.94a.35.35,0,0,1,.46.18.35.35,0,0,1-.18.46c-5.56,2.4-17,11.64-20.74,29.44A.35.35,0,0,1,400.45,299Z" style="fill: rgb(255, 255, 255); transform-origin: 410.917px 283.81px;" id="elg06wic41wc" class="animable"></path><path d="M431.49,293.21c-.37,1.52-1.77,2.53-3.09,3.37s-2.75,1.74-3.28,3.21c-1.06,3,2.18,6.27,1,9.19a4.9,4.9,0,0,1-2.93,2.5,31.66,31.66,0,0,1-3.17.88,12.14,12.14,0,0,1-1.56.16,7.12,7.12,0,0,0-4.35,1.29c-1.92,1.59-2.08,4.4-3,6.72a10.31,10.31,0,0,1-6.36,5.82c-.94.3-2.69.8-3.76.44l-.23-.09,0,0c-.16-.12-.36-.29-.46-.38l0-.05c-.63-1.33-.28-2.89-.52-4.33a2,2,0,0,0,0-.26c-.37-1.66-.72-3.31-1.07-5-.64-3.05-1.23-6.12-1.78-9.19-.34-2-1-4.14-.48-6.17.55-2.24,2.87-2.71,3.37-4.9.21-.87.24-1.77.43-2.65a7.26,7.26,0,0,1,5.3-5.36c4-.95,8.26,1.67,12.25.63,1-.28,2-.78,3-1.16,3.17-1.22,7.14-1,9.49,1.46A4.31,4.31,0,0,1,431.49,293.21Z" style="fill: rgb(255, 228, 0); transform-origin: 413.912px 307.036px;" id="elwbwccg69rpn" class="animable"></path><g id="elgbwbx7fju5e"><g style="opacity: 0.07; transform-origin: 413.912px 307.036px;" class="animable"><path d="M431.49,293.21c-.37,1.52-1.77,2.53-3.09,3.37s-2.75,1.74-3.28,3.21c-1.06,3,2.18,6.27,1,9.19a4.9,4.9,0,0,1-2.93,2.5,16.56,16.56,0,0,1-3.17.88,12.14,12.14,0,0,1-1.56.16,7.12,7.12,0,0,0-4.35,1.29c-1.92,1.59-2.08,4.4-3,6.72a10.31,10.31,0,0,1-6.36,5.82c-.94.3-2.69.8-3.76.44l-.23-.09,0,0a1,1,0,0,1-.18-.1,1.24,1.24,0,0,1-.28-.28l0-.05c-.75-1.05-.35-3.07-.52-4.33a2,2,0,0,0,0-.26c-.37-1.66-.72-3.31-1.07-5-.64-3.05-1.23-6.12-1.78-9.19-.34-2-1-4.14-.48-6.17.55-2.24,2.87-2.71,3.37-4.9.21-.87.24-1.77.43-2.65a7.26,7.26,0,0,1,5.3-5.36c4-.95,8.26,1.67,12.25.63,1-.28,2-.78,3-1.16,3.17-1.22,7.14-1,9.49,1.46A4.31,4.31,0,0,1,431.49,293.21Z" style="fill: rgb(38, 50, 56); transform-origin: 413.912px 307.036px;" id="elp7mbir4byyg" class="animable"></path></g></g><path d="M398.73,319.92h0a.36.36,0,0,1-.32-.38c1.75-22.05,23.34-29.14,28.59-29.72a.36.36,0,0,1,.39.31.35.35,0,0,1-.31.39c-5.14.56-26.26,7.51-28,29.08A.35.35,0,0,1,398.73,319.92Z" style="fill: rgb(255, 255, 255); transform-origin: 412.901px 304.869px;" id="elfigwnvfp1y" class="animable"></path><path d="M421.39,304.76a.36.36,0,0,1-.2-.06,18.72,18.72,0,0,0-15.85-1.49.35.35,0,1,1-.23-.66,19.4,19.4,0,0,1,16.48,1.57.34.34,0,0,1,.08.49A.32.32,0,0,1,421.39,304.76Z" style="fill: rgb(255, 255, 255); transform-origin: 413.299px 303.081px;" id="el2boe9vzrxk6" class="animable"></path></g></g></g><g id="freepik--Popcorn--inject-142" class="animable" style="transform-origin: 139.114px 264.681px;"><path d="M214.33,195.28a5.07,5.07,0,0,0-7.62-6.68c0-.51.08-1,.08-1.56a15.42,15.42,0,0,0-23-13.42,6.83,6.83,0,0,0,.55-2.68,6.73,6.73,0,0,0-10.19-5.78,17,17,0,0,0,.18-2.38,17.45,17.45,0,0,0-33-8,6.11,6.11,0,0,0-11.2-.1,13.69,13.69,0,0,0-25.32,7.21,13.83,13.83,0,0,0,.17,2.05,5.07,5.07,0,0,0-8.28,3.93s0,0,0,.06a12,12,0,0,0-6.08-1.64,12.19,12.19,0,0,0-12.06,10.51,7.58,7.58,0,0,0-9.76,9.79,17.75,17.75,0,0,0,6.56,34.24l63.75,42.95,68.19-43.9a13.3,13.3,0,0,0,7-24.59Zm-8.94-1.86a.93.93,0,0,1,.05-.1.29.29,0,0,1,0,.09Z" style="fill: rgb(245, 245, 245); transform-origin: 139.094px 204.514px;" id="elo93esico0r" class="animable"></path><path d="M90.63,166.28a12.19,12.19,0,0,0-12.06,10.51,7.58,7.58,0,0,0-9.76,9.79,17.75,17.75,0,0,0,6.56,34.24l63.75,42.95,63.52-40.89,1.63-6.11c-8.65,11.23-20.21,2.29-20.21,2.29s-.88,5.73-5.72,6.08a6.68,6.68,0,0,1-6.61-3.65,13.25,13.25,0,0,1-10.95,9.95c-9.44,1.75-14.95-8.61-14.95-8.61s-1.77,4.67-6.71,3.42-3.19-4-3.19-4-2.81,2.47-7.64-.11S123.13,212,123.13,212a14.3,14.3,0,0,1-15.18-3c-7-6.65-1.07-15.79-1.07-15.79-10.52,2.06-10.13-6.57-10.13-6.57C82.05,184.63,83.11,170.21,90.63,166.28Z" style="fill: rgb(240, 240, 240); transform-origin: 130.949px 215.025px;" id="el60ifsrz9xmd" class="animable"></path><polygon points="155.53 244.91 153.3 377.53 167.17 369.52 171.73 235.56 155.53 244.91" style="fill: rgb(250, 250, 250); transform-origin: 162.515px 306.545px;" id="elk4mges5ur1" class="animable"></polygon><polygon points="171.73 235.56 167.17 369.52 180.99 361.55 187.97 226.18 171.73 235.56" style="fill: rgb(255, 228, 0); transform-origin: 177.57px 297.85px;" id="elmj0jhksiha" class="animable"></polygon><path d="M143.7,251.74a8.83,8.83,0,0,1-4.33,1V384.11a8.83,8.83,0,0,0,4.33-1l9.6-5.54,2.23-132.62Z" style="fill: rgb(255, 228, 0); transform-origin: 147.45px 314.532px;" id="elo0ihzlsugad" class="animable"></path><path d="M194.74,353.61l9.36-5.41a10.8,10.8,0,0,0,4.77-7.48l11.74-133.38-16.34,9.43Z" style="fill: rgb(255, 228, 0); transform-origin: 207.675px 280.475px;" id="eltaplgzi6mid" class="animable"></path><polygon points="187.97 226.18 180.99 361.55 194.74 353.61 204.27 216.77 187.97 226.18" style="fill: rgb(250, 250, 250); transform-origin: 192.63px 289.16px;" id="elom16ej7j26r" class="animable"></polygon><polygon points="123.22 244.91 125.45 377.53 111.58 369.52 107.02 235.56 123.22 244.91" style="fill: rgb(255, 228, 0); transform-origin: 116.235px 306.545px;" id="elm4kv7tdeaq" class="animable"></polygon><polygon points="107.02 235.56 111.58 369.52 97.76 361.55 90.77 226.18 107.02 235.56" style="fill: rgb(230, 230, 230); transform-origin: 101.175px 297.85px;" id="elgcq6tbi6nx7" class="animable"></polygon><path d="M135,251.74a8.88,8.88,0,0,0,4.33,1V384.11a8.89,8.89,0,0,1-4.33-1l-9.59-5.54-2.23-132.62Z" style="fill: rgb(230, 230, 230); transform-origin: 131.255px 314.531px;" id="el5bq9teoqnij" class="animable"></path><path d="M84,353.61l-9.36-5.41a10.77,10.77,0,0,1-4.77-7.48L58.13,207.34l16.35,9.43Z" style="fill: rgb(230, 230, 230); transform-origin: 71.065px 280.475px;" id="eludbxux7ai9s" class="animable"></path><polygon points="90.77 226.18 97.76 361.55 84.01 353.61 74.48 216.77 90.77 226.18" style="fill: rgb(255, 228, 0); transform-origin: 86.12px 289.16px;" id="elxoakgt2uyq" class="animable"></polygon><g id="els01yi1ve9t"><polygon points="123.22 244.91 125.45 377.53 111.58 369.52 107.02 235.56 123.22 244.91" style="opacity: 0.1; transform-origin: 116.235px 306.545px;" class="animable"></polygon></g><g id="el95ljv6h1ebm"><polygon points="90.77 226.18 97.76 361.55 84.01 353.61 74.48 216.77 90.77 226.18" style="opacity: 0.1; transform-origin: 86.12px 289.16px;" class="animable"></polygon></g><path d="M135.93,222.28a8.43,8.43,0,1,1-9.05-13.08,8.44,8.44,0,0,0,6.84,13.38A8.13,8.13,0,0,0,135.93,222.28Z" style="fill: rgb(224, 224, 224); transform-origin: 128.303px 217.48px;" id="elg081vjgck4g" class="animable"></path><path d="M145.83,222.83a5.49,5.49,0,1,1-10.08-2.36,5.44,5.44,0,0,0,1.38,3.09,5.51,5.51,0,0,0,7.76.38A5.77,5.77,0,0,0,145.83,222.83Z" style="fill: rgb(224, 224, 224); transform-origin: 140.373px 224.696px;" id="elzid3dooo8hb" class="animable"></path><path d="M112.19,182.89a8.43,8.43,0,1,1-15.44,3.8,8.43,8.43,0,0,0,15.44-3.8Z" style="fill: rgb(224, 224, 224); transform-origin: 105.14px 189.416px;" id="elmod1j8kq11s" class="animable"></path><path d="M99.13,190.9a5.49,5.49,0,1,1-10.25,1.48,5.39,5.39,0,0,0,2.42,2.37,5.49,5.49,0,0,0,7.36-2.48A5.7,5.7,0,0,0,99.13,190.9Z" style="fill: rgb(224, 224, 224); transform-origin: 94.2657px 194.918px;" id="el19tn8x2i3wh" class="animable"></path><path d="M186.46,203.2a8.44,8.44,0,1,1-15.3-4.37,8.43,8.43,0,0,0,13.77,6A9,9,0,0,0,186.46,203.2Z" style="fill: rgb(224, 224, 224); transform-origin: 178.036px 205.497px;" id="elu4kqurpuu3f" class="animable"></path><path d="M195.59,199.22a5.49,5.49,0,1,1-10.08-2.36A5.45,5.45,0,0,0,186.9,200a5.51,5.51,0,0,0,7.76.38A5.71,5.71,0,0,0,195.59,199.22Z" style="fill: rgb(224, 224, 224); transform-origin: 190.133px 201.086px;" id="el16tr62wyk0n" class="animable"></path><path d="M171.8,189.94a5.49,5.49,0,1,1-7.44,7.21,5.49,5.49,0,0,0,7.86-5.82A5.34,5.34,0,0,0,171.8,189.94Z" style="fill: rgb(224, 224, 224); transform-origin: 169.598px 195.14px;" id="el3hwx0a11hkb" class="animable"></path></g><g id="freepik--Film--inject-142" class="animable animator-active" style="transform-origin: 316.595px 161.194px;"><path d="M349.53,86c-12.88-7.18-30.55-6-50,5.25C260,114,228.06,169.39,228.06,214.93c0,25.27,9.84,42.19,25.33,48.38,12.44,5,28.53,3,46.09-7.14C338.92,233.39,370.9,178,370.9,132.46,370.9,109.43,362.72,93.32,349.53,86Zm.7,27.62c-4,4.38-8.24,9.16-12.47,14.19a391.28,391.28,0,0,0-24,31.47c-1,1.5-2,2.95-2.86,4.31a4.75,4.75,0,0,0-3.34-.91c.3-1.06.6-2.17.91-3.33l-1.55,2.35a4.77,4.77,0,0,0-3.34-.91c.42-1.44.84-3,1.26-4.64a303.5,303.5,0,0,0,7.09-36c.84-5.86,1.47-11.64,1.94-17,9.64-2.6,18.24-1.69,25.06,2.28A26.94,26.94,0,0,1,350.23,113.59Zm-97.54,52.14c7.41-17.47,18.95-34,32.46-46,.15,1.68.31,3.38.51,5.09,1.14-1.1,2.29-2.17,3.47-3.21.41,4.82,1,9.89,1.87,14.76a148.6,148.6,0,0,0,7.1,27.78c.41,1.15.88,2.21,1.25,3.19a23,23,0,0,0-3.34,4.77c-.89-.33-1.82-.69-2.82-1a89.12,89.12,0,0,0-24.06-3.71,107.74,107.74,0,0,0-12.47.21c.3-.71.61-1.43.92-2.13C255.93,165.53,254.3,165.62,252.69,165.73Zm7.46,75.44a28.24,28.24,0,0,1-3.23-3.24l-.73,1.36c-7.78-6.61-12.48-18-12.48-33.42,0-1.14.06-2.32.06-3.47,4.33-1.47,9-3.16,13.73-5.09A205.2,205.2,0,0,0,285.88,183c1.31-.82,2.56-1.6,3.71-2.38a7.06,7.06,0,0,0,1.15,3.71c1-.62,1.93-1.22,2.82-1.82a6.91,6.91,0,0,0,1.25,3.85c-1,1.24-2,2.62-3.08,4.07-6.63,9.07-14.67,21.24-21.92,33.63C266.37,229.81,263.13,235.6,260.15,241.17Zm43.32-1.2c-7,4.06-13.83,6.48-20,7.23.37-.94.74-1.89,1.1-2.84a37.83,37.83,0,0,1-5.07.95c2.25-5.69,4.44-11.72,6.53-17.86a364.79,364.79,0,0,0,10.49-36.68c.36-1.59.63-3.13.94-4.57a11.34,11.34,0,0,0,2.09-1,13.88,13.88,0,0,0,2-1.42l0,0a30.33,30.33,0,0,0,1,3.49c0,.1.06.19.08.29.28-.13.56-.29.85-.45a13.22,13.22,0,0,0,2-1.42l.05,0a30.39,30.39,0,0,0,.94,3.5A120.84,120.84,0,0,0,317,213.72a105.68,105.68,0,0,0,6.52,10.34A92.23,92.23,0,0,1,303.47,240Zm39.61-51.31c-.09.21-.2.42-.31.63a82.26,82.26,0,0,0-9.6-6c-.73-.41-1.49-.8-2.24-1.18a82.17,82.17,0,0,0-15.76-5.22c-1.05-.24-2.09-.42-3-.54.15-.35.27-.69.39-1l-1.34-.31a27.86,27.86,0,0,0-3-.53,16.71,16.71,0,0,0,1.25-5.31c1.15-.54,2.41-1.21,3.66-1.87a247.72,247.72,0,0,0,28.44-18.47c4.7-3.49,9.34-7.2,13.67-10.73,0,1.15.06,2.27.06,3.41,0,.55,0,1.1,0,1.66l3.93-3.18c0,1.15,0,2.26,0,3.4,0,15.37-4.7,32.25-12.47,47.82C345.58,190.32,344.35,189.48,343.08,188.66Z" style="fill: rgb(255, 228, 0); transform-origin: 299.48px 173.721px;" id="elhit3crosjv" class="animable"></path><g id="el4uwlpwxht7t"><path d="M349.53,86c-12.88-7.18-30.55-6-50,5.25C260,114,228.06,169.39,228.06,214.93c0,25.27,9.84,42.19,25.33,48.38,12.44,5,28.53,3,46.09-7.14C338.92,233.39,370.9,178,370.9,132.46,370.9,109.43,362.72,93.32,349.53,86Zm.7,27.62c-4,4.38-8.24,9.16-12.47,14.19a391.28,391.28,0,0,0-24,31.47c-1,1.5-2,2.95-2.86,4.31a4.75,4.75,0,0,0-3.34-.91c.3-1.06.6-2.17.91-3.33l-1.55,2.35a4.77,4.77,0,0,0-3.34-.91c.42-1.44.84-3,1.26-4.64a303.5,303.5,0,0,0,7.09-36c.84-5.86,1.47-11.64,1.94-17,9.64-2.6,18.24-1.69,25.06,2.28A26.94,26.94,0,0,1,350.23,113.59Zm-97.54,52.14c7.41-17.47,18.95-34,32.46-46,.15,1.68.31,3.38.51,5.09,1.14-1.1,2.29-2.17,3.47-3.21.41,4.82,1,9.89,1.87,14.76a148.6,148.6,0,0,0,7.1,27.78c.41,1.15.88,2.21,1.25,3.19a23,23,0,0,0-3.34,4.77c-.89-.33-1.82-.69-2.82-1a89.12,89.12,0,0,0-24.06-3.71,107.74,107.74,0,0,0-12.47.21c.3-.71.61-1.43.92-2.13C255.93,165.53,254.3,165.62,252.69,165.73Zm7.46,75.44a28.24,28.24,0,0,1-3.23-3.24l-.73,1.36c-7.78-6.61-12.48-18-12.48-33.42,0-1.14.06-2.32.06-3.47,4.33-1.47,9-3.16,13.73-5.09A205.2,205.2,0,0,0,285.88,183c1.31-.82,2.56-1.6,3.71-2.38a7.06,7.06,0,0,0,1.15,3.71c1-.62,1.93-1.22,2.82-1.82a6.91,6.91,0,0,0,1.25,3.85c-1,1.24-2,2.62-3.08,4.07-6.63,9.07-14.67,21.24-21.92,33.63C266.37,229.81,263.13,235.6,260.15,241.17Zm43.32-1.2c-7,4.06-13.83,6.48-20,7.23.37-.94.74-1.89,1.1-2.84a37.83,37.83,0,0,1-5.07.95c2.25-5.69,4.44-11.72,6.53-17.86a364.79,364.79,0,0,0,10.49-36.68c.36-1.59.63-3.13.94-4.57a11.34,11.34,0,0,0,2.09-1,13.88,13.88,0,0,0,2-1.42l0,0a30.33,30.33,0,0,0,1,3.49c0,.1.06.19.08.29.28-.13.56-.29.85-.45a13.22,13.22,0,0,0,2-1.42l.05,0a30.39,30.39,0,0,0,.94,3.5A120.84,120.84,0,0,0,317,213.72a105.68,105.68,0,0,0,6.52,10.34A92.23,92.23,0,0,1,303.47,240Zm39.61-51.31c-.09.21-.2.42-.31.63a82.26,82.26,0,0,0-9.6-6c-.73-.41-1.49-.8-2.24-1.18a82.17,82.17,0,0,0-15.76-5.22c-1.05-.24-2.09-.42-3-.54.15-.35.27-.69.39-1l-1.34-.31a27.86,27.86,0,0,0-3-.53,16.71,16.71,0,0,0,1.25-5.31c1.15-.54,2.41-1.21,3.66-1.87a247.72,247.72,0,0,0,28.44-18.47c4.7-3.49,9.34-7.2,13.67-10.73,0,1.15.06,2.27.06,3.41,0,.55,0,1.1,0,1.66l3.93-3.18c0,1.15,0,2.26,0,3.4,0,15.37-4.7,32.25-12.47,47.82C345.58,190.32,344.35,189.48,343.08,188.66Z" style="fill: rgb(255, 255, 255); opacity: 0.4; transform-origin: 299.48px 173.721px;" class="animable"></path></g><path d="M349.53,86c-12.43-5-28.52-3-46.08,7.14C264,115.89,232,171.27,232,216.82c0,23,8.19,39.13,21.37,46.49,12.89,7.18,30.56,6,50.06-5.26,39.44-22.77,71.42-78.15,71.42-123.7C374.87,109.08,365,92.15,349.53,86Zm-37,89.32a16.45,16.45,0,0,0,.86-4.26c1.14-.55,2.4-1.21,3.65-1.88a248,248,0,0,0,28.45-18.46c3.3-2.46,6.57-5,9.74-7.55l3.93-3.18c0,1.15,0,2.26,0,3.4,0,15.37-4.7,32.25-12.47,47.82-1.16-.86-2.39-1.7-3.66-2.52-1.9-1.22-3.9-2.39-5.94-3.51s-4.11-2.14-6.21-3.06a82.17,82.17,0,0,0-15.76-5.22c-1.05-.24-2.09-.42-3-.54C312.29,176,312.41,175.64,312.53,175.29Zm37.7-61.7c-4,4.38-8.24,9.16-12.47,14.19a391.28,391.28,0,0,0-24,31.47c-1,1.5-2,2.95-2.86,4.31a4.75,4.75,0,0,0-3.34-.91c.3-1.06.6-2.17.91-3.33.11-.43.22-.87.34-1.31a304.09,304.09,0,0,0,7.09-36c.84-5.84,1.46-11.63,1.93-17,7.86-2.12,15-1.9,21.1.4A26.94,26.94,0,0,1,350.23,113.59Zm-46.76,73.53a13.22,13.22,0,0,0,2-1.42l.05,0a30.39,30.39,0,0,0,.94,3.5A120.84,120.84,0,0,0,317,213.72a105.68,105.68,0,0,0,6.52,10.34,92.23,92.23,0,0,1-20,15.91c-7,4.06-13.83,6.48-20,7.23.37-.94.74-1.89,1.1-2.84,1.87-4.85,3.68-9.9,5.43-15a362,362,0,0,0,10.49-36.67c.36-1.6.62-3.13.93-4.58a7.55,7.55,0,0,0,1.24-.51C302.9,187.44,303.18,187.28,303.47,187.12Zm-55.79,20.64c0-1.15.06-2.33.06-3.47,4.33-1.48,9-3.17,13.72-5.09a206.45,206.45,0,0,0,28.39-14.34l.89-.56c1-.62,1.93-1.22,2.82-1.82a6.91,6.91,0,0,0,1.25,3.85c-1,1.24-2,2.62-3.08,4.07-6.63,9.07-14.67,21.24-21.92,33.63-3.44,5.78-6.68,11.57-9.66,17.14a28.24,28.24,0,0,1-3.23-3.24C251.09,231.1,247.68,220.85,247.68,207.76Zm41.45-86.12c.41,4.82,1,9.89,1.87,14.76a148.6,148.6,0,0,0,7.1,27.78c.41,1.15.88,2.21,1.25,3.19a23,23,0,0,0-3.34,4.77c-.89-.33-1.82-.69-2.82-1a89.12,89.12,0,0,0-24.06-3.71,107.74,107.74,0,0,0-12.47.21c.3-.71.61-1.43.92-2.13a132.4,132.4,0,0,1,28.08-40.64C286.8,123.75,288,122.68,289.13,121.64Z" style="fill: rgb(255, 228, 0); transform-origin: 303.425px 175.589px;" id="elbbdha5k6ox" class="animable"></path><g id="el3o5pnu2bp4s"><path d="M349.53,86c-12.43-5-28.52-3-46.08,7.14C264,115.89,232,171.27,232,216.82c0,23,8.19,39.13,21.37,46.49,12.89,7.18,30.56,6,50.06-5.26,39.44-22.77,71.42-78.15,71.42-123.7C374.87,109.08,365,92.15,349.53,86Zm-37,89.32a16.45,16.45,0,0,0,.86-4.26c1.14-.55,2.4-1.21,3.65-1.88a248,248,0,0,0,28.45-18.46c3.3-2.46,6.57-5,9.74-7.55l3.93-3.18c0,1.15,0,2.26,0,3.4,0,15.37-4.7,32.25-12.47,47.82-1.16-.86-2.39-1.7-3.66-2.52-1.9-1.22-3.9-2.39-5.94-3.51s-4.11-2.14-6.21-3.06a82.17,82.17,0,0,0-15.76-5.22c-1.05-.24-2.09-.42-3-.54C312.29,176,312.41,175.64,312.53,175.29Zm37.7-61.7c-4,4.38-8.24,9.16-12.47,14.19a391.28,391.28,0,0,0-24,31.47c-1,1.5-2,2.95-2.86,4.31a4.75,4.75,0,0,0-3.34-.91c.3-1.06.6-2.17.91-3.33.11-.43.22-.87.34-1.31a304.09,304.09,0,0,0,7.09-36c.84-5.84,1.46-11.63,1.93-17,7.86-2.12,15-1.9,21.1.4A26.94,26.94,0,0,1,350.23,113.59Zm-46.76,73.53a13.22,13.22,0,0,0,2-1.42l.05,0a30.39,30.39,0,0,0,.94,3.5A120.84,120.84,0,0,0,317,213.72a105.68,105.68,0,0,0,6.52,10.34,92.23,92.23,0,0,1-20,15.91c-7,4.06-13.83,6.48-20,7.23.37-.94.74-1.89,1.1-2.84,1.87-4.85,3.68-9.9,5.43-15a362,362,0,0,0,10.49-36.67c.36-1.6.62-3.13.93-4.58a7.55,7.55,0,0,0,1.24-.51C302.9,187.44,303.18,187.28,303.47,187.12Zm-55.79,20.64c0-1.15.06-2.33.06-3.47,4.33-1.48,9-3.17,13.72-5.09a206.45,206.45,0,0,0,28.39-14.34l.89-.56c1-.62,1.93-1.22,2.82-1.82a6.91,6.91,0,0,0,1.25,3.85c-1,1.24-2,2.62-3.08,4.07-6.63,9.07-14.67,21.24-21.92,33.63-3.44,5.78-6.68,11.57-9.66,17.14a28.24,28.24,0,0,1-3.23-3.24C251.09,231.1,247.68,220.85,247.68,207.76Zm41.45-86.12c.41,4.82,1,9.89,1.87,14.76a148.6,148.6,0,0,0,7.1,27.78c.41,1.15.88,2.21,1.25,3.19a23,23,0,0,0-3.34,4.77c-.89-.33-1.82-.69-2.82-1a89.12,89.12,0,0,0-24.06-3.71,107.74,107.74,0,0,0-12.47.21c.3-.71.61-1.43.92-2.13a132.4,132.4,0,0,1,28.08-40.64C286.8,123.75,288,122.68,289.13,121.64Z" style="opacity: 0.15; transform-origin: 303.425px 175.589px;" class="animable"></path></g><path d="M294.81,186.33c-1,1.24-2,2.62-3.08,4.07-6.63,9.07-14.67,21.24-21.92,33.63-3.44,5.78-6.68,11.57-9.66,17.14a28.24,28.24,0,0,1-3.23-3.24c2.77-5.16,5.76-10.47,8.93-15.79,7.25-12.38,15.29-24.55,21.92-33.63,1-1.44,2.08-2.83,3.07-4.06l-.1-.15c1-.62,1.93-1.22,2.82-1.82A6.91,6.91,0,0,0,294.81,186.33Z" style="fill: rgb(255, 228, 0); transform-origin: 275.865px 211.825px;" id="el2v3udyid7c" class="animable"></path><g id="elp8lnvkde56o"><path d="M294.81,186.33c-1,1.24-2,2.62-3.08,4.07-6.63,9.07-14.67,21.24-21.92,33.63-3.44,5.78-6.68,11.57-9.66,17.14a28.24,28.24,0,0,1-3.23-3.24c2.77-5.16,5.76-10.47,8.93-15.79,7.25-12.38,15.29-24.55,21.92-33.63,1-1.44,2.08-2.83,3.07-4.06l-.1-.15c1-.62,1.93-1.22,2.82-1.82A6.91,6.91,0,0,0,294.81,186.33Z" style="opacity: 0.4; transform-origin: 275.865px 211.825px;" class="animable"></path></g><path d="M323.51,224.06a92.23,92.23,0,0,1-20,15.91c-7,4.06-13.83,6.48-20,7.23.37-.94.74-1.89,1.1-2.84a58.86,58.86,0,0,0,15-6.28,92.42,92.42,0,0,0,20-15.91A109.4,109.4,0,0,1,313,211.84a120.7,120.7,0,0,1-10.4-24.27c.28-.13.56-.29.85-.45a13.22,13.22,0,0,0,2-1.42l.05,0a30.39,30.39,0,0,0,.94,3.5A120.84,120.84,0,0,0,317,213.72,105.68,105.68,0,0,0,323.51,224.06Z" style="fill: rgb(255, 228, 0); transform-origin: 303.51px 216.45px;" id="elc6btwmh9k1n" class="animable"></path><g id="elu9z333ygb8r"><path d="M323.51,224.06a92.23,92.23,0,0,1-20,15.91c-7,4.06-13.83,6.48-20,7.23.37-.94.74-1.89,1.1-2.84a58.86,58.86,0,0,0,15-6.28,92.42,92.42,0,0,0,20-15.91" style="opacity: 0.3; transform-origin: 303.51px 234.685px;" class="animable"></path></g><g id="elqr3a0zmcjf"><path d="M317,213.72a120.84,120.84,0,0,1-10.49-24.55,30.39,30.39,0,0,1-.94-3.5l-.05,0a13.22,13.22,0,0,1-2,1.42c-.29.16-.57.32-.85.45A120.7,120.7,0,0,0,313,211.84a109.4,109.4,0,0,0,6.52,10.33l4,1.89A105.68,105.68,0,0,1,317,213.72Z" style="opacity: 0.4; transform-origin: 313.095px 204.865px;" class="animable"></path></g><path d="M330.93,182.09a82.17,82.17,0,0,0-15.76-5.22c-1.05-.24-2.09-.42-3-.54.15-.35.27-.69.39-1A84.61,84.61,0,0,1,330.93,182.09Z" style="fill: rgb(255, 228, 0); transform-origin: 321.55px 178.71px;" id="elyvizr54h3m" class="animable"></path><path d="M359.21,143.36c0,15.37-4.7,32.25-12.47,47.82-1.16-.86-2.39-1.7-3.66-2.52,7.32-14.83,11.83-30.82,12.15-45.52l3.93-3.18C359.16,141.11,359.21,142.22,359.21,143.36Z" style="fill: rgb(255, 228, 0); transform-origin: 351.145px 165.57px;" id="elsoewf3p40yq" class="animable"></path><g id="el5plmr5bgb8x"><path d="M330.93,182.09a82.17,82.17,0,0,0-15.76-5.22c-1.05-.24-2.09-.42-3-.54.15-.35.27-.69.39-1A84.61,84.61,0,0,1,330.93,182.09Z" style="opacity: 0.4; transform-origin: 321.55px 178.71px;" class="animable"></path></g><g id="elt0l3xq4pn1"><path d="M359.21,143.36c0,15.37-4.7,32.25-12.47,47.82-1.16-.86-2.39-1.7-3.66-2.52,7.32-14.83,11.83-30.82,12.15-45.52l3.93-3.18C359.16,141.11,359.21,142.22,359.21,143.36Z" style="opacity: 0.3; transform-origin: 351.145px 165.57px;" class="animable"></path></g><path d="M350.23,113.59c-4,4.38-8.24,9.16-12.47,14.19a391.28,391.28,0,0,0-24,31.47c-1,1.5-2,2.95-2.86,4.31a4.75,4.75,0,0,0-3.34-.91c.3-1.06.6-2.17.91-3.33l1.32-2a393.59,393.59,0,0,1,24-31.46c4.23-5,8.45-9.83,12.48-14.19a27.44,27.44,0,0,0-7.35-6.25A26.94,26.94,0,0,1,350.23,113.59Z" style="fill: rgb(255, 228, 0); transform-origin: 328.895px 134.49px;" id="el43674eqip0h" class="animable"></path><g id="el7vdazkjtmmw"><path d="M350.23,113.59c-4,4.38-8.24,9.16-12.47,14.19a391.28,391.28,0,0,0-24,31.47c-1,1.5-2,2.95-2.86,4.31a4.75,4.75,0,0,0-3.34-.91c.3-1.06.6-2.17.91-3.33l1.32-2a393.59,393.59,0,0,1,24-31.46c4.23-5,8.45-9.83,12.48-14.19a27.44,27.44,0,0,0-7.35-6.25A26.94,26.94,0,0,1,350.23,113.59Z" style="opacity: 0.4; transform-origin: 328.895px 134.49px;" class="animable"></path></g><path d="M299.35,167.37a23,23,0,0,0-3.34,4.77c-.89-.33-1.82-.69-2.82-1a89.12,89.12,0,0,0-24.06-3.71,107.74,107.74,0,0,0-12.47.21c.3-.71.61-1.43.92-2.13,2.52-.09,5.06-.08,7.58,0a89.58,89.58,0,0,1,24.06,3.71c1,.33,1.94.69,2.83,1a22.67,22.67,0,0,1,3.34-4.77c-.37-1-.84-2-1.26-3.19a149.13,149.13,0,0,1-7.1-27.79c-.54-3.17-1-6.43-1.37-9.66,1.14-1.1,2.29-2.17,3.47-3.21.41,4.82,1,9.89,1.87,14.76a148.6,148.6,0,0,0,7.1,27.78C298.51,165.33,299,166.39,299.35,167.37Z" style="fill: rgb(255, 228, 0); transform-origin: 278.005px 146.87px;" id="elmjtdd200ee" class="animable"></path><g id="elbo9w2x7avgv"><path d="M295.39,165.49a22.67,22.67,0,0,0-3.34,4.77c-.89-.34-1.83-.7-2.83-1a89.58,89.58,0,0,0-24.06-3.71c-2.52-.11-5.06-.12-7.58,0-.31.7-.62,1.42-.92,2.13a107.74,107.74,0,0,1,12.47-.21,89.12,89.12,0,0,1,24.06,3.71c1,.33,1.93.69,2.82,1a23,23,0,0,1,3.34-4.77Z" style="opacity: 0.4; transform-origin: 278.005px 168.822px;" class="animable"></path></g><g id="eledhgc7c15c7"><path d="M295.39,165.49c-.37-1-.84-2-1.26-3.19a149.13,149.13,0,0,1-7.1-27.79c-.54-3.17-1-6.43-1.37-9.66,1.14-1.1,2.29-2.17,3.47-3.21.41,4.82,1,9.89,1.87,14.76a148.6,148.6,0,0,0,7.1,27.78c.41,1.15.88,2.21,1.25,3.19" style="opacity: 0.3; transform-origin: 292.505px 144.505px;" class="animable"></path></g><path d="M337.76,113.22l30.15,17.39a23,23,0,0,0-3-1.42c-8.77-3.49-20.11-2.11-32.49,5-27.8,16.05-50.33,55.1-50.33,87.2,0,15.72,5.42,26.86,14.2,32.26l-29.79-17.23h0c-9.06-5.28-14.68-16.52-14.68-32.52,0-32.1,22.54-71.14,50.34-87.19,12.38-7.15,23.72-8.53,32.48-5a24.46,24.46,0,0,1,3.08,1.52Z" style="fill: rgb(69, 90, 100); transform-origin: 309.865px 181.747px;" id="el0atpv7nxzxhr" class="animable"></path><path d="M269.2,231.84c-7.75-4.51-12-14.43-12-27.91,0-30.36,21.39-67.41,47.68-82.59,7-4,13.84-6.15,19.83-6.15a21.75,21.75,0,0,1,8,1.45,19.35,19.35,0,0,1,2.38,1.18l9.61,5.55a59.2,59.2,0,0,0-14.9,6.24c-29.22,16.88-53,58.06-53,91.81a59.61,59.61,0,0,0,2,16Z" style="fill: rgb(55, 71, 79); transform-origin: 300.95px 176.305px;" id="el4bz539kznla" class="animable"></path><path d="M364.94,129.19c-8.76-3.5-20.1-2.11-32.48,5-27.8,16.06-50.34,55.09-50.34,87.2,0,16.23,5.77,27.57,15.07,32.76,9.08,5.06,21.53,4.23,35.27-3.71,27.8-16,50.34-55.08,50.34-87.18C382.8,145.48,375.86,133.55,364.94,129.19Z" style="fill: rgb(55, 71, 79); transform-origin: 332.46px 192.334px;" id="elz19o7mh3o5n" class="animable"></path><path d="M252,200.08l30.28,17.48c.12-2.3.36-4.63.69-7l-30.27-17.48Q252.16,196.64,252,200.08Z" style="fill: rgb(69, 90, 100); transform-origin: 267.485px 205.32px;" id="elak16u8z3g2b" class="animable"></path><path d="M292.49,123.43l30.27,17.48c1.84-1.47,3.72-2.85,5.62-4.13l-30.27-17.47C296.21,120.58,294.33,122,292.49,123.43Z" style="fill: rgb(69, 90, 100); transform-origin: 310.435px 130.11px;" id="elketg4qqrxqp" class="animable"></path><path d="M278.16,137.67c-1.37,1.64-2.69,3.34-4,5.07l30.28,17.48c1.28-1.74,2.61-3.43,4-5.08Z" style="fill: rgb(69, 90, 100); transform-origin: 291.3px 148.945px;" id="elpri8ujau0xf" class="animable"></path><path d="M261.9,163.3q-1.38,2.91-2.58,5.88l30.27,17.48q1.2-3,2.58-5.88Z" style="fill: rgb(69, 90, 100); transform-origin: 275.745px 174.98px;" id="elh6coxoh3yev" class="animable"></path><path d="M367.91,130.62a21.79,21.79,0,0,0-3-1.43c-8.32-3.31-18.91-2.24-30.54,4,4.42-2.43,11.27-6.11,19-10.9Z" style="fill: rgb(38, 50, 56); transform-origin: 351.14px 127.74px;" id="elc4m8jcvqwjb" class="animable"></path><path d="M332.46,134.22c14.47-8.13,72.67-36.95,72.67-78.19L374.87,38.55c0,41.24-58.2,70.06-72.67,78.19l5.38,3.1,4.57-3,20.37,11.77-5.29,2.59Z" style="fill: rgb(69, 90, 100); transform-origin: 353.665px 86.385px;" id="el4ucbuoziydq" class="animable"></path><path d="M312.15,116.84c20.34-11.27,61.23-35.75,66.93-70.21L400.14,58.8c-2.4,34.15-48.77,59.5-66.51,69.2l-1.11.61Z" style="fill: rgb(55, 71, 79); transform-origin: 356.145px 87.62px;" id="eld3de1sv575a" class="animable"></path><path d="M349.84,85q-2.29,2.08-4.67,4.07l30.34,17.43c1.58-1.32,3.14-2.68,4.66-4.08Z" style="fill: rgb(69, 90, 100); transform-origin: 362.67px 95.75px;" id="elml76g96pxsq" class="animable"></path><path d="M325.85,103.06c-1.93,1.23-3.83,2.4-5.66,3.51L350.54,124q2.74-1.66,5.66-3.51Z" style="fill: rgb(69, 90, 100); transform-origin: 338.195px 113.53px;" id="el2ydmvms9sj9" class="animable"></path><path d="M367.86,63.24q-1.44,2.54-3.12,5l30.31,17.41c1.11-1.63,2.15-3.28,3.11-5Z" style="fill: rgb(69, 90, 100); transform-origin: 381.45px 74.445px;" id="eldl7u2idgg24" class="animable"></path><path d="M312.15,116.84c-4.74,2.6-8.87,5.45-8.87,5.45l20,11.55s4.19-2.46,9.24-5.23Z" style="fill: rgb(55, 71, 79); transform-origin: 317.9px 125.34px;" id="elx7z44047yb" class="animable"></path><path d="M377.3,102c-12.88-7.18-30.55-6-50.05,5.25-39.44,22.78-71.42,78.17-71.42,123.71,0,25.27,9.84,42.19,25.34,48.38,12.43,5,28.52,3,46.08-7.14,39.45-22.78,71.43-78.16,71.43-123.71C398.68,125.48,390.49,109.37,377.3,102Zm.71,27.62c-4,4.38-8.25,9.16-12.48,14.19a393.63,393.63,0,0,0-24,31.47c-1,1.5-2,2.95-2.86,4.31a4.75,4.75,0,0,0-3.34-.91c.3-1.06.61-2.17.91-3.33-.54.81-1.05,1.59-1.54,2.35a4.78,4.78,0,0,0-3.34-.91c.42-1.44.84-3,1.26-4.64a305.53,305.53,0,0,0,7.09-36c.84-5.86,1.46-11.64,1.93-17,9.64-2.6,18.24-1.69,25.07,2.28A27.06,27.06,0,0,1,378,129.64Zm-97.55,52.14c7.42-17.47,19-34,32.46-46,.15,1.68.32,3.38.51,5.09q1.71-1.65,3.47-3.21c.41,4.82,1,9.89,1.87,14.76a147.76,147.76,0,0,0,7.11,27.78c.41,1.15.87,2.21,1.25,3.19a23.09,23.09,0,0,0-3.35,4.77c-.88-.33-1.82-.69-2.82-1a89.12,89.12,0,0,0-24.06-3.71,107.74,107.74,0,0,0-12.47.21c.3-.71.61-1.43.93-2.13C283.71,181.58,282.08,181.67,280.46,181.78Zm7.47,75.44a27.54,27.54,0,0,1-3.24-3.24l-.73,1.36c-7.78-6.61-12.47-18.05-12.47-33.42,0-1.14.06-2.32.06-3.47,4.32-1.47,9-3.16,13.72-5.09A205.9,205.9,0,0,0,313.66,199c1.3-.82,2.55-1.6,3.71-2.38a7.06,7.06,0,0,0,1.14,3.71c1-.62,1.93-1.22,2.82-1.82a6.91,6.91,0,0,0,1.25,3.85c-1,1.24-2,2.62-3.07,4.07-6.64,9.07-14.68,21.24-21.92,33.63C294.14,245.86,290.91,251.65,287.93,257.22Zm43.32-1.2c-7.05,4.06-13.83,6.48-20.05,7.23.37-.94.75-1.89,1.11-2.84a38.43,38.43,0,0,1-5.07.95c2.24-5.69,4.43-11.72,6.52-17.86a359.57,359.57,0,0,0,10.49-36.68c.37-1.59.63-3.13.94-4.57a11,11,0,0,0,2.09-1,13.37,13.37,0,0,0,2-1.42l.05,0a32.51,32.51,0,0,0,.95,3.49l.09.29c.27-.13.55-.29.85-.45a13.15,13.15,0,0,0,2-1.42l.06,0a28.48,28.48,0,0,0,.94,3.5,119.73,119.73,0,0,0,10.49,24.55,107.58,107.58,0,0,0,6.51,10.34A92.42,92.42,0,0,1,331.25,256Zm39.61-51.31c-.1.21-.21.42-.32.63a82.26,82.26,0,0,0-9.6-6c-.73-.41-1.48-.8-2.23-1.18a81.56,81.56,0,0,0-15.77-5.22c-1.05-.24-2.09-.42-3-.54a11,11,0,0,0,.39-1L339,191a28.13,28.13,0,0,0-3-.53,17.26,17.26,0,0,0,1.25-5.31c1.14-.54,2.4-1.21,3.65-1.87a247.72,247.72,0,0,0,28.44-18.47c4.7-3.49,9.34-7.2,13.67-10.73,0,1.15.06,2.27.06,3.41,0,.55,0,1.1,0,1.66,1.34-1.07,2.65-2.14,3.94-3.18,0,1.15,0,2.26,0,3.4,0,15.37-4.69,32.25-12.47,47.82Q372.77,205.94,370.86,204.71Z" style="fill: rgb(255, 228, 0); transform-origin: 327.255px 189.736px;" id="elguwqbzfnpf" class="animable"></path><g id="elb7dhsge9nv"><path d="M377.3,102c-12.88-7.18-30.55-6-50.05,5.25-39.44,22.78-71.42,78.17-71.42,123.71,0,25.27,9.84,42.19,25.34,48.38,12.43,5,28.52,3,46.08-7.14,39.45-22.78,71.43-78.16,71.43-123.71C398.68,125.48,390.49,109.37,377.3,102Zm.71,27.62c-4,4.38-8.25,9.16-12.48,14.19a393.63,393.63,0,0,0-24,31.47c-1,1.5-2,2.95-2.86,4.31a4.75,4.75,0,0,0-3.34-.91c.3-1.06.61-2.17.91-3.33-.54.81-1.05,1.59-1.54,2.35a4.78,4.78,0,0,0-3.34-.91c.42-1.44.84-3,1.26-4.64a305.53,305.53,0,0,0,7.09-36c.84-5.86,1.46-11.64,1.93-17,9.64-2.6,18.24-1.69,25.07,2.28A27.06,27.06,0,0,1,378,129.64Zm-97.55,52.14c7.42-17.47,19-34,32.46-46,.15,1.68.32,3.38.51,5.09q1.71-1.65,3.47-3.21c.41,4.82,1,9.89,1.87,14.76a147.76,147.76,0,0,0,7.11,27.78c.41,1.15.87,2.21,1.25,3.19a23.09,23.09,0,0,0-3.35,4.77c-.88-.33-1.82-.69-2.82-1a89.12,89.12,0,0,0-24.06-3.71,107.74,107.74,0,0,0-12.47.21c.3-.71.61-1.43.93-2.13C283.71,181.58,282.08,181.67,280.46,181.78Zm7.47,75.44a27.54,27.54,0,0,1-3.24-3.24l-.73,1.36c-7.78-6.61-12.47-18.05-12.47-33.42,0-1.14.06-2.32.06-3.47,4.32-1.47,9-3.16,13.72-5.09A205.9,205.9,0,0,0,313.66,199c1.3-.82,2.55-1.6,3.71-2.38a7.06,7.06,0,0,0,1.14,3.71c1-.62,1.93-1.22,2.82-1.82a6.91,6.91,0,0,0,1.25,3.85c-1,1.24-2,2.62-3.07,4.07-6.64,9.07-14.68,21.24-21.92,33.63C294.14,245.86,290.91,251.65,287.93,257.22Zm43.32-1.2c-7.05,4.06-13.83,6.48-20.05,7.23.37-.94.75-1.89,1.11-2.84a38.43,38.43,0,0,1-5.07.95c2.24-5.69,4.43-11.72,6.52-17.86a359.57,359.57,0,0,0,10.49-36.68c.37-1.59.63-3.13.94-4.57a11,11,0,0,0,2.09-1,13.37,13.37,0,0,0,2-1.42l.05,0a32.51,32.51,0,0,0,.95,3.49l.09.29c.27-.13.55-.29.85-.45a13.15,13.15,0,0,0,2-1.42l.06,0a28.48,28.48,0,0,0,.94,3.5,119.73,119.73,0,0,0,10.49,24.55,107.58,107.58,0,0,0,6.51,10.34A92.42,92.42,0,0,1,331.25,256Zm39.61-51.31c-.1.21-.21.42-.32.63a82.26,82.26,0,0,0-9.6-6c-.73-.41-1.48-.8-2.23-1.18a81.56,81.56,0,0,0-15.77-5.22c-1.05-.24-2.09-.42-3-.54a11,11,0,0,0,.39-1L339,191a28.13,28.13,0,0,0-3-.53,17.26,17.26,0,0,0,1.25-5.31c1.14-.54,2.4-1.21,3.65-1.87a247.72,247.72,0,0,0,28.44-18.47c4.7-3.49,9.34-7.2,13.67-10.73,0,1.15.06,2.27.06,3.41,0,.55,0,1.1,0,1.66,1.34-1.07,2.65-2.14,3.94-3.18,0,1.15,0,2.26,0,3.4,0,15.37-4.69,32.25-12.47,47.82Q372.77,205.94,370.86,204.71Z" style="fill: rgb(255, 255, 255); opacity: 0.4; transform-origin: 327.255px 189.736px;" class="animable"></path></g><path d="M377.3,102c-12.43-5-28.52-3-46.08,7.14-39.45,22.78-71.43,78.16-71.43,123.71,0,23,8.19,39.13,21.38,46.49,12.88,7.18,30.55,6,50.05-5.26,39.44-22.77,71.42-78.15,71.42-123.7C402.64,125.13,392.8,108.2,377.3,102Zm-37,89.32a16.45,16.45,0,0,0,.86-4.26c1.15-.55,2.41-1.21,3.66-1.88a248,248,0,0,0,28.44-18.46c3.3-2.46,6.57-5,9.74-7.55,1.34-1.07,2.65-2.14,3.94-3.18,0,1.15,0,2.26,0,3.4,0,15.37-4.69,32.25-12.47,47.82q-1.74-1.29-3.65-2.52c-1.91-1.22-3.91-2.39-5.95-3.51s-4.1-2.14-6.2-3.06a81.56,81.56,0,0,0-15.77-5.22c-1.05-.24-2.09-.42-3-.54A11,11,0,0,0,340.3,191.34ZM378,129.64c-4,4.38-8.25,9.16-12.48,14.19a393.63,393.63,0,0,0-24,31.47c-1,1.5-2,2.95-2.86,4.31a4.75,4.75,0,0,0-3.34-.91c.3-1.06.61-2.17.91-3.33.12-.43.22-.87.34-1.31a302.08,302.08,0,0,0,7.09-36c.84-5.84,1.47-11.63,1.94-17,7.85-2.12,15-1.9,21.1.4A27.06,27.06,0,0,1,378,129.64Zm-46.76,73.53a13.15,13.15,0,0,0,2-1.42l.06,0a28.48,28.48,0,0,0,.94,3.5,119.73,119.73,0,0,0,10.49,24.55,107.58,107.58,0,0,0,6.51,10.34,92.42,92.42,0,0,1-20,15.91c-7.05,4.06-13.83,6.48-20.05,7.23.37-.94.75-1.89,1.11-2.84,1.86-4.85,3.67-9.9,5.42-15a362,362,0,0,0,10.49-36.67c.36-1.6.62-3.13.94-4.58a7.55,7.55,0,0,0,1.24-.51C330.67,203.49,331,203.33,331.25,203.17Zm-55.8,20.64c0-1.15.06-2.33.06-3.47,4.33-1.48,9-3.17,13.73-5.09a206.31,206.31,0,0,0,28.38-14.34l.89-.56c1-.62,1.93-1.22,2.82-1.82a6.91,6.91,0,0,0,1.25,3.85c-1,1.24-2,2.62-3.07,4.07-6.64,9.07-14.68,21.24-21.92,33.63-3.45,5.78-6.68,11.57-9.66,17.14a27.54,27.54,0,0,1-3.24-3.24C278.86,247.15,275.45,236.9,275.45,223.81Zm41.45-86.12c.41,4.82,1,9.89,1.87,14.76a147.76,147.76,0,0,0,7.11,27.78c.41,1.15.87,2.21,1.25,3.19a23.09,23.09,0,0,0-3.35,4.77c-.88-.33-1.82-.69-2.82-1a89.12,89.12,0,0,0-24.06-3.71,107.74,107.74,0,0,0-12.47.21c.3-.71.61-1.43.93-2.13a132.38,132.38,0,0,1,28.07-40.64Q315.14,139.25,316.9,137.69Z" style="fill: rgb(255, 228, 0); transform-origin: 331.215px 191.604px;" id="ell5uxd7tbdwd" class="animable"></path><path d="M322.58,202.38c-1,1.24-2,2.62-3.07,4.07-6.64,9.07-14.68,21.24-21.92,33.63-3.45,5.78-6.68,11.57-9.66,17.14a27.54,27.54,0,0,1-3.24-3.24c2.78-5.16,5.77-10.47,8.93-15.79,7.25-12.38,15.29-24.55,21.92-33.63,1-1.44,2.08-2.83,3.08-4.06l-.11-.15c1-.62,1.93-1.22,2.82-1.82A6.91,6.91,0,0,0,322.58,202.38Z" style="fill: rgb(255, 228, 0); transform-origin: 303.635px 227.875px;" id="elwbb5w1wo3f" class="animable"></path><g id="el2brnx9uicv6"><path d="M322.58,202.38c-1,1.24-2,2.62-3.07,4.07-6.64,9.07-14.68,21.24-21.92,33.63-3.45,5.78-6.68,11.57-9.66,17.14a27.54,27.54,0,0,1-3.24-3.24c2.78-5.16,5.77-10.47,8.93-15.79,7.25-12.38,15.29-24.55,21.92-33.63,1-1.44,2.08-2.83,3.08-4.06l-.11-.15c1-.62,1.93-1.22,2.82-1.82A6.91,6.91,0,0,0,322.58,202.38Z" style="opacity: 0.3; transform-origin: 303.635px 227.875px;" class="animable"></path></g><path d="M351.28,240.11a92.42,92.42,0,0,1-20,15.91c-7.05,4.06-13.83,6.48-20.05,7.23.37-.94.75-1.89,1.11-2.84a59,59,0,0,0,15-6.28,92.71,92.71,0,0,0,20-15.91,107.43,107.43,0,0,1-6.53-10.33,120.64,120.64,0,0,1-10.39-24.27c.27-.13.55-.29.85-.45a13.15,13.15,0,0,0,2-1.42l.06,0a28.48,28.48,0,0,0,.94,3.5,119.73,119.73,0,0,0,10.49,24.55A107.58,107.58,0,0,0,351.28,240.11Z" style="fill: rgb(255, 228, 0); transform-origin: 331.255px 232.5px;" id="eldymt8bix23" class="animable"></path><g id="eljj9ls2ian0r"><path d="M351.28,240.11a92.42,92.42,0,0,1-20,15.91c-7.05,4.06-13.83,6.48-20.05,7.23.37-.94.75-1.89,1.11-2.84a59,59,0,0,0,15-6.28,92.71,92.71,0,0,0,20-15.91" style="opacity: 0.2; transform-origin: 331.255px 250.735px;" class="animable"></path></g><g id="elnxssyxt5o6"><path d="M344.77,229.77a119.73,119.73,0,0,1-10.49-24.55,28.48,28.48,0,0,1-.94-3.5l-.06,0a13.15,13.15,0,0,1-2,1.42c-.3.16-.58.32-.85.45a120.64,120.64,0,0,0,10.39,24.27,107.43,107.43,0,0,0,6.53,10.33l4,1.89A107.58,107.58,0,0,1,344.77,229.77Z" style="opacity: 0.3; transform-origin: 340.89px 220.9px;" class="animable"></path></g><path d="M358.71,198.14a81.56,81.56,0,0,0-15.77-5.22c-1.05-.24-2.09-.42-3-.54a11,11,0,0,0,.39-1A84.87,84.87,0,0,1,358.71,198.14Z" style="fill: rgb(255, 228, 0); transform-origin: 349.325px 194.76px;" id="el7rweyg2af2" class="animable"></path><path d="M387,159.41c0,15.37-4.69,32.25-12.47,47.82q-1.74-1.29-3.65-2.52c7.31-14.83,11.83-30.82,12.14-45.52,1.34-1.07,2.65-2.14,3.94-3.18C386.94,157.16,387,158.27,387,159.41Z" style="fill: rgb(255, 228, 0); transform-origin: 378.94px 181.62px;" id="elhw6v7ihes1a" class="animable"></path><g id="elu99kc2aepb"><path d="M358.71,198.14a81.56,81.56,0,0,0-15.77-5.22c-1.05-.24-2.09-.42-3-.54a11,11,0,0,0,.39-1A84.87,84.87,0,0,1,358.71,198.14Z" style="opacity: 0.3; transform-origin: 349.325px 194.76px;" class="animable"></path></g><g id="elv8xl8lldo4a"><path d="M387,159.41c0,15.37-4.69,32.25-12.47,47.82q-1.74-1.29-3.65-2.52c7.31-14.83,11.83-30.82,12.14-45.52,1.34-1.07,2.65-2.14,3.94-3.18C386.94,157.16,387,158.27,387,159.41Z" style="opacity: 0.2; transform-origin: 378.94px 181.62px;" class="animable"></path></g><path d="M378,129.64c-4,4.38-8.25,9.16-12.48,14.19a393.63,393.63,0,0,0-24,31.47c-1,1.5-2,2.95-2.86,4.31a4.75,4.75,0,0,0-3.34-.91c.3-1.06.61-2.17.91-3.33l1.33-2a391.24,391.24,0,0,1,24-31.46c4.23-5,8.45-9.83,12.47-14.19a27.55,27.55,0,0,0-7.34-6.25A27.06,27.06,0,0,1,378,129.64Z" style="fill: rgb(255, 228, 0); transform-origin: 356.66px 150.54px;" id="elpm0nhmd33m" class="animable"></path><g id="eld9ymhqsvu07"><path d="M378,129.64c-4,4.38-8.25,9.16-12.48,14.19a393.63,393.63,0,0,0-24,31.47c-1,1.5-2,2.95-2.86,4.31a4.75,4.75,0,0,0-3.34-.91c.3-1.06.61-2.17.91-3.33l1.33-2a391.24,391.24,0,0,1,24-31.46c4.23-5,8.45-9.83,12.47-14.19a27.55,27.55,0,0,0-7.34-6.25A27.06,27.06,0,0,1,378,129.64Z" style="opacity: 0.3; transform-origin: 356.66px 150.54px;" class="animable"></path></g><path d="M327.13,183.42a23.09,23.09,0,0,0-3.35,4.77c-.88-.33-1.82-.69-2.82-1a89.12,89.12,0,0,0-24.06-3.71,107.74,107.74,0,0,0-12.47.21c.3-.71.61-1.43.93-2.13,2.52-.09,5.06-.08,7.58,0A89.65,89.65,0,0,1,317,185.28c1,.33,1.93.69,2.82,1a23,23,0,0,1,3.34-4.77c-.37-1-.84-2-1.26-3.19a149.19,149.19,0,0,1-7.09-27.79c-.55-3.17-1-6.43-1.38-9.66q1.71-1.65,3.47-3.21c.41,4.82,1,9.89,1.87,14.76a147.76,147.76,0,0,0,7.11,27.78C326.29,181.38,326.75,182.44,327.13,183.42Z" style="fill: rgb(255, 228, 0); transform-origin: 305.78px 162.925px;" id="elsoy0b9iobj" class="animable"></path><g id="el76j0tohjp7e"><path d="M323.16,181.54a23,23,0,0,0-3.34,4.77c-.89-.34-1.83-.7-2.82-1a89.65,89.65,0,0,0-24.06-3.71c-2.52-.11-5.06-.12-7.58,0-.32.7-.63,1.42-.93,2.13a107.74,107.74,0,0,1,12.47-.21A89.12,89.12,0,0,1,321,187.17c1,.33,1.94.69,2.82,1a23.09,23.09,0,0,1,3.35-4.77Z" style="opacity: 0.3; transform-origin: 305.8px 184.842px;" class="animable"></path></g><g id="elpi3ko42htv"><path d="M323.16,181.54c-.37-1-.84-2-1.26-3.19a149.19,149.19,0,0,1-7.09-27.79c-.55-3.17-1-6.43-1.38-9.66q1.71-1.65,3.47-3.21c.41,4.82,1,9.89,1.87,14.76a147.76,147.76,0,0,0,7.11,27.78c.41,1.15.87,2.21,1.25,3.19" style="opacity: 0.2; transform-origin: 320.28px 160.555px;" class="animable"></path></g></g><g id="freepik--Characters--inject-142" class="animable" style="transform-origin: 303.31px 314.834px;"><path d="M265.65,392.26h-8.93l1.43,8.71h0a1.63,1.63,0,0,0,.87,1.08,4.81,4.81,0,0,0,4.31,0,1.6,1.6,0,0,0,.87-1.08h0Z" style="fill: rgb(250, 250, 250); transform-origin: 261.185px 397.41px;" id="elhul3jv9xo3" class="animable"></path><ellipse cx="261.19" cy="392.03" rx="4.48" ry="2.59" style="fill: rgb(250, 250, 250); transform-origin: 261.19px 392.03px;" id="ela5dc25cgk04" class="animable"></ellipse><path d="M220.23,365.84H211.3l1.43,8.71h0a1.62,1.62,0,0,0,.87,1.07,4.75,4.75,0,0,0,4.31,0,1.62,1.62,0,0,0,.87-1.07h0Z" style="fill: rgb(250, 250, 250); transform-origin: 215.765px 370.988px;" id="elqqc6zg7xaw" class="animable"></path><path d="M212.59,363.77c-1.75,1-1.75,2.65,0,3.66a7,7,0,0,0,6.34,0c1.76-1,1.76-2.65,0-3.66A7,7,0,0,0,212.59,363.77Z" style="fill: rgb(250, 250, 250); transform-origin: 215.764px 365.6px;" id="elmebh3ngf89g" class="animable"></path><path d="M395.14,326.74h-8.93l1.42,8.71h0a1.59,1.59,0,0,0,.86,1.08,4.77,4.77,0,0,0,4.32,0,1.63,1.63,0,0,0,.87-1.08h0Z" style="fill: rgb(250, 250, 250); transform-origin: 390.675px 331.894px;" id="elo6e8e1g2a6f" class="animable"></path><path d="M387.5,324.68c-1.75,1-1.75,2.65,0,3.66a7,7,0,0,0,6.34,0c1.75-1,1.75-2.65,0-3.66A7,7,0,0,0,387.5,324.68Z" style="fill: rgb(250, 250, 250); transform-origin: 390.67px 326.51px;" id="elbaiavt9wbtr" class="animable"></path><path d="M349.71,300.32h-8.93l1.43,8.71h0a1.62,1.62,0,0,0,.87,1.07,4.77,4.77,0,0,0,4.32,0,1.57,1.57,0,0,0,.86-1.07h0Z" style="fill: rgb(250, 250, 250); transform-origin: 345.245px 305.469px;" id="el810p7x7fnji" class="animable"></path><path d="M342.08,298.25c-1.75,1-1.75,2.65,0,3.67a7,7,0,0,0,6.34,0c1.75-1,1.75-2.65,0-3.67A7,7,0,0,0,342.08,298.25Z" style="fill: rgb(250, 250, 250); transform-origin: 345.25px 300.085px;" id="elqa8fpb2otka" class="animable"></path><path d="M402.26,281v41.59a9.6,9.6,0,0,1-4.33,7.5l-3.53,2-.06,0a9.72,9.72,0,0,1-5.41.93l-107.4,59.52a9.67,9.67,0,0,1-4.28,7.2l0,0-3.52,2a1.73,1.73,0,0,1-.33.17,1.51,1.51,0,0,1-.18.09l-.05,0a9.87,9.87,0,0,1-6.72.31,6.09,6.09,0,0,1-.75-.28l-.12-.05c-.18-.08-.35-.17-.51-.26L208.7,369.31a9.59,9.59,0,0,1-4.33-7.5V292.07a9.62,9.62,0,0,1,4.33-7.5L332.93,212.8a9.57,9.57,0,0,1,8.66,0l3.53,2a11.51,11.51,0,0,1,5,7.46l3.4,25.53,44.42,25.65A9.6,9.6,0,0,1,402.26,281Z" style="fill: rgb(55, 71, 79); transform-origin: 303.315px 307.26px;" id="elpx315ue4w7m" class="animable"></path><path d="M345.12,214.83l-3.52-2a9.57,9.57,0,0,0-8.66,0L208.7,284.57c-.26.15-.53.34-.45.28a9.91,9.91,0,0,0-3.84,6.49c.32-2.21,2.12-3,4.28-1.77l3.53,2a9.57,9.57,0,0,0,8.66,0l124.24-71.78C347.51,218.45,347.51,216.21,345.12,214.83Z" style="fill: rgb(69, 90, 100); transform-origin: 275.661px 252.2px;" id="el5lzpaaz8ed4" class="animable"></path><path d="M402.26,281v41.59a9.6,9.6,0,0,1-4.33,7.5l-3.53,2-.06,0a9.23,9.23,0,0,1-5.07,1,8.49,8.49,0,0,1-3.53-1L345.66,309a9.6,9.6,0,0,1-4.33-7.5V259.86a9.58,9.58,0,0,1,4.33-7.5l7.85-4.54,44.42,25.65A9.6,9.6,0,0,1,402.26,281Z" style="fill: rgb(38, 50, 56); transform-origin: 371.795px 290.473px;" id="elyxrbkzlegxa" class="animable"></path><path d="M353.51,247.82l-7.85,4.54c-2.38,1.37-2.38,3.62,0,5l40.08,23.14a9.59,9.59,0,0,1,4.33,7.5v41.6c0,2.75,1.95,3.87,4.33,2.5l3.53-2a9.62,9.62,0,0,0,4.33-7.5V281a9.62,9.62,0,0,0-4.33-7.5Z" style="fill: rgb(69, 90, 100); transform-origin: 373.067px 290.252px;" id="el1lo1glgvwiji" class="animable"></path><path d="M390.07,288v41.6c0,2.75,1.95,3.87,4.33,2.5l3.53-2a9.62,9.62,0,0,0,4.33-7.5V281A8.91,8.91,0,0,0,401,276.7l-12.19,7A8.83,8.83,0,0,1,390.07,288Z" style="fill: rgb(55, 71, 79); transform-origin: 395.535px 304.692px;" id="elp2noahlea2d" class="animable"></path><path d="M388.27,333.09a10.48,10.48,0,0,1-1.58,2.38,19.07,19.07,0,0,1-4.07,2.85L286.77,393.7a4.79,4.79,0,0,1-4.33,0l-14.08-8.13-28.17-16.26a8.13,8.13,0,0,1,0-14.38l16-9.23,12.19-7L336,299.57a9.62,9.62,0,0,1,8.66,0l40.08,23.15a9.29,9.29,0,0,1,4.33,7.19A7.66,7.66,0,0,1,388.27,333.09Z" style="fill: rgb(38, 50, 56); transform-origin: 312.462px 346.379px;" id="el9pelbz80yl9" class="animable"></path><path d="M286.78,384.32l100.13-57.86c1.19-.69,2.16-.13,2.16,1.25v4.38a4.8,4.8,0,0,1-2.16,3.75L286.77,393.7c-1.19.69-2.16.13-2.16-1.25v-4.38A4.78,4.78,0,0,1,286.78,384.32Z" style="fill: rgb(55, 71, 79); transform-origin: 336.84px 360.08px;" id="elfd3izz72jwf" class="animable"></path><path d="M336,278.12l-95.81,55.36a9.58,9.58,0,0,0-4.33,7.5v8.76a9.58,9.58,0,0,0,4.33,7.5l40.09,23.14a9.57,9.57,0,0,0,8.66,0L384.74,325a9.59,9.59,0,0,0,4.33-7.5v-8.77a9.58,9.58,0,0,0-4.33-7.5l-40.08-23.14A9.57,9.57,0,0,0,336,278.12Z" style="fill: rgb(55, 71, 79); transform-origin: 312.465px 329.242px;" id="el6vbpxww6id2" class="animable"></path><path d="M284.61,362.65v18.77a8.83,8.83,0,0,1-4.33-1l-40.09-23.14a9.58,9.58,0,0,1-4.33-7.5V341a9.69,9.69,0,0,1,3.89-7.22c-1.94,1.39-1.79,3.43.44,4.72l40.09,23.14A8.86,8.86,0,0,0,284.61,362.65Z" style="fill: rgb(38, 50, 56); transform-origin: 260.235px 357.602px;" id="elh1e98w6i455" class="animable"></path><path d="M288.94,361.62l95.8-55.36c2.39-1.38,2.39-3.62,0-5l-40.08-23.14a9.57,9.57,0,0,0-8.66,0l-95.81,55.36c-2.39,1.38-2.39,3.62,0,5l40.09,23.14A9.57,9.57,0,0,0,288.94,361.62Z" style="fill: rgb(69, 90, 100); transform-origin: 312.465px 319.87px;" id="el28qvomzb5ac" class="animable"></path><g id="freepik--Character--inject-142" class="animable" style="transform-origin: 334.073px 309.794px;"><path d="M325.81,278.65l-33.22.91-.37-36.1a16.6,16.6,0,0,1,16.15-17.05h0a16.61,16.61,0,0,1,17.06,16.15Z" style="fill: rgb(38, 50, 56); transform-origin: 309.012px 252.982px;" id="el587cywbedwk" class="animable"></path><path d="M316.59,261.63c2.36-.27,5.74-1.84,9.22,4.65S336,286.68,336,286.68l6.67-7.58,5.12,4.14s-7.68,11.65-9.89,13.85c-1.75,1.74-3.83,2-6.1-.92-2.67-3.39-11.09-17.07-11.09-17.07Z" style="fill: rgb(255, 168, 167); transform-origin: 332.19px 279.828px;" id="el4c83ed0oli2" class="animable"></path><path d="M364.51,281.67a.87.87,0,0,0-.67-1.41.85.85,0,0,0-.62.27c0-.09,0-.18,0-.27a2.62,2.62,0,0,0-2.63-2.62,2.56,2.56,0,0,0-1.29.34,1.15,1.15,0,0,0-1.05-1.6,1.16,1.16,0,0,0-.59.16,2.73,2.73,0,0,0,0-.41,3,3,0,0,0-5.61-1.36,1,1,0,0,0-1.91,0,2.33,2.33,0,0,0-4.31,1.23,2,2,0,0,0,0,.35.86.86,0,0,0-1.41.67h0a2,2,0,0,0-1-.28,2.08,2.08,0,0,0-2.05,1.79,1.33,1.33,0,0,0-.45-.08,1.28,1.28,0,0,0-1.29,1.29,1.44,1.44,0,0,0,.08.46,3,3,0,0,0,1.12,5.83l10.85,7.31,11.61-7.48a2.26,2.26,0,0,0,1.19-4.18Zm-1.52-.32v0Z" style="fill: rgb(245, 245, 245); transform-origin: 351.622px 283.293px;" id="elpip7egb8qob" class="animable"></path><polygon points="354.5 290.12 354.12 312.69 356.49 311.33 357.26 288.52 354.5 290.12" style="fill: rgb(250, 250, 250); transform-origin: 355.69px 300.605px;" id="eliiats5pam6" class="animable"></polygon><polygon points="357.26 288.52 356.49 311.33 358.84 309.97 360.03 286.93 357.26 288.52" style="fill: rgb(255, 228, 0); transform-origin: 358.26px 299.13px;" id="elaoid5ao0xg6" class="animable"></polygon><path d="M352.49,291.28a1.47,1.47,0,0,1-.74.18v22.35a1.58,1.58,0,0,0,.74-.17l1.63-.95.38-22.57Z" style="fill: rgb(255, 228, 0); transform-origin: 353.125px 301.965px;" id="elixffiwrpzw" class="animable"></path><path d="M361.18,308.62l1.59-.92a1.82,1.82,0,0,0,.81-1.27l2-22.71-2.78,1.61Z" style="fill: rgb(255, 228, 0); transform-origin: 363.38px 296.17px;" id="el7qu76kdxpx" class="animable"></path><polygon points="360.03 286.93 358.84 309.97 361.18 308.62 362.8 285.33 360.03 286.93" style="fill: rgb(250, 250, 250); transform-origin: 360.82px 297.65px;" id="el5om67o6qhdw" class="animable"></polygon><polygon points="349 290.12 349.38 312.69 347.02 311.33 346.25 288.52 349 290.12" style="fill: rgb(255, 228, 0); transform-origin: 347.815px 300.605px;" id="eltdv8oe3msjl" class="animable"></polygon><polygon points="346.25 288.52 347.02 311.33 344.67 309.97 343.48 286.93 346.25 288.52" style="fill: rgb(224, 224, 224); transform-origin: 345.25px 299.13px;" id="el0cc3mm22ua1t" class="animable"></polygon><path d="M351,291.28a1.46,1.46,0,0,0,.73.18v22.35a1.57,1.57,0,0,1-.73-.17l-1.64-.95L349,290.12Z" style="fill: rgb(224, 224, 224); transform-origin: 350.365px 301.965px;" id="eljpa28x7a0rj" class="animable"></path><path d="M342.33,308.62l-1.59-.92a1.83,1.83,0,0,1-.82-1.27l-2-22.71,2.79,1.61Z" style="fill: rgb(224, 224, 224); transform-origin: 340.125px 296.17px;" id="elq1u4b0231gp" class="animable"></path><polygon points="343.48 286.93 344.67 309.97 342.33 308.62 340.71 285.33 343.48 286.93" style="fill: rgb(255, 228, 0); transform-origin: 342.69px 297.65px;" id="el59k33extd2" class="animable"></polygon><g id="elmlfr2lh2nss"><polygon points="349 290.12 349.38 312.69 347.02 311.33 346.25 288.52 349 290.12" style="opacity: 0.1; transform-origin: 347.815px 300.605px;" class="animable"></polygon></g><g id="elb765hfza0io"><polygon points="343.48 286.93 344.67 309.97 342.33 308.62 340.71 285.33 343.48 286.93" style="opacity: 0.1; transform-origin: 342.69px 297.65px;" class="animable"></polygon></g><path d="M351.17,286.26a1.46,1.46,0,0,1-1.17.6,1.43,1.43,0,0,1-.37-2.82,1.37,1.37,0,0,0-.28.84,1.44,1.44,0,0,0,1.44,1.43A1.2,1.2,0,0,0,351.17,286.26Z" style="fill: rgb(224, 224, 224); transform-origin: 349.852px 285.45px;" id="elhd8pulz9nc" class="animable"></path><path d="M352.85,286.36a.93.93,0,1,1-1.71-.4.91.91,0,0,0,.23.52.94.94,0,0,0,1.32.07A.7.7,0,0,0,352.85,286.36Z" style="fill: rgb(224, 224, 224); transform-origin: 351.925px 286.674px;" id="elz1ki15mo63j" class="animable"></path><path d="M347.13,279.56a1.44,1.44,0,0,1-1.71,2.13,1.43,1.43,0,0,1-.92-1.48,1.41,1.41,0,0,0,.69.55,1.43,1.43,0,0,0,1.85-.83A1.66,1.66,0,0,0,347.13,279.56Z" style="fill: rgb(224, 224, 224); transform-origin: 345.926px 280.67px;" id="elhd44xymfl7" class="animable"></path><path d="M344.9,280.92a.91.91,0,0,1,0,.85.93.93,0,0,1-1.25.42.92.92,0,0,1-.5-1,.93.93,0,0,0,1.66,0A.75.75,0,0,0,344.9,280.92Z" style="fill: rgb(224, 224, 224); transform-origin: 344.069px 281.604px;" id="el8ykcng3ydn3" class="animable"></path><path d="M359.77,283a1.44,1.44,0,1,1-2.61-.75,1.49,1.49,0,0,0,.33.83,1.43,1.43,0,0,0,2,.19A1.33,1.33,0,0,0,359.77,283Z" style="fill: rgb(224, 224, 224); transform-origin: 358.333px 283.388px;" id="el60vhhx5bmqm" class="animable"></path><path d="M361.32,282.34a.93.93,0,1,1-1.71-.4.93.93,0,0,0,1.55.59A.7.7,0,0,0,361.32,282.34Z" style="fill: rgb(224, 224, 224); transform-origin: 360.395px 282.654px;" id="elf19qoujwodt" class="animable"></path><path d="M357.27,280.76a.93.93,0,0,1-.26,1.76.93.93,0,0,1-1-.53.91.91,0,0,0,.57.08.92.92,0,0,0,.76-1.07A.61.61,0,0,0,357.27,280.76Z" style="fill: rgb(224, 224, 224); transform-origin: 356.906px 281.646px;" id="elvtrlxdbddyg" class="animable"></path><path d="M342.33,277.07c0,.71.93,1.69,1.47,2.23s2.24,1.42,2.7,2.05,1.12.59,1.31-.43-1.52-2.82-1.56-3.36,2.2-.49,3.62.05,2.94,3.08,3.49,4.33,4,1.15,3.9-2.44-1.88-5.29-3.85-6.21a11.51,11.51,0,0,0-6.91-.65c-2.21.5-4.63,2.3-5.79,5.82a1.25,1.25,0,0,1,.69.06A2.05,2.05,0,0,1,342.33,277.07Z" style="fill: rgb(255, 168, 167); transform-origin: 348.986px 277.523px;" id="elmwf94760obf" class="animable"></path><path d="M277.17,272.12c3.07-1.12,20.08-8.41,25.84-8.3l.62,14.15-18.3,8.31Z" style="fill: rgb(224, 224, 224); transform-origin: 290.4px 275.049px;" id="el8rclgdkcywh" class="animable"></path><path d="M347.88,352.84c-.58.61-1.24,1.31-1.17,2.08a7.84,7.84,0,0,0,2.07,4.34c1.6,1.73,2.66,5,3,7.29s.5,8,3.35,10.22,9.76,3.38,9.76-.79-8.25-20.24-8.25-20.24Z" style="fill: rgb(38, 50, 56); transform-origin: 355.797px 365.807px;" id="el92vsdwcabn9" class="animable"></path><path d="M351.71,355.52a63.15,63.15,0,0,1,2.79,9c.7,3.35,1.69,5.71,3.4,6.61s4.26.74,3.3-1.54-4.61-13.83-4.61-13.83Z" style="fill: rgb(242, 143, 143); transform-origin: 356.56px 363.58px;" id="elkd8usj0mz8" class="animable"></path><path d="M329.63,298.47s13.58,6.21,20.18,9.76,12.89,7,14.2,9.87c1.39,3,1,10.22.31,17.14s-2.24,19.35-2.24,19.35l-19.34-29-19.43-12.84Z" style="fill: rgb(255, 228, 0); transform-origin: 344.128px 326.53px;" id="elki3njzgl75" class="animable"></path><g id="elc8m6xfrovt"><path d="M354.72,329c-1.91-4.44-6.07-7.39-10-9.8-3.1-1.92-10.83-6.42-13.86-8.18a14.13,14.13,0,0,0,1-4.76s-.95,2.18-2.07,4.15h0l-.81,1.33,19.9,14.85L362.55,351S356.63,333.39,354.72,329Z" style="opacity: 0.1; transform-origin: 345.765px 328.63px;" class="animable"></path></g><path d="M363.73,376.29c-.56.37-.48,1.75-.43,2.77s-.67,2.34.8,3.9,3.95,1.7,6,3.84,5.09,6.07,10.61,6.36,9.31-2.13,10.05-3.88-.38-3.11-4.11-4.52c-4-1.5-5.08-1.94-5.08-1.94Z" style="fill: rgb(38, 50, 56); transform-origin: 377.071px 384.737px;" id="elgljxss8i5to" class="animable"></path><path d="M367.73,364.4s3.72,6.72,5.81,9.75a38.09,38.09,0,0,0,8.27,8.2c.7.53,2.23,1.48,2.8,1.91a1,1,0,0,1,.22,1.59c-.92,1.34-5.75,2.61-8.91,1.13s-6.66-4.83-8.63-6.15c-1-.65-1.92-1.28-2.61-1.75a2.25,2.25,0,0,1-1-2c0-.23,0-.49,0-.8,0-1.65-3.37-7.7-3.37-7.7Z" style="fill: rgb(255, 168, 167); transform-origin: 372.72px 376.022px;" id="elj59xv765vle" class="animable"></path><path d="M299.58,306.14c.06,5.52.33,8.6,3.23,13.64s10,8.22,18.29,11c6.9,2.32,17,5.63,19.06,6.06s2.43,1.51,2.9,5.08,2.86,9.06,8.25,15.45a169.8,169.8,0,0,1,10.95,14.83s5.63,0,7.78-3.75c0,0-15.67-37-18.18-41.24S329,311.69,329,311.69s.34-7.65.61-13.22Z" style="fill: rgb(255, 228, 0); transform-origin: 334.81px 335.335px;" id="elajoax8dkh3h" class="animable"></path><path d="M303,263.82l-4.9,2.46s3.38,3.39,2.45,11.72c-.65,5.9-2,6.41-5,8.07,4,9.06,4,22.4,4,22.4s7.05,3.78,19.86.14c11.26-3.19,10.14-10.14,10.14-10.14l-4.84-3.73-1.09-8.82s3.81-3.83,2.16-10.65-9.27-13.64-9.27-13.64h-3Z" style="fill: rgb(250, 250, 250); transform-origin: 312.565px 285.911px;" id="el1f57ild71ur" class="animable"></path><path d="M327.82,303.79c-5.73,2.14-14,1.8-17.9,0-5.48-2.53-7.77-9.48-7.32-13.91.74-7.23.13-12.12-1.6-16.6h-.38a22.71,22.71,0,0,1-.06,4.71c-.65,5.9-2,6.41-5,8.07,3.75,8.84,4,22.4,4,22.4s7.05,3.78,19.86.14c3.64-1,6.57-2.63,8.33-4.82Z" style="fill: rgb(240, 240, 240); transform-origin: 311.69px 291.731px;" id="el5ktb7sn6byo" class="animable"></path><path d="M318.81,233.57c1.78,1,4.07,5.34,4.1,14.59,0,7.85-2.45,9.85-3.71,10.44s-3.73.32-6.14,0l.05,3.25s4.31,4.72,4.16,6.88S311.75,272,308.6,270a25.17,25.17,0,0,1-5.87-6l-.24-10.87s-1.37,1.41-3.81-.61c-2-1.67-2.76-4.56-1.27-6.16a3.43,3.43,0,0,1,5.49.94,18.89,18.89,0,0,0,8.83-2.89A14.32,14.32,0,0,0,318.81,233.57Z" style="fill: rgb(255, 168, 167); transform-origin: 309.769px 252.309px;" id="elgw3rr16jikn" class="animable"></path><path d="M314.11,246.43a1,1,0,0,1-.9,1.1,1,1,0,0,1-1.07-.95,1,1,0,1,1,2-.15Z" style="fill: rgb(38, 50, 56); transform-origin: 313.139px 246.517px;" id="elalwh1x5n5c" class="animable"></path><path d="M314.55,253.07l2.31.67a1.18,1.18,0,0,1-1.46.86A1.27,1.27,0,0,1,314.55,253.07Z" style="fill: rgb(242, 143, 143); transform-origin: 315.685px 253.856px;" id="el4ugitp44f2t" class="animable"></path><path d="M322.11,243.18l-2-1.32a1.15,1.15,0,0,1,1.64-.39A1.28,1.28,0,0,1,322.11,243.18Z" style="fill: rgb(38, 50, 56); transform-origin: 321.202px 242.228px;" id="elykla6d231xa" class="animable"></path><path d="M321.71,245.51a1,1,0,1,1-1.06-.95A1,1,0,0,1,321.71,245.51Z" style="fill: rgb(38, 50, 56); transform-origin: 320.711px 245.558px;" id="el4bzus4dt5be" class="animable"></path><polygon points="317.25 244.58 317.37 251 320.46 249.95 317.25 244.58" style="fill: rgb(242, 143, 143); transform-origin: 318.855px 247.79px;" id="el6xas6fjx8iv" class="animable"></polygon><path d="M313.06,258.59c-2.52-.26-7.75-1.61-8.62-3.64a5.38,5.38,0,0,0,1.89,2.57c1.59,1.28,6.78,2.64,6.78,2.64Z" style="fill: rgb(242, 143, 143); transform-origin: 308.775px 257.555px;" id="elbj1brphi00d" class="animable"></path><path d="M313.11,261.84v-1.68s4.08-.73,6.23,0a17.41,17.41,0,0,1,5.38,3.11,8.58,8.58,0,0,1,1.94,5.09c-.05,2.28-2.24,3.07-5.19,1.22-1.59-1-2.2-2.92-3.25-3.91A14.75,14.75,0,0,1,313.11,261.84Z" style="fill: rgb(177, 102, 104); transform-origin: 319.885px 265.222px;" id="elcqifgr9lnbm" class="animable"></path><path d="M298.11,266.28c-4.45,2.05-7.14,3.36-8.59,10s-7.29,38.35-7.29,38.35l6.92,2.21s5.09-15.73,6.53-21,4.26-13.18,4.88-17.85S301.68,270.1,298.11,266.28Z" style="fill: rgb(255, 168, 167); transform-origin: 291.614px 291.56px;" id="el27onhbr99p1" class="animable"></path></g><g id="elvssc3zo0o7d"><rect x="296.48" y="387.48" width="7.54" height="12.9" style="fill: rgb(177, 102, 104); transform-origin: 300.25px 393.93px; transform: rotate(180deg);" class="animable"></rect></g><polygon points="316.81 389.82 324.34 390.08 324.72 376.43 317.19 376.17 316.81 389.82" style="fill: rgb(177, 102, 104); transform-origin: 320.765px 383.125px;" id="elvpazadahowo" class="animable"></polygon><path d="M304,397v-1.34c.79.35,4.35,7.88,7.6,10.85,2.58,2.35,7.13,5.58,7,7.81-.15,2.89-4.26,4.17-7.81,3.33-2.77-.65-6.73-2.33-8.63-4.38s-2.51-4.74-3.51-6.08-3.27-2.84-3.81-4.4c-.29-.85.06-2.72.47-4.29s.79-3.05,1.29-2.91v.89a6.45,6.45,0,0,0,4.09,1.39C301.92,397.9,304,397.91,304,397Z" style="fill: rgb(38, 50, 56); transform-origin: 306.668px 406.742px;" id="elw3r5dngm37" class="animable"></path><path d="M324.42,387.76c.39,0,.71.56,1.57,1.5a21.12,21.12,0,0,0,5.06,3.15c2.82,1.41,10.21,3.31,12.69,4.42,1.55.7,1.16,3.11-1,4.46-1.64,1-6.86,2-11.5.95-2.54-.57-6.39-2.32-8.27-2.62-2.07-.32-5.87-.72-7.41-1.78s-.92-3.33-.49-5.28c.48-2.12,1.16-5.38,1.86-5.23l0,.67c.91,1.37,5.52,1.93,7.51.92Z" style="fill: rgb(38, 50, 56); transform-origin: 329.628px 395.006px;" id="el3motgdogcns" class="animable"></path><path d="M258.49,327.56c2.06,9.48,8.48,15,20.07,19.62,9.21,3.64,17.92,6.73,17.92,6.73a66.54,66.54,0,0,0-1.72,14.62c-.07,7.35,1.33,23.63,1.33,23.63s5,2.11,8.44-.08c0,0,1.86-12.62,3.28-21.82,2.21-14.35,3.77-21.58,3.12-24.28-.4-1.69-6.38-5.9-11.64-9.5l15.65,7.18a84.63,84.63,0,0,0-.4,9.5c.26,10,2.27,29.63,2.27,29.63s5.48,2.45,8.2.33c0,0,6.33-46.75,5.2-50.14-1.32-4-5.61-5.53-26.68-14.5C298.67,316.4,291.4,314,291.4,314Z" style="fill: rgb(255, 228, 0); transform-origin: 294.418px 353.537px;" id="eltq07j33qxx8" class="animable"></path><g id="elwfc8hgfxzgo"><path d="M258.49,327.56c2.06,9.48,8.48,15,20.07,19.62,9.21,3.64,17.92,6.73,17.92,6.73a66.54,66.54,0,0,0-1.72,14.62c-.07,7.35,1.33,23.63,1.33,23.63s5,2.11,8.44-.08c0,0,1.86-12.62,3.28-21.82,2.21-14.35,3.77-21.58,3.12-24.28-.4-1.69-6.38-5.9-11.64-9.5l15.65,7.18a84.63,84.63,0,0,0-.4,9.5c.26,10,2.27,29.63,2.27,29.63s5.48,2.45,8.2.33c0,0,6.33-46.75,5.2-50.14-1.32-4-5.61-5.53-26.68-14.5C298.67,316.4,291.4,314,291.4,314Z" style="opacity: 0.1; transform-origin: 294.418px 353.537px;" class="animable"></path></g><path d="M259.16,275.49a23.84,23.84,0,0,0-3.52,12.15l-1.39,14.72c.67,11.93,1.3,16.76,3.37,25.3,5.35,5.82,27.84-.92,33.78-13.62,0,0-2.86-16.64-3.41-28-.39-8.06-3.1-13.77-10.82-13.94l-9.9,1.36Z" style="fill: rgb(245, 245, 245); transform-origin: 272.825px 300.937px;" id="el7u4s04b4uoa" class="animable"></path><g id="ely9pozbx1bz9"><circle cx="280.49" cy="250.05" r="10.84" style="fill: rgb(38, 50, 56); transform-origin: 280.49px 250.05px; transform: rotate(-45deg);" class="animable"></circle></g><path d="M262.76,256.53s1.66,7.8,2.33,9.09a3.53,3.53,0,0,0,2,1.64l-.11-5.49Z" style="fill: rgb(38, 50, 56); transform-origin: 264.925px 261.895px;" id="eljcn8ytyoca" class="animable"></path><path d="M264.85,245.34a3.85,3.85,0,0,0-3.19,1.12c-1.37,1.4-.6,5.78,1.1,10.07l3.13.35Z" style="fill: rgb(38, 50, 56); transform-origin: 263.423px 251.097px;" id="elxd3qlt9bz5m" class="animable"></path><path d="M266.83,256.89c-.63.37-1.52-.83-2.3-1.64s-3.3-1.92-4.56.74,1.11,6.28,3.1,6.9c3.43,1.08,3.95-1.12,3.95-1.12l.26,12.37c3,3.3,13.06,2.51,11.16-.33v-3.76a21.81,21.81,0,0,0,4.62.24c2.52-.39,4.11-2.38,4.87-5.11,1.23-4.39,1.7-7.93.66-16.55-1.15-9.45-12.14-9.55-18.08-5.81S266.83,256.89,266.83,256.89Z" style="fill: rgb(177, 102, 104); transform-origin: 274.39px 258.409px;" id="el5oiae83mlu3" class="animable"></path><path d="M266.83,257.94c-.31,0-1.51-2-2.3-2.69-1.08-1,.32-9.91.32-9.91a4.23,4.23,0,0,1,1-4.51c1.49-1.64,4-1.82,8.2-2.48,2.22-.35,5.59-1,7.8-1.39,2.65-.49,4.84-1,6.71.61a4.71,4.71,0,0,1,1.3,5.27,4.86,4.86,0,0,1-2.66,2.43s-1.15,1-5.17,1.51a59.06,59.06,0,0,1-11.13-.21c-1.16-.16-1.41,1-2,4.06C268.35,253.33,267.89,257.92,266.83,257.94Z" style="fill: rgb(38, 50, 56); transform-origin: 277.152px 247.209px;" id="elum6qiqmu0b" class="animable"></path><path d="M264.85,246l-3.79-2a2.1,2.1,0,0,1,2.87-1A2.26,2.26,0,0,1,264.85,246Z" style="fill: rgb(38, 50, 56); transform-origin: 263.077px 244.384px;" id="elppr09145ti" class="animable"></path><path d="M278.43,270.05s-5.63-1.14-7.6-2.18a6.52,6.52,0,0,1-2.72-2.69,8.9,8.9,0,0,0,1.54,3.17c1.44,1.84,8.78,3.2,8.78,3.2Z" style="fill: rgb(154, 74, 77); transform-origin: 273.27px 268.365px;" id="el34sf5ua1e44" class="animable"></path><path d="M277.07,255.48A1.13,1.13,0,1,1,276,254.3,1.16,1.16,0,0,1,277.07,255.48Z" style="fill: rgb(38, 50, 56); transform-origin: 275.941px 255.428px;" id="eluaznfa7sd6" class="animable"></path><path d="M275.26,250.81l-2.41,1.33a1.45,1.45,0,0,1,.56-1.92A1.34,1.34,0,0,1,275.26,250.81Z" style="fill: rgb(38, 50, 56); transform-origin: 273.974px 251.097px;" id="el3afjvsihev1" class="animable"></path><path d="M277.92,263.27l2.57,1a1.35,1.35,0,0,1-1.75.85A1.43,1.43,0,0,1,277.92,263.27Z" style="fill: rgb(154, 74, 77); transform-origin: 279.157px 264.236px;" id="elowmhpldln7" class="animable"></path><path d="M287.42,251.8l-2.2-1.69a1.34,1.34,0,0,1,1.91-.3A1.46,1.46,0,0,1,287.42,251.8Z" style="fill: rgb(38, 50, 56); transform-origin: 286.454px 250.668px;" id="elxnxvzi49hm" class="animable"></path><path d="M286.46,255.16a1.13,1.13,0,1,1-1.13-1.18A1.17,1.17,0,0,1,286.46,255.16Z" style="fill: rgb(38, 50, 56); transform-origin: 285.331px 255.11px;" id="ely5t9zk6gew" class="animable"></path><polygon points="280.88 254.25 281.01 261.09 285.06 260.2 280.88 254.25" style="fill: rgb(154, 74, 77); transform-origin: 282.97px 257.67px;" id="elp067cbar05f" class="animable"></polygon><g id="el48jtgk90kwn"><path d="M299.29,336.48l-9.05-4.85s3.69-2.66,4.18-6.12c0,0,.22,4.25-1.38,6.12l19.63,11Z" style="opacity: 0.15; transform-origin: 301.455px 334.07px;" class="animable"></path></g><path d="M269.36,399.33V357.74a9.6,9.6,0,0,0-4.33-7.5L220.61,324.6l-3.4-25.54a11.49,11.49,0,0,0-5-7.45l-3.52-2c-2.39-1.37-4.33-.25-4.33,2.5v69.74a9.58,9.58,0,0,0,4.33,7.5L265,401.83C267.41,403.21,269.36,402.08,269.36,399.33Z" style="fill: rgb(38, 50, 56); transform-origin: 236.86px 345.722px;" id="elvpbkyp3drp" class="animable"></path><path d="M281.54,350.7v41.6a2.62,2.62,0,0,1,0,.28,9.67,9.67,0,0,1-4.28,7.2l0,0-3.52,2a1.73,1.73,0,0,1-.33.17,1.51,1.51,0,0,1-.18.09l-.05,0a3,3,0,0,1-.35.13,10.05,10.05,0,0,1-6.37.18,6.09,6.09,0,0,1-.75-.28c2.08.86,3.69-.31,3.7-2.8h0V357.74a9.6,9.6,0,0,0-4.33-7.5l-7.86-4.54-36.56-21.1,7.86-4.54a9.64,9.64,0,0,1,8.66,0l32.23,18.61,7.85,4.53A9.59,9.59,0,0,1,281.54,350.7Z" style="fill: rgb(69, 90, 100); transform-origin: 251.102px 360.908px;" id="elw1c53660gm" class="animable"></path><path d="M269.36,357.74v41.59h0c0,2.49-1.62,3.66-3.7,2.8a6.09,6.09,0,0,0,.75.28,10.05,10.05,0,0,0,6.37-.18,3,3,0,0,0,.35-.13l.05,0a1.51,1.51,0,0,0,.18-.09,1.73,1.73,0,0,0,.33-.17l3.52-2,0,0a9.67,9.67,0,0,0,4.28-7.2,2.62,2.62,0,0,0,0-.28V350.7a8.8,8.8,0,0,0-1.27-4.26l-12.18,7A8.94,8.94,0,0,1,269.36,357.74Z" style="fill: rgb(55, 71, 79); transform-origin: 273.577px 374.641px;" id="el92px87497oo" class="animable"></path><path d="M255.9,279.1c-3.15,1.12-12.22,20.35-14.18,24.11s-7.14,15.37-6.13,20.05,20.92,14.56,22.9,16.53c2.37,2.38,3,3.53,6.55,3.9,2.9.31,3.74,2.58,6.52,3.78s7.62-.89,5.47-4.85c-2.53-4.68-4.61-5.71-6.92-6.66-3.21-1.32-5.15-1.43-7.35-2.79s-15.07-13.57-15.07-13.57l6.56-12.79s4-9.52,4.33-16.81S255.9,279.1,255.9,279.1Z" style="fill: rgb(177, 102, 104); transform-origin: 256.513px 313.454px;" id="elngilghrsib" class="animable"></path><path d="M259.16,275.49c-6,2.19-9.1,8.21-12.5,15s-6.48,14.11-6.48,14.11a24.51,24.51,0,0,0,12.36,6.87L259,299.19S265.89,285.74,259.16,275.49Z" style="fill: rgb(224, 224, 224); transform-origin: 251.145px 293.48px;" id="elpi9a3wn989" class="animable"></path></g><defs>     <filter id="active" height="200%">         <feMorphology in="SourceAlpha" result="DILATED" operator="dilate" radius="2"></feMorphology>                <feFlood flood-color="#32DFEC" flood-opacity="1" result="PINK"></feFlood>        <feComposite in="PINK" in2="DILATED" operator="in" result="OUTLINE"></feComposite>        <feMerge>            <feMergeNode in="OUTLINE"></feMergeNode>            <feMergeNode in="SourceGraphic"></feMergeNode>        </feMerge>    </filter>    <filter id="hover" height="200%">        <feMorphology in="SourceAlpha" result="DILATED" operator="dilate" radius="2"></feMorphology>                <feFlood flood-color="#ff0000" flood-opacity="0.5" result="PINK"></feFlood>        <feComposite in="PINK" in2="DILATED" operator="in" result="OUTLINE"></feComposite>        <feMerge>            <feMergeNode in="OUTLINE"></feMergeNode>            <feMergeNode in="SourceGraphic"></feMergeNode>        </feMerge>            <feColorMatrix type="matrix" values="0   0   0   0   0                0   1   0   0   0                0   0   0   0   0                0   0   0   1   0 "></feColorMatrix>    </filter></defs></svg>