<svg class="animated" id="freepik_stories-opened" xmlns="http://www.w3.org/2000/svg" viewBox="0 0 500 500" version="1.1" xmlns:xlink="http://www.w3.org/1999/xlink" xmlns:svgjs="http://svgjs.com/svgjs"><style>svg#freepik_stories-opened:not(.animated) .animable {opacity: 0;}svg#freepik_stories-opened.animated #freepik--Store--inject-9 {animation: 1.5s Infinite  linear shake;animation-delay: 0s;}            @keyframes shake {                10%, 90% {                    transform: translate3d(-1px, 0, 0);                  }                  20%, 80% {                    transform: translate3d(2px, 0, 0);                  }                  30%, 50%, 70% {                    transform: translate3d(-4px, 0, 0);                  }                  40%, 60% {                    transform: translate3d(4px, 0, 0);                  }            }        </style><g id="freepik--Floor--inject-9" class="animable" style="transform-origin: 253.11px 339.085px;"><path id="freepik--floor--inject-9" d="M103.75,425c82.49,47.45,216.23,47.45,298.72,0s82.49-124.38,0-171.83-216.23-47.45-298.72,0S21.26,377.58,103.75,425Z" style="fill: rgb(245, 245, 245); transform-origin: 253.11px 339.085px;" class="animable"></path></g><g id="freepik--Shadows--inject-9" class="animable" style="transform-origin: 302.628px 375.97px;"><path id="freepik--Shadow--inject-9" d="M416.91,333.55c-9.7,5.18-25.43,5.18-35.13,0s-9.69-13.6,0-18.79,25.43-5.19,35.13,0S426.6,328.36,416.91,333.55Z" style="fill: rgb(224, 224, 224); transform-origin: 399.345px 324.151px;" class="animable"></path><path id="freepik--shadow--inject-9" d="M331.6,355.75c-9.7,5.19-25.42,5.19-35.12,0s-9.7-13.6,0-18.78,25.42-5.19,35.12,0S341.3,350.57,331.6,355.75Z" style="fill: rgb(224, 224, 224); transform-origin: 314.04px 346.362px;" class="animable"></path><path id="freepik--shadow--inject-9" d="M292.48,369c-9.7,5.19-25.42,5.19-35.12,0s-9.7-13.6,0-18.79,25.42-5.19,35.12,0S302.18,363.85,292.48,369Z" style="fill: rgb(224, 224, 224); transform-origin: 274.92px 359.605px;" class="animable"></path><path id="freepik--shadow--inject-9" d="M223.47,437.18c-9.7,5.19-25.42,5.19-35.12,0s-9.7-13.6,0-18.79,25.42-5.19,35.12,0S233.17,432,223.47,437.18Z" style="fill: rgb(224, 224, 224); transform-origin: 205.91px 427.785px;" class="animable"></path></g><g id="freepik--Store--inject-9" class="animable animator-active" style="transform-origin: 222.425px 204.991px;"><path d="M88.46,372.6l-3.79-2.19a4.77,4.77,0,0,1-2.16-3.75V179.35a4.78,4.78,0,0,1,2.17-3.75L324.06,37.39a4.79,4.79,0,0,1,4.33,0l3.79,2.19a4.78,4.78,0,0,1,2.17,3.75V230.64a4.8,4.8,0,0,1-2.17,3.75L92.79,372.6A4.79,4.79,0,0,1,88.46,372.6Z" style="fill: rgb(55, 71, 79); transform-origin: 208.43px 204.995px;" id="eldrunfbkyfc" class="animable"></path><path d="M334.33,43c-.15-1.13-1.06-1.54-2.14-.9L92.8,180.29a4.4,4.4,0,0,0-1.53,1.61l-8.13-4.69a4.66,4.66,0,0,1,1.53-1.61L324.07,37.39a4.73,4.73,0,0,1,4.33,0l3.79,2.19A4.83,4.83,0,0,1,334.33,43Z" style="fill: rgb(69, 90, 100); transform-origin: 208.735px 109.383px;" id="elqs4hbdzwcj" class="animable"></path><path d="M92.45,372.77l0,0-.13,0a.94.94,0,0,1-.15.06l-.17.05-.32.08-.12,0a4.72,4.72,0,0,1-3-.44l-3.8-2.19a4.8,4.8,0,0,1-2.16-3.75V179.35a4.47,4.47,0,0,1,.63-2.14l8.13,4.69a4.37,4.37,0,0,0-.64,2.14V371.35c0,1,.49,1.55,1.2,1.55a1.15,1.15,0,0,0,.31,0Z" style="fill: rgb(38, 50, 56); transform-origin: 87.525px 275.124px;" id="el1m0xzghyhbi" class="animable"></path><polygon points="98.75 186.23 98.75 369.16 326.23 237.83 326.23 54.9 98.75 186.23" style="fill: rgb(250, 250, 250); transform-origin: 212.49px 212.03px;" id="elpiyua54qxv" class="animable"></polygon><polygon points="163.74 331.63 163.74 181.54 261.23 125.25 261.24 275.35 257.05 277.77 257.17 132.29 167.81 183.88 167.81 329.29 163.74 331.63" style="fill: rgb(224, 224, 224); transform-origin: 212.49px 228.44px;" id="elifxrqu3i22" class="animable"></polygon><polygon points="98.75 369.16 102.82 366.81 102.82 193.27 321.67 66.91 322.16 240.17 326.23 237.83 326.23 54.9 98.75 186.23 98.75 369.16" style="fill: rgb(224, 224, 224); transform-origin: 212.49px 212.03px;" id="elfzu5dg4hnp5" class="animable"></polygon><g id="freepik--toldo--inject-9" class="animable" style="transform-origin: 230.545px 133.567px;"><polygon points="98.75 186.23 309.62 64.48 344.76 84.78 306.67 106.77 303.29 108.72 133.9 206.52 98.75 186.23" style="fill: rgb(250, 250, 250); transform-origin: 221.755px 135.5px;" id="eldlyk3p3ex4q" class="animable"></polygon><polygon points="98.75 186.23 133.9 206.52 151.47 196.38 116.33 176.08 98.75 186.23" style="fill: rgb(255, 230, 36); transform-origin: 125.11px 191.3px;" id="elv5udzp0kzbg" class="animable"></polygon><polygon points="133.9 165.94 169.04 186.23 186.61 176.08 151.47 155.79 133.9 165.94" style="fill: rgb(255, 230, 36); transform-origin: 160.255px 171.01px;" id="el6apean2it5l" class="animable"></polygon><polygon points="169.04 145.65 204.19 165.94 221.76 155.79 186.61 135.5 169.04 145.65" style="fill: rgb(255, 230, 36); transform-origin: 195.4px 150.72px;" id="elb8xc1gslsuv" class="animable"></polygon><polygon points="204.19 125.36 239.33 145.65 256.9 135.5 221.76 115.21 204.19 125.36" style="fill: rgb(255, 230, 36); transform-origin: 230.545px 130.43px;" id="elcf0v2o1f8ki" class="animable"></polygon><polygon points="239.33 105.06 274.47 125.36 292.05 115.21 256.9 94.92 239.33 105.06" style="fill: rgb(255, 230, 36); transform-origin: 265.69px 110.14px;" id="elp26o2uing9j" class="animable"></polygon><polygon points="274.47 84.77 309.62 105.07 327.19 94.92 292.05 74.63 274.47 84.77" style="fill: rgb(255, 230, 36); transform-origin: 300.83px 89.85px;" id="elmb9v9cs0r5" class="animable"></polygon><polygon points="309.63 64.48 344.77 84.77 362.34 74.63 327.2 54.34 309.63 64.48" style="fill: rgb(255, 230, 36); transform-origin: 335.985px 69.555px;" id="el0mi54k535ag" class="animable"></polygon><g id="ely9pctmmxm5b"><g style="opacity: 0.5; transform-origin: 230.545px 130.43px;" class="animable"><polygon points="98.75 186.23 133.9 206.52 151.47 196.38 116.33 176.08 98.75 186.23" style="fill: rgb(255, 255, 255); transform-origin: 125.11px 191.3px;" id="eliboi5ywxorb" class="animable"></polygon><polygon points="133.9 165.94 169.04 186.23 186.61 176.08 151.47 155.79 133.9 165.94" style="fill: rgb(255, 255, 255); transform-origin: 160.255px 171.01px;" id="el5yw96vn5uoc" class="animable"></polygon><polygon points="169.04 145.65 204.19 165.94 221.76 155.79 186.61 135.5 169.04 145.65" style="fill: rgb(255, 255, 255); transform-origin: 195.4px 150.72px;" id="el0m1ajmlajdcb" class="animable"></polygon><polygon points="204.19 125.36 239.33 145.65 256.9 135.5 221.76 115.21 204.19 125.36" style="fill: rgb(255, 255, 255); transform-origin: 230.545px 130.43px;" id="elc890tkdmlh" class="animable"></polygon><polygon points="239.33 105.06 274.47 125.36 292.05 115.21 256.9 94.92 239.33 105.06" style="fill: rgb(255, 255, 255); transform-origin: 265.69px 110.14px;" id="el72sxq9pg8s5" class="animable"></polygon><polygon points="274.47 84.77 309.62 105.07 327.19 94.92 292.05 74.63 274.47 84.77" style="fill: rgb(255, 255, 255); transform-origin: 300.83px 89.85px;" id="elovzt2ehnj1" class="animable"></polygon><polygon points="309.63 64.48 344.77 84.77 362.34 74.63 327.2 54.34 309.63 64.48" style="fill: rgb(255, 255, 255); transform-origin: 335.985px 69.555px;" id="elah885tzb3hg" class="animable"></polygon></g></g><path d="M133.9,206.52c0,5.6,3.93,7.88,8.78,5.07s8.79-9.61,8.79-15.21Z" style="fill: rgb(255, 230, 36); transform-origin: 142.685px 204.587px;" id="ell4w23lc35do" class="animable"></path><path d="M151.47,196.38c0,5.6,3.93,7.87,8.79,5.07s8.78-9.62,8.78-15.22Z" style="fill: rgb(230, 230, 230); transform-origin: 160.255px 194.44px;" id="el2d621vstlx5" class="animable"></path><path d="M169,186.23c0,5.6,3.94,7.87,8.79,5.07s8.79-9.61,8.79-15.22Z" style="fill: rgb(255, 230, 36); transform-origin: 177.79px 184.29px;" id="el861sd8zmto" class="animable"></path><path d="M186.61,176.08c0,5.61,3.94,7.88,8.79,5.08s8.79-9.62,8.79-15.22Z" style="fill: rgb(230, 230, 230); transform-origin: 195.4px 174.15px;" id="el0ou1jcf0ygkn" class="animable"></path><path d="M204.19,165.94c0,5.6,3.93,7.87,8.79,5.07s8.78-9.61,8.78-15.22Z" style="fill: rgb(255, 230, 36); transform-origin: 212.975px 164px;" id="elmtu989ygff" class="animable"></path><path d="M221.76,155.79c0,5.61,3.93,7.88,8.79,5.07s8.78-9.61,8.78-15.21Z" style="fill: rgb(230, 230, 230); transform-origin: 230.545px 153.858px;" id="elnaq4e3cnnur" class="animable"></path><path d="M239.33,145.65c0,5.6,3.94,7.87,8.79,5.07s8.79-9.62,8.79-15.22Z" style="fill: rgb(255, 230, 36); transform-origin: 248.12px 143.71px;" id="el5rk5tzs4ii6" class="animable"></path><path d="M256.91,135.5c0,5.6,3.93,7.88,8.78,5.07s8.79-9.61,8.79-15.22Z" style="fill: rgb(230, 230, 230); transform-origin: 265.695px 133.562px;" id="eltvgmi3lo0ta" class="animable"></path><path d="M274.48,125.35c0,5.61,3.93,7.88,8.79,5.08s8.78-9.62,8.78-15.22Z" style="fill: rgb(255, 230, 36); transform-origin: 283.265px 123.42px;" id="elenn9zpu6eh" class="animable"></path><path d="M292.05,115.21c0,5.6,3.94,7.87,8.79,5.07s8.78-9.61,8.78-15.22Z" style="fill: rgb(230, 230, 230); transform-origin: 300.835px 113.27px;" id="eldkbyzc2gv5r" class="animable"></path><path d="M309.63,105.06c0,5.61,3.93,7.88,8.78,5.08s8.79-9.62,8.79-15.22Z" style="fill: rgb(255, 230, 36); transform-origin: 318.415px 103.13px;" id="elbbm3afl7q89" class="animable"></path><path d="M344.77,84.77c0,5.61,3.93,7.88,8.79,5.08s8.78-9.62,8.78-15.22Z" style="fill: rgb(255, 230, 36); transform-origin: 353.555px 82.8395px;" id="eljy8iex1gx2" class="animable"></path><path d="M327.2,94.92c0,5.6,3.93,7.87,8.78,5.07s8.79-9.61,8.79-15.22Z" style="fill: rgb(230, 230, 230); transform-origin: 335.985px 92.9796px;" id="eli3ye96c8ok" class="animable"></path></g><path d="M123.13,249.08a.53.53,0,0,1-.24-.06.5.5,0,0,1-.21-.67l12.19-23.45a.48.48,0,0,1,.41-.27.5.5,0,0,1,.44.21l8.13,11.73a.5.5,0,0,1-.13.69.51.51,0,0,1-.7-.12l-7.65-11-11.8,22.72A.5.5,0,0,1,123.13,249.08Z" style="fill: rgb(69, 90, 100); transform-origin: 133.28px 236.855px;" id="elbeyl6nwl68" class="animable"></path><path d="M121.23,248.3l24.1-13.91c1.2-.7,2.17-.14,2.17,1.25V249.4a4.78,4.78,0,0,1-2.17,3.75l-24.1,13.91c-1.2.69-2.17.13-2.17-1.25V252.05A4.78,4.78,0,0,1,121.23,248.3Z" style="fill: rgb(255, 230, 36); transform-origin: 133.28px 250.722px;" id="elsxncfg6bbt9" class="animable"></path><path d="M122.09,257.86c0-2.85,1.46-5.89,3.27-6.93s3.28.29,3.28,3.15-1.47,5.89-3.28,6.93S122.09,260.71,122.09,257.86Zm5.11-3c0-1.73-.81-2.42-1.84-1.82a4.68,4.68,0,0,0-1.84,3.94c0,1.73.81,2.41,1.84,1.82A4.68,4.68,0,0,0,127.2,254.91Z" style="fill: rgb(250, 250, 250); transform-origin: 125.365px 255.969px;" id="elhrxvea6cw65" class="animable"></path><path d="M134,249.44a5.66,5.66,0,0,1-2.21,4.59l-.94.55v3l-1.44.83v-9.7l2.38-1.38C133.07,246.67,134,247.59,134,249.44Zm-1.44.83c0-.71-.33-1.06-.77-.81l-.94.55v2.49l.94-.54A2.07,2.07,0,0,0,132.6,250.27Z" style="fill: rgb(250, 250, 250); transform-origin: 131.705px 252.763px;" id="elzfwvp8h4t9" class="animable"></path><path d="M138.72,251v2.14l-4,2.28v-9.7l3.91-2.26v2.14L136.2,247v1.6l2.25-1.29v2.1l-2.25,1.3v1.72Z" style="fill: rgb(250, 250, 250); transform-origin: 136.72px 249.44px;" id="elzenw3utpsog" class="animable"></path><path d="M144.48,240.08v9.7l-1.08.63L141,246.54v5.27l-1.44.83v-9.7l1.08-.62,2.43,3.86v-5.26Z" style="fill: rgb(250, 250, 250); transform-origin: 142.02px 246.36px;" id="elmdefe9ypek" class="animable"></path></g><g id="freepik--characters-with-scissors--inject-9" class="animable" style="transform-origin: 301.642px 289.486px;"><path d="M282.24,287.06a55.65,55.65,0,0,0,3.3,5.76c3.48,4.66,5.85,5.52,8.22,4.73,3.78-1.25,3.25-2.64.62-4.34a12.61,12.61,0,0,1-3-2.72,9.38,9.38,0,0,0,2.23.42,1.38,1.38,0,0,0,1.48-1.13c0-.3-.72-.28-1.78-.86a14.7,14.7,0,0,0-3.78-1.82,2.72,2.72,0,0,1-1.36-1.22c-.49-.66-5.45-12.43-5.78-15.15,0,0-.5-6.58-1.12-12.71-.53-5.12-1.57-9.08-6.25-9.34-3.51,1.91-2,4.25.08,20.74C275.44,272.34,280.18,283.18,282.24,287.06Z" style="fill: rgb(177, 102, 104); transform-origin: 284.698px 273.245px;" id="el50x6wxbg5v8" class="animable"></path><path d="M274,248.59s3.35-.42,5.21,1.6,2.51,6.05,2.93,9.61.84,7,.84,7a12.27,12.27,0,0,1-9.47,1.53Z" style="fill: rgb(224, 224, 224); transform-origin: 278.245px 258.62px;" id="ela7er1l47c6" class="animable"></path><g id="freepik--character-boy--inject-9" class="animable" style="transform-origin: 274.277px 296.269px;"><circle cx="274.85" cy="232.88" r="6.92" style="fill: rgb(38, 50, 56); transform-origin: 274.85px 232.88px;" id="elswxy3tkbdps" class="animable"></circle><g id="ellc8jywej13"><rect x="258.28" y="349.97" width="4.87" height="8.34" style="fill: rgb(177, 102, 104); transform-origin: 260.715px 354.14px; transform: rotate(180deg);" class="animable"></rect></g><polygon points="275.18 352.48 280.05 352.65 280.29 343.82 275.42 343.65 275.18 352.48" style="fill: rgb(177, 102, 104); transform-origin: 277.735px 348.15px;" id="el95pyzg4tf7" class="animable"></polygon><path d="M258.6,283.83c0,4.65-.6,32.86-.6,32.86-.12,1.34-1.37,3.81-1.1,8.95.37,7,1,25.16,1,25.16s2.29,2.26,5.52,0c0,0,4.41-25.13,5.28-32.06.76-6,2.06-22.46,2.06-22.46l2.7,22.79s-.79,4.54-1,7.75,2.64,19.48,2.64,19.48a5.34,5.34,0,0,0,5.31.2s2.1-24.81,2.6-27.71-1.61-35-1.61-35Z" style="fill: rgb(55, 71, 79); transform-origin: 269.974px 317.797px;" id="el15itvavakj4" class="animable"></path><path d="M263.28,250.16a5.31,5.31,0,0,0-4.28,4.09,17.24,17.24,0,0,0-.4,3.7v25.88c3.42,3.72,15.33,5.45,22.8,0,0,0-.15-22.86-.71-26.61-1-6.53-4.09-8.86-7.23-8.61l-7.52,1.07Z" style="fill: rgb(240, 240, 240); transform-origin: 270px 267.945px;" id="el83kuhwkizem" class="animable"></path><path d="M262.89,237.8a60,60,0,0,0,1.57,6.14,2.41,2.41,0,0,0,1.38,1.11l-.08-3.71Z" style="fill: rgb(38, 50, 56); transform-origin: 264.365px 241.425px;" id="el51wowx89rbo" class="animable"></path><path d="M264.3,230.26a2.59,2.59,0,0,0-2.15.75c-.93,1-.41,3.9.74,6.79l2.11.25Z" style="fill: rgb(38, 50, 56); transform-origin: 263.336px 234.146px;" id="elz6oy0pqd9jo" class="animable"></path><path d="M265.63,238.05c-.42.25-1-.56-1.55-1.11a1.83,1.83,0,0,0-3.07.5c-.87,1.83.75,4.24,2.09,4.66,2.31.73,2.66-.76,2.66-.76l.18,8.35a7.44,7.44,0,0,0,5.61,4.26c4.1.56,3.26-2.83,1.91-4.48v-2.54a14.43,14.43,0,0,0,3.12.16c1.7-.27,2.77-1.61,3.28-3.45.83-3,1.15-5.35.44-11.16-.77-6.38-8.18-6.45-12.19-3.92S265.63,238.05,265.63,238.05Z" style="fill: rgb(177, 102, 104); transform-origin: 270.728px 240.509px;" id="ellc7b6ye0cb8" class="animable"></path><path d="M265.63,238.76c-.21,0-1-1.34-1.55-1.82-.73-.66.22-6.68.22-6.68a2.84,2.84,0,0,1,.7-3c1-1.1,2.67-1.22,5.53-1.67,1.5-.24,3.77-.66,5.26-.93,1.79-.34,3.27-.69,4.53.41a3.17,3.17,0,0,1,.88,3.55,3,3,0,0,1-.51.75,2.89,2.89,0,0,1-1.29.89s-.77.69-3.48,1a40,40,0,0,1-7.51-.14c-.79-.11-1,.65-1.38,2.73C266.66,235.65,266.35,238.75,265.63,238.76Z" style="fill: rgb(38, 50, 56); transform-origin: 272.61px 231.542px;" id="el3gmnv6bogy1" class="animable"></path><path d="M264.3,230.72l-2.56-1.37a1.41,1.41,0,0,1,1.94-.64A1.53,1.53,0,0,1,264.3,230.72Z" style="fill: rgb(38, 50, 56); transform-origin: 263.099px 229.632px;" id="elly89ps8n18" class="animable"></path><path d="M273.46,246.93a29.7,29.7,0,0,1-5.13-1.47,4.34,4.34,0,0,1-1.83-1.82,5.79,5.79,0,0,0,1,2.14c1,1.24,5.92,2.16,5.92,2.16Z" style="fill: rgb(154, 74, 77); transform-origin: 269.98px 245.79px;" id="el48fhbyeixqf" class="animable"></path><path d="M272.54,237.1a.76.76,0,1,1-1.52,0,.76.76,0,0,1,.76-.78A.77.77,0,0,1,272.54,237.1Z" style="fill: rgb(38, 50, 56); transform-origin: 271.78px 237.09px;" id="elbf3xalyrkev" class="animable"></path><path d="M271.74,234.22l-1.63.9a1,1,0,0,1,.38-1.29A.91.91,0,0,1,271.74,234.22Z" style="fill: rgb(38, 50, 56); transform-origin: 270.875px 234.419px;" id="el0ol170ik3xs" class="animable"></path><path d="M273.11,242.36l1.74.65a.91.91,0,0,1-1.18.57A1,1,0,0,1,273.11,242.36Z" style="fill: rgb(154, 74, 77); transform-origin: 273.957px 242.998px;" id="eljyewp0txpah" class="animable"></path><path d="M279.33,234.86l-1.48-1.14a.89.89,0,0,1,1.29-.2A1,1,0,0,1,279.33,234.86Z" style="fill: rgb(38, 50, 56); transform-origin: 278.678px 234.094px;" id="el1hm0guv2bak" class="animable"></path><path d="M278.87,236.88a.76.76,0,1,1-.76-.79A.77.77,0,0,1,278.87,236.88Z" style="fill: rgb(38, 50, 56); transform-origin: 278.11px 236.85px;" id="elekabqnxkrh7" class="animable"></path><polygon points="275 236.16 275.25 240.74 277.64 239.92 275 236.16" style="fill: rgb(154, 74, 77); transform-origin: 276.32px 238.45px;" id="elo5cbap7pmh" class="animable"></polygon><path d="M263.15,355.91v-.69c.47.2,1.55,4.33,3.49,6.1,1.53,1.4,3.63,3,4.17,4.58s-2.93,2.53-4.36,2.27c-1.67-.29-4.56-1.47-5.29-2.56s-1.07-2.69-1.66-3.49-1.95-1.69-2.27-2.62a6.09,6.09,0,0,1,.28-2.56c.23-.86.47-1.81.77-1.72v.53a3.84,3.84,0,0,0,2.44.82C261.43,356.6,263.16,356.46,263.15,355.91Z" style="fill: rgb(38, 50, 56); transform-origin: 264.032px 361.713px;" id="elvx1q8dkdp0s" class="animable"></path><path d="M280.1,351.15c.26,0,.46.36,1,1a10.68,10.68,0,0,0,2.87,2.06c1.82.91,5.37,2.32,7,3,1,.45.95,1.67-.08,2.35s-3.55,1.19-6.55.52c-1.64-.37-3.77-1.88-5.12-1.8s-3.88.06-4.87-.62-.6-2.16-.32-3.42.75-3.48,1.2-3.38v.43c.59.89,3.57,1.25,4.86.6Z" style="fill: rgb(38, 50, 56); transform-origin: 282.703px 355.625px;" id="el86a4ndu97t4" class="animable"></path><path d="M270.73,296.28a18.17,18.17,0,0,0,6.79-3.89,14,14,0,0,1-5.21,4.73l1.12,21.95Z" style="fill: rgb(38, 50, 56); transform-origin: 274.125px 305.73px;" id="eld3b48a1vp9k" class="animable"></path></g><path d="M251.05,291.16a55.72,55.72,0,0,0,.88,6.58c1.46,5.64,3.33,7.32,5.82,7.49,4,.26,4-1.22,2.22-3.79a12.72,12.72,0,0,1-1.78-3.66A9.69,9.69,0,0,0,260.1,299a1.37,1.37,0,0,0,1.8-.48c.13-.27-.56-.54-1.32-1.47a15,15,0,0,0-2.81-3.12,2.73,2.73,0,0,1-.81-1.64c-.2-.8-.34-13.57.38-16.21l3.42-12.28c2.78-1.91,5.75-11.36,1.52-13.37-4,.45-6.87,5.64-11.2,21.68C250.31,275,250.6,286.79,251.05,291.16Z" style="fill: rgb(177, 102, 104); transform-origin: 257.498px 277.845px;" id="el8db8wqkaizr" class="animable"></path><path d="M263.15,250.21a5.1,5.1,0,0,1,1.72,3.85c.12,2.68-1.14,6.53-1.9,8.94s-2.34,6.78-2.34,6.78-6.53-.75-8-4.58c0,0,3.06-9.91,6-13.14A5.52,5.52,0,0,1,263.15,250.21Z" style="fill: rgb(224, 224, 224); transform-origin: 258.754px 259.988px;" id="el18itke4xqgn" class="animable"></path><g id="freepik--Character--inject-9" class="animable" style="transform-origin: 321.855px 282.181px;"><path d="M310,231.52h-1a10.59,10.59,0,0,1-10.59-10.59h0a10.18,10.18,0,0,1,10.18-10.17h1.81a10.17,10.17,0,0,1,10.17,10.17h0A10.58,10.58,0,0,1,310,231.52Z" style="fill: rgb(38, 50, 56); transform-origin: 309.49px 221.14px;" id="elee0sh272i1h" class="animable"></path><path d="M293.47,235.72h0a6.79,6.79,0,0,0,6.8-6.8V216.44h0a6.8,6.8,0,0,0-6.8,6.8Z" style="fill: rgb(38, 50, 56); transform-origin: 296.87px 226.08px;" id="elporsqg3v42r" class="animable"></path><path d="M307.84,348.67l-1.42-1.27a14.52,14.52,0,0,1-3-4.85,6.92,6.92,0,0,1-.52-2.62v-2.84h-5v4.62h0v.13h0c.24,1,2.53,3.79,3.83,5.58a7.18,7.18,0,0,0,4.5,3C308.1,350.68,309.06,350.09,307.84,348.67Z" style="fill: rgb(255, 168, 167); transform-origin: 303.142px 343.785px;" id="eldute2naczb7" class="animable"></path><path d="M322.24,341.09a1.1,1.1,0,0,0,.36-.32c.38-.53.08-.82-.21-1.24a11.28,11.28,0,0,1-.85-1.87c-.23-.55-.53-1.58-.53-1.58s0-.74,0-1V332.2h-5V337h0A9.52,9.52,0,0,0,318,340a4.88,4.88,0,0,0,2.63,1.2,3.21,3.21,0,0,0,1.07.07A1.64,1.64,0,0,0,322.24,341.09Z" style="fill: rgb(255, 168, 167); transform-origin: 319.394px 336.743px;" id="elsxbcxuuokrf" class="animable"></path><path d="M298.87,264.46c-3.86,8.44.14,38.15.14,38.15-.12,1.37-1.68,4.07-2.26,10.09-.69,7.12,1.08,25,1.08,25a5.37,5.37,0,0,0,5,.2s4.75-26.92,5.64-34c.78-6.18,2.28-19.76,2.28-19.76l3,19.75A37.11,37.11,0,0,0,312.4,310c-.4,4.17,3.63,23.55,3.63,23.55a11.11,11.11,0,0,0,5,.15s1.42-25.72,1.8-30.74c.63-8.42-.33-34.72-1.87-39.71Z" style="fill: rgb(55, 71, 79); transform-origin: 309.808px 300.836px;" id="ely87mmq5v4l" class="animable"></path><path d="M310.78,284.14,312,276.3s5.31-1.1,7.71-3.36a13.71,13.71,0,0,1-6.27,4.17l-1.41,6L313.32,301Z" style="fill: rgb(38, 50, 56); transform-origin: 315.245px 286.97px;" id="ely1qj962iyok" class="animable"></path><path d="M302.88,341v-.72c.48.21,1.59,4.45,3.57,6.26,1.58,1.43,3.73,3.09,4.28,4.7s-3,2.58-4.47,2.32c-1.71-.3-4.67-1.51-5.42-2.62s-1.09-2.76-1.69-3.58-2-1.73-2.33-2.68a6.07,6.07,0,0,1,.29-2.62c.23-.89.48-1.86.78-1.77v.54a4,4,0,0,0,2.5.85C301.11,341.66,302.88,341.52,302.88,341Z" style="fill: rgb(38, 50, 56); transform-origin: 303.786px 346.941px;" id="elu0qspxm9fi" class="animable"></path><path d="M321,336.08c.25,0,.53.41,1.1,1a11.17,11.17,0,0,0,2.94,2.12c1.87.93,5.51,2.37,7.15,3.12,1,.46,1,1.7-.08,2.41s-3.63,1.21-6.71.52c-1.68-.37-3.86-1.92-5.24-1.84s-4,.07-5-.64-.61-2.2-.33-3.49.71-3.61,1.18-3.51v.48c.6.91,3.7,1.28,5,.61Z" style="fill: rgb(38, 50, 56); transform-origin: 323.723px 340.673px;" id="ellfv0efqmd68" class="animable"></path><path d="M313.93,234.93a7.14,7.14,0,0,1,6.34,2.84c2,2.6,6.84,12.34,6.84,12.34s11.52-.77,12.08-1.43a1.87,1.87,0,0,0,.49-1.84c-.15-.75-.4-2.4-.57-2.86-.29-.81.91-.59,1.62.17s1,2.23,1.37,2.48,2.81-2.33,4.11-3.82,1.24-2.15,2.11-1.53c.63.44.23,1.32-.7,2.59s-.85.92-1,1.2.23.41.37.53.7.6.73,1a1.46,1.46,0,0,0,.34,1c.24.27.58.43.72.78a1.57,1.57,0,0,1,.08.31,4.45,4.45,0,0,1,.08.81,2.39,2.39,0,0,1-.57,1.31c-.91,1.09-1.5,1.13-2.7,1.79-1,.55-2,.79-3.16,1.3s-15.16,4.13-17.26,3-10.14-13.79-10.14-13.79C312,237.87,313.93,234.93,313.93,234.93Z" style="fill: rgb(255, 168, 167); transform-origin: 331.139px 246.01px;" id="eld5g7gv7oxso" class="animable"></path><path d="M343.13,239.45l9.55-9.63s.12.84-1.87,3.56-7.39,8.48-7.39,8.48l-.6-.5Z" style="fill: rgb(38, 50, 56); transform-origin: 347.751px 235.84px;" id="eld0a5tkhvctc" class="animable"></path><path d="M346.94,226.51a16.55,16.55,0,0,1,0,3.69c-.25,1.49-1.31,10.1-1.31,10.1l-.71,2-.63-.21-.64-2.83s1.86-8.39,2.28-10.16S346.9,226.09,346.94,226.51Z" style="fill: rgb(69, 90, 100); transform-origin: 345.347px 234.364px;" id="elpst6esxzgk" class="animable"></path><path d="M349.45,248.22c-.18-1.7-1.49-2.75-2.05-4s-1.77-3.9-1.77-3.9l-.71,2s.56,2.27.8,3.22a9.63,9.63,0,0,1-.27,3.27c-.13,1,.33,3,2.09,2.95S349.64,249.92,349.45,248.22Zm-1.93,2.35a1.59,1.59,0,1,1,1.23-1.55A1.42,1.42,0,0,1,347.52,250.57Z" style="fill: rgb(255, 230, 36); transform-origin: 347.208px 246.04px;" id="elxie37yf70u8" class="animable"></path><circle cx="344.63" cy="239.43" r="0.48" style="fill: rgb(38, 50, 56); transform-origin: 344.63px 239.43px;" id="elupwn1cwpq19" class="animable"></circle><path d="M343,239.17s-1.38,1.35-1.87,1.71a26.18,26.18,0,0,0-2.62,1.44c-1.24.89-2.66,4.12-1.81,6.13s2.09,1.56,2.75.79.86-1.53,1.67-3.49c1.08-2.62,1.82-4.31,1.82-4.31l.3-2.07Zm-1.85,4.22a15.57,15.57,0,0,0-1.48,2.74c-.52,1.24-.47,1.88-.93,2.4s-1.05.2-1.26-.8a4.87,4.87,0,0,1,.87-3.73c.91-1.36,2-1.75,2.68-1.56C341.27,242.52,341.52,242.8,341.13,243.39Z" style="fill: rgb(255, 230, 36); transform-origin: 339.841px 244.531px;" id="elivi9slrna8" class="animable"></path><path d="M305.68,235.16h0c-4.95.34-5.3,2.73-6.53,5.35a8.6,8.6,0,0,0,.08,6.44l3.13,9.92s-1.61,3.9-3.49,7.59c8.66,4.84,19.47,2.3,22.08-1.23.11-.75-.56-6.6-1-10.42,1.53-3.82,1.93-6.25,1.29-8.78-1.2-4.69-5.83-9.26-7.88-9.1Z" style="fill: rgb(255, 230, 36); transform-origin: 310.048px 251.03px;" id="elpvypgfzi4x" class="animable"></path><path d="M299.34,212.11l1.5,2.41a1.38,1.38,0,0,1-1.95-.4A1.49,1.49,0,0,1,299.34,212.11Z" style="fill: rgb(38, 50, 56); transform-origin: 299.758px 213.437px;" id="elsok9pvkisyh" class="animable"></path><path d="M316.92,215.24c1.17.69,2.62,3.64,2.48,9.81-.12,5.23-1.82,6.52-2.67,6.89s-2.49.15-4.09-.12V235s2.21,2.56,2.07,4-3.19,1.78-5.25.38a13.33,13.33,0,0,1-3.39-3.55V228.2a2,2,0,0,1-2.84.27c-1.76-1.17-1.83-4.07-.8-5.11s3.23-.71,3.64.73a12.67,12.67,0,0,0,5.94-1.77A9.49,9.49,0,0,0,316.92,215.24Z" style="fill: rgb(255, 168, 167); transform-origin: 310.584px 227.756px;" id="elyqrndxl97bc" class="animable"></path><path d="M313,223.73a.66.66,0,1,1-.69-.65A.68.68,0,0,1,313,223.73Z" style="fill: rgb(38, 50, 56); transform-origin: 312.34px 223.74px;" id="elr7xbzeokyc" class="animable"></path><path d="M313.73,228.17l1.53.49a.78.78,0,0,1-1,.54A.84.84,0,0,1,313.73,228.17Z" style="fill: rgb(242, 143, 143); transform-origin: 314.478px 228.705px;" id="elzjyh3wmfrhf" class="animable"></path><path d="M318.37,221.71l-1.34-.92a.78.78,0,0,1,1.11-.22A.84.84,0,0,1,318.37,221.71Z" style="fill: rgb(38, 50, 56); transform-origin: 317.765px 221.068px;" id="eltkhmdq317ea" class="animable"></path><path d="M318.06,223.26a.66.66,0,0,1-.62.71.68.68,0,1,1,.62-.71Z" style="fill: rgb(38, 50, 56); transform-origin: 317.381px 223.293px;" id="el2cw14ua1pbt" class="animable"></path><polygon points="314.85 222.88 314.95 226.84 317.04 226.2 314.85 222.88" style="fill: rgb(242, 143, 143); transform-origin: 315.945px 224.86px;" id="elgbd23v67yev" class="animable"></polygon><path d="M312.64,231.82c-1.68-.22-5.14-1.21-5.68-2.58a3.57,3.57,0,0,0,1.21,1.75c1,.88,4.47,1.88,4.47,1.88Z" style="fill: rgb(242, 143, 143); transform-origin: 309.8px 231.055px;" id="el0jfpw3k8d9rc" class="animable"></path><g id="elwa1z4fccy1"><path d="M307.9,265.4c-2.36-.56-4.75-3.13-3.67-5.65a3.57,3.57,0,0,1,1.51-1.68,1.35,1.35,0,0,1,1.57.17c-1.12-.74-3.09-4.36-3.35-5.68l-1.33-4.45a7.28,7.28,0,0,1,.26-3l-3.48-4-.64.45a9,9,0,0,0,.46,5.45l3.13,9.92s-1.61,3.9-3.49,7.59a22.36,22.36,0,0,0,18.5,1.23A25.13,25.13,0,0,1,307.9,265.4Z" style="opacity: 0.1; transform-origin: 307.957px 254.151px;" class="animable"></path></g><path d="M291.49,273.65a51.82,51.82,0,0,0,.88,6.58c1.45,5.63,3.33,7.32,5.82,7.49,4,.26,4-1.23,2.22-3.79a12.72,12.72,0,0,1-1.78-3.66,9.14,9.14,0,0,0,1.91,1.23,1.35,1.35,0,0,0,1.79-.49c.13-.26-.56-.53-1.32-1.46a14.45,14.45,0,0,0-2.81-3.12,2.72,2.72,0,0,1-.8-1.64c-.21-.8.07-14.08.22-16.8l3.84-9.44c2.78-1.91,5-8.32,2.35-13.12-4,.45-8,3.14-12.29,19.18C290.75,257.45,291,269.28,291.49,273.65Z" style="fill: rgb(255, 168, 167); transform-origin: 298.014px 261.59px;" id="elkpya2jyjunn" class="animable"></path></g></g><g id="freepik--characters-with-ribbon--inject-9" class="animable" style="transform-origin: 303.786px 312.834px;"><path d="M209.37,321.48c4,0,6.82,1.74,7.89,5.81s2.94,14,2.94,14,7.83-.23,9.69,0l.66,4.63-12,2.58c-2.79.6-3.64-2.15-5.63-7.07S209.37,321.48,209.37,321.48Z" style="fill: rgb(255, 168, 167); transform-origin: 219.96px 335.031px;" id="el731husa3loa" class="animable"></path><path d="M215.19,319.92h-9.54a12.35,12.35,0,0,1-12.34-12.34h0a10.94,10.94,0,0,1,10.94-10.94h0a10.94,10.94,0,0,1,10.94,10.94Z" style="fill: rgb(38, 50, 56); transform-origin: 204.25px 308.28px;" id="el3f80gnsyc97" class="animable"></path><path d="M195.78,301l-2.65-1.42a1.46,1.46,0,0,1,2-.67A1.6,1.6,0,0,1,195.78,301Z" style="fill: rgb(38, 50, 56); transform-origin: 194.535px 299.871px;" id="elvix7b0myjv" class="animable"></path><path d="M195.94,301.25l-2.81,1.05a1.45,1.45,0,0,1,.82-1.94A1.58,1.58,0,0,1,195.94,301.25Z" style="fill: rgb(38, 50, 56); transform-origin: 194.474px 301.285px;" id="eljan0gnbc0l" class="animable"></path><path d="M213.93,412.55a25.84,25.84,0,0,0-.1,2.67v5.24h-4.56v-3.07a25.08,25.08,0,0,0-.34-4.15Z" style="fill: rgb(255, 168, 167); transform-origin: 211.43px 416.505px;" id="el01mbnex4a6ns" class="animable"></path><path d="M213.83,418.21v-.65c.13,1,3,4.72,4.76,6.37,1.44,1.31,3.4,2.82,3.9,4.28s-2.32,2.12-4.17,1.94a7.5,7.5,0,0,1-4.68-2.45,22.57,22.57,0,0,1-2-3c-.55-.74-3-2.27-3.32-3.13a5.4,5.4,0,0,1,.26-2.39c.21-.81.44-1.69.71-1.62v.5a3.6,3.6,0,0,0,2.28.77C212.22,418.85,213.83,418.72,213.83,418.21Z" style="fill: rgb(38, 50, 56); transform-origin: 215.416px 423.867px;" id="elzs3qy91iu4" class="animable"></path><path d="M209.27,418.06a3.6,3.6,0,0,0,2.28.77c.67,0,2.28-.11,2.28-.62v-.65c.13,1,3,4.72,4.76,6.37l1.1,1c.76.85.54,1.59-1.25,1.75s-3.38-.93-4.74-2.6S209.27,418.06,209.27,418.06Z" style="fill: rgb(255, 168, 167); transform-origin: 214.686px 422.128px;" id="el8hjaynyknwt" class="animable"></path><path d="M195.74,418.89c-.09,1.1-.09,2.25-.11,2.75v5.23h-4.55V423.8c0-1.39-.14-3.22-.14-4.52Z" style="fill: rgb(255, 168, 167); transform-origin: 193.34px 422.88px;" id="elohhxzumovcg" class="animable"></path><path d="M195.63,424.63V424c.13,1,3,4.72,4.77,6.37,1.44,1.31,3.4,2.82,3.89,4.28s-2.31,2.12-4.17,1.94a7.5,7.5,0,0,1-4.67-2.45,23.31,23.31,0,0,1-2-3c-.55-.75-3-2.28-3.33-3.14a5.6,5.6,0,0,1,.27-2.39c.21-.81.44-1.69.71-1.62v.5a3.6,3.6,0,0,0,2.28.77C194,425.27,195.64,425.13,195.63,424.63Z" style="fill: rgb(38, 50, 56); transform-origin: 197.218px 430.302px;" id="elfsu2gj6ps18" class="animable"></path><path d="M191.08,424.47a3.6,3.6,0,0,0,2.28.77c.66,0,2.28-.11,2.27-.61V424c.13,1,3,4.72,4.77,6.37l1.09,1c.77.85.55,1.6-1.24,1.75s-3.38-.93-4.74-2.6S191.08,424.47,191.08,424.47Z" style="fill: rgb(255, 168, 167); transform-origin: 196.495px 428.567px;" id="elpkpxxe3yly" class="animable"></path><path d="M193.81,347.29a23.94,23.94,0,0,0-2.68,9.57c-.82,11.77.83,28.69.83,28.69-.11,1.37-1.68,4.06-2.26,10.09-.69,7.12,1.08,25,1.08,25a5.38,5.38,0,0,0,5,.2s4.75-26.92,5.64-34c.78-6.17,2.48-21,2.48-21l2.77,21a36.66,36.66,0,0,0-1.34,6.1c-.41,4.16,3.58,21.94,3.58,21.94a11.08,11.08,0,0,0,5,.15s1.47-24.11,1.85-29.13c.63-8.42-.33-34.73-1.87-39.71Z" style="fill: rgb(255, 230, 36); transform-origin: 202.748px 383.776px;" id="elxo5thg3c7qg" class="animable"></path><g id="elaved4ylxjlw"><path d="M203.93,365.81a23.51,23.51,0,0,0,6.8-3.79,12.12,12.12,0,0,1-5.08,4.45v12.46l-1.73-13.12" style="opacity: 0.1; transform-origin: 207.325px 370.475px;" class="animable"></path></g><path d="M200.48,321.69s-6.45.74-7.22,1.08a5.28,5.28,0,0,1-.25,7.87l3,13.16c-2.57,3.29-4,5.83-4.66,9.77,2.76,4.86,18.27,5.53,23.95,1.91-.49-6.79-1.59-11.65-1.23-13.69,1.42-7.37,1.93-9,1.68-10.93-.5-3.72-4.25-8-6.36-9.38h-2Z" style="fill: rgb(245, 245, 245); transform-origin: 203.58px 339.629px;" id="elmp5bg7z5jr" class="animable"></path><path d="M211.6,302c1.16.69,2.58,3.59,2.44,9.69-.12,5.16-1.79,6.43-2.63,6.8s-2.46.15-4-.12v3.1s2.18,2.53,2,4-3.14,1.76-5.18.37a16.4,16.4,0,0,1-3.75-4.09l0-7.13s-.93.9-2.5-.47c-1.3-1.14-1.73-3-.72-4.08a2.27,2.27,0,0,1,3.6.72s.87-2.43,4.5-3.62C208.67,306,210.45,304.81,211.6,302Z" style="fill: rgb(255, 168, 167); transform-origin: 205.375px 314.371px;" id="el5r77toom2cs" class="animable"></path><path d="M207.93,310.38a.65.65,0,1,1-.69-.64A.67.67,0,0,1,207.93,310.38Z" style="fill: rgb(38, 50, 56); transform-origin: 207.28px 310.389px;" id="elon0y0s45r7i" class="animable"></path><path d="M208.1,314.76l1.51.48a.78.78,0,0,1-1,.54A.83.83,0,0,1,208.1,314.76Z" style="fill: rgb(242, 143, 143); transform-origin: 208.837px 315.29px;" id="eldv4ys724018" class="animable"></path><path d="M213.25,308.38l-1.31-.91a.77.77,0,0,1,1.09-.22A.84.84,0,0,1,213.25,308.38Z" style="fill: rgb(38, 50, 56); transform-origin: 212.66px 307.746px;" id="elopm6gc14p19" class="animable"></path><path d="M206,308.86l1.31-.91a.77.77,0,0,0-1.09-.22A.84.84,0,0,0,206,308.86Z" style="fill: rgb(38, 50, 56); transform-origin: 206.59px 308.226px;" id="ely5osbjaol2r" class="animable"></path><path d="M213,309.91a.66.66,0,0,1-.62.7.67.67,0,0,1-.68-.64.66.66,0,0,1,.62-.7A.67.67,0,0,1,213,309.91Z" style="fill: rgb(38, 50, 56); transform-origin: 212.35px 309.94px;" id="el00qo5m4pc1bgq" class="animable"></path><polygon points="209.88 309.54 209.99 313.45 212.04 312.81 209.88 309.54" style="fill: rgb(242, 143, 143); transform-origin: 210.96px 311.495px;" id="elgkb65dcxwqf" class="animable"></polygon><path d="M207.37,318.36c-1.66-.21-5.07-1.2-5.61-2.55a3.54,3.54,0,0,0,1.2,1.73c1,.87,4.41,1.86,4.41,1.86Z" style="fill: rgb(242, 143, 143); transform-origin: 204.565px 317.605px;" id="elklulridg28" class="animable"></path><polygon points="194.66 337.92 200.16 345.94 196 343.8 194.66 337.92" style="fill: rgb(224, 224, 224); transform-origin: 197.41px 341.93px;" id="el74gffpwy46k" class="animable"></polygon><path d="M188.35,360.2a51,51,0,0,0,1.61,5.72c2,4.8,3.88,6.05,6.11,5.89,3.55-.27,3.39-1.59,1.48-3.64a11.34,11.34,0,0,1-2-3,8,8,0,0,0,1.84.84,1.22,1.22,0,0,0,1.53-.65c.08-.26-.56-.41-1.36-1.13a13.08,13.08,0,0,0-2.88-2.41,2.46,2.46,0,0,1-.92-1.35c-.28-.68-2-12-1.72-14.4l2-11.19c2.22-2,3.61-10.95-.39-12.19-4.37.87-5.82,5.91-7.62,20.66C185.65,346,187.4,356.39,188.35,360.2Z" style="fill: rgb(255, 168, 167); transform-origin: 192.452px 347.257px;" id="eltisczuum8pr" class="animable"></path><path d="M390,251.78a55.65,55.65,0,0,1-3.3,5.76c-3.48,4.67-5.85,5.52-8.22,4.73-3.78-1.25-3.24-2.64-.62-4.34a12.61,12.61,0,0,0,3-2.72,9.38,9.38,0,0,1-2.23.42,1.38,1.38,0,0,1-1.48-1.13c0-.29.72-.28,1.78-.86a14.7,14.7,0,0,1,3.78-1.82,2.78,2.78,0,0,0,1.37-1.22c.49-.66,5.44-12.43,5.77-15.15,0,0,.5-6.58,1.13-12.7.52-5.13,1.56-9.09,6.24-9.35,3.51,1.91,2,4.25-.08,20.74C396.76,237.06,392,247.9,390,251.78Z" style="fill: rgb(255, 168, 167); transform-origin: 387.544px 237.965px;" id="el9o1pqiqzbh" class="animable"></path><path d="M398.25,213.31s-3.35-.42-5.21,1.6-2.51,6.06-2.92,9.62-.84,7-.84,7a12.26,12.26,0,0,0,9.46,1.52Z" style="fill: rgb(255, 230, 36); transform-origin: 394.01px 223.341px;" id="elfsn533w1k9" class="animable"></path><g id="freepik--character-boy--inject-9" class="animable" style="transform-origin: 397.915px 260.991px;"><circle cx="397.35" cy="197.6" r="6.92" style="fill: rgb(38, 50, 56); transform-origin: 397.35px 197.6px;" id="el40064ljozhi" class="animable"></circle><rect x="409.05" y="314.7" width="4.87" height="8.34" style="fill: rgb(255, 168, 167); transform-origin: 411.485px 318.87px;" id="el5jqct9kx54j" class="animable"></rect><polygon points="397.02 317.2 392.15 317.37 391.91 308.54 396.78 308.37 397.02 317.2" style="fill: rgb(255, 168, 167); transform-origin: 394.465px 312.87px;" id="el56mn0x79fgs" class="animable"></polygon><path d="M413.6,248.55c0,4.65.6,32.86.6,32.86.12,1.34,1.37,3.81,1.1,8.95-.37,7-1,25.16-1,25.16s-2.29,2.26-5.51,0c0,0-4.42-25.13-5.29-32.06-.76-6-2.06-22.46-2.06-22.46l-2.7,22.79s.79,4.54,1,7.75S397.1,311,397.1,311a5.34,5.34,0,0,1-5.31.2s-2.1-24.81-2.6-27.71,1.61-35,1.61-35Z" style="fill: rgb(55, 71, 79); transform-origin: 402.226px 282.507px;" id="elgel4yyfdcyi" class="animable"></path><path d="M408.92,214.88A5.31,5.31,0,0,1,413.2,219a17.24,17.24,0,0,1,.4,3.7v25.88c-3.42,3.72-15.33,5.45-22.8,0,0,0,.15-22.86.71-26.61,1-6.53,4.09-8.85,7.23-8.61l7.52,1.08Z" style="fill: rgb(240, 240, 240); transform-origin: 402.2px 232.696px;" id="ellprwp8fafz" class="animable"></path><path d="M409.31,202.52a60,60,0,0,1-1.57,6.14,2.41,2.41,0,0,1-1.38,1.11l.08-3.71Z" style="fill: rgb(38, 50, 56); transform-origin: 407.835px 206.145px;" id="elvnx2v41xst" class="animable"></path><path d="M407.91,195a2.57,2.57,0,0,1,2.14.75c.93,1,.41,3.9-.74,6.79l-2.11.25Z" style="fill: rgb(38, 50, 56); transform-origin: 408.865px 198.886px;" id="el8cauepyka0b" class="animable"></path><path d="M406.57,202.77c.42.25,1-.56,1.55-1.11a1.84,1.84,0,0,1,3.08.5c.86,1.83-.76,4.24-2.1,4.66-2.31.73-2.66-.76-2.66-.76l-.18,8.35a7.42,7.42,0,0,1-5.61,4.26c-4.1.56-3.26-2.82-1.91-4.48v-2.54a14.38,14.38,0,0,1-3.11.16c-1.71-.26-2.78-1.61-3.29-3.45-.83-3-1.15-5.34-.44-11.16.77-6.38,8.18-6.44,12.19-3.92S406.57,202.77,406.57,202.77Z" style="fill: rgb(255, 168, 167); transform-origin: 401.474px 205.231px;" id="elg97t5sld029" class="animable"></path><path d="M406.57,203.48c.21,0,1-1.34,1.55-1.82.73-.66-.21-6.68-.21-6.68a2.86,2.86,0,0,0-.71-3c-1-1.1-2.67-1.22-5.53-1.67-1.5-.24-3.77-.65-5.26-.93-1.79-.33-3.27-.69-4.53.41a3.17,3.17,0,0,0-.88,3.55,3.26,3.26,0,0,0,.51.76,2.87,2.87,0,0,0,1.29.88s.78.69,3.49,1a39.89,39.89,0,0,0,7.5-.14c.79-.11,1,.65,1.38,2.74C405.54,200.37,405.85,203.47,406.57,203.48Z" style="fill: rgb(38, 50, 56); transform-origin: 399.59px 196.264px;" id="elu8e7v0dz97r" class="animable"></path><path d="M407.9,195.45l2.56-1.38a1.41,1.41,0,0,0-1.94-.64A1.54,1.54,0,0,0,407.9,195.45Z" style="fill: rgb(38, 50, 56); transform-origin: 409.101px 194.357px;" id="elhw4xbnh0g9" class="animable"></path><path d="M398.74,211.65a29.7,29.7,0,0,0,5.13-1.47,4.38,4.38,0,0,0,1.84-1.82,5.91,5.91,0,0,1-1,2.14c-1,1.25-5.92,2.16-5.92,2.16Z" style="fill: rgb(242, 143, 143); transform-origin: 402.225px 210.51px;" id="elv0pd7kv0ib" class="animable"></path><path d="M399.66,201.82a.76.76,0,1,0,.76-.79A.77.77,0,0,0,399.66,201.82Z" style="fill: rgb(38, 50, 56); transform-origin: 400.42px 201.79px;" id="el6duehcfhnpu" class="animable"></path><path d="M400.46,199l1.63.89a1,1,0,0,0-.38-1.29A.91.91,0,0,0,400.46,199Z" style="fill: rgb(38, 50, 56); transform-origin: 401.325px 199.19px;" id="elas4fvn0jhv" class="animable"></path><path d="M399.09,207.08l-1.74.65a.91.91,0,0,0,1.18.57A1,1,0,0,0,399.09,207.08Z" style="fill: rgb(242, 143, 143); transform-origin: 398.243px 207.718px;" id="elu4ukhxnf84" class="animable"></path><path d="M392.87,199.58l1.49-1.14a.9.9,0,0,0-1.3-.2A1,1,0,0,0,392.87,199.58Z" style="fill: rgb(38, 50, 56); transform-origin: 393.527px 198.814px;" id="el9sgsl21259u" class="animable"></path><path d="M393.33,201.6a.76.76,0,1,0,.76-.79A.77.77,0,0,0,393.33,201.6Z" style="fill: rgb(38, 50, 56); transform-origin: 394.09px 201.57px;" id="el45hfm73uh8e" class="animable"></path><polygon points="397.2 200.88 396.95 205.46 394.56 204.64 397.2 200.88" style="fill: rgb(242, 143, 143); transform-origin: 395.88px 203.17px;" id="ely4flda8zdhk" class="animable"></polygon><path d="M409.05,320.63v-.69c-.47.2-1.55,4.33-3.49,6.1-1.53,1.4-3.63,3-4.16,4.58s2.92,2.53,4.35,2.27c1.67-.29,4.56-1.47,5.29-2.56s1.07-2.69,1.66-3.49,1.95-1.69,2.27-2.62a6,6,0,0,0-.28-2.55c-.23-.87-.47-1.81-.77-1.73v.53a3.83,3.83,0,0,1-2.43.82C410.77,321.32,409,321.18,409.05,320.63Z" style="fill: rgb(38, 50, 56); transform-origin: 408.174px 326.434px;" id="elr7v1bu3cvdb" class="animable"></path><path d="M392.1,315.87c-.25,0-.46.36-1,1a10.68,10.68,0,0,1-2.87,2.06c-1.82.91-5.37,2.32-7,3-1,.45-1,1.67.09,2.36s3.54,1.18,6.54.51c1.64-.37,3.77-1.88,5.12-1.8s3.88.06,4.87-.62.6-2.15.32-3.41-.75-3.48-1.2-3.39V316c-.58.89-3.57,1.25-4.86.6Z" style="fill: rgb(38, 50, 56); transform-origin: 389.489px 320.348px;" id="elrxr6xl3q6qd" class="animable"></path><path d="M401.47,261a18.09,18.09,0,0,1-6.78-3.89,14,14,0,0,0,5.2,4.73l-1.12,22Z" style="fill: rgb(38, 50, 56); transform-origin: 398.08px 270.475px;" id="el0ri303i7lbl9" class="animable"></path></g><path d="M421.15,255.88a54.15,54.15,0,0,1-.88,6.59c-1.46,5.63-3.33,7.31-5.82,7.48-4,.27-4-1.22-2.22-3.79A12.72,12.72,0,0,0,414,262.5a9.41,9.41,0,0,1-1.91,1.23,1.38,1.38,0,0,1-1.8-.48c-.13-.27.56-.54,1.33-1.47a14.38,14.38,0,0,1,2.8-3.11,2.79,2.79,0,0,0,.81-1.65c.2-.8.34-13.57-.38-16.21l-3.42-12.28c-2.78-1.91-5.75-11.36-1.52-13.37,4,.45,6.87,5.64,11.2,21.68C421.89,239.68,421.6,251.51,421.15,255.88Z" style="fill: rgb(255, 168, 167); transform-origin: 414.696px 242.571px;" id="el7eurv1xn4w9" class="animable"></path><path d="M409.05,214.93a5.1,5.1,0,0,0-1.72,3.85c-.11,2.68,1.14,6.53,1.9,8.94s2.34,6.78,2.34,6.78,6.53-.75,8-4.58c0,0-3.06-9.91-6-13.13A5.51,5.51,0,0,0,409.05,214.93Z" style="fill: rgb(255, 230, 36); transform-origin: 413.447px 224.708px;" id="elpn4euz09av" class="animable"></path><path d="M382.4,258.62v30.15a.72.72,0,0,1-1.34.36l-2.72-4.71-2.66,7.68a.72.72,0,0,1-1.4-.23V263.31Z" style="fill: rgb(255, 230, 36); transform-origin: 378.34px 275.602px;" id="el7u0rs3fj9gu" class="animable"></path><g id="elsnw0lljfsyl"><path d="M382.4,258.62v30.15a.72.72,0,0,1-1.34.36l-2.72-4.71-2.66,7.68a.72.72,0,0,1-1.4-.23V263.31Z" style="opacity: 0.1; transform-origin: 378.34px 275.602px;" class="animable"></path></g><path d="M224,346.72l-3.77,35.73a.43.43,0,0,0,.82.21l4.35-10.27,2.06,6.32a.43.43,0,0,0,.83-.08l3.84-33.24Z" style="fill: rgb(255, 230, 36); transform-origin: 226.179px 364.151px;" id="elbof3vjt3lan" class="animable"></path><g id="elyj8ajtgnzw"><path d="M224,346.72l-3.77,35.73a.43.43,0,0,0,.82.21l4.35-10.27,2.06,6.32a.43.43,0,0,0,.83-.08l3.84-33.24Z" style="opacity: 0.1; transform-origin: 226.179px 364.151px;" class="animable"></path></g><path d="M225.34,344.76c51.34-18.14,102.82-46.21,155.83-90,.64-.53,1.23-.19,1.23.64V266.5a3.45,3.45,0,0,1-1.23,2.36c-52.85,43.66-104.34,71.76-155.83,90-.78.27-1.36,0-1.36-.87V346.9A2.43,2.43,0,0,1,225.34,344.76Z" style="fill: rgb(255, 230, 36); transform-origin: 303.19px 306.733px;" id="elc3nrlrusfk" class="animable"></path><path d="M233.88,343.26a5.2,5.2,0,0,0-4-1.95l-4,3.25s-1.4,4.86-.57,5.06,1-.85,1.58-2,1.21-1.64,2-.36,3.9,5.4,6.13,3S235,344.6,233.88,343.26Z" style="fill: rgb(255, 168, 167); transform-origin: 230.508px 346.154px;" id="elb8ei4110ges" class="animable"></path></g><defs>     <filter id="active" height="200%">         <feMorphology in="SourceAlpha" result="DILATED" operator="dilate" radius="2"></feMorphology>                <feFlood flood-color="#32DFEC" flood-opacity="1" result="PINK"></feFlood>        <feComposite in="PINK" in2="DILATED" operator="in" result="OUTLINE"></feComposite>        <feMerge>            <feMergeNode in="OUTLINE"></feMergeNode>            <feMergeNode in="SourceGraphic"></feMergeNode>        </feMerge>    </filter>    <filter id="hover" height="200%">        <feMorphology in="SourceAlpha" result="DILATED" operator="dilate" radius="2"></feMorphology>                <feFlood flood-color="#ff0000" flood-opacity="0.5" result="PINK"></feFlood>        <feComposite in="PINK" in2="DILATED" operator="in" result="OUTLINE"></feComposite>        <feMerge>            <feMergeNode in="OUTLINE"></feMergeNode>            <feMergeNode in="SourceGraphic"></feMergeNode>        </feMerge>            <feColorMatrix type="matrix" values="0   0   0   0   0                0   1   0   0   0                0   0   0   0   0                0   0   0   1   0 "></feColorMatrix>    </filter></defs></svg>