<svg xmlns="http://www.w3.org/2000/svg" version="1.1" xmlns:xlink="http://www.w3.org/1999/xlink" xmlns:svgjs="http://svgjs.dev/svgjs" width="1000" height="1000" viewBox="0 0 1000 1000"><rect width="1000" height="1000" fill="#ffffff"></rect><g transform="matrix(0.7,0,0,0.7,149.57576304904813,372.6574173494113)"><svg viewBox="0 0 396 144" data-background-color="#ffffff" preserveAspectRatio="xMidYMid meet" height="363" width="1000" xmlns="http://www.w3.org/2000/svg" xmlns:xlink="http://www.w3.org/1999/xlink"><defs></defs><g id="tight-bounds" transform="matrix(1,0,0,1,0.23999690368134452,0.1658083498023757)"><svg viewBox="0 0 395.52 143.66825990964983" height="143.66825990964983" width="395.52"><g><svg viewBox="0 0 672.9217126176552 244.43135999999998" height="143.66825990964983" width="395.52"><g transform="matrix(1,0,0,1,277.4017126176552,70.42766300553065)"><svg viewBox="0 0 395.52 103.57603398893869" height="103.57603398893869" width="395.52"><g><svg viewBox="0 0 395.52 103.57603398893869" height="103.57603398893869" width="395.52"><g><svg viewBox="0 0 395.52 55.86396349930569" height="55.86396349930569" width="395.52"><g transform="matrix(1,0,0,1,0,0)"><svg width="395.52" viewBox="3 -35 252.0399932861328 35.599998474121094" height="55.86396349930569" data-palette-color="#f5ba41"><path d="M44.2 0L33.25 0 33.25-12.4Q33.25-14.7 33.43-17.13 33.6-19.55 33.8-21.2 34-22.85 34.05-23.3L34.05-23.3 33.85-23.3 27.5 0 18.85 0 12.45-23.25 12.25-23.25Q12.3-22.8 12.53-21.18 12.75-19.55 12.95-17.13 13.15-14.7 13.15-12.4L13.15-12.4 13.15 0 3 0 3-34.4 18.6-34.4 23.8-14.55 24-14.55 29.15-34.4 44.2-34.4 44.2 0ZM68-35Q76.9-35 81.75-30.45 86.6-25.9 86.6-17.2L86.6-17.2Q86.6-8.5 81.75-3.95 76.9 0.6 68 0.6L68 0.6Q59.1 0.6 54.27-3.93 49.45-8.45 49.45-17.2L49.45-17.2Q49.45-25.95 54.27-30.48 59.1-35 68-35L68-35ZM68-26.75Q64.45-26.75 62.6-24.6 60.75-22.45 60.75-18.8L60.75-18.8 60.75-15.6Q60.75-11.95 62.6-9.8 64.45-7.65 68-7.65L68-7.65Q71.55-7.65 73.42-9.8 75.3-11.95 75.3-15.6L75.3-15.6 75.3-18.8Q75.3-22.45 73.42-24.6 71.55-26.75 68-26.75L68-26.75ZM126.8-13.85Q126.8-6.8 122.35-3.1 117.9 0.6 109.7 0.6L109.7 0.6Q101.5 0.6 97.02-3.1 92.55-6.8 92.55-13.85L92.55-13.85 92.55-34.4 103.6-34.4 103.6-14Q103.6-11.1 105.15-9.38 106.7-7.65 109.65-7.65L109.65-7.65Q112.6-7.65 114.17-9.4 115.75-11.15 115.75-14L115.75-14 115.75-34.4 126.8-34.4 126.8-13.85ZM156.34 0L143.54 0 131.34-34.4 143.14-34.4 150.04-11.4 150.24-11.4 157.19-34.4 168.49-34.4 156.34 0ZM213.59 0L202.64 0 202.64-12.4Q202.64-14.7 202.82-17.13 202.99-19.55 203.19-21.2 203.39-22.85 203.44-23.3L203.44-23.3 203.24-23.3 196.89 0 188.24 0 181.84-23.25 181.64-23.25Q181.69-22.8 181.92-21.18 182.14-19.55 182.34-17.13 182.54-14.7 182.54-12.4L182.54-12.4 182.54 0 172.39 0 172.39-34.4 187.99-34.4 193.19-14.55 193.39-14.55 198.54-34.4 213.59-34.4 213.59 0ZM255.04 0L243.34 0 241.89-4.85 229.84-4.85 228.39 0 217.09 0 229.64-34.4 242.49-34.4 255.04 0ZM235.79-24.8L232.14-12.55 239.59-12.55 235.99-24.8 235.79-24.8Z" opacity="1" transform="matrix(1,0,0,1,0,0)" fill="#000000" class="undefined-text-0" data-fill-palette-color="primary" id="text-0"></path></svg></g></svg></g><g transform="matrix(1,0,0,1,0,69.05210454636779)"><svg viewBox="0 0 160.41470877611476 34.52392944257092" height="34.52392944257092" width="160.41470877611476"><g transform="matrix(1,0,0,1,0,0)"><svg width="160.41470877611476" viewBox="3 -35 164.92999267578125 35.5" height="34.52392944257092" data-palette-color="#f5ba41"><path d="M22.9-24L22.9 0 14.25 0Q8.7 0 6.3-1.65L6.3-1.65Q4.15-3.1 3.58-5.13 3-7.15 3-10.45L3-10.45 3-24 7.4-24 7.4-10.5Q7.4-9.6 7.45-8.97 7.5-8.35 7.8-7.38 8.1-6.4 8.65-5.78 9.2-5.15 10.25-4.67 11.3-4.2 12.8-4.2L12.8-4.2 18.5-4.2 18.5-24 22.9-24ZM29.4 0L29.4-24 38.05-24Q43.6-24 46-22.35L46-22.35Q48.15-20.9 48.72-18.88 49.3-16.85 49.3-13.55L49.3-13.55 49.3 0 44.9 0 44.9-13.5Q44.9-14.4 44.85-15.03 44.8-15.65 44.5-16.63 44.2-17.6 43.65-18.23 43.1-18.85 42.05-19.33 41-19.8 39.5-19.8L39.5-19.8 33.8-19.8 33.8 0 29.4 0ZM61.8-24L61.8 0 57.4 0 57.4-19.8 53.3-19.8 55.3-24 61.8-24ZM57.2-29L57.2-29Q56.55-29.85 56.55-30.85 56.55-31.85 57.2-32.68 57.84-33.5 59.2-33.5 60.55-33.5 61.2-32.68 61.84-31.85 61.84-30.85 61.84-29.85 61.2-29.03 60.55-28.2 59.2-28.2 57.84-28.2 57.2-29ZM96.54-5.25L96.54-5.25 99.54-2.3Q96.09 0.5 91.64 0.5L91.64 0.5Q86.09 0.5 82.74-3.08 79.39-6.65 79.39-12L79.39-12Q79.39-17.25 82.92-20.88 86.44-24.5 91.64-24.5L91.64-24.5Q96.09-24.5 99.54-21.7L99.54-21.7 96.59-18.7Q94.49-20.3 91.64-20.3L91.64-20.3Q88.19-20.3 86.17-18.03 84.14-15.75 84.14-12 84.14-8.25 86.17-5.98 88.19-3.7 91.64-3.7L91.64-3.7Q94.54-3.7 96.54-5.25ZM103.79-9.5L103.79-9.5 103.79-35 108.29-35 108.29-9.5Q108.29-7.7 108.71-6.58 109.14-5.45 110.04-4.98 110.94-4.5 111.79-4.35 112.64-4.2 114.04-4.2L114.04-4.2 114.04 0Q108.44 0 106.11-2.15 103.79-4.3 103.79-9.5ZM137.19-24L137.19 0 128.54 0Q122.99 0 120.59-1.65L120.59-1.65Q118.44-3.1 117.86-5.13 117.29-7.15 117.29-10.45L117.29-10.45 117.29-24 121.69-24 121.69-10.5Q121.69-9.6 121.74-8.97 121.79-8.35 122.09-7.38 122.39-6.4 122.94-5.78 123.49-5.15 124.54-4.67 125.59-4.2 127.09-4.2L127.09-4.2 132.79-4.2 132.79-24 137.19-24ZM143.43-12L143.43-35 147.93-35 147.93-12Q147.93-8.05 149.96-5.88 151.98-3.7 155.53-3.7L155.53-3.7Q159.23-3.7 161.33-5.83 163.43-7.95 163.43-12L163.43-12Q163.43-15.85 161.16-18.07 158.88-20.3 155.18-20.3L155.18-20.3Q152.03-20.3 149.73-18.5L149.73-18.5 149.73-23Q152.48-24.5 155.68-24.5L155.68-24.5Q160.98-24.5 164.46-21.08 167.93-17.65 167.93-12L167.93-12Q167.93-6.05 164.31-2.78 160.68 0.5 155.18 0.5L155.18 0.5Q149.93 0.5 146.68-2.9 143.43-6.3 143.43-12L143.43-12Z" opacity="1" transform="matrix(1,0,0,1,0,0)" fill="#000000" class="undefined-text-1" data-fill-palette-color="secondary" id="text-1"></path></svg></g></svg></g></svg></g></svg></g><g><svg viewBox="0 0 244.43135999999998 244.43135999999998" height="244.43135999999998" width="244.43135999999998"><g><svg viewBox="0 0 244.43135999999998 244.43135999999998" height="244.43135999999998" width="244.43135999999998"><g transform="matrix(1,0,0,1,74.5004790802014,64.60265593644992)"><svg viewBox="0 0 95.43040183959718 115.22604812710014" height="115.22604812710014" width="95.43040183959718"><g><svg xmlns="http://www.w3.org/2000/svg" xmlns:xlink="http://www.w3.org/1999/xlink" version="1.1" x="0" y="0" viewBox="18.75 14.341999053955078 42.5 51.31600570678711" enable-background="new 0 0 80 80" xml:space="preserve" height="115.22604812710014" width="95.43040183959718" class="icon-x-0" data-fill-palette-color="accent" id="x-0"><g fill="#f5ba41" data-fill-palette-color="accent"><path d="M53.06 18.592v-2.25c0-1.104-0.896-2-2-2s-2 0.896-2 2v1.816H31.372v-1.816c0-1.104-0.896-2-2-2s-2 0.896-2 2v2.139c-4.938 1.188-8.622 5.631-8.622 10.928v2.261h42.5v-2.261C61.25 24.267 57.778 19.93 53.06 18.592zM40 28.675c-1.653 0-3-1.346-3-3s1.347-3 3-3 3 1.346 3 3S41.653 28.675 40 28.675z" fill="#000000" data-fill-palette-color="accent"></path><path d="M18.75 54.408c0 6.203 5.047 11.25 11.25 11.25h20c6.203 0 11.25-5.047 11.25-11.25V35.67h-42.5V54.408zM37.854 60.088l-0.579 1.466c-0.144 0.364-0.493 0.587-0.862 0.587-0.113 0-0.229-0.021-0.34-0.064-0.477-0.188-0.71-0.727-0.522-1.203l0.578-1.466c0.188-0.476 0.726-0.708 1.202-0.522C37.808 59.073 38.041 59.611 37.854 60.088zM52.171 55.119C52.024 55.48 51.678 55.7 51.31 55.7c-0.114 0-0.23-0.021-0.344-0.065l-1.464-0.587c-0.476-0.19-0.706-0.73-0.516-1.206 0.19-0.475 0.729-0.705 1.205-0.516l1.464 0.587C52.13 54.104 52.36 54.643 52.171 55.119zM49.397 45.76l1.449-0.617c0.472-0.201 1.015 0.018 1.215 0.49 0.201 0.471-0.019 1.015-0.488 1.215l-1.451 0.617c-0.117 0.051-0.24 0.074-0.362 0.074-0.36 0-0.702-0.211-0.853-0.564C48.706 46.505 48.927 45.96 49.397 45.76zM45.56 61.918c-0.12 0.051-0.245 0.076-0.368 0.076-0.358 0-0.7-0.209-0.851-0.56l-0.625-1.448c-0.203-0.47 0.014-1.016 0.482-1.219 0.471-0.203 1.016 0.014 1.219 0.484l0.625 1.447C46.245 61.17 46.028 61.715 45.56 61.918zM43.497 40.955l0.592-1.459c0.191-0.476 0.73-0.705 1.205-0.512 0.475 0.191 0.704 0.732 0.512 1.206l-0.591 1.46c-0.146 0.361-0.493 0.579-0.858 0.579-0.116 0-0.234-0.021-0.348-0.067C43.534 41.97 43.306 41.43 43.497 40.955zM39.618 45.62c0.559-0.829 1.613-1.229 2.607-0.9S43.828 46 43.781 47l0.006-0.002 0.137 5.439-7.617-2.596 3.308-4.225L39.618 45.62zM35.812 39.043c0.471-0.199 1.016 0.024 1.213 0.496l0.608 1.453c0.198 0.472-0.023 1.015-0.495 1.212-0.117 0.05-0.24 0.072-0.359 0.072-0.361 0-0.705-0.214-0.854-0.568l-0.609-1.452C35.117 39.783 35.339 39.24 35.812 39.043zM34.797 51.986c0.072-0.217 0.183-0.408 0.308-0.586l8.846 3.014c-0.01 0.189-0.035 0.381-0.098 0.57-0.396 1.197-1.691 1.848-2.889 1.453 0 0 0 0-0.002 0l-4.738-1.57v-0.003C35.044 54.459 34.403 53.175 34.797 51.986zM31.902 55.343l-1.444 0.632c-0.12 0.053-0.247 0.078-0.37 0.078-0.357 0-0.698-0.207-0.85-0.557-0.206-0.469 0.009-1.015 0.478-1.219l1.445-0.633c0.47-0.207 1.015 0.011 1.219 0.479C32.586 54.592 32.371 55.139 31.902 55.343zM29.129 45.774c0.195-0.473 0.74-0.696 1.21-0.504l1.455 0.6c0.473 0.196 0.699 0.737 0.504 1.21-0.147 0.357-0.493 0.574-0.857 0.574-0.117 0-0.237-0.023-0.353-0.07l-1.455-0.6C29.159 46.789 28.935 46.248 29.129 45.774z" fill="#000000" data-fill-palette-color="accent"></path></g></svg></g></svg></g><path d="M44.972 68.184l-3.903 8.711-9.871-4.423c-1.217-0.545-2.448-1.152-3.691-1.818-1.25-0.669-2.288-1.255-3.116-1.758-0.824-0.493-1.353-0.807-1.585-0.94v0l-0.069 0.155 16.283 13.358-3.085 6.885-20.782-3.193-0.07 0.156c0.248 0.082 0.832 0.256 1.751 0.521 0.91 0.269 2.035 0.638 3.375 1.106 1.331 0.472 2.605 0.981 3.822 1.526v0l9.871 4.422-3.62 8.081-27.376-12.264 5.564-12.418 17.65 2.94 0.074-0.164-13.965-11.168 5.368-11.98zM46.371 26.368c4.049-3.214 8-4.663 11.853-4.348 3.856 0.32 7.356 2.46 10.499 6.42v0c3.143 3.96 4.433 7.855 3.869 11.684-0.568 3.823-2.877 7.342-6.926 10.555v0c-4.054 3.218-7.996 4.668-11.824 4.351-3.833-0.313-7.332-2.462-10.496-6.449v0c-3.164-3.987-4.463-7.882-3.897-11.686 0.561-3.8 2.868-7.309 6.922-10.527zM50.844 32.003c-1.62 1.286-2.462 2.751-2.529 4.395-0.062 1.65 0.567 3.306 1.886 4.967v0l1.729 2.179c1.323 1.667 2.793 2.655 4.41 2.964 1.617 0.309 3.235-0.179 4.854-1.464v0c1.614-1.281 2.46-2.749 2.536-4.402 0.081-1.657-0.539-3.319-1.862-4.985v0l-1.729-2.179c-1.319-1.661-2.796-2.643-4.433-2.946-1.627-0.301-3.248 0.189-4.862 1.471zM115.646 17.437c0.944 3.985 0.406 7.325-1.616 10.018-2.017 2.685-5.345 4.578-9.987 5.677v0c-4.641 1.1-8.475 0.904-11.501-0.586-3.028-1.497-5.014-4.238-5.958-8.223v0l-4.132-17.437 9.376-2.222 4.101 17.311c0.389 1.642 1.14 2.845 2.254 3.61 1.107 0.766 2.494 0.951 4.163 0.556v0c1.668-0.395 2.83-1.192 3.485-2.389 0.654-1.204 0.79-2.611 0.409-4.22v0l-4.102-17.31 9.376-2.222zM150.286 34.938l-10.875-2.535-3.548-31.628 10.017 2.335 1.312 20.905 0.166 0.039 10.459-18.161 9.598 2.237zM197.516 64.748l-7.463-5.951 6.743-8.456c0.832-1.043 1.725-2.084 2.681-3.122 0.96-1.043 1.786-1.903 2.479-2.579 0.683-0.675 1.119-1.109 1.306-1.301v0l-0.133-0.106-16.996 12.439-5.898-4.703 8.273-19.331-0.133-0.106c-0.141 0.22-0.455 0.742-0.941 1.566-0.487 0.814-1.125 1.812-1.913 2.992-0.789 1.171-1.599 2.278-2.431 3.322v0l-6.743 8.456-6.923-5.52 18.701-23.454 10.639 8.484-7.248 16.36 0.141 0.112 14.297-10.739 10.264 8.184zM215.922 103.017l-4.122-9.336 3.363-2.863-4.243-9.611-4.385 0.547-3.976-9.007 31.859-2.109 4.525 10.251zM228.922 78.926l-11.052 1.4 2.623 5.941 8.502-7.176zM24.172 195.154l-3.997-8.855 10.022-4.524c1.24-0.56 2.536-1.086 3.887-1.58 1.348-0.499 2.494-0.895 3.437-1.189 0.937-0.291 1.533-0.48 1.786-0.565v0l-0.074-0.164-21.158 3.371-3.158-6.994 16.46-13.656-0.074-0.164c-0.223 0.137-0.748 0.466-1.575 0.985-0.823 0.511-1.864 1.116-3.121 1.816-1.258 0.7-2.507 1.329-3.747 1.889v0l-10.022 4.525-3.706-8.208 27.814-12.557 5.694 12.612-14.152 11.45 0.074 0.164 17.932-3.078 5.492 12.165zM70.404 196.941c4.129 3.263 6.485 6.839 7.069 10.726 0.579 3.893-0.725 7.857-3.914 11.891v0c-3.189 4.035-6.744 6.22-10.665 6.556-3.917 0.331-7.94-1.136-12.07-4.399v0c-4.129-3.263-6.484-6.829-7.066-10.698-0.581-3.869 0.733-7.834 3.943-11.895v0c3.21-4.061 6.763-6.256 10.662-6.584 3.898-0.328 7.912 1.139 12.041 4.403zM65.869 202.679c-1.649-1.303-3.297-1.794-4.945-1.472-1.648 0.321-3.14 1.327-4.477 3.017v0l-1.761 2.229c-1.336 1.69-1.97 3.374-1.902 5.053 0.068 1.678 0.927 3.168 2.575 4.471v0c1.649 1.303 3.302 1.798 4.961 1.485 1.659-0.313 3.156-1.315 4.492-3.005v0l1.762-2.23c1.336-1.69 1.965-3.379 1.886-5.065-0.079-1.686-0.942-3.181-2.591-4.483zM116.29 234.74c-0.959 4.057-2.972 6.847-6.04 8.371-3.061 1.525-6.951 1.729-11.671 0.613v0c-4.719-1.116-8.116-3.042-10.189-5.78-2.074-2.738-2.631-6.136-1.673-10.194v0l4.194-17.741 9.542 2.255-4.163 17.615c-0.394 1.668-0.264 3.104 0.39 4.308 0.661 1.205 1.839 2.008 3.533 2.408v0c1.701 0.402 3.121 0.207 4.262-0.586 1.148-0.798 1.916-2.015 2.302-3.651v0l4.164-17.615 9.542 2.256zM155.589 240.877l-11.061 2.571-17.455-27.273 10.204-2.372 10.574 18.487 0.175-0.041 1.384-21.267 9.766-2.27zM212.084 206.57l-7.609 6.042-6.838-8.612c-0.846-1.066-1.673-2.193-2.482-3.382-0.813-1.185-1.478-2.199-1.993-3.042-0.512-0.837-0.84-1.369-0.985-1.595v0l-0.141 0.112 8.443 19.692-6.01 4.772-17.267-12.622-0.141 0.112c0.188 0.183 0.635 0.612 1.341 1.287 0.697 0.673 1.538 1.534 2.524 2.583 0.986 1.048 1.902 2.106 2.748 3.171v0l6.838 8.611-7.053 5.6-18.977-23.899 10.837-8.605 14.563 10.923 0.141-0.112-7.369-16.635 10.453-8.3zM237.153 159.641l-4.217 9.48-4.455-0.569-4.343 9.764 3.407 2.928-4.075 9.16-23.358-22.577 4.632-10.413zM210.108 166.305l8.615 7.369 2.684-6.034-11.225-1.5zM3.627 126.624c0-6.438 5.219-11.658 11.657-11.658 6.438 0 11.658 5.219 11.658 11.658 0 6.438-5.219 11.658-11.658 11.657-6.438 0-11.658-5.219-11.657-11.657zM218.21 126.624c0-6.438 5.219-11.658 11.657-11.658 6.438 0 11.658 5.219 11.658 11.658 0 6.438-5.219 11.658-11.658 11.657-6.438 0-11.658-5.219-11.657-11.657z" fill="#000000" data-fill-palette-color="accent"></path></svg></g></svg></g></svg></g></svg><rect width="395.52" height="143.66825990964983" fill="none" stroke="none" visibility="hidden"></rect></g></svg></g></svg>